G04 #@! TF.FileFunction,Soldermask,Top*
%FSLAX46Y46*%
G04 Gerber Fmt 4.6, Leading zero omitted, Abs format (unit mm)*
G04 Created by KiCad (PCBNEW (2015-01-16 BZR 5376)-product) date 01-May-17 6:34:46 PM*
%MOMM*%
G01*
G04 APERTURE LIST*
%ADD10C,0.100000*%
%ADD11C,0.150000*%
%ADD12R,1.310000X1.620000*%
%ADD13R,1.150000X1.200000*%
%ADD14R,1.200000X1.150000*%
%ADD15R,1.395680X3.600000*%
%ADD16R,1.398220X3.600000*%
%ADD17R,1.898600X3.798520*%
%ADD18R,1.898600X3.795980*%
%ADD19R,2.432000X2.127200*%
%ADD20O,2.432000X2.127200*%
%ADD21R,1.300000X0.900000*%
%ADD22R,0.900000X1.300000*%
%ADD23C,2.900000*%
%ADD24R,1.197560X1.197560*%
%ADD25R,1.050000X1.460000*%
%ADD26R,1.200100X1.200100*%
%ADD27R,2.000000X1.400000*%
%ADD28R,0.800000X2.000000*%
%ADD29C,1.900000*%
%ADD30O,2.600000X2.900000*%
%ADD31R,2.400000X1.300000*%
%ADD32R,1.300000X2.400000*%
%ADD33R,6.400000X6.400000*%
%ADD34R,1.400760X1.400760*%
%ADD35R,1.800000X2.300000*%
%ADD36C,0.699720*%
G04 APERTURE END LIST*
D10*
D11*
X98806000Y-128143000D02*
X99060000Y-127889000D01*
X81407000Y-128143000D02*
X98806000Y-128143000D01*
X81153000Y-127889000D02*
X81407000Y-128143000D01*
X77343000Y-124714000D02*
X77343000Y-68580000D01*
X79248000Y-125984000D02*
X78613000Y-125984000D01*
X101473000Y-125984000D02*
X100965000Y-125984000D01*
X102743000Y-68580000D02*
X102743000Y-124714000D01*
X78613000Y-67310000D02*
X101473000Y-67310000D01*
X78613000Y-67310000D02*
G75*
G03X77343000Y-68580000I0J-1270000D01*
G01*
X102743000Y-68580000D02*
G75*
G03X101473000Y-67310000I-1270000J0D01*
G01*
X101473000Y-125984000D02*
G75*
G03X102743000Y-124714000I0J1270000D01*
G01*
X77343000Y-124714000D02*
G75*
G03X78613000Y-125984000I1270000J0D01*
G01*
X81153000Y-127889000D02*
X79248000Y-125984000D01*
X100965000Y-125984000D02*
X99060000Y-127889000D01*
D12*
X95056200Y-84074000D03*
X91786200Y-84074000D03*
D13*
X98704400Y-82487200D03*
X98704400Y-80987200D03*
D14*
X83133500Y-82931000D03*
X84633500Y-82931000D03*
D15*
X85963760Y-74803000D03*
D16*
X83962240Y-74803000D03*
D17*
X88308180Y-69054980D03*
D18*
X81615280Y-69054980D03*
D19*
X78622721Y-119577474D03*
D20*
X78622721Y-117037474D03*
X78622721Y-114497474D03*
X78622721Y-111957474D03*
X78622721Y-109417474D03*
X78622721Y-106877474D03*
X78622721Y-104337474D03*
X78622721Y-101797474D03*
X78622721Y-99257474D03*
X78622721Y-96717474D03*
X78622721Y-94177474D03*
X78622721Y-91637474D03*
X78622721Y-89097474D03*
X78622721Y-86557474D03*
X78622721Y-84017474D03*
X78622721Y-81477474D03*
X78622721Y-78937474D03*
X78622721Y-76397474D03*
X78622721Y-73857474D03*
D19*
X101482721Y-119577474D03*
D20*
X101482721Y-117037474D03*
X101482721Y-114497474D03*
X101482721Y-111957474D03*
X101482721Y-109417474D03*
X101482721Y-106877474D03*
X101482721Y-104337474D03*
X101482721Y-101797474D03*
X101482721Y-99257474D03*
X101482721Y-96717474D03*
X101482721Y-94177474D03*
X101482721Y-91637474D03*
X101482721Y-89097474D03*
X101482721Y-86557474D03*
X101482721Y-84017474D03*
X101482721Y-81477474D03*
X101482721Y-78937474D03*
X101482721Y-76397474D03*
X101482721Y-73857474D03*
D21*
X82232500Y-85713000D03*
X82232500Y-84213000D03*
D22*
X88023000Y-84709000D03*
X89523000Y-84709000D03*
D23*
X79248000Y-69850000D03*
X100901500Y-69850000D03*
X79232320Y-124098674D03*
X100923919Y-124098675D03*
D24*
X87871300Y-79311500D03*
X86372700Y-79311500D03*
X90068400Y-74434700D03*
X90068400Y-72936100D03*
X93240420Y-93313875D03*
X91741820Y-93313875D03*
D25*
X85024000Y-79291000D03*
X84074000Y-79291000D03*
X83124000Y-79291000D03*
X83124000Y-81491000D03*
X85024000Y-81491000D03*
D26*
X97348000Y-74660760D03*
X99248000Y-74660760D03*
X98298000Y-72661780D03*
D25*
X95625519Y-87997475D03*
X94675519Y-87997475D03*
X93725519Y-87997475D03*
X93725519Y-90197475D03*
X95625519Y-90197475D03*
D26*
X85394360Y-86471074D03*
X85394360Y-88371074D03*
X87393340Y-87421074D03*
X83941480Y-91469874D03*
X83941480Y-89569874D03*
X81942500Y-90519874D03*
D22*
X98540000Y-85547200D03*
X97040000Y-85547200D03*
D21*
X86423500Y-80720500D03*
X86423500Y-82220500D03*
X91881520Y-90379475D03*
X91881520Y-91879475D03*
X87884000Y-82220500D03*
X87884000Y-80720500D03*
D22*
X82444720Y-87979875D03*
X83944720Y-87979875D03*
D21*
X85531520Y-91269874D03*
X85531520Y-89769874D03*
D22*
X98067120Y-91891475D03*
X96567120Y-91891475D03*
X85292500Y-84709000D03*
X86792500Y-84709000D03*
D21*
X89027000Y-87070500D03*
X89027000Y-88570500D03*
X83855120Y-84893075D03*
X83855120Y-86393075D03*
X98552000Y-94500000D03*
X98552000Y-96000000D03*
D14*
X83197000Y-77787500D03*
X84697000Y-77787500D03*
X93569920Y-86303475D03*
X95069920Y-86303475D03*
X96684400Y-83921600D03*
X98184400Y-83921600D03*
X94917521Y-91739074D03*
X93417521Y-91739074D03*
D27*
X97672720Y-90343474D03*
X97672720Y-87343474D03*
D14*
X91842719Y-94990275D03*
X93342719Y-94990275D03*
D13*
X88427120Y-90379475D03*
X88427120Y-91879475D03*
X87157120Y-96349875D03*
X87157120Y-94849875D03*
D21*
X98425000Y-98667000D03*
X98425000Y-97167000D03*
X90154320Y-91879475D03*
X90154320Y-90379475D03*
D28*
X95534000Y-72236000D03*
X94884000Y-72236000D03*
X94234000Y-72236000D03*
X93584000Y-72236000D03*
X92934000Y-72236000D03*
D29*
X96659000Y-72136000D03*
D30*
X97859000Y-69486000D03*
D29*
X91809000Y-72136000D03*
D30*
X90609000Y-69486000D03*
D31*
X99052721Y-118375875D03*
X99052721Y-117105875D03*
X99052721Y-115835875D03*
X99052721Y-114565875D03*
X99052721Y-113295875D03*
X99052721Y-112025875D03*
X99052721Y-110755875D03*
X99052721Y-109485875D03*
X99052721Y-108215875D03*
X99052721Y-106945875D03*
X99052721Y-105675875D03*
X99052721Y-104405875D03*
X99052721Y-103135875D03*
X99052721Y-101865875D03*
X81052721Y-118375875D03*
X81052721Y-101865875D03*
X81052721Y-103135875D03*
X81052721Y-104405875D03*
X81052721Y-105675875D03*
X81052721Y-106945875D03*
X81052721Y-108215875D03*
X81052721Y-109485875D03*
X81052721Y-110755875D03*
X81052721Y-112025875D03*
X81052721Y-113295875D03*
X81052721Y-114565875D03*
X81052721Y-115835875D03*
X81052721Y-117105875D03*
D32*
X95767721Y-100375875D03*
X94482721Y-100375875D03*
X93227721Y-100375875D03*
X91957721Y-100375875D03*
X90687721Y-100375875D03*
X89417721Y-100375875D03*
X88147721Y-100375875D03*
X86877721Y-100375875D03*
X85607721Y-100375875D03*
X84337721Y-100375875D03*
D33*
X89752721Y-110675875D03*
D34*
X97048720Y-93044275D03*
X95248720Y-97444275D03*
X95248720Y-93044275D03*
X97048720Y-97444275D03*
X83107520Y-97444275D03*
X84907520Y-93044275D03*
X84907520Y-97444275D03*
X83107520Y-93044275D03*
D35*
X91760720Y-96920675D03*
X89239920Y-96920675D03*
D27*
X89747920Y-79167476D03*
X89747920Y-76167476D03*
D10*
G36*
X98162166Y-79717950D02*
X97715883Y-80164233D01*
X96725396Y-79173746D01*
X97171679Y-78727463D01*
X98162166Y-79717950D01*
X98162166Y-79717950D01*
G37*
G36*
X97808344Y-80071772D02*
X97362061Y-80518055D01*
X96371574Y-79527568D01*
X96817857Y-79081285D01*
X97808344Y-80071772D01*
X97808344Y-80071772D01*
G37*
G36*
X97454521Y-80425594D02*
X97008238Y-80871877D01*
X96017751Y-79881390D01*
X96464034Y-79435107D01*
X97454521Y-80425594D01*
X97454521Y-80425594D01*
G37*
G36*
X97100699Y-80779416D02*
X96654416Y-81225699D01*
X95663929Y-80235212D01*
X96110212Y-79788929D01*
X97100699Y-80779416D01*
X97100699Y-80779416D01*
G37*
G36*
X96746877Y-81133238D02*
X96300594Y-81579521D01*
X95310107Y-80589034D01*
X95756390Y-80142751D01*
X96746877Y-81133238D01*
X96746877Y-81133238D01*
G37*
G36*
X96393055Y-81487061D02*
X95946772Y-81933344D01*
X94956285Y-80942857D01*
X95402568Y-80496574D01*
X96393055Y-81487061D01*
X96393055Y-81487061D01*
G37*
G36*
X96039233Y-81840883D02*
X95592950Y-82287166D01*
X94602463Y-81296679D01*
X95048746Y-80850396D01*
X96039233Y-81840883D01*
X96039233Y-81840883D01*
G37*
G36*
X94627537Y-81296679D02*
X93637050Y-82287166D01*
X93190767Y-81840883D01*
X94181254Y-80850396D01*
X94627537Y-81296679D01*
X94627537Y-81296679D01*
G37*
G36*
X94273715Y-80942857D02*
X93283228Y-81933344D01*
X92836945Y-81487061D01*
X93827432Y-80496574D01*
X94273715Y-80942857D01*
X94273715Y-80942857D01*
G37*
G36*
X93919893Y-80589034D02*
X92929406Y-81579521D01*
X92483123Y-81133238D01*
X93473610Y-80142751D01*
X93919893Y-80589034D01*
X93919893Y-80589034D01*
G37*
G36*
X93566071Y-80235212D02*
X92575584Y-81225699D01*
X92129301Y-80779416D01*
X93119788Y-79788929D01*
X93566071Y-80235212D01*
X93566071Y-80235212D01*
G37*
G36*
X93212249Y-79881390D02*
X92221762Y-80871877D01*
X91775479Y-80425594D01*
X92765966Y-79435107D01*
X93212249Y-79881390D01*
X93212249Y-79881390D01*
G37*
G36*
X92858426Y-79527568D02*
X91867939Y-80518055D01*
X91421656Y-80071772D01*
X92412143Y-79081285D01*
X92858426Y-79527568D01*
X92858426Y-79527568D01*
G37*
G36*
X92504604Y-79173746D02*
X91514117Y-80164233D01*
X91067834Y-79717950D01*
X92058321Y-78727463D01*
X92504604Y-79173746D01*
X92504604Y-79173746D01*
G37*
G36*
X92504604Y-78306254D02*
X92058321Y-78752537D01*
X91067834Y-77762050D01*
X91514117Y-77315767D01*
X92504604Y-78306254D01*
X92504604Y-78306254D01*
G37*
G36*
X92858426Y-77952432D02*
X92412143Y-78398715D01*
X91421656Y-77408228D01*
X91867939Y-76961945D01*
X92858426Y-77952432D01*
X92858426Y-77952432D01*
G37*
G36*
X93212249Y-77598610D02*
X92765966Y-78044893D01*
X91775479Y-77054406D01*
X92221762Y-76608123D01*
X93212249Y-77598610D01*
X93212249Y-77598610D01*
G37*
G36*
X93566071Y-77244788D02*
X93119788Y-77691071D01*
X92129301Y-76700584D01*
X92575584Y-76254301D01*
X93566071Y-77244788D01*
X93566071Y-77244788D01*
G37*
G36*
X93919893Y-76890966D02*
X93473610Y-77337249D01*
X92483123Y-76346762D01*
X92929406Y-75900479D01*
X93919893Y-76890966D01*
X93919893Y-76890966D01*
G37*
G36*
X94273715Y-76537143D02*
X93827432Y-76983426D01*
X92836945Y-75992939D01*
X93283228Y-75546656D01*
X94273715Y-76537143D01*
X94273715Y-76537143D01*
G37*
G36*
X94627537Y-76183321D02*
X94181254Y-76629604D01*
X93190767Y-75639117D01*
X93637050Y-75192834D01*
X94627537Y-76183321D01*
X94627537Y-76183321D01*
G37*
G36*
X96039233Y-75639117D02*
X95048746Y-76629604D01*
X94602463Y-76183321D01*
X95592950Y-75192834D01*
X96039233Y-75639117D01*
X96039233Y-75639117D01*
G37*
G36*
X96393055Y-75992939D02*
X95402568Y-76983426D01*
X94956285Y-76537143D01*
X95946772Y-75546656D01*
X96393055Y-75992939D01*
X96393055Y-75992939D01*
G37*
G36*
X96746877Y-76346762D02*
X95756390Y-77337249D01*
X95310107Y-76890966D01*
X96300594Y-75900479D01*
X96746877Y-76346762D01*
X96746877Y-76346762D01*
G37*
G36*
X97100699Y-76700584D02*
X96110212Y-77691071D01*
X95663929Y-77244788D01*
X96654416Y-76254301D01*
X97100699Y-76700584D01*
X97100699Y-76700584D01*
G37*
G36*
X97454521Y-77054406D02*
X96464034Y-78044893D01*
X96017751Y-77598610D01*
X97008238Y-76608123D01*
X97454521Y-77054406D01*
X97454521Y-77054406D01*
G37*
G36*
X97808344Y-77408228D02*
X96817857Y-78398715D01*
X96371574Y-77952432D01*
X97362061Y-76961945D01*
X97808344Y-77408228D01*
X97808344Y-77408228D01*
G37*
G36*
X98162166Y-77762050D02*
X97171679Y-78752537D01*
X96725396Y-78306254D01*
X97715883Y-77315767D01*
X98162166Y-77762050D01*
X98162166Y-77762050D01*
G37*
G36*
X95959309Y-78740000D02*
X94615000Y-80084309D01*
X93270691Y-78740000D01*
X94615000Y-77395691D01*
X95959309Y-78740000D01*
X95959309Y-78740000D01*
G37*
D36*
X94615000Y-81922603D03*
M02*
