M48
;DRILL file {kicad (2015-01-16 BZR 5376)-product} date 01-May-17 6:34:49 PM
;FORMAT={-:-/ absolute / metric / decimal}
FMAT,2
METRIC,TZ
T1C0.300
T2C0.400
T3C0.710
T4C0.720
T5C1.016
%
G90
G05
M71
T1
X81.661Y-76.517
X81.661Y-81.28
X81.915Y-77.216
X81.915Y-78.041
X81.915Y-78.867
X82.067Y-82.017
X82.347Y-81.28
X85.344Y-78.041
X86.042Y-78.041
X86.042Y-83.502
X86.741Y-83.185
X86.804Y-78.041
X87.566Y-78.041
T2
X82.423Y-74.676
X82.677Y-76.644
X82.941Y-105.709
X82.941Y-109.468
X82.992Y-106.928
X82.992Y-108.198
X82.992Y-110.586
X83.042Y-112.059
X83.042Y-113.329
X83.042Y-114.548
X83.347Y-104.439
X83.5Y-84.017
X83.82Y-85.407
X83.906Y-103.169
X84.328Y-83.947
X84.414Y-98.597
X85.633Y-98.597
X85.852Y-77.153
X86.169Y-92.456
X86.903Y-98.597
X86.954Y-97.683
X87.566Y-83.058
X87.767Y-93.314
X87.767Y-105.861
X87.884Y-86.551
X87.97Y-97.784
X88.392Y-84.899
X89.189Y-95.346
X89.291Y-106.065
X89.344Y-77.724
X90.221Y-103.53
X90.233Y-81.407
X90.256Y-93.314
X90.487Y-87.63
X90.662Y-94.99
X90.742Y-80.645
X90.764Y-83.763
X90.868Y-86.932
X91.313Y-81.178
X91.526Y-98.546
X91.577Y-85.287
X91.948Y-85.979
X92.151Y-104.851
X92.202Y-88.9
X92.329Y-73.914
X92.39Y-98.597
X93.253Y-98.597
X93.964Y-107.081
X93.98Y-74.041
X94.132Y-82.601
X94.574Y-98.546
X94.726Y-107.538
X94.742Y-73.787
X94.828Y-109.417
X94.932Y-94.17
X95.047Y-82.601
X95.377Y-79.934
X95.707Y-74.676
X96.352Y-103.169
X96.352Y-104.388
X96.352Y-117.139
X96.393Y-78.816
X96.403Y-105.709
X96.403Y-106.928
X96.403Y-108.249
X96.454Y-109.468
X96.454Y-110.738
X96.504Y-112.008
X97.18Y-88.849
X97.841Y-75.844
X98.095Y-85.547
X98.704Y-77.851
X100.457Y-87.82
T3
X91.809Y-72.136
X96.659Y-72.136
T5
X78.623Y-73.857
X78.623Y-76.397
X78.623Y-78.937
X78.623Y-81.477
X78.623Y-84.017
X78.623Y-86.557
X78.623Y-89.097
X78.623Y-91.637
X78.623Y-94.177
X78.623Y-96.717
X78.623Y-99.257
X78.623Y-101.797
X78.623Y-104.337
X78.623Y-106.877
X78.623Y-109.417
X78.623Y-111.957
X78.623Y-114.497
X78.623Y-117.037
X78.623Y-119.577
X101.483Y-73.857
X101.483Y-76.397
X101.483Y-78.937
X101.483Y-81.477
X101.483Y-84.017
X101.483Y-86.557
X101.483Y-89.097
X101.483Y-91.637
X101.483Y-94.177
X101.483Y-96.717
X101.483Y-99.257
X101.483Y-101.797
X101.483Y-104.337
X101.483Y-106.877
X101.483Y-109.417
X101.483Y-111.957
X101.483Y-114.497
X101.483Y-117.037
X101.483Y-119.577
T4
X90.609Y-69.271G85X90.609Y-69.701
G05
X97.859Y-69.271G85X97.859Y-69.701
G05
T0
M30
