G04 #@! TF.FileFunction,Soldermask,Bot*
%FSLAX46Y46*%
G04 Gerber Fmt 4.6, Leading zero omitted, Abs format (unit mm)*
G04 Created by KiCad (PCBNEW (2015-01-16 BZR 5376)-product) date 01-May-17 6:34:46 PM*
%MOMM*%
G01*
G04 APERTURE LIST*
%ADD10C,0.100000*%
%ADD11C,0.150000*%
%ADD12R,2.432000X2.127200*%
%ADD13O,2.432000X2.127200*%
%ADD14C,2.900000*%
%ADD15C,1.900000*%
%ADD16O,2.600000X2.900000*%
G04 APERTURE END LIST*
D10*
D11*
X98806000Y-128143000D02*
X99060000Y-127889000D01*
X81407000Y-128143000D02*
X98806000Y-128143000D01*
X81153000Y-127889000D02*
X81407000Y-128143000D01*
X77343000Y-124714000D02*
X77343000Y-68580000D01*
X79248000Y-125984000D02*
X78613000Y-125984000D01*
X101473000Y-125984000D02*
X100965000Y-125984000D01*
X102743000Y-68580000D02*
X102743000Y-124714000D01*
X78613000Y-67310000D02*
X101473000Y-67310000D01*
X78613000Y-67310000D02*
G75*
G03X77343000Y-68580000I0J-1270000D01*
G01*
X102743000Y-68580000D02*
G75*
G03X101473000Y-67310000I-1270000J0D01*
G01*
X101473000Y-125984000D02*
G75*
G03X102743000Y-124714000I0J1270000D01*
G01*
X77343000Y-124714000D02*
G75*
G03X78613000Y-125984000I1270000J0D01*
G01*
X81153000Y-127889000D02*
X79248000Y-125984000D01*
X100965000Y-125984000D02*
X99060000Y-127889000D01*
D12*
X78622721Y-119577474D03*
D13*
X78622721Y-117037474D03*
X78622721Y-114497474D03*
X78622721Y-111957474D03*
X78622721Y-109417474D03*
X78622721Y-106877474D03*
X78622721Y-104337474D03*
X78622721Y-101797474D03*
X78622721Y-99257474D03*
X78622721Y-96717474D03*
X78622721Y-94177474D03*
X78622721Y-91637474D03*
X78622721Y-89097474D03*
X78622721Y-86557474D03*
X78622721Y-84017474D03*
X78622721Y-81477474D03*
X78622721Y-78937474D03*
X78622721Y-76397474D03*
X78622721Y-73857474D03*
D12*
X101482721Y-119577474D03*
D13*
X101482721Y-117037474D03*
X101482721Y-114497474D03*
X101482721Y-111957474D03*
X101482721Y-109417474D03*
X101482721Y-106877474D03*
X101482721Y-104337474D03*
X101482721Y-101797474D03*
X101482721Y-99257474D03*
X101482721Y-96717474D03*
X101482721Y-94177474D03*
X101482721Y-91637474D03*
X101482721Y-89097474D03*
X101482721Y-86557474D03*
X101482721Y-84017474D03*
X101482721Y-81477474D03*
X101482721Y-78937474D03*
X101482721Y-76397474D03*
X101482721Y-73857474D03*
D14*
X79248000Y-69850000D03*
X100901500Y-69850000D03*
X79232320Y-124098674D03*
X100923919Y-124098675D03*
D15*
X96659000Y-72136000D03*
D16*
X97859000Y-69486000D03*
D15*
X91809000Y-72136000D03*
D16*
X90609000Y-69486000D03*
M02*
