G04 #@! TF.FileFunction,Copper,L1,Top,Signal*
%FSLAX46Y46*%
G04 Gerber Fmt 4.6, Leading zero omitted, Abs format (unit mm)*
G04 Created by KiCad (PCBNEW (2015-01-16 BZR 5376)-product) date 01-May-17 6:34:46 PM*
%MOMM*%
G01*
G04 APERTURE LIST*
%ADD10C,0.100000*%
%ADD11C,0.150000*%
%ADD12R,0.910000X1.220000*%
%ADD13R,0.750000X0.800000*%
%ADD14R,0.800000X0.750000*%
%ADD15R,0.995680X3.200000*%
%ADD16R,0.998220X3.200000*%
%ADD17R,1.498600X3.398520*%
%ADD18R,1.498600X3.395980*%
%ADD19R,2.032000X1.727200*%
%ADD20O,2.032000X1.727200*%
%ADD21R,0.900000X0.500000*%
%ADD22R,0.500000X0.900000*%
%ADD23R,0.797560X0.797560*%
%ADD24R,0.650000X1.060000*%
%ADD25R,0.800100X0.800100*%
%ADD26R,1.600000X1.000000*%
%ADD27R,0.400000X1.600000*%
%ADD28C,1.500000*%
%ADD29O,2.200000X2.500000*%
%ADD30R,2.000000X0.900000*%
%ADD31R,0.900000X2.000000*%
%ADD32R,6.000000X6.000000*%
%ADD33R,1.000760X1.000760*%
%ADD34R,1.400000X1.900000*%
%ADD35C,0.299720*%
%ADD36C,0.600000*%
%ADD37C,0.250000*%
%ADD38C,0.800000*%
%ADD39C,0.635000*%
%ADD40C,0.400000*%
%ADD41C,0.200000*%
%ADD42C,0.300000*%
G04 APERTURE END LIST*
D10*
D11*
X98806000Y-128143000D02*
X99060000Y-127889000D01*
X81407000Y-128143000D02*
X98806000Y-128143000D01*
X81153000Y-127889000D02*
X81407000Y-128143000D01*
X77343000Y-124714000D02*
X77343000Y-68580000D01*
X79248000Y-125984000D02*
X78613000Y-125984000D01*
X101473000Y-125984000D02*
X100965000Y-125984000D01*
X102743000Y-68580000D02*
X102743000Y-124714000D01*
X78613000Y-67310000D02*
X101473000Y-67310000D01*
X78613000Y-67310000D02*
G75*
G03X77343000Y-68580000I0J-1270000D01*
G01*
X102743000Y-68580000D02*
G75*
G03X101473000Y-67310000I-1270000J0D01*
G01*
X101473000Y-125984000D02*
G75*
G03X102743000Y-124714000I0J1270000D01*
G01*
X77343000Y-124714000D02*
G75*
G03X78613000Y-125984000I1270000J0D01*
G01*
X81153000Y-127889000D02*
X79248000Y-125984000D01*
X100965000Y-125984000D02*
X99060000Y-127889000D01*
D12*
X95056200Y-84074000D03*
X91786200Y-84074000D03*
D13*
X98704400Y-82487200D03*
X98704400Y-80987200D03*
D14*
X83133500Y-82931000D03*
X84633500Y-82931000D03*
D15*
X85963760Y-74803000D03*
D16*
X83962240Y-74803000D03*
D17*
X88308180Y-69054980D03*
D18*
X81615280Y-69054980D03*
D19*
X78622721Y-119577474D03*
D20*
X78622721Y-117037474D03*
X78622721Y-114497474D03*
X78622721Y-111957474D03*
X78622721Y-109417474D03*
X78622721Y-106877474D03*
X78622721Y-104337474D03*
X78622721Y-101797474D03*
X78622721Y-99257474D03*
X78622721Y-96717474D03*
X78622721Y-94177474D03*
X78622721Y-91637474D03*
X78622721Y-89097474D03*
X78622721Y-86557474D03*
X78622721Y-84017474D03*
X78622721Y-81477474D03*
X78622721Y-78937474D03*
X78622721Y-76397474D03*
X78622721Y-73857474D03*
D19*
X101482721Y-119577474D03*
D20*
X101482721Y-117037474D03*
X101482721Y-114497474D03*
X101482721Y-111957474D03*
X101482721Y-109417474D03*
X101482721Y-106877474D03*
X101482721Y-104337474D03*
X101482721Y-101797474D03*
X101482721Y-99257474D03*
X101482721Y-96717474D03*
X101482721Y-94177474D03*
X101482721Y-91637474D03*
X101482721Y-89097474D03*
X101482721Y-86557474D03*
X101482721Y-84017474D03*
X101482721Y-81477474D03*
X101482721Y-78937474D03*
X101482721Y-76397474D03*
X101482721Y-73857474D03*
D21*
X82232500Y-85713000D03*
X82232500Y-84213000D03*
D22*
X88023000Y-84709000D03*
X89523000Y-84709000D03*
D23*
X87871300Y-79311500D03*
X86372700Y-79311500D03*
X90068400Y-74434700D03*
X90068400Y-72936100D03*
X93240420Y-93313875D03*
X91741820Y-93313875D03*
D24*
X85024000Y-79291000D03*
X84074000Y-79291000D03*
X83124000Y-79291000D03*
X83124000Y-81491000D03*
X85024000Y-81491000D03*
D25*
X97348000Y-74660760D03*
X99248000Y-74660760D03*
X98298000Y-72661780D03*
D24*
X95625519Y-87997475D03*
X94675519Y-87997475D03*
X93725519Y-87997475D03*
X93725519Y-90197475D03*
X95625519Y-90197475D03*
D25*
X85394360Y-86471074D03*
X85394360Y-88371074D03*
X87393340Y-87421074D03*
X83941480Y-91469874D03*
X83941480Y-89569874D03*
X81942500Y-90519874D03*
D22*
X98540000Y-85547200D03*
X97040000Y-85547200D03*
D21*
X86423500Y-80720500D03*
X86423500Y-82220500D03*
X91881520Y-90379475D03*
X91881520Y-91879475D03*
X87884000Y-82220500D03*
X87884000Y-80720500D03*
D22*
X82444720Y-87979875D03*
X83944720Y-87979875D03*
D21*
X85531520Y-91269874D03*
X85531520Y-89769874D03*
D22*
X98067120Y-91891475D03*
X96567120Y-91891475D03*
X85292500Y-84709000D03*
X86792500Y-84709000D03*
D21*
X89027000Y-87070500D03*
X89027000Y-88570500D03*
X83855120Y-84893075D03*
X83855120Y-86393075D03*
X98552000Y-94500000D03*
X98552000Y-96000000D03*
D14*
X83197000Y-77787500D03*
X84697000Y-77787500D03*
X93569920Y-86303475D03*
X95069920Y-86303475D03*
X96684400Y-83921600D03*
X98184400Y-83921600D03*
X94917521Y-91739074D03*
X93417521Y-91739074D03*
D26*
X97672720Y-90343474D03*
X97672720Y-87343474D03*
D14*
X91842719Y-94990275D03*
X93342719Y-94990275D03*
D13*
X88427120Y-90379475D03*
X88427120Y-91879475D03*
X87157120Y-96349875D03*
X87157120Y-94849875D03*
D21*
X98425000Y-98667000D03*
X98425000Y-97167000D03*
X90154320Y-91879475D03*
X90154320Y-90379475D03*
D27*
X95534000Y-72236000D03*
X94884000Y-72236000D03*
X94234000Y-72236000D03*
X93584000Y-72236000D03*
X92934000Y-72236000D03*
D28*
X96659000Y-72136000D03*
D29*
X97859000Y-69486000D03*
D28*
X91809000Y-72136000D03*
D29*
X90609000Y-69486000D03*
D30*
X99052721Y-118375875D03*
X99052721Y-117105875D03*
X99052721Y-115835875D03*
X99052721Y-114565875D03*
X99052721Y-113295875D03*
X99052721Y-112025875D03*
X99052721Y-110755875D03*
X99052721Y-109485875D03*
X99052721Y-108215875D03*
X99052721Y-106945875D03*
X99052721Y-105675875D03*
X99052721Y-104405875D03*
X99052721Y-103135875D03*
X99052721Y-101865875D03*
X81052721Y-118375875D03*
X81052721Y-101865875D03*
X81052721Y-103135875D03*
X81052721Y-104405875D03*
X81052721Y-105675875D03*
X81052721Y-106945875D03*
X81052721Y-108215875D03*
X81052721Y-109485875D03*
X81052721Y-110755875D03*
X81052721Y-112025875D03*
X81052721Y-113295875D03*
X81052721Y-114565875D03*
X81052721Y-115835875D03*
X81052721Y-117105875D03*
D31*
X95767721Y-100375875D03*
X94482721Y-100375875D03*
X93227721Y-100375875D03*
X91957721Y-100375875D03*
X90687721Y-100375875D03*
X89417721Y-100375875D03*
X88147721Y-100375875D03*
X86877721Y-100375875D03*
X85607721Y-100375875D03*
X84337721Y-100375875D03*
D32*
X89752721Y-110675875D03*
D33*
X97048720Y-93044275D03*
X95248720Y-97444275D03*
X95248720Y-93044275D03*
X97048720Y-97444275D03*
X83107520Y-97444275D03*
X84907520Y-93044275D03*
X84907520Y-97444275D03*
X83107520Y-93044275D03*
D34*
X91760720Y-96920675D03*
X89239920Y-96920675D03*
D26*
X89747920Y-79167476D03*
X89747920Y-76167476D03*
D10*
G36*
X97879323Y-79717950D02*
X97715883Y-79881390D01*
X97008239Y-79173746D01*
X97171679Y-79010306D01*
X97879323Y-79717950D01*
X97879323Y-79717950D01*
G37*
G36*
X97525501Y-80071772D02*
X97362061Y-80235212D01*
X96654417Y-79527568D01*
X96817857Y-79364128D01*
X97525501Y-80071772D01*
X97525501Y-80071772D01*
G37*
G36*
X97171678Y-80425594D02*
X97008238Y-80589034D01*
X96300594Y-79881390D01*
X96464034Y-79717950D01*
X97171678Y-80425594D01*
X97171678Y-80425594D01*
G37*
G36*
X96817856Y-80779416D02*
X96654416Y-80942856D01*
X95946772Y-80235212D01*
X96110212Y-80071772D01*
X96817856Y-80779416D01*
X96817856Y-80779416D01*
G37*
G36*
X96464034Y-81133238D02*
X96300594Y-81296678D01*
X95592950Y-80589034D01*
X95756390Y-80425594D01*
X96464034Y-81133238D01*
X96464034Y-81133238D01*
G37*
G36*
X96110212Y-81487061D02*
X95946772Y-81650501D01*
X95239128Y-80942857D01*
X95402568Y-80779417D01*
X96110212Y-81487061D01*
X96110212Y-81487061D01*
G37*
G36*
X95756390Y-81840883D02*
X95592950Y-82004323D01*
X94885306Y-81296679D01*
X95048746Y-81133239D01*
X95756390Y-81840883D01*
X95756390Y-81840883D01*
G37*
G36*
X94344694Y-81296679D02*
X93637050Y-82004323D01*
X93473610Y-81840883D01*
X94181254Y-81133239D01*
X94344694Y-81296679D01*
X94344694Y-81296679D01*
G37*
G36*
X93990872Y-80942857D02*
X93283228Y-81650501D01*
X93119788Y-81487061D01*
X93827432Y-80779417D01*
X93990872Y-80942857D01*
X93990872Y-80942857D01*
G37*
G36*
X93637050Y-80589034D02*
X92929406Y-81296678D01*
X92765966Y-81133238D01*
X93473610Y-80425594D01*
X93637050Y-80589034D01*
X93637050Y-80589034D01*
G37*
G36*
X93283228Y-80235212D02*
X92575584Y-80942856D01*
X92412144Y-80779416D01*
X93119788Y-80071772D01*
X93283228Y-80235212D01*
X93283228Y-80235212D01*
G37*
G36*
X92929406Y-79881390D02*
X92221762Y-80589034D01*
X92058322Y-80425594D01*
X92765966Y-79717950D01*
X92929406Y-79881390D01*
X92929406Y-79881390D01*
G37*
G36*
X92575583Y-79527568D02*
X91867939Y-80235212D01*
X91704499Y-80071772D01*
X92412143Y-79364128D01*
X92575583Y-79527568D01*
X92575583Y-79527568D01*
G37*
G36*
X92221761Y-79173746D02*
X91514117Y-79881390D01*
X91350677Y-79717950D01*
X92058321Y-79010306D01*
X92221761Y-79173746D01*
X92221761Y-79173746D01*
G37*
G36*
X92221761Y-78306254D02*
X92058321Y-78469694D01*
X91350677Y-77762050D01*
X91514117Y-77598610D01*
X92221761Y-78306254D01*
X92221761Y-78306254D01*
G37*
G36*
X92575583Y-77952432D02*
X92412143Y-78115872D01*
X91704499Y-77408228D01*
X91867939Y-77244788D01*
X92575583Y-77952432D01*
X92575583Y-77952432D01*
G37*
G36*
X92929406Y-77598610D02*
X92765966Y-77762050D01*
X92058322Y-77054406D01*
X92221762Y-76890966D01*
X92929406Y-77598610D01*
X92929406Y-77598610D01*
G37*
G36*
X93283228Y-77244788D02*
X93119788Y-77408228D01*
X92412144Y-76700584D01*
X92575584Y-76537144D01*
X93283228Y-77244788D01*
X93283228Y-77244788D01*
G37*
G36*
X93637050Y-76890966D02*
X93473610Y-77054406D01*
X92765966Y-76346762D01*
X92929406Y-76183322D01*
X93637050Y-76890966D01*
X93637050Y-76890966D01*
G37*
G36*
X93990872Y-76537143D02*
X93827432Y-76700583D01*
X93119788Y-75992939D01*
X93283228Y-75829499D01*
X93990872Y-76537143D01*
X93990872Y-76537143D01*
G37*
G36*
X94344694Y-76183321D02*
X94181254Y-76346761D01*
X93473610Y-75639117D01*
X93637050Y-75475677D01*
X94344694Y-76183321D01*
X94344694Y-76183321D01*
G37*
G36*
X95756390Y-75639117D02*
X95048746Y-76346761D01*
X94885306Y-76183321D01*
X95592950Y-75475677D01*
X95756390Y-75639117D01*
X95756390Y-75639117D01*
G37*
G36*
X96110212Y-75992939D02*
X95402568Y-76700583D01*
X95239128Y-76537143D01*
X95946772Y-75829499D01*
X96110212Y-75992939D01*
X96110212Y-75992939D01*
G37*
G36*
X96464034Y-76346762D02*
X95756390Y-77054406D01*
X95592950Y-76890966D01*
X96300594Y-76183322D01*
X96464034Y-76346762D01*
X96464034Y-76346762D01*
G37*
G36*
X96817856Y-76700584D02*
X96110212Y-77408228D01*
X95946772Y-77244788D01*
X96654416Y-76537144D01*
X96817856Y-76700584D01*
X96817856Y-76700584D01*
G37*
G36*
X97171678Y-77054406D02*
X96464034Y-77762050D01*
X96300594Y-77598610D01*
X97008238Y-76890966D01*
X97171678Y-77054406D01*
X97171678Y-77054406D01*
G37*
G36*
X97525501Y-77408228D02*
X96817857Y-78115872D01*
X96654417Y-77952432D01*
X97362061Y-77244788D01*
X97525501Y-77408228D01*
X97525501Y-77408228D01*
G37*
G36*
X97879323Y-77762050D02*
X97171679Y-78469694D01*
X97008239Y-78306254D01*
X97715883Y-77598610D01*
X97879323Y-77762050D01*
X97879323Y-77762050D01*
G37*
G36*
X95676466Y-78740000D02*
X94615000Y-79801466D01*
X93553534Y-78740000D01*
X94615000Y-77678534D01*
X95676466Y-78740000D01*
X95676466Y-78740000D01*
G37*
D35*
X94615000Y-81922603D03*
D36*
X82677000Y-76644500D03*
X85852000Y-77152500D03*
X81915000Y-78041500D03*
X81915000Y-78867000D03*
X81661000Y-76517500D03*
X81915000Y-77216000D03*
X91948000Y-85979000D03*
X92329000Y-73914000D03*
X92202000Y-88900000D03*
X82991520Y-110585875D03*
X90255920Y-93313875D03*
X82423000Y-74676000D03*
X87566500Y-78041500D03*
X86042500Y-78041500D03*
X85344000Y-78041500D03*
X86804500Y-78041500D03*
X86741000Y-83185000D03*
X86042500Y-83502500D03*
X95046800Y-82600800D03*
X97840800Y-75844400D03*
X98094800Y-85547200D03*
X95707200Y-74676000D03*
X94132400Y-82600800D03*
X91576720Y-85287475D03*
X98704400Y-77851000D03*
X90233500Y-81407000D03*
X82346800Y-81280000D03*
X81661000Y-81280000D03*
X87566500Y-83058000D03*
X82067400Y-82016600D03*
X86169500Y-92456000D03*
X93964320Y-107080674D03*
X87766720Y-93313875D03*
X96351920Y-117139075D03*
X83820000Y-85407500D03*
X87884000Y-86550500D03*
X94932500Y-94170500D03*
X83042320Y-114548276D03*
X84328000Y-83947000D03*
X89290720Y-106064675D03*
X87766720Y-105861475D03*
X83042320Y-113329074D03*
X88392000Y-84899500D03*
X94742000Y-73787000D03*
X96393000Y-78816200D03*
X93980000Y-74041000D03*
X95377000Y-79933800D03*
X90868500Y-86931500D03*
X89344500Y-77724000D03*
X97180400Y-88849200D03*
X100457000Y-87820500D03*
X94573921Y-98546276D03*
X90487500Y-87630000D03*
X96504320Y-112008275D03*
X96453520Y-110738275D03*
X94827920Y-109417475D03*
X94726319Y-107537875D03*
X90662320Y-94990275D03*
X96453520Y-109468275D03*
X89189119Y-95345875D03*
X96402720Y-108249074D03*
X96402720Y-106928275D03*
X96402720Y-105709075D03*
X96351920Y-104388275D03*
X96351920Y-103169075D03*
X83905920Y-103169075D03*
X83347119Y-104439075D03*
X82940720Y-105709075D03*
X82991520Y-106928275D03*
X90220800Y-103530400D03*
X92151200Y-104851200D03*
X82991520Y-108198276D03*
X82940720Y-109468274D03*
X83042320Y-112059075D03*
X93253120Y-98597075D03*
X92389520Y-98597075D03*
X91525920Y-98546275D03*
X87969921Y-97784274D03*
X86953920Y-97682676D03*
X86903120Y-98597075D03*
X85633120Y-98597076D03*
X84413922Y-98597075D03*
X90763921Y-83763475D03*
X91313000Y-81178400D03*
X83499520Y-84017476D03*
X90741500Y-80645000D03*
D37*
X98298000Y-72661780D02*
X98506280Y-72661780D01*
X89916000Y-71419075D02*
X88427122Y-71419075D01*
X88427122Y-71419075D02*
X87461922Y-72384275D01*
X87122000Y-72724197D02*
X87461922Y-72384275D01*
D38*
X85967000Y-74806240D02*
X85963760Y-74803000D01*
D37*
X96520000Y-70866000D02*
X97028000Y-70866000D01*
X98298000Y-72136000D02*
X98298000Y-72661780D01*
X97028000Y-70866000D02*
X98298000Y-72136000D01*
X89916000Y-71419075D02*
X90632925Y-71419075D01*
X91186000Y-70866000D02*
X96520000Y-70866000D01*
X96520000Y-70866000D02*
X96901000Y-70866000D01*
X90632925Y-71419075D02*
X91186000Y-70866000D01*
X89951121Y-71419075D02*
X89916000Y-71419075D01*
X85963760Y-73882437D02*
X87122000Y-72724197D01*
X85963760Y-74803000D02*
X85963760Y-73882437D01*
D39*
X83124000Y-77860500D02*
X83197000Y-77787500D01*
X83124000Y-78549500D02*
X83124000Y-77860500D01*
X83124000Y-79291000D02*
X83124000Y-78549500D01*
X83197000Y-77164500D02*
X82677000Y-76644500D01*
X85852000Y-77152500D02*
X85963760Y-77040740D01*
X85963760Y-77040740D02*
X85963760Y-74803000D01*
X83197000Y-77787500D02*
X83197000Y-77164500D01*
D40*
X82169000Y-77787500D02*
X81915000Y-78041500D01*
X83197000Y-77787500D02*
X82169000Y-77787500D01*
X82232500Y-78549500D02*
X81915000Y-78867000D01*
X83124000Y-78549500D02*
X82232500Y-78549500D01*
X81915000Y-76771500D02*
X81661000Y-76517500D01*
X83197000Y-77787500D02*
X82486500Y-77787500D01*
X82486500Y-77787500D02*
X81915000Y-77216000D01*
X81915000Y-77216000D02*
X81915000Y-76771500D01*
D37*
X96684400Y-84848000D02*
X96684400Y-83921600D01*
D40*
X91948000Y-73914000D02*
X91401900Y-73367900D01*
X92329000Y-73914000D02*
X91948000Y-73914000D01*
X92202000Y-86233000D02*
X91948000Y-85979000D01*
X92934000Y-72236000D02*
X92934000Y-73309000D01*
X92934000Y-73309000D02*
X92329000Y-73914000D01*
X92807000Y-73436000D02*
X92329000Y-73914000D01*
D37*
X101479974Y-86557474D02*
X101482721Y-86557474D01*
X90068400Y-72936100D02*
X90068400Y-73228200D01*
X90068400Y-73228200D02*
X90198965Y-73358765D01*
D40*
X91401900Y-73367900D02*
X90735930Y-73367900D01*
X90735930Y-73367900D02*
X90745065Y-73358765D01*
X90745065Y-73358765D02*
X90198965Y-73358765D01*
X92202000Y-88900000D02*
X92202000Y-86233000D01*
X92837000Y-89148275D02*
X92450275Y-89148275D01*
X92450275Y-89148275D02*
X92202000Y-88900000D01*
X94742000Y-89148275D02*
X92837000Y-89148275D01*
X92837000Y-89148275D02*
X92831275Y-89148275D01*
D41*
X95248720Y-97444275D02*
X93951775Y-97444275D01*
X93342719Y-96835219D02*
X93342719Y-94990275D01*
X93951775Y-97444275D02*
X93342719Y-96835219D01*
X95248720Y-97444275D02*
X95248720Y-97788720D01*
X95248720Y-97788720D02*
X95767721Y-98307721D01*
X95767721Y-98307721D02*
X95767721Y-100375875D01*
D37*
X87157120Y-94849875D02*
X85896375Y-94849875D01*
X84907520Y-93861020D02*
X84907520Y-93044275D01*
X85896375Y-94849875D02*
X84907520Y-93861020D01*
X97040000Y-85547200D02*
X97040000Y-85203600D01*
X97040000Y-85203600D02*
X96684400Y-84848000D01*
X97040000Y-85547200D02*
X97040000Y-86710754D01*
X97040000Y-86710754D02*
X97672720Y-87343474D01*
X95767720Y-100375876D02*
X95767721Y-101539480D01*
X89752721Y-107025075D02*
X89752720Y-110675875D01*
X90306720Y-106471074D02*
X89752721Y-107025075D01*
X90306720Y-104540675D02*
X90306720Y-106471074D01*
X91627520Y-103219874D02*
X90306720Y-104540675D01*
X94087324Y-103219875D02*
X91627520Y-103219874D01*
X95767721Y-101539480D02*
X94087324Y-103219875D01*
D40*
X88427120Y-91879475D02*
X88427120Y-92856675D01*
X88884321Y-93313875D02*
X90255920Y-93313875D01*
X88427120Y-92856675D02*
X88884321Y-93313875D01*
X93342720Y-94990275D02*
X93342720Y-94914774D01*
X93342720Y-94914774D02*
X91741820Y-93313875D01*
X101482721Y-86557474D02*
X99857120Y-86557474D01*
X99857120Y-86557474D02*
X99071120Y-87343474D01*
X99071120Y-87343474D02*
X97672720Y-87343474D01*
X82991520Y-110585875D02*
X83081520Y-110675875D01*
X83081520Y-110675875D02*
X89752720Y-110675875D01*
D41*
X90255920Y-93313875D02*
X91741820Y-93313875D01*
X97955190Y-87061004D02*
X97672720Y-87343474D01*
D37*
X88427120Y-91879475D02*
X88427120Y-93579874D01*
X88427120Y-93579874D02*
X87157119Y-94849875D01*
X97672720Y-87343474D02*
X97672720Y-87493315D01*
X97672720Y-87493315D02*
X96017764Y-89148276D01*
X96017764Y-89148276D02*
X94742000Y-89148275D01*
X94742000Y-89148275D02*
X94675519Y-89148275D01*
X94675521Y-87997476D02*
X94675519Y-89148275D01*
X93608720Y-91739075D02*
X93417520Y-91739075D01*
X95069920Y-86303475D02*
X95069920Y-86772674D01*
X94675520Y-87167076D02*
X94675521Y-87997476D01*
X95069920Y-86772674D02*
X94675520Y-87167076D01*
X93417520Y-91739075D02*
X93316620Y-91739075D01*
X93316620Y-91739075D02*
X91741820Y-93313875D01*
D42*
X87195920Y-94888675D02*
X87157119Y-94849875D01*
D38*
X89824120Y-117621674D02*
X89069920Y-118375874D01*
X88681120Y-118409076D02*
X88681120Y-118375874D01*
X88714320Y-118375874D02*
X88681120Y-118409076D01*
X89069920Y-118375874D02*
X88714320Y-118375874D01*
X90662320Y-118375874D02*
X90578320Y-118375874D01*
X90578320Y-118375874D02*
X89824120Y-117621674D01*
X89824120Y-117621674D02*
X89752720Y-117550275D01*
X89752720Y-110675875D02*
X89752720Y-117550275D01*
X89752720Y-117550275D02*
X89752721Y-118375874D01*
X89752721Y-118375874D02*
X89747920Y-118380675D01*
X89747920Y-118380675D02*
X89747921Y-118409075D01*
X89747921Y-118409075D02*
X89747921Y-118375874D01*
X81052721Y-118375874D02*
X81052720Y-118976275D01*
X80451520Y-119577475D02*
X78622721Y-119577474D01*
X81052720Y-118976275D02*
X80451520Y-119577475D01*
X99052720Y-118375874D02*
X90662320Y-118375874D01*
X90662320Y-118375874D02*
X89747921Y-118375874D01*
X89747921Y-118375874D02*
X88681120Y-118375874D01*
X88681120Y-118375874D02*
X81052721Y-118375874D01*
D37*
X98018600Y-82270600D02*
X97243900Y-82270600D01*
X98196400Y-82270600D02*
X98018600Y-82270600D01*
X97243900Y-82270600D02*
X97040000Y-82474500D01*
X96684400Y-83921600D02*
X96684400Y-82830100D01*
X97040000Y-82474500D02*
X96684400Y-82830100D01*
X98413000Y-82487200D02*
X98196400Y-82270600D01*
X98704400Y-82487200D02*
X98413000Y-82487200D01*
D41*
X97434400Y-82270600D02*
X98018600Y-82270600D01*
X96028492Y-80864692D02*
X97434400Y-82270600D01*
X96028492Y-80861136D02*
X96028492Y-80864692D01*
D40*
X83962240Y-75740260D02*
X83962240Y-74803000D01*
X83629500Y-74803000D02*
X83962240Y-74803000D01*
D39*
X84074000Y-82371500D02*
X84633500Y-82931000D01*
X84074000Y-79291000D02*
X84074000Y-82371500D01*
X86106000Y-82931000D02*
X86423500Y-82613500D01*
X86423500Y-82613500D02*
X86423500Y-82220500D01*
X84633500Y-82931000D02*
X86106000Y-82931000D01*
X84074000Y-78410500D02*
X84697000Y-77787500D01*
X84074000Y-79291000D02*
X84074000Y-78410500D01*
X83962240Y-76469240D02*
X83962240Y-74803000D01*
X84697000Y-77204000D02*
X83962240Y-76469240D01*
X84697000Y-77787500D02*
X84697000Y-77204000D01*
D40*
X82423000Y-74676000D02*
X82550000Y-74803000D01*
X82550000Y-74803000D02*
X83962240Y-74803000D01*
D37*
X84697000Y-77787500D02*
X85090000Y-77787500D01*
X86804500Y-78041500D02*
X86042500Y-78041500D01*
X85344000Y-78041500D02*
X85090000Y-77787500D01*
X86042500Y-78041500D02*
X85344000Y-78041500D01*
X87566500Y-78041500D02*
X86804500Y-78041500D01*
X86487000Y-82931000D02*
X86741000Y-83185000D01*
X86106000Y-82931000D02*
X86487000Y-82931000D01*
X86106000Y-83439000D02*
X86042500Y-83502500D01*
X86106000Y-82931000D02*
X86106000Y-83439000D01*
D40*
X99248000Y-74660760D02*
X99248000Y-74996000D01*
X99248000Y-74996000D02*
X98399600Y-75844400D01*
D37*
X95056200Y-82610200D02*
X95046800Y-82600800D01*
X95056200Y-84074000D02*
X95056200Y-82610200D01*
D40*
X98399600Y-75844400D02*
X97840800Y-75844400D01*
X101482721Y-73857474D02*
X100051286Y-73857474D01*
X100051286Y-73857474D02*
X99248000Y-74660760D01*
D37*
X99030164Y-74655036D02*
X99079920Y-74655036D01*
X95056200Y-84074000D02*
X95056200Y-84826600D01*
X94234000Y-85648800D02*
X94234000Y-85639394D01*
X95056200Y-84826600D02*
X94234000Y-85648800D01*
X95625520Y-87997475D02*
X95625520Y-87233075D01*
X95625520Y-87233075D02*
X96148720Y-86709875D01*
X96148720Y-86709875D02*
X96148720Y-86354274D01*
X94382720Y-85490674D02*
X94234000Y-85639394D01*
X94234000Y-85639394D02*
X93569920Y-86303474D01*
X96148720Y-86354274D02*
X96148721Y-85897075D01*
X96148721Y-85897075D02*
X95742320Y-85490675D01*
X95742320Y-85490675D02*
X94382720Y-85490674D01*
X93725520Y-87997476D02*
X93725519Y-86459075D01*
X93725519Y-86459075D02*
X93569920Y-86303474D01*
D40*
X95707200Y-74676000D02*
X97332760Y-74676000D01*
X97332760Y-74676000D02*
X97348000Y-74660760D01*
D42*
X98540000Y-85547200D02*
X98094800Y-85547200D01*
D41*
X97155000Y-74679956D02*
X97179920Y-74655036D01*
D37*
X91786200Y-84074000D02*
X93268800Y-84074000D01*
X95728164Y-74655036D02*
X97179920Y-74655036D01*
X95707200Y-74676000D02*
X95728164Y-74655036D01*
X94132400Y-83210400D02*
X94132400Y-82600800D01*
X93268800Y-84074000D02*
X94132400Y-83210400D01*
X91576720Y-85287475D02*
X91576720Y-84283480D01*
X91576720Y-84283480D02*
X91786200Y-84074000D01*
X98540000Y-84277200D02*
X98184400Y-83921600D01*
X98540000Y-85547200D02*
X98540000Y-84277200D01*
X98184400Y-83921600D02*
X98184400Y-83706400D01*
D41*
X97815400Y-78405771D02*
X97443781Y-78034152D01*
X97815400Y-78867000D02*
X97815400Y-78405771D01*
X97815400Y-79070200D02*
X97815400Y-78867000D01*
X97443781Y-79441819D02*
X97815400Y-79070200D01*
X97443781Y-79445848D02*
X97443781Y-79441819D01*
X97815400Y-78740000D02*
X98704400Y-77851000D01*
X97815400Y-78867000D02*
X97815400Y-78740000D01*
D42*
X89747920Y-79167476D02*
X89708476Y-79167476D01*
D41*
X89916000Y-79335556D02*
X89747920Y-79167476D01*
D37*
X89916000Y-80708500D02*
X89916000Y-79335556D01*
X89916000Y-81724500D02*
X89916000Y-80708500D01*
D40*
X88995250Y-82645250D02*
X89916000Y-81724500D01*
D37*
X88975500Y-82665000D02*
X88995250Y-82645250D01*
X90233500Y-81407000D02*
X89916000Y-81089500D01*
X89916000Y-81089500D02*
X89916000Y-80708500D01*
D40*
X83124000Y-82921500D02*
X83133500Y-82931000D01*
D39*
X83124000Y-81491000D02*
X83124000Y-82921500D01*
D40*
X88308750Y-82645250D02*
X87884000Y-82220500D01*
X88995250Y-82645250D02*
X88308750Y-82645250D01*
D37*
X83124000Y-81658500D02*
X83124000Y-81491000D01*
D40*
X82346800Y-81280000D02*
X82557800Y-81491000D01*
X82557800Y-81491000D02*
X83124000Y-81491000D01*
X82346800Y-81280000D02*
X81661000Y-81280000D01*
X87884000Y-82220500D02*
X87884000Y-82740500D01*
X87884000Y-82740500D02*
X87566500Y-83058000D01*
X82981800Y-82931000D02*
X82067400Y-82016600D01*
X83133500Y-82931000D02*
X82981800Y-82931000D01*
D42*
X97672720Y-90343474D02*
X97645974Y-90343474D01*
D11*
X88427120Y-90379475D02*
X86976025Y-90379475D01*
D41*
X86804500Y-91821000D02*
X86169500Y-92456000D01*
X86804500Y-90551000D02*
X86804500Y-91821000D01*
X86976025Y-90379475D02*
X86804500Y-90551000D01*
D37*
X88427120Y-90379475D02*
X87856320Y-90379474D01*
X95031120Y-117139075D02*
X96351920Y-117139075D01*
X94015120Y-116123075D02*
X95031120Y-117139075D01*
X94015120Y-107131474D02*
X94015120Y-116123075D01*
X93964320Y-107080674D02*
X94015120Y-107131474D01*
X87563522Y-93110675D02*
X87766720Y-93313875D01*
X87563520Y-90672274D02*
X87563522Y-93110675D01*
X87856320Y-90379474D02*
X87563520Y-90672274D01*
X90154320Y-90379475D02*
X88427120Y-90379475D01*
X98067120Y-91891475D02*
X98067120Y-90737875D01*
X98067120Y-90737875D02*
X97672721Y-90343476D01*
X94917520Y-91739074D02*
X94917520Y-91422275D01*
X94917520Y-91422275D02*
X94523120Y-91027875D01*
X90154320Y-90875475D02*
X90154320Y-90379475D01*
X90306720Y-91027875D02*
X90154320Y-90875475D01*
X94523120Y-91027875D02*
X90306720Y-91027875D01*
X95625520Y-90197475D02*
X97526720Y-90197475D01*
X97526720Y-90197475D02*
X97672721Y-90343476D01*
X94917520Y-91739074D02*
X95183520Y-91739076D01*
X95183520Y-91739076D02*
X95625521Y-91297076D01*
X95625521Y-91297076D02*
X95625520Y-90197475D01*
D41*
X96385121Y-117105875D02*
X99052720Y-117105875D01*
X96351920Y-117139075D02*
X96385121Y-117105875D01*
X83820000Y-85407500D02*
X83855120Y-85372380D01*
X83855120Y-85372380D02*
X83855120Y-84893075D01*
D37*
X94678500Y-106235500D02*
X95437520Y-106994520D01*
X94678500Y-104089200D02*
X94678500Y-106235500D01*
D41*
X87393340Y-87104660D02*
X87393340Y-87421074D01*
D37*
X96567120Y-91891475D02*
X96567120Y-92562675D01*
X96567120Y-92562675D02*
X97048720Y-93044275D01*
X98485520Y-100781475D02*
X97723520Y-100781476D01*
X99501520Y-99765475D02*
X98485520Y-100781475D01*
X99501520Y-94025075D02*
X99501520Y-99765475D01*
X98720720Y-93244275D02*
X99501520Y-94025075D01*
X97648720Y-93244274D02*
X98720720Y-93244275D01*
X97723520Y-100781476D02*
X97586800Y-100918196D01*
X95437520Y-106994520D02*
X95437520Y-114954675D01*
X95437520Y-114954675D02*
X96318720Y-115835875D01*
X96318720Y-115835875D02*
X99052720Y-115835875D01*
D41*
X97648720Y-93244274D02*
X97648720Y-93541075D01*
D37*
X97648720Y-93244274D02*
X96739520Y-93244275D01*
D41*
X87393340Y-87421074D02*
X87393341Y-87083255D01*
X101482720Y-117037475D02*
X101482720Y-116885075D01*
X101482720Y-116885075D02*
X100433520Y-115835875D01*
X100433520Y-115835875D02*
X99052720Y-115835875D01*
D37*
X94678500Y-104000300D02*
X96367600Y-102311200D01*
X96367600Y-102311200D02*
X97129600Y-102311200D01*
X97129600Y-102311200D02*
X97586800Y-101854000D01*
X97586800Y-101854000D02*
X97586800Y-100918196D01*
X94678500Y-104089200D02*
X94678500Y-104000300D01*
D41*
X97048720Y-94022780D02*
X96901000Y-94170500D01*
X96901000Y-94170500D02*
X94932500Y-94170500D01*
X97048720Y-93044275D02*
X97048720Y-94022780D01*
X87393340Y-87041160D02*
X87884000Y-86550500D01*
X87393340Y-87421074D02*
X87393340Y-87041160D01*
D37*
X81052720Y-114565875D02*
X83024720Y-114565875D01*
X83024720Y-114565875D02*
X83042320Y-114548276D01*
D41*
X84709000Y-83947000D02*
X84328000Y-83947000D01*
X85292500Y-84530500D02*
X84709000Y-83947000D01*
X85292500Y-84709000D02*
X85292500Y-84530500D01*
X89290720Y-106064675D02*
X89087520Y-105861475D01*
X89087520Y-105861475D02*
X87766720Y-105861475D01*
D37*
X81052720Y-113295876D02*
X83009120Y-113295874D01*
X83009120Y-113295874D02*
X83042320Y-113329074D01*
D41*
X88201500Y-84709000D02*
X88392000Y-84899500D01*
X88023000Y-84709000D02*
X88201500Y-84709000D01*
D37*
X95534000Y-72236000D02*
X95534000Y-73884000D01*
X95407000Y-74011000D02*
X94742000Y-74676000D01*
X95534000Y-73884000D02*
X95407000Y-74011000D01*
X94742000Y-74676000D02*
X94488000Y-74676000D01*
X93853000Y-74676000D02*
X94488000Y-74676000D01*
X89747920Y-76167476D02*
X92361524Y-76167476D01*
X92361524Y-76167476D02*
X93853000Y-74676000D01*
X94884000Y-72236000D02*
X94884000Y-73645000D01*
X94884000Y-73645000D02*
X94742000Y-73787000D01*
X94742000Y-73787000D02*
X94757000Y-73772000D01*
D41*
X96164400Y-79044800D02*
X96393000Y-78816200D01*
X96164400Y-79578200D02*
X96164400Y-79044800D01*
X96736136Y-80149936D02*
X96164400Y-79578200D01*
X96736136Y-80153492D02*
X96736136Y-80149936D01*
D37*
X93980000Y-73660000D02*
X94234000Y-73406000D01*
X94234000Y-73406000D02*
X94234000Y-72236000D01*
X93980000Y-74041000D02*
X93980000Y-73660000D01*
D41*
X95808800Y-79933800D02*
X95377000Y-79933800D01*
X96382314Y-80507314D02*
X95808800Y-79933800D01*
D42*
X87884000Y-79324200D02*
X87871300Y-79311500D01*
X87884000Y-80720500D02*
X87884000Y-79324200D01*
X86352200Y-79291000D02*
X86372700Y-79311500D01*
X85024000Y-79291000D02*
X86352200Y-79291000D01*
D41*
X91881520Y-90379475D02*
X91881520Y-89722520D01*
X91440000Y-89281000D02*
X91440000Y-87439500D01*
X91881520Y-89722520D02*
X91440000Y-89281000D01*
X91376500Y-87439500D02*
X90868500Y-86931500D01*
X91440000Y-87439500D02*
X91376500Y-87439500D01*
D37*
X88138000Y-76517500D02*
X88138000Y-76263500D01*
X89344500Y-77724000D02*
X88138000Y-76517500D01*
X88582500Y-74993500D02*
X89077800Y-74498200D01*
X88138000Y-76263500D02*
X88138000Y-75692000D01*
X88138000Y-75438000D02*
X88582500Y-74993500D01*
X88138000Y-75692000D02*
X88138000Y-75438000D01*
X89077800Y-74498200D02*
X90093800Y-74498200D01*
D41*
X93240420Y-93313875D02*
X93240420Y-93684920D01*
X93240420Y-93684920D02*
X93662500Y-94107000D01*
X93662500Y-94107000D02*
X93980000Y-94107000D01*
X93980000Y-94107000D02*
X95123000Y-95250000D01*
X95123000Y-95250000D02*
X97802000Y-95250000D01*
X97802000Y-95250000D02*
X98552000Y-94500000D01*
D42*
X85903500Y-80720500D02*
X86423500Y-80720500D01*
X85133000Y-81491000D02*
X85903500Y-80720500D01*
X85024000Y-81491000D02*
X85133000Y-81491000D01*
D41*
X98145600Y-88392000D02*
X97637600Y-88392000D01*
X97637600Y-88392000D02*
X97180400Y-88849200D01*
X99885500Y-88392000D02*
X100457000Y-87820500D01*
X98107500Y-88392000D02*
X98145600Y-88392000D01*
D40*
X94482720Y-100375875D02*
X94482720Y-98637476D01*
X94482720Y-98637476D02*
X94573921Y-98546276D01*
D41*
X98145600Y-88392000D02*
X99885500Y-88392000D01*
X89928000Y-87070500D02*
X90487500Y-87630000D01*
X89027000Y-87070500D02*
X89928000Y-87070500D01*
D40*
X101482720Y-114497476D02*
X99121120Y-114497474D01*
X99121120Y-114497474D02*
X99052720Y-114565875D01*
D41*
X99121120Y-114497474D02*
X99052720Y-114565875D01*
X101482721Y-111957475D02*
X101482720Y-112160676D01*
X101482720Y-112160676D02*
X100347520Y-113295874D01*
X100347520Y-113295874D02*
X99052720Y-113295876D01*
X99052720Y-112025875D02*
X96521920Y-112025876D01*
X96521920Y-112025876D02*
X96504320Y-112008275D01*
X96453520Y-110738275D02*
X96323775Y-110738275D01*
X99052720Y-110755875D02*
X96471121Y-110755876D01*
X96471121Y-110755876D02*
X96453520Y-110738275D01*
D37*
X94827919Y-107639475D02*
X94827920Y-109417475D01*
X94726319Y-107537875D02*
X94827919Y-107639475D01*
X91760720Y-96920675D02*
X91760721Y-95580674D01*
X91760721Y-95580674D02*
X91170320Y-94990274D01*
X91170320Y-94990274D02*
X90662320Y-94990275D01*
D40*
X91842720Y-94990275D02*
X91842720Y-96838675D01*
X91842720Y-96838675D02*
X91760720Y-96920675D01*
D41*
X99052720Y-109485875D02*
X96471120Y-109485875D01*
X96471120Y-109485875D02*
X96453520Y-109468275D01*
D37*
X89239920Y-96920674D02*
X89239919Y-95396675D01*
X89239919Y-95396675D02*
X89189119Y-95345875D01*
D42*
X89239920Y-96920674D02*
X87727920Y-96920676D01*
X87727920Y-96920676D02*
X87157120Y-96349876D01*
D41*
X89239920Y-96920674D02*
X89239920Y-97682675D01*
X99052720Y-108215874D02*
X96435921Y-108215874D01*
X96435921Y-108215874D02*
X96402720Y-108249074D01*
X99052720Y-106945876D02*
X96420320Y-106945875D01*
X96420320Y-106945875D02*
X96402720Y-106928275D01*
X99052720Y-105675875D02*
X96435920Y-105675875D01*
X96435920Y-105675875D02*
X96402720Y-105709075D01*
X99052720Y-104405875D02*
X96369520Y-104405875D01*
X96369520Y-104405875D02*
X96351920Y-104388275D01*
X99052720Y-103135875D02*
X96369520Y-103135875D01*
X96351920Y-103153475D02*
X96351920Y-103169075D01*
X96369520Y-103135875D02*
X96351920Y-103153475D01*
X101482721Y-89097474D02*
X101212026Y-89097474D01*
X101212026Y-89097474D02*
X99907921Y-90401579D01*
X99907921Y-90401579D02*
X99907921Y-90418275D01*
X99052720Y-101865874D02*
X99052720Y-101738275D01*
X99052720Y-101738275D02*
X99907920Y-100883074D01*
X99907920Y-100883074D02*
X99907920Y-91789875D01*
X99907920Y-91789875D02*
X99907921Y-90418275D01*
D37*
X83107520Y-97444275D02*
X81052720Y-97444275D01*
X81052720Y-97444275D02*
X81052720Y-97377875D01*
D40*
X83855120Y-86393075D02*
X78787120Y-86393075D01*
X78787120Y-86393075D02*
X78622721Y-86557474D01*
D41*
X81942501Y-90519874D02*
X81052720Y-90519876D01*
X81111920Y-90570674D02*
X81052720Y-90570676D01*
X81103520Y-90570676D02*
X81111920Y-90570674D01*
X81052720Y-90519876D02*
X81103520Y-90570676D01*
D37*
X81052721Y-101865874D02*
X81052720Y-97377875D01*
X81052720Y-97377875D02*
X81052720Y-90570676D01*
X81052720Y-90570676D02*
X81052721Y-87260275D01*
X80349920Y-86557475D02*
X78622721Y-86557474D01*
X81052721Y-87260275D02*
X80349920Y-86557475D01*
X81052720Y-103135875D02*
X83872720Y-103135875D01*
X83872720Y-103135875D02*
X83905920Y-103169075D01*
X81052721Y-104405875D02*
X83313919Y-104405875D01*
X83313919Y-104405875D02*
X83347119Y-104439075D01*
X81052720Y-105675875D02*
X82973920Y-105675875D01*
X82973920Y-105675875D02*
X82940720Y-105709075D01*
X81052720Y-106945874D02*
X82973920Y-106945874D01*
X82973920Y-106945874D02*
X82991520Y-106928275D01*
X92151200Y-104851200D02*
X92608400Y-104394000D01*
X92608400Y-104394000D02*
X93624400Y-104394000D01*
X93624400Y-104394000D02*
X96215200Y-101803200D01*
X96215200Y-101803200D02*
X96570800Y-101803200D01*
X96570800Y-101803200D02*
X97028000Y-101346000D01*
X97028000Y-101346000D02*
X97028000Y-100787200D01*
X97028000Y-100787200D02*
X98425000Y-99390200D01*
X98425000Y-99390200D02*
X98425000Y-98667000D01*
X82991520Y-106928275D02*
X84232125Y-106928275D01*
X87630000Y-103530400D02*
X90220800Y-103530400D01*
X84232125Y-106928275D02*
X87630000Y-103530400D01*
X81052720Y-108215875D02*
X82973920Y-108215875D01*
X82973920Y-108215875D02*
X82991520Y-108198276D01*
X81052720Y-109485875D02*
X83024720Y-109485875D01*
X83007120Y-109468275D02*
X82940720Y-109468274D01*
X83024720Y-109485875D02*
X83007120Y-109468275D01*
X81052720Y-112025875D02*
X83009120Y-112025875D01*
X83009120Y-112025875D02*
X83042320Y-112059075D01*
D38*
X81052720Y-115835875D02*
X79961120Y-115835875D01*
X79961120Y-115835875D02*
X78622720Y-114497476D01*
X81052720Y-117105876D02*
X78691120Y-117105875D01*
X78691120Y-117105875D02*
X78622720Y-117037475D01*
D41*
X93227720Y-100375875D02*
X93227720Y-98622475D01*
X93227720Y-98622475D02*
X93253120Y-98597075D01*
X91957720Y-100375876D02*
X91957720Y-99028875D01*
X91957720Y-99028875D02*
X92389520Y-98597075D01*
X90687719Y-99384475D02*
X91525920Y-98546275D01*
X90687721Y-100375876D02*
X90687719Y-99384475D01*
D37*
X89417720Y-100375876D02*
X89417720Y-99384474D01*
X89417720Y-99384474D02*
X87919121Y-97885874D01*
X87919121Y-97885874D02*
X87919121Y-97835074D01*
X87919121Y-97835074D02*
X87969921Y-97784274D01*
X88147720Y-100375875D02*
X88147720Y-98876476D01*
X88147720Y-98876476D02*
X86953920Y-97682676D01*
X86877720Y-100375875D02*
X86877720Y-98622475D01*
X86877720Y-98622475D02*
X86903120Y-98597075D01*
X85607720Y-100375876D02*
X85607720Y-98622476D01*
X85607720Y-98622476D02*
X85633120Y-98597076D01*
D42*
X80807120Y-83661873D02*
X78622721Y-81477474D01*
D37*
X80927844Y-85713000D02*
X80947520Y-85732676D01*
D42*
X80947520Y-85732676D02*
X80807120Y-85592275D01*
X80807120Y-85592275D02*
X80807120Y-83820000D01*
D37*
X82232500Y-85713000D02*
X80927844Y-85713000D01*
D42*
X80807120Y-83820000D02*
X80807120Y-83661873D01*
D37*
X84337721Y-100375876D02*
X84337721Y-98673276D01*
X84337721Y-98673276D02*
X84413922Y-98597075D01*
X79181520Y-84017476D02*
X78622720Y-84017475D01*
D41*
X85394360Y-86471076D02*
X85394360Y-86847035D01*
X85394360Y-86847035D02*
X85074320Y-87167075D01*
X85074320Y-87167075D02*
X83257520Y-87167075D01*
X83257520Y-87167075D02*
X82444720Y-87979875D01*
X89027000Y-88570500D02*
X85593786Y-88570500D01*
X85593786Y-88570500D02*
X85394360Y-88371074D01*
X85633161Y-88132276D02*
X85394360Y-88371075D01*
D11*
X85499160Y-88475875D02*
X85394360Y-88371075D01*
D41*
X85394360Y-88371075D02*
X85394360Y-89632715D01*
X85394360Y-89632715D02*
X85531520Y-89769876D01*
X91465400Y-81178400D02*
X91313000Y-81178400D01*
X92490308Y-80153492D02*
X91465400Y-81178400D01*
X92493864Y-80153492D02*
X92490308Y-80153492D01*
X87312500Y-85979000D02*
X89217500Y-85979000D01*
X86549828Y-86741672D02*
X87312500Y-85979000D01*
X86541124Y-87833873D02*
X86541123Y-86741672D01*
X85394360Y-88371075D02*
X86003920Y-88371075D01*
X86003920Y-88371075D02*
X86541124Y-87833873D01*
X86541123Y-86741672D02*
X86549828Y-86741672D01*
X90763921Y-85893079D02*
X90678000Y-85979000D01*
X90678000Y-85979000D02*
X89217500Y-85979000D01*
X90763921Y-83763475D02*
X90763921Y-85893079D01*
X83941481Y-91469876D02*
X85331520Y-91469876D01*
X85331520Y-91469876D02*
X85531520Y-91269874D01*
X83944719Y-87979875D02*
X84001122Y-87979875D01*
D37*
X85683920Y-87624275D02*
X86141120Y-87167075D01*
X86141120Y-87167075D02*
X86141120Y-86741000D01*
X84001122Y-87979875D02*
X84356722Y-87624274D01*
X84356722Y-87624274D02*
X85683920Y-87624275D01*
D41*
X83944719Y-87979875D02*
X83944720Y-89566635D01*
X83944720Y-89566635D02*
X83941480Y-89569875D01*
X93909152Y-81568781D02*
X93909152Y-81579448D01*
X90500200Y-83108800D02*
X90170000Y-83439000D01*
X90170000Y-83439000D02*
X90170000Y-83947000D01*
X93909152Y-81579448D02*
X92379800Y-83108800D01*
X92379800Y-83108800D02*
X92151200Y-83108800D01*
X92151200Y-83108800D02*
X91643200Y-83108800D01*
X91643200Y-83108800D02*
X90500200Y-83108800D01*
X90170000Y-83947000D02*
X90170000Y-84010500D01*
X86141120Y-86642380D02*
X87185500Y-85598000D01*
X87185500Y-85598000D02*
X89027000Y-85598000D01*
X86141120Y-86741000D02*
X86141120Y-86642380D01*
X90043000Y-85598000D02*
X90413919Y-85227081D01*
X90413919Y-85227081D02*
X90413919Y-84254419D01*
X90413919Y-84254419D02*
X90170000Y-84010500D01*
X89027000Y-85598000D02*
X90043000Y-85598000D01*
X86792500Y-84403500D02*
X86792500Y-84709000D01*
X90424000Y-82169000D02*
X89154000Y-83439000D01*
X89154000Y-83439000D02*
X89154000Y-83502500D01*
X89154000Y-83502500D02*
X88836500Y-83820000D01*
X88836500Y-83820000D02*
X87376000Y-83820000D01*
X87376000Y-83820000D02*
X86792500Y-84403500D01*
X91789250Y-81565750D02*
X91186000Y-82169000D01*
X91186000Y-82169000D02*
X90678000Y-82169000D01*
X92847686Y-80507314D02*
X91789250Y-81565750D01*
X90678000Y-82169000D02*
X90424000Y-82169000D01*
D37*
X91881520Y-91879475D02*
X90154320Y-91879475D01*
D41*
X98552000Y-96000000D02*
X98552000Y-97040000D01*
X98552000Y-97040000D02*
X98425000Y-97167000D01*
X93201508Y-80864692D02*
X91631200Y-82435000D01*
X93201508Y-80861136D02*
X93201508Y-80864692D01*
X91516200Y-82550000D02*
X91631200Y-82435000D01*
X91376500Y-82550000D02*
X91516200Y-82550000D01*
X90564022Y-82550000D02*
X90144761Y-82969261D01*
X89523000Y-83591022D02*
X89523000Y-84709000D01*
X89523000Y-83591022D02*
X90144761Y-82969261D01*
X91376500Y-82550000D02*
X90564022Y-82550000D01*
X92140041Y-79799670D02*
X92132930Y-79799670D01*
D11*
X83284321Y-84232675D02*
X82178720Y-84232675D01*
X83499520Y-84017476D02*
X83284321Y-84232675D01*
D41*
X90817700Y-80568800D02*
X90741500Y-80645000D01*
X92132930Y-79799670D02*
X91363800Y-80568800D01*
X91363800Y-80568800D02*
X90817700Y-80568800D01*
X98284600Y-80987200D02*
X98704400Y-80987200D01*
X97097070Y-79799670D02*
X98284600Y-80987200D01*
X97089959Y-79799670D02*
X97097070Y-79799670D01*
G36*
X83466000Y-76939922D02*
X83466000Y-77312500D01*
X83227000Y-77312500D01*
X83202000Y-77337500D01*
X83202000Y-77782500D01*
X83222000Y-77782500D01*
X83222000Y-77792500D01*
X83202000Y-77792500D01*
X83202000Y-78237500D01*
X83227000Y-78262500D01*
X83466000Y-78262500D01*
X83466000Y-78661000D01*
X83154000Y-78661000D01*
X83129000Y-78686000D01*
X83129000Y-79286000D01*
X83149000Y-79286000D01*
X83149000Y-79296000D01*
X83129000Y-79296000D01*
X83129000Y-79316000D01*
X83119000Y-79316000D01*
X83119000Y-79296000D01*
X82724000Y-79296000D01*
X82699000Y-79321000D01*
X82699000Y-79840891D01*
X82701323Y-79846500D01*
X80110000Y-79846500D01*
X80110000Y-78741109D01*
X82699000Y-78741109D01*
X82699000Y-79261000D01*
X82724000Y-79286000D01*
X83119000Y-79286000D01*
X83119000Y-78686000D01*
X83094000Y-78661000D01*
X82779109Y-78661000D01*
X82742354Y-78676224D01*
X82714224Y-78704355D01*
X82699000Y-78741109D01*
X80110000Y-78741109D01*
X80110000Y-77817500D01*
X82697000Y-77817500D01*
X82697000Y-78182391D01*
X82712224Y-78219146D01*
X82740355Y-78247276D01*
X82777109Y-78262500D01*
X83167000Y-78262500D01*
X83192000Y-78237500D01*
X83192000Y-77792500D01*
X82722000Y-77792500D01*
X82697000Y-77817500D01*
X80110000Y-77817500D01*
X80110000Y-77392609D01*
X82697000Y-77392609D01*
X82697000Y-77757500D01*
X82722000Y-77782500D01*
X83192000Y-77782500D01*
X83192000Y-77337500D01*
X83167000Y-77312500D01*
X82777109Y-77312500D01*
X82740355Y-77327724D01*
X82712224Y-77355854D01*
X82697000Y-77392609D01*
X80110000Y-77392609D01*
X80110000Y-76046000D01*
X82572078Y-76046000D01*
X83466000Y-76939922D01*
X83466000Y-76939922D01*
G37*
X83466000Y-76939922D02*
X83466000Y-77312500D01*
X83227000Y-77312500D01*
X83202000Y-77337500D01*
X83202000Y-77782500D01*
X83222000Y-77782500D01*
X83222000Y-77792500D01*
X83202000Y-77792500D01*
X83202000Y-78237500D01*
X83227000Y-78262500D01*
X83466000Y-78262500D01*
X83466000Y-78661000D01*
X83154000Y-78661000D01*
X83129000Y-78686000D01*
X83129000Y-79286000D01*
X83149000Y-79286000D01*
X83149000Y-79296000D01*
X83129000Y-79296000D01*
X83129000Y-79316000D01*
X83119000Y-79316000D01*
X83119000Y-79296000D01*
X82724000Y-79296000D01*
X82699000Y-79321000D01*
X82699000Y-79840891D01*
X82701323Y-79846500D01*
X80110000Y-79846500D01*
X80110000Y-78741109D01*
X82699000Y-78741109D01*
X82699000Y-79261000D01*
X82724000Y-79286000D01*
X83119000Y-79286000D01*
X83119000Y-78686000D01*
X83094000Y-78661000D01*
X82779109Y-78661000D01*
X82742354Y-78676224D01*
X82714224Y-78704355D01*
X82699000Y-78741109D01*
X80110000Y-78741109D01*
X80110000Y-77817500D01*
X82697000Y-77817500D01*
X82697000Y-78182391D01*
X82712224Y-78219146D01*
X82740355Y-78247276D01*
X82777109Y-78262500D01*
X83167000Y-78262500D01*
X83192000Y-78237500D01*
X83192000Y-77792500D01*
X82722000Y-77792500D01*
X82697000Y-77817500D01*
X80110000Y-77817500D01*
X80110000Y-77392609D01*
X82697000Y-77392609D01*
X82697000Y-77757500D01*
X82722000Y-77782500D01*
X83192000Y-77782500D01*
X83192000Y-77337500D01*
X83167000Y-77312500D01*
X82777109Y-77312500D01*
X82740355Y-77327724D01*
X82712224Y-77355854D01*
X82697000Y-77392609D01*
X80110000Y-77392609D01*
X80110000Y-76046000D01*
X82572078Y-76046000D01*
X83466000Y-76939922D01*
G36*
X82699000Y-80941109D02*
X82699000Y-81461000D01*
X82724000Y-81486000D01*
X83119000Y-81486000D01*
X83119000Y-81466000D01*
X83129000Y-81466000D01*
X83129000Y-81486000D01*
X83149000Y-81486000D01*
X83149000Y-81496000D01*
X83129000Y-81496000D01*
X83129000Y-82096000D01*
X83154000Y-82121000D01*
X83466000Y-82121000D01*
X83466000Y-82456000D01*
X83163500Y-82456000D01*
X83138500Y-82481000D01*
X83138500Y-82926000D01*
X83158500Y-82926000D01*
X83158500Y-82936000D01*
X83138500Y-82936000D01*
X83138500Y-83381000D01*
X83163500Y-83406000D01*
X83466000Y-83406000D01*
X83466000Y-83467447D01*
X83390598Y-83467381D01*
X83240259Y-83529500D01*
X81180790Y-83529500D01*
X81176672Y-83508799D01*
X81117338Y-83420000D01*
X81089963Y-83379030D01*
X81089960Y-83379028D01*
X80671933Y-82961000D01*
X82633500Y-82961000D01*
X82633500Y-83325891D01*
X82648724Y-83362646D01*
X82676855Y-83390776D01*
X82713609Y-83406000D01*
X83103500Y-83406000D01*
X83128500Y-83381000D01*
X83128500Y-82936000D01*
X82658500Y-82936000D01*
X82633500Y-82961000D01*
X80671933Y-82961000D01*
X80247042Y-82536109D01*
X82633500Y-82536109D01*
X82633500Y-82901000D01*
X82658500Y-82926000D01*
X83128500Y-82926000D01*
X83128500Y-82481000D01*
X83103500Y-82456000D01*
X82713609Y-82456000D01*
X82676855Y-82471224D01*
X82648724Y-82499354D01*
X82633500Y-82536109D01*
X80247042Y-82536109D01*
X80237000Y-82526067D01*
X80237000Y-81521000D01*
X82699000Y-81521000D01*
X82699000Y-82040891D01*
X82714224Y-82077645D01*
X82742354Y-82105776D01*
X82779109Y-82121000D01*
X83094000Y-82121000D01*
X83119000Y-82096000D01*
X83119000Y-81496000D01*
X82724000Y-81496000D01*
X82699000Y-81521000D01*
X80237000Y-81521000D01*
X80237000Y-80935500D01*
X82701323Y-80935500D01*
X82699000Y-80941109D01*
X82699000Y-80941109D01*
G37*
X82699000Y-80941109D02*
X82699000Y-81461000D01*
X82724000Y-81486000D01*
X83119000Y-81486000D01*
X83119000Y-81466000D01*
X83129000Y-81466000D01*
X83129000Y-81486000D01*
X83149000Y-81486000D01*
X83149000Y-81496000D01*
X83129000Y-81496000D01*
X83129000Y-82096000D01*
X83154000Y-82121000D01*
X83466000Y-82121000D01*
X83466000Y-82456000D01*
X83163500Y-82456000D01*
X83138500Y-82481000D01*
X83138500Y-82926000D01*
X83158500Y-82926000D01*
X83158500Y-82936000D01*
X83138500Y-82936000D01*
X83138500Y-83381000D01*
X83163500Y-83406000D01*
X83466000Y-83406000D01*
X83466000Y-83467447D01*
X83390598Y-83467381D01*
X83240259Y-83529500D01*
X81180790Y-83529500D01*
X81176672Y-83508799D01*
X81117338Y-83420000D01*
X81089963Y-83379030D01*
X81089960Y-83379028D01*
X80671933Y-82961000D01*
X82633500Y-82961000D01*
X82633500Y-83325891D01*
X82648724Y-83362646D01*
X82676855Y-83390776D01*
X82713609Y-83406000D01*
X83103500Y-83406000D01*
X83128500Y-83381000D01*
X83128500Y-82936000D01*
X82658500Y-82936000D01*
X82633500Y-82961000D01*
X80671933Y-82961000D01*
X80247042Y-82536109D01*
X82633500Y-82536109D01*
X82633500Y-82901000D01*
X82658500Y-82926000D01*
X83128500Y-82926000D01*
X83128500Y-82481000D01*
X83103500Y-82456000D01*
X82713609Y-82456000D01*
X82676855Y-82471224D01*
X82648724Y-82499354D01*
X82633500Y-82536109D01*
X80247042Y-82536109D01*
X80237000Y-82526067D01*
X80237000Y-81521000D01*
X82699000Y-81521000D01*
X82699000Y-82040891D01*
X82714224Y-82077645D01*
X82742354Y-82105776D01*
X82779109Y-82121000D01*
X83094000Y-82121000D01*
X83119000Y-82096000D01*
X83119000Y-81496000D01*
X82724000Y-81496000D01*
X82699000Y-81521000D01*
X80237000Y-81521000D01*
X80237000Y-80935500D01*
X82701323Y-80935500D01*
X82699000Y-80941109D01*
G36*
X87085500Y-82782179D02*
X87016596Y-82948118D01*
X87016405Y-83166922D01*
X87085500Y-83334145D01*
X87085500Y-83529500D01*
X84688368Y-83529500D01*
X84639957Y-83481005D01*
X84459325Y-83406000D01*
X84603500Y-83406000D01*
X84628500Y-83381000D01*
X84628500Y-82936000D01*
X84638500Y-82936000D01*
X84638500Y-83381000D01*
X84663500Y-83406000D01*
X85053391Y-83406000D01*
X85090145Y-83390776D01*
X85118276Y-83362646D01*
X85133500Y-83325891D01*
X85133500Y-82961000D01*
X85108500Y-82936000D01*
X84638500Y-82936000D01*
X84628500Y-82936000D01*
X84158500Y-82936000D01*
X84133500Y-82961000D01*
X84133500Y-83325891D01*
X84148724Y-83362646D01*
X84176855Y-83390776D01*
X84205348Y-83402578D01*
X84110500Y-83441768D01*
X84110500Y-82536109D01*
X84133500Y-82536109D01*
X84133500Y-82901000D01*
X84158500Y-82926000D01*
X84628500Y-82926000D01*
X84628500Y-82481000D01*
X84638500Y-82481000D01*
X84638500Y-82926000D01*
X85108500Y-82926000D01*
X85133500Y-82901000D01*
X85133500Y-82536109D01*
X85118276Y-82499354D01*
X85090145Y-82471224D01*
X85053391Y-82456000D01*
X84663500Y-82456000D01*
X84638500Y-82481000D01*
X84628500Y-82481000D01*
X84603500Y-82456000D01*
X84213609Y-82456000D01*
X84176855Y-82471224D01*
X84148724Y-82499354D01*
X84133500Y-82536109D01*
X84110500Y-82536109D01*
X84110500Y-82332500D01*
X85852000Y-82332500D01*
X85873500Y-82328146D01*
X85873500Y-82490391D01*
X85888724Y-82527145D01*
X85916854Y-82555276D01*
X85953609Y-82570500D01*
X86393500Y-82570500D01*
X86418500Y-82545500D01*
X86418500Y-82225500D01*
X86428500Y-82225500D01*
X86428500Y-82545500D01*
X86453500Y-82570500D01*
X86893391Y-82570500D01*
X86930146Y-82555276D01*
X86958276Y-82527145D01*
X86973500Y-82490391D01*
X86973500Y-82250500D01*
X86948500Y-82225500D01*
X86428500Y-82225500D01*
X86418500Y-82225500D01*
X86398500Y-82225500D01*
X86398500Y-82215500D01*
X86418500Y-82215500D01*
X86418500Y-81895500D01*
X86428500Y-81895500D01*
X86428500Y-82215500D01*
X86948500Y-82215500D01*
X86973500Y-82190500D01*
X86973500Y-81950609D01*
X86958276Y-81913855D01*
X86930146Y-81885724D01*
X86893391Y-81870500D01*
X86453500Y-81870500D01*
X86428500Y-81895500D01*
X86418500Y-81895500D01*
X86393500Y-81870500D01*
X85953609Y-81870500D01*
X85952000Y-81871166D01*
X85952000Y-81761000D01*
X87085500Y-81761000D01*
X87085500Y-82782179D01*
X87085500Y-82782179D01*
G37*
X87085500Y-82782179D02*
X87016596Y-82948118D01*
X87016405Y-83166922D01*
X87085500Y-83334145D01*
X87085500Y-83529500D01*
X84688368Y-83529500D01*
X84639957Y-83481005D01*
X84459325Y-83406000D01*
X84603500Y-83406000D01*
X84628500Y-83381000D01*
X84628500Y-82936000D01*
X84638500Y-82936000D01*
X84638500Y-83381000D01*
X84663500Y-83406000D01*
X85053391Y-83406000D01*
X85090145Y-83390776D01*
X85118276Y-83362646D01*
X85133500Y-83325891D01*
X85133500Y-82961000D01*
X85108500Y-82936000D01*
X84638500Y-82936000D01*
X84628500Y-82936000D01*
X84158500Y-82936000D01*
X84133500Y-82961000D01*
X84133500Y-83325891D01*
X84148724Y-83362646D01*
X84176855Y-83390776D01*
X84205348Y-83402578D01*
X84110500Y-83441768D01*
X84110500Y-82536109D01*
X84133500Y-82536109D01*
X84133500Y-82901000D01*
X84158500Y-82926000D01*
X84628500Y-82926000D01*
X84628500Y-82481000D01*
X84638500Y-82481000D01*
X84638500Y-82926000D01*
X85108500Y-82926000D01*
X85133500Y-82901000D01*
X85133500Y-82536109D01*
X85118276Y-82499354D01*
X85090145Y-82471224D01*
X85053391Y-82456000D01*
X84663500Y-82456000D01*
X84638500Y-82481000D01*
X84628500Y-82481000D01*
X84603500Y-82456000D01*
X84213609Y-82456000D01*
X84176855Y-82471224D01*
X84148724Y-82499354D01*
X84133500Y-82536109D01*
X84110500Y-82536109D01*
X84110500Y-82332500D01*
X85852000Y-82332500D01*
X85873500Y-82328146D01*
X85873500Y-82490391D01*
X85888724Y-82527145D01*
X85916854Y-82555276D01*
X85953609Y-82570500D01*
X86393500Y-82570500D01*
X86418500Y-82545500D01*
X86418500Y-82225500D01*
X86428500Y-82225500D01*
X86428500Y-82545500D01*
X86453500Y-82570500D01*
X86893391Y-82570500D01*
X86930146Y-82555276D01*
X86958276Y-82527145D01*
X86973500Y-82490391D01*
X86973500Y-82250500D01*
X86948500Y-82225500D01*
X86428500Y-82225500D01*
X86418500Y-82225500D01*
X86398500Y-82225500D01*
X86398500Y-82215500D01*
X86418500Y-82215500D01*
X86418500Y-81895500D01*
X86428500Y-81895500D01*
X86428500Y-82215500D01*
X86948500Y-82215500D01*
X86973500Y-82190500D01*
X86973500Y-81950609D01*
X86958276Y-81913855D01*
X86930146Y-81885724D01*
X86893391Y-81870500D01*
X86453500Y-81870500D01*
X86428500Y-81895500D01*
X86418500Y-81895500D01*
X86393500Y-81870500D01*
X85953609Y-81870500D01*
X85952000Y-81871166D01*
X85952000Y-81761000D01*
X87085500Y-81761000D01*
X87085500Y-82782179D01*
G36*
X83967240Y-76478000D02*
X83992240Y-76503000D01*
X84481241Y-76503000D01*
X84517995Y-76487776D01*
X84546126Y-76459646D01*
X84561350Y-76422891D01*
X84561350Y-76198400D01*
X84913800Y-76198400D01*
X84913800Y-77312500D01*
X84727000Y-77312500D01*
X84702000Y-77337500D01*
X84702000Y-77782500D01*
X85172000Y-77782500D01*
X85197000Y-77757500D01*
X85197000Y-77620800D01*
X85545594Y-77620800D01*
X85559913Y-77626746D01*
X85634827Y-77676802D01*
X85722422Y-77694226D01*
X85742118Y-77702404D01*
X85763633Y-77702423D01*
X85852000Y-77720000D01*
X85939595Y-77702576D01*
X85960922Y-77702595D01*
X85980806Y-77694379D01*
X86069173Y-77676802D01*
X86143432Y-77627183D01*
X86158881Y-77620800D01*
X86385400Y-77620800D01*
X86424306Y-77612921D01*
X86457081Y-77590527D01*
X86478561Y-77557146D01*
X86485400Y-77520800D01*
X86485400Y-77261897D01*
X86488062Y-77257913D01*
X86531260Y-77040740D01*
X86531260Y-76808000D01*
X87898170Y-76808000D01*
X88368200Y-77278030D01*
X88368200Y-78436800D01*
X84455000Y-78436800D01*
X84416094Y-78444679D01*
X84383319Y-78467073D01*
X84361839Y-78500454D01*
X84355000Y-78536800D01*
X84355000Y-78640000D01*
X83843800Y-78640000D01*
X83843800Y-78202485D01*
X83851897Y-78162500D01*
X83851897Y-77817500D01*
X84197000Y-77817500D01*
X84197000Y-78182391D01*
X84212224Y-78219146D01*
X84240355Y-78247276D01*
X84277109Y-78262500D01*
X84667000Y-78262500D01*
X84692000Y-78237500D01*
X84692000Y-77792500D01*
X84702000Y-77792500D01*
X84702000Y-78237500D01*
X84727000Y-78262500D01*
X85116891Y-78262500D01*
X85153645Y-78247276D01*
X85181776Y-78219146D01*
X85197000Y-78182391D01*
X85197000Y-77817500D01*
X85172000Y-77792500D01*
X84702000Y-77792500D01*
X84692000Y-77792500D01*
X84222000Y-77792500D01*
X84197000Y-77817500D01*
X83851897Y-77817500D01*
X83851897Y-77412500D01*
X83848155Y-77392609D01*
X84197000Y-77392609D01*
X84197000Y-77757500D01*
X84222000Y-77782500D01*
X84692000Y-77782500D01*
X84692000Y-77337500D01*
X84667000Y-77312500D01*
X84277109Y-77312500D01*
X84240355Y-77327724D01*
X84212224Y-77355854D01*
X84197000Y-77392609D01*
X83848155Y-77392609D01*
X83843800Y-77369468D01*
X83843800Y-76784200D01*
X83835921Y-76745294D01*
X83814511Y-76713489D01*
X83615200Y-76514178D01*
X83615200Y-76503000D01*
X83932240Y-76503000D01*
X83957240Y-76478000D01*
X83957240Y-76198400D01*
X83967240Y-76198400D01*
X83967240Y-76478000D01*
X83967240Y-76478000D01*
G37*
X83967240Y-76478000D02*
X83992240Y-76503000D01*
X84481241Y-76503000D01*
X84517995Y-76487776D01*
X84546126Y-76459646D01*
X84561350Y-76422891D01*
X84561350Y-76198400D01*
X84913800Y-76198400D01*
X84913800Y-77312500D01*
X84727000Y-77312500D01*
X84702000Y-77337500D01*
X84702000Y-77782500D01*
X85172000Y-77782500D01*
X85197000Y-77757500D01*
X85197000Y-77620800D01*
X85545594Y-77620800D01*
X85559913Y-77626746D01*
X85634827Y-77676802D01*
X85722422Y-77694226D01*
X85742118Y-77702404D01*
X85763633Y-77702423D01*
X85852000Y-77720000D01*
X85939595Y-77702576D01*
X85960922Y-77702595D01*
X85980806Y-77694379D01*
X86069173Y-77676802D01*
X86143432Y-77627183D01*
X86158881Y-77620800D01*
X86385400Y-77620800D01*
X86424306Y-77612921D01*
X86457081Y-77590527D01*
X86478561Y-77557146D01*
X86485400Y-77520800D01*
X86485400Y-77261897D01*
X86488062Y-77257913D01*
X86531260Y-77040740D01*
X86531260Y-76808000D01*
X87898170Y-76808000D01*
X88368200Y-77278030D01*
X88368200Y-78436800D01*
X84455000Y-78436800D01*
X84416094Y-78444679D01*
X84383319Y-78467073D01*
X84361839Y-78500454D01*
X84355000Y-78536800D01*
X84355000Y-78640000D01*
X83843800Y-78640000D01*
X83843800Y-78202485D01*
X83851897Y-78162500D01*
X83851897Y-77817500D01*
X84197000Y-77817500D01*
X84197000Y-78182391D01*
X84212224Y-78219146D01*
X84240355Y-78247276D01*
X84277109Y-78262500D01*
X84667000Y-78262500D01*
X84692000Y-78237500D01*
X84692000Y-77792500D01*
X84702000Y-77792500D01*
X84702000Y-78237500D01*
X84727000Y-78262500D01*
X85116891Y-78262500D01*
X85153645Y-78247276D01*
X85181776Y-78219146D01*
X85197000Y-78182391D01*
X85197000Y-77817500D01*
X85172000Y-77792500D01*
X84702000Y-77792500D01*
X84692000Y-77792500D01*
X84222000Y-77792500D01*
X84197000Y-77817500D01*
X83851897Y-77817500D01*
X83851897Y-77412500D01*
X83848155Y-77392609D01*
X84197000Y-77392609D01*
X84197000Y-77757500D01*
X84222000Y-77782500D01*
X84692000Y-77782500D01*
X84692000Y-77337500D01*
X84667000Y-77312500D01*
X84277109Y-77312500D01*
X84240355Y-77327724D01*
X84212224Y-77355854D01*
X84197000Y-77392609D01*
X83848155Y-77392609D01*
X83843800Y-77369468D01*
X83843800Y-76784200D01*
X83835921Y-76745294D01*
X83814511Y-76713489D01*
X83615200Y-76514178D01*
X83615200Y-76503000D01*
X83932240Y-76503000D01*
X83957240Y-76478000D01*
X83957240Y-76198400D01*
X83967240Y-76198400D01*
X83967240Y-76478000D01*
M02*
