G04 #@! TF.FileFunction,Legend,Top*
%FSLAX46Y46*%
G04 Gerber Fmt 4.6, Leading zero omitted, Abs format (unit mm)*
G04 Created by KiCad (PCBNEW (2015-01-16 BZR 5376)-product) date 01-May-17 6:34:46 PM*
%MOMM*%
G01*
G04 APERTURE LIST*
%ADD10C,0.100000*%
%ADD11C,0.254000*%
%ADD12C,0.127000*%
%ADD13C,0.150000*%
%ADD14C,0.200000*%
%ADD15C,0.125000*%
%ADD16C,0.175000*%
%ADD17C,0.250000*%
%ADD18C,0.285750*%
%ADD19C,0.381000*%
%ADD20C,0.120000*%
%ADD21C,0.050800*%
G04 APERTURE END LIST*
D10*
D11*
X90687071Y-93335929D02*
X90832214Y-93384310D01*
X90880595Y-93432690D01*
X90928976Y-93529452D01*
X90928976Y-93674595D01*
X90880595Y-93771357D01*
X90832214Y-93819738D01*
X90735452Y-93868119D01*
X90348405Y-93868119D01*
X90348405Y-92852119D01*
X90687071Y-92852119D01*
X90783833Y-92900500D01*
X90832214Y-92948881D01*
X90880595Y-93045643D01*
X90880595Y-93142405D01*
X90832214Y-93239167D01*
X90783833Y-93287548D01*
X90687071Y-93335929D01*
X90348405Y-93335929D01*
D12*
X90965867Y-75058210D02*
X90965867Y-74550210D01*
X91159391Y-74550210D01*
X91207772Y-74574400D01*
X91231963Y-74598590D01*
X91256153Y-74646971D01*
X91256153Y-74719543D01*
X91231963Y-74767924D01*
X91207772Y-74792114D01*
X91159391Y-74816305D01*
X90965867Y-74816305D01*
X91425486Y-74550210D02*
X91546439Y-75058210D01*
X91643201Y-74695352D01*
X91739963Y-75058210D01*
X91860915Y-74550210D01*
X92344724Y-75058210D02*
X92175391Y-74816305D01*
X92054438Y-75058210D02*
X92054438Y-74550210D01*
X92247962Y-74550210D01*
X92296343Y-74574400D01*
X92320534Y-74598590D01*
X92344724Y-74646971D01*
X92344724Y-74719543D01*
X92320534Y-74767924D01*
X92296343Y-74792114D01*
X92247962Y-74816305D01*
X92054438Y-74816305D01*
D13*
X83161514Y-75374500D02*
G75*
G03X83161514Y-75374500I-675014J0D01*
G01*
X88212952Y-75438000D02*
G75*
G03X88212952Y-75438000I-709952J0D01*
G01*
X98806000Y-128143000D02*
X99060000Y-127889000D01*
X81407000Y-128143000D02*
X98806000Y-128143000D01*
X81153000Y-127889000D02*
X81407000Y-128143000D01*
X77343000Y-124714000D02*
X77343000Y-68580000D01*
X79248000Y-125984000D02*
X78613000Y-125984000D01*
X101473000Y-125984000D02*
X100965000Y-125984000D01*
X102743000Y-68580000D02*
X102743000Y-124714000D01*
X78613000Y-67310000D02*
X101473000Y-67310000D01*
X78613000Y-67310000D02*
G75*
G03X77343000Y-68580000I0J-1270000D01*
G01*
X102743000Y-68580000D02*
G75*
G03X101473000Y-67310000I-1270000J0D01*
G01*
X101473000Y-125984000D02*
G75*
G03X102743000Y-124714000I0J1270000D01*
G01*
X77343000Y-124714000D02*
G75*
G03X78613000Y-125984000I1270000J0D01*
G01*
X81153000Y-127889000D02*
X79248000Y-125984000D01*
X100965000Y-125984000D02*
X99060000Y-127889000D01*
D14*
X82937486Y-98647257D02*
X83051772Y-98685352D01*
X83089867Y-98723448D01*
X83127962Y-98799638D01*
X83127962Y-98913924D01*
X83089867Y-98990114D01*
X83051772Y-99028210D01*
X82975581Y-99066305D01*
X82670819Y-99066305D01*
X82670819Y-98266305D01*
X82937486Y-98266305D01*
X83013676Y-98304400D01*
X83051772Y-98342495D01*
X83089867Y-98418686D01*
X83089867Y-98494876D01*
X83051772Y-98571067D01*
X83013676Y-98609162D01*
X82937486Y-98647257D01*
X82670819Y-98647257D01*
X83623200Y-98266305D02*
X83775581Y-98266305D01*
X83851772Y-98304400D01*
X83927962Y-98380590D01*
X83966057Y-98532971D01*
X83966057Y-98799638D01*
X83927962Y-98952019D01*
X83851772Y-99028210D01*
X83775581Y-99066305D01*
X83623200Y-99066305D01*
X83547010Y-99028210D01*
X83470819Y-98952019D01*
X83432724Y-98799638D01*
X83432724Y-98532971D01*
X83470819Y-98380590D01*
X83547010Y-98304400D01*
X83623200Y-98266305D01*
X84461295Y-98266305D02*
X84613676Y-98266305D01*
X84689867Y-98304400D01*
X84766057Y-98380590D01*
X84804152Y-98532971D01*
X84804152Y-98799638D01*
X84766057Y-98952019D01*
X84689867Y-99028210D01*
X84613676Y-99066305D01*
X84461295Y-99066305D01*
X84385105Y-99028210D01*
X84308914Y-98952019D01*
X84270819Y-98799638D01*
X84270819Y-98532971D01*
X84308914Y-98380590D01*
X84385105Y-98304400D01*
X84461295Y-98266305D01*
X85032723Y-98266305D02*
X85489866Y-98266305D01*
X85261295Y-99066305D02*
X85261295Y-98266305D01*
X95726305Y-99066305D02*
X95459638Y-98685352D01*
X95269162Y-99066305D02*
X95269162Y-98266305D01*
X95573924Y-98266305D01*
X95650115Y-98304400D01*
X95688210Y-98342495D01*
X95726305Y-98418686D01*
X95726305Y-98532971D01*
X95688210Y-98609162D01*
X95650115Y-98647257D01*
X95573924Y-98685352D01*
X95269162Y-98685352D01*
X96031067Y-99028210D02*
X96145353Y-99066305D01*
X96335829Y-99066305D01*
X96412019Y-99028210D01*
X96450115Y-98990114D01*
X96488210Y-98913924D01*
X96488210Y-98837733D01*
X96450115Y-98761543D01*
X96412019Y-98723448D01*
X96335829Y-98685352D01*
X96183448Y-98647257D01*
X96107257Y-98609162D01*
X96069162Y-98571067D01*
X96031067Y-98494876D01*
X96031067Y-98418686D01*
X96069162Y-98342495D01*
X96107257Y-98304400D01*
X96183448Y-98266305D01*
X96373924Y-98266305D01*
X96488210Y-98304400D01*
X96716781Y-98266305D02*
X97173924Y-98266305D01*
X96945353Y-99066305D02*
X96945353Y-98266305D01*
D15*
X79326755Y-115467890D02*
X79360012Y-115462623D01*
X79412532Y-115471350D01*
X79508843Y-115541324D01*
X79533373Y-115588577D01*
X79538640Y-115621834D01*
X79529912Y-115674354D01*
X79501922Y-115712878D01*
X79440676Y-115756670D01*
X79041590Y-115819879D01*
X79292000Y-116001812D01*
X79720729Y-115695268D02*
X79971138Y-115877201D01*
X79724343Y-115933336D01*
X79782129Y-115975321D01*
X79806659Y-116022572D01*
X79811927Y-116055830D01*
X79803199Y-116108349D01*
X79733225Y-116204660D01*
X79685973Y-116229190D01*
X79652715Y-116234458D01*
X79600196Y-116225730D01*
X79484623Y-116141761D01*
X79460093Y-116094509D01*
X79454826Y-116061252D01*
X79377555Y-112978690D02*
X79410812Y-112973423D01*
X79463332Y-112982150D01*
X79559643Y-113052124D01*
X79584173Y-113099377D01*
X79589440Y-113132634D01*
X79580712Y-113185154D01*
X79552722Y-113223678D01*
X79491476Y-113267470D01*
X79092390Y-113330679D01*
X79342800Y-113512612D01*
X79762800Y-113258588D02*
X79796058Y-113253320D01*
X79848578Y-113262047D01*
X79944889Y-113332022D01*
X79969418Y-113379274D01*
X79974686Y-113412532D01*
X79965958Y-113465051D01*
X79937968Y-113503576D01*
X79876722Y-113547367D01*
X79477636Y-113610576D01*
X79728045Y-113792510D01*
X79484623Y-111112561D02*
X79253475Y-110944622D01*
X79369049Y-111028592D02*
X79662941Y-110624083D01*
X79582432Y-110653881D01*
X79515918Y-110664415D01*
X79463398Y-110655688D01*
X79528106Y-107986119D02*
X79778515Y-108168052D01*
X79531720Y-108224188D01*
X79589506Y-108266172D01*
X79614036Y-108313424D01*
X79619304Y-108346681D01*
X79610576Y-108399201D01*
X79540602Y-108495512D01*
X79493350Y-108520042D01*
X79460093Y-108525309D01*
X79407573Y-108516581D01*
X79292000Y-108432612D01*
X79267470Y-108385360D01*
X79262203Y-108352103D01*
X79326755Y-105307890D02*
X79360012Y-105302623D01*
X79412532Y-105311350D01*
X79508843Y-105381324D01*
X79533373Y-105428577D01*
X79538640Y-105461834D01*
X79529912Y-105514354D01*
X79501922Y-105552878D01*
X79440676Y-105596670D01*
X79041590Y-105659879D01*
X79292000Y-105841812D01*
X79677245Y-106121710D02*
X79446098Y-105953771D01*
X79561672Y-106037740D02*
X79855564Y-105633232D01*
X79775055Y-105663029D01*
X79708541Y-105673564D01*
X79656021Y-105664837D01*
X79292000Y-100812612D02*
X79060852Y-100644674D01*
X79176426Y-100728643D02*
X79470319Y-100324134D01*
X79389809Y-100353932D01*
X79323295Y-100364467D01*
X79270775Y-100355740D01*
X79484623Y-100952561D02*
X79561672Y-101008540D01*
X79614191Y-101017268D01*
X79647449Y-101012001D01*
X79727958Y-100982204D01*
X79803199Y-100919149D01*
X79915158Y-100765051D01*
X79923886Y-100712532D01*
X79918618Y-100679274D01*
X79894089Y-100632022D01*
X79817040Y-100576042D01*
X79764520Y-100567315D01*
X79731263Y-100572583D01*
X79684011Y-100597113D01*
X79614036Y-100693424D01*
X79605309Y-100745943D01*
X79610576Y-100779201D01*
X79635106Y-100826452D01*
X79712155Y-100882432D01*
X79764674Y-100891160D01*
X79797932Y-100885892D01*
X79845184Y-100861362D01*
X79754889Y-103100317D02*
X79730359Y-103053065D01*
X79672573Y-103011081D01*
X79600790Y-102988358D01*
X79534276Y-102998893D01*
X79487024Y-103023423D01*
X79411782Y-103086477D01*
X79369797Y-103144265D01*
X79333081Y-103235309D01*
X79324353Y-103287828D01*
X79334888Y-103354342D01*
X79378680Y-103415589D01*
X79417205Y-103443579D01*
X79488986Y-103466301D01*
X79522244Y-103461034D01*
X79620208Y-103326198D01*
X79543158Y-103270219D01*
D16*
X78872533Y-120808000D02*
X78805867Y-120774667D01*
X78705867Y-120774667D01*
X78605867Y-120808000D01*
X78539200Y-120874667D01*
X78505867Y-120941333D01*
X78472533Y-121074667D01*
X78472533Y-121174667D01*
X78505867Y-121308000D01*
X78539200Y-121374667D01*
X78605867Y-121441333D01*
X78705867Y-121474667D01*
X78772533Y-121474667D01*
X78872533Y-121441333D01*
X78905867Y-121408000D01*
X78905867Y-121174667D01*
X78772533Y-121174667D01*
D15*
X100416843Y-116062827D02*
X100551678Y-115964863D01*
X100763409Y-116134763D02*
X100570786Y-116274712D01*
X100276893Y-115870203D01*
X100469516Y-115730255D01*
X100936770Y-116008809D02*
X100642877Y-115604301D01*
X101167917Y-115840871D01*
X100874025Y-115436362D01*
X100248000Y-113351196D02*
X100498409Y-113169263D01*
X100475533Y-113421325D01*
X100533320Y-113379341D01*
X100585839Y-113370613D01*
X100619097Y-113375881D01*
X100666348Y-113400411D01*
X100736322Y-113496722D01*
X100745050Y-113549241D01*
X100739783Y-113582499D01*
X100715253Y-113629751D01*
X100599679Y-113713720D01*
X100547160Y-113722448D01*
X100513903Y-113717180D01*
X100845131Y-112917355D02*
X100768081Y-112973334D01*
X100743552Y-113020587D01*
X100738285Y-113053844D01*
X100741745Y-113139620D01*
X100778462Y-113230665D01*
X100890421Y-113384763D01*
X100937673Y-113409292D01*
X100970930Y-113414560D01*
X101023449Y-113405833D01*
X101100499Y-113349853D01*
X101125029Y-113302601D01*
X101130296Y-113269344D01*
X101121568Y-113216824D01*
X101051594Y-113120513D01*
X101004343Y-113095983D01*
X100971085Y-113090716D01*
X100918566Y-113099444D01*
X100841516Y-113155423D01*
X100816986Y-113202675D01*
X100811720Y-113235932D01*
X100820447Y-113288452D01*
X100248000Y-110760396D02*
X100498409Y-110578463D01*
X100475533Y-110830525D01*
X100533320Y-110788541D01*
X100585839Y-110779813D01*
X100619097Y-110785081D01*
X100666348Y-110809611D01*
X100736322Y-110905922D01*
X100745050Y-110958441D01*
X100739783Y-110991699D01*
X100715253Y-111038951D01*
X100599679Y-111122920D01*
X100547160Y-111131648D01*
X100513903Y-111126380D01*
X100984925Y-110843022D02*
X101061974Y-110787043D01*
X101086504Y-110739791D01*
X101091772Y-110706533D01*
X101088312Y-110620757D01*
X101051594Y-110529713D01*
X100939635Y-110375615D01*
X100892384Y-110351085D01*
X100859126Y-110345818D01*
X100806606Y-110354545D01*
X100729557Y-110410524D01*
X100705027Y-110457777D01*
X100699761Y-110491034D01*
X100708488Y-110543554D01*
X100778462Y-110639865D01*
X100825714Y-110664394D01*
X100858971Y-110669662D01*
X100911490Y-110660934D01*
X100988540Y-110604955D01*
X101013070Y-110557703D01*
X101018337Y-110524445D01*
X101009609Y-110471926D01*
X100197200Y-108271196D02*
X100447609Y-108089263D01*
X100424733Y-108341325D01*
X100482520Y-108299341D01*
X100535039Y-108290613D01*
X100568297Y-108295881D01*
X100615548Y-108320411D01*
X100685522Y-108416722D01*
X100694250Y-108469241D01*
X100688983Y-108502499D01*
X100664453Y-108549751D01*
X100548879Y-108633720D01*
X100496360Y-108642448D01*
X100463103Y-108637180D01*
X100892295Y-107972191D02*
X101088223Y-108241863D01*
X100684025Y-107888067D02*
X100797636Y-108246976D01*
X101048047Y-108065043D01*
X100197200Y-105731196D02*
X100447609Y-105549263D01*
X100424733Y-105801325D01*
X100482520Y-105759341D01*
X100535039Y-105750613D01*
X100568297Y-105755881D01*
X100615548Y-105780411D01*
X100685522Y-105876722D01*
X100694250Y-105929241D01*
X100688983Y-105962499D01*
X100664453Y-106009751D01*
X100548879Y-106093720D01*
X100496360Y-106102448D01*
X100463103Y-106097180D01*
X100813593Y-105283360D02*
X100620970Y-105423308D01*
X100741657Y-105629927D01*
X100746925Y-105596669D01*
X100771455Y-105549418D01*
X100867766Y-105479444D01*
X100920285Y-105470716D01*
X100953543Y-105475983D01*
X101000794Y-105500513D01*
X101070768Y-105596824D01*
X101079496Y-105649344D01*
X101074229Y-105682601D01*
X101049699Y-105729853D01*
X100953388Y-105799827D01*
X100900868Y-105808555D01*
X100867611Y-105803287D01*
X100197200Y-103191196D02*
X100447609Y-103009263D01*
X100424733Y-103261325D01*
X100482520Y-103219341D01*
X100535039Y-103210613D01*
X100568297Y-103215881D01*
X100615548Y-103240411D01*
X100685522Y-103336722D01*
X100694250Y-103389241D01*
X100688983Y-103422499D01*
X100664453Y-103469751D01*
X100548879Y-103553720D01*
X100496360Y-103562448D01*
X100463103Y-103557180D01*
X100629698Y-102935829D02*
X100634966Y-102902571D01*
X100659495Y-102855319D01*
X100755806Y-102785345D01*
X100808326Y-102776618D01*
X100841584Y-102781885D01*
X100888835Y-102806415D01*
X100916825Y-102844940D01*
X100939547Y-102916721D01*
X100876338Y-103315807D01*
X101126748Y-103133874D01*
X100095600Y-100701996D02*
X100346009Y-100520063D01*
X100323133Y-100772125D01*
X100380920Y-100730141D01*
X100433439Y-100721413D01*
X100466697Y-100726681D01*
X100513948Y-100751211D01*
X100583922Y-100847522D01*
X100592650Y-100900041D01*
X100587383Y-100933299D01*
X100562853Y-100980551D01*
X100447279Y-101064520D01*
X100394760Y-101073248D01*
X100361503Y-101067980D01*
X100480846Y-100422098D02*
X100731255Y-100240165D01*
X100708379Y-100492228D01*
X100766166Y-100450244D01*
X100818685Y-100441516D01*
X100851943Y-100446783D01*
X100899194Y-100471313D01*
X100969168Y-100567624D01*
X100977896Y-100620144D01*
X100972629Y-100653401D01*
X100948099Y-100700653D01*
X100832525Y-100784622D01*
X100780006Y-100793350D01*
X100746749Y-100788082D01*
D16*
X99852933Y-86162400D02*
X99786267Y-86129067D01*
X99686267Y-86129067D01*
X99586267Y-86162400D01*
X99519600Y-86229067D01*
X99486267Y-86295733D01*
X99452933Y-86429067D01*
X99452933Y-86529067D01*
X99486267Y-86662400D01*
X99519600Y-86729067D01*
X99586267Y-86795733D01*
X99686267Y-86829067D01*
X99752933Y-86829067D01*
X99852933Y-86795733D01*
X99886267Y-86762400D01*
X99886267Y-86529067D01*
X99752933Y-86529067D01*
D17*
X82876332Y-127452381D02*
X82876332Y-126452381D01*
X82876332Y-126928571D02*
X83447761Y-126928571D01*
X83447761Y-127452381D02*
X83447761Y-126452381D01*
X84066808Y-127452381D02*
X83971570Y-127404762D01*
X83923951Y-127357143D01*
X83876332Y-127261905D01*
X83876332Y-126976190D01*
X83923951Y-126880952D01*
X83971570Y-126833333D01*
X84066808Y-126785714D01*
X84209666Y-126785714D01*
X84304904Y-126833333D01*
X84352523Y-126880952D01*
X84400142Y-126976190D01*
X84400142Y-127261905D01*
X84352523Y-127357143D01*
X84304904Y-127404762D01*
X84209666Y-127452381D01*
X84066808Y-127452381D01*
X84828713Y-127452381D02*
X84828713Y-126785714D01*
X84828713Y-126976190D02*
X84876332Y-126880952D01*
X84923951Y-126833333D01*
X85019189Y-126785714D01*
X85114428Y-126785714D01*
X85447761Y-126785714D02*
X85447761Y-127452381D01*
X85447761Y-126880952D02*
X85495380Y-126833333D01*
X85590618Y-126785714D01*
X85733476Y-126785714D01*
X85828714Y-126833333D01*
X85876333Y-126928571D01*
X85876333Y-127452381D01*
X86352523Y-127452381D02*
X86352523Y-126452381D01*
X86352523Y-126833333D02*
X86447761Y-126785714D01*
X86638238Y-126785714D01*
X86733476Y-126833333D01*
X86781095Y-126880952D01*
X86828714Y-126976190D01*
X86828714Y-127261905D01*
X86781095Y-127357143D01*
X86733476Y-127404762D01*
X86638238Y-127452381D01*
X86447761Y-127452381D01*
X86352523Y-127404762D01*
X87257285Y-127452381D02*
X87257285Y-126785714D01*
X87257285Y-126452381D02*
X87209666Y-126500000D01*
X87257285Y-126547619D01*
X87304904Y-126500000D01*
X87257285Y-126452381D01*
X87257285Y-126547619D01*
X87876332Y-127452381D02*
X87781094Y-127404762D01*
X87733475Y-127309524D01*
X87733475Y-126452381D01*
X88400142Y-127452381D02*
X88304904Y-127404762D01*
X88257285Y-127309524D01*
X88257285Y-126452381D01*
X89543000Y-126928571D02*
X89876334Y-126928571D01*
X90019191Y-127452381D02*
X89543000Y-127452381D01*
X89543000Y-126452381D01*
X90019191Y-126452381D01*
X90400143Y-127404762D02*
X90543000Y-127452381D01*
X90781096Y-127452381D01*
X90876334Y-127404762D01*
X90923953Y-127357143D01*
X90971572Y-127261905D01*
X90971572Y-127166667D01*
X90923953Y-127071429D01*
X90876334Y-127023810D01*
X90781096Y-126976190D01*
X90590619Y-126928571D01*
X90495381Y-126880952D01*
X90447762Y-126833333D01*
X90400143Y-126738095D01*
X90400143Y-126642857D01*
X90447762Y-126547619D01*
X90495381Y-126500000D01*
X90590619Y-126452381D01*
X90828715Y-126452381D01*
X90971572Y-126500000D01*
X91400143Y-127452381D02*
X91400143Y-126452381D01*
X91781096Y-126452381D01*
X91876334Y-126500000D01*
X91923953Y-126547619D01*
X91971572Y-126642857D01*
X91971572Y-126785714D01*
X91923953Y-126880952D01*
X91876334Y-126928571D01*
X91781096Y-126976190D01*
X91400143Y-126976190D01*
X92304905Y-126452381D02*
X92923953Y-126452381D01*
X92590619Y-126833333D01*
X92733477Y-126833333D01*
X92828715Y-126880952D01*
X92876334Y-126928571D01*
X92923953Y-127023810D01*
X92923953Y-127261905D01*
X92876334Y-127357143D01*
X92828715Y-127404762D01*
X92733477Y-127452381D01*
X92447762Y-127452381D01*
X92352524Y-127404762D01*
X92304905Y-127357143D01*
X93304905Y-126547619D02*
X93352524Y-126500000D01*
X93447762Y-126452381D01*
X93685858Y-126452381D01*
X93781096Y-126500000D01*
X93828715Y-126547619D01*
X93876334Y-126642857D01*
X93876334Y-126738095D01*
X93828715Y-126880952D01*
X93257286Y-127452381D01*
X93876334Y-127452381D01*
X95066810Y-127452381D02*
X95066810Y-126452381D01*
X95304905Y-126452381D01*
X95447763Y-126500000D01*
X95543001Y-126595238D01*
X95590620Y-126690476D01*
X95638239Y-126880952D01*
X95638239Y-127023810D01*
X95590620Y-127214286D01*
X95543001Y-127309524D01*
X95447763Y-127404762D01*
X95304905Y-127452381D01*
X95066810Y-127452381D01*
X96447763Y-127404762D02*
X96352525Y-127452381D01*
X96162048Y-127452381D01*
X96066810Y-127404762D01*
X96019191Y-127309524D01*
X96019191Y-126928571D01*
X96066810Y-126833333D01*
X96162048Y-126785714D01*
X96352525Y-126785714D01*
X96447763Y-126833333D01*
X96495382Y-126928571D01*
X96495382Y-127023810D01*
X96019191Y-127119048D01*
X96828715Y-126785714D02*
X97066810Y-127452381D01*
X97304906Y-126785714D01*
D16*
X100580933Y-120825467D02*
X101014266Y-120825467D01*
X100780933Y-121092133D01*
X100880933Y-121092133D01*
X100947600Y-121125467D01*
X100980933Y-121158800D01*
X101014266Y-121225467D01*
X101014266Y-121392133D01*
X100980933Y-121458800D01*
X100947600Y-121492133D01*
X100880933Y-121525467D01*
X100680933Y-121525467D01*
X100614266Y-121492133D01*
X100580933Y-121458800D01*
X101214267Y-120825467D02*
X101447600Y-121525467D01*
X101680933Y-120825467D01*
X101847600Y-120825467D02*
X102280933Y-120825467D01*
X102047600Y-121092133D01*
X102147600Y-121092133D01*
X102214267Y-121125467D01*
X102247600Y-121158800D01*
X102280933Y-121225467D01*
X102280933Y-121392133D01*
X102247600Y-121458800D01*
X102214267Y-121492133D01*
X102147600Y-121525467D01*
X101947600Y-121525467D01*
X101880933Y-121492133D01*
X101847600Y-121458800D01*
X80384666Y-99478267D02*
X79984666Y-99478267D01*
X80184666Y-99478267D02*
X80184666Y-98778267D01*
X80118000Y-98878267D01*
X80051333Y-98944933D01*
X79984666Y-98978267D01*
X80784667Y-99078267D02*
X80718000Y-99044933D01*
X80684667Y-99011600D01*
X80651333Y-98944933D01*
X80651333Y-98911600D01*
X80684667Y-98844933D01*
X80718000Y-98811600D01*
X80784667Y-98778267D01*
X80918000Y-98778267D01*
X80984667Y-98811600D01*
X81018000Y-98844933D01*
X81051333Y-98911600D01*
X81051333Y-98944933D01*
X81018000Y-99011600D01*
X80984667Y-99044933D01*
X80918000Y-99078267D01*
X80784667Y-99078267D01*
X80718000Y-99111600D01*
X80684667Y-99144933D01*
X80651333Y-99211600D01*
X80651333Y-99344933D01*
X80684667Y-99411600D01*
X80718000Y-99444933D01*
X80784667Y-99478267D01*
X80918000Y-99478267D01*
X80984667Y-99444933D01*
X81018000Y-99411600D01*
X81051333Y-99344933D01*
X81051333Y-99211600D01*
X81018000Y-99144933D01*
X80984667Y-99111600D01*
X80918000Y-99078267D01*
X80532267Y-96390667D02*
X80198934Y-96390667D01*
X80165600Y-96724000D01*
X80198934Y-96690667D01*
X80265600Y-96657333D01*
X80432267Y-96657333D01*
X80498934Y-96690667D01*
X80532267Y-96724000D01*
X80565600Y-96790667D01*
X80565600Y-96957333D01*
X80532267Y-97024000D01*
X80498934Y-97057333D01*
X80432267Y-97090667D01*
X80265600Y-97090667D01*
X80198934Y-97057333D01*
X80165600Y-97024000D01*
X80486266Y-94550667D02*
X80086266Y-94550667D01*
X80286266Y-94550667D02*
X80286266Y-93850667D01*
X80219600Y-93950667D01*
X80152933Y-94017333D01*
X80086266Y-94050667D01*
X80719600Y-93850667D02*
X81186267Y-93850667D01*
X80886267Y-94550667D01*
X80435466Y-91959867D02*
X80035466Y-91959867D01*
X80235466Y-91959867D02*
X80235466Y-91259867D01*
X80168800Y-91359867D01*
X80102133Y-91426533D01*
X80035466Y-91459867D01*
X81035467Y-91259867D02*
X80902133Y-91259867D01*
X80835467Y-91293200D01*
X80802133Y-91326533D01*
X80735467Y-91426533D01*
X80702133Y-91559867D01*
X80702133Y-91826533D01*
X80735467Y-91893200D01*
X80768800Y-91926533D01*
X80835467Y-91959867D01*
X80968800Y-91959867D01*
X81035467Y-91926533D01*
X81068800Y-91893200D01*
X81102133Y-91826533D01*
X81102133Y-91659867D01*
X81068800Y-91593200D01*
X81035467Y-91559867D01*
X80968800Y-91526533D01*
X80835467Y-91526533D01*
X80768800Y-91559867D01*
X80735467Y-91593200D01*
X80702133Y-91659867D01*
X80498934Y-89105600D02*
X80498934Y-89572267D01*
X80332267Y-88838933D02*
X80165600Y-89338933D01*
X80598934Y-89338933D01*
X80383067Y-86129067D02*
X80449734Y-86129067D01*
X80516400Y-86162400D01*
X80549734Y-86195733D01*
X80583067Y-86262400D01*
X80616400Y-86395733D01*
X80616400Y-86562400D01*
X80583067Y-86695733D01*
X80549734Y-86762400D01*
X80516400Y-86795733D01*
X80449734Y-86829067D01*
X80383067Y-86829067D01*
X80316400Y-86795733D01*
X80283067Y-86762400D01*
X80249734Y-86695733D01*
X80216400Y-86562400D01*
X80216400Y-86395733D01*
X80249734Y-86262400D01*
X80283067Y-86195733D01*
X80316400Y-86162400D01*
X80383067Y-86129067D01*
X80267200Y-83706533D02*
X80300534Y-83673200D01*
X80367200Y-83639867D01*
X80533867Y-83639867D01*
X80600534Y-83673200D01*
X80633867Y-83706533D01*
X80667200Y-83773200D01*
X80667200Y-83839867D01*
X80633867Y-83939867D01*
X80233867Y-84339867D01*
X80667200Y-84339867D01*
X80435466Y-81799867D02*
X80035466Y-81799867D01*
X80235466Y-81799867D02*
X80235466Y-81099867D01*
X80168800Y-81199867D01*
X80102133Y-81266533D01*
X80035466Y-81299867D01*
X81068800Y-81099867D02*
X80735467Y-81099867D01*
X80702133Y-81433200D01*
X80735467Y-81399867D01*
X80802133Y-81366533D01*
X80968800Y-81366533D01*
X81035467Y-81399867D01*
X81068800Y-81433200D01*
X81102133Y-81499867D01*
X81102133Y-81666533D01*
X81068800Y-81733200D01*
X81035467Y-81766533D01*
X80968800Y-81799867D01*
X80802133Y-81799867D01*
X80735467Y-81766533D01*
X80702133Y-81733200D01*
X80324334Y-78910667D02*
X80257667Y-78877333D01*
X80224334Y-78844000D01*
X80191000Y-78777333D01*
X80191000Y-78744000D01*
X80224334Y-78677333D01*
X80257667Y-78644000D01*
X80324334Y-78610667D01*
X80457667Y-78610667D01*
X80524334Y-78644000D01*
X80557667Y-78677333D01*
X80591000Y-78744000D01*
X80591000Y-78777333D01*
X80557667Y-78844000D01*
X80524334Y-78877333D01*
X80457667Y-78910667D01*
X80324334Y-78910667D01*
X80257667Y-78944000D01*
X80224334Y-78977333D01*
X80191000Y-79044000D01*
X80191000Y-79177333D01*
X80224334Y-79244000D01*
X80257667Y-79277333D01*
X80324334Y-79310667D01*
X80457667Y-79310667D01*
X80524334Y-79277333D01*
X80557667Y-79244000D01*
X80591000Y-79177333D01*
X80591000Y-79044000D01*
X80557667Y-78977333D01*
X80524334Y-78944000D01*
X80457667Y-78910667D01*
X80030667Y-76070667D02*
X80497334Y-76070667D01*
X80197334Y-76770667D01*
X80397334Y-73403667D02*
X80264000Y-73403667D01*
X80197334Y-73437000D01*
X80164000Y-73470333D01*
X80097334Y-73570333D01*
X80064000Y-73703667D01*
X80064000Y-73970333D01*
X80097334Y-74037000D01*
X80130667Y-74070333D01*
X80197334Y-74103667D01*
X80330667Y-74103667D01*
X80397334Y-74070333D01*
X80430667Y-74037000D01*
X80464000Y-73970333D01*
X80464000Y-73803667D01*
X80430667Y-73737000D01*
X80397334Y-73703667D01*
X80330667Y-73670333D01*
X80197334Y-73670333D01*
X80130667Y-73703667D01*
X80097334Y-73737000D01*
X80064000Y-73803667D01*
X100242800Y-72490800D02*
X100776133Y-72490800D01*
X100509466Y-72757467D02*
X100509466Y-72224133D01*
X101442800Y-72057467D02*
X101109467Y-72057467D01*
X101076133Y-72390800D01*
X101109467Y-72357467D01*
X101176133Y-72324133D01*
X101342800Y-72324133D01*
X101409467Y-72357467D01*
X101442800Y-72390800D01*
X101476133Y-72457467D01*
X101476133Y-72624133D01*
X101442800Y-72690800D01*
X101409467Y-72724133D01*
X101342800Y-72757467D01*
X101176133Y-72757467D01*
X101109467Y-72724133D01*
X101076133Y-72690800D01*
X101676134Y-72057467D02*
X101909467Y-72757467D01*
X102142800Y-72057467D01*
X99079066Y-76821467D02*
X98679066Y-76821467D01*
X98879066Y-76821467D02*
X98879066Y-76121467D01*
X98812400Y-76221467D01*
X98745733Y-76288133D01*
X98679066Y-76321467D01*
X99745733Y-76821467D02*
X99345733Y-76821467D01*
X99545733Y-76821467D02*
X99545733Y-76121467D01*
X99479067Y-76221467D01*
X99412400Y-76288133D01*
X99345733Y-76321467D01*
X99434667Y-81850667D02*
X99568000Y-81850667D01*
X99634667Y-81817333D01*
X99668000Y-81784000D01*
X99734667Y-81684000D01*
X99768000Y-81550667D01*
X99768000Y-81284000D01*
X99734667Y-81217333D01*
X99701334Y-81184000D01*
X99634667Y-81150667D01*
X99501334Y-81150667D01*
X99434667Y-81184000D01*
X99401334Y-81217333D01*
X99368000Y-81284000D01*
X99368000Y-81450667D01*
X99401334Y-81517333D01*
X99434667Y-81550667D01*
X99501334Y-81584000D01*
X99634667Y-81584000D01*
X99701334Y-81550667D01*
X99734667Y-81517333D01*
X99768000Y-81450667D01*
X99536266Y-84390667D02*
X99136266Y-84390667D01*
X99336266Y-84390667D02*
X99336266Y-83690667D01*
X99269600Y-83790667D01*
X99202933Y-83857333D01*
X99136266Y-83890667D01*
X99769600Y-83690667D02*
X100202933Y-83690667D01*
X99969600Y-83957333D01*
X100069600Y-83957333D01*
X100136267Y-83990667D01*
X100169600Y-84024000D01*
X100202933Y-84090667D01*
X100202933Y-84257333D01*
X100169600Y-84324000D01*
X100136267Y-84357333D01*
X100069600Y-84390667D01*
X99869600Y-84390667D01*
X99802933Y-84357333D01*
X99769600Y-84324000D01*
X99485466Y-89369067D02*
X99085466Y-89369067D01*
X99285466Y-89369067D02*
X99285466Y-88669067D01*
X99218800Y-88769067D01*
X99152133Y-88835733D01*
X99085466Y-88869067D01*
X99752133Y-88735733D02*
X99785467Y-88702400D01*
X99852133Y-88669067D01*
X100018800Y-88669067D01*
X100085467Y-88702400D01*
X100118800Y-88735733D01*
X100152133Y-88802400D01*
X100152133Y-88869067D01*
X100118800Y-88969067D01*
X99718800Y-89369067D01*
X100152133Y-89369067D01*
X99485466Y-91959867D02*
X99085466Y-91959867D01*
X99285466Y-91959867D02*
X99285466Y-91259867D01*
X99218800Y-91359867D01*
X99152133Y-91426533D01*
X99085466Y-91459867D01*
X100085467Y-91493200D02*
X100085467Y-91959867D01*
X99918800Y-91226533D02*
X99752133Y-91726533D01*
X100185467Y-91726533D01*
X99085466Y-93866533D02*
X99118800Y-93833200D01*
X99185466Y-93799867D01*
X99352133Y-93799867D01*
X99418800Y-93833200D01*
X99452133Y-93866533D01*
X99485466Y-93933200D01*
X99485466Y-93999867D01*
X99452133Y-94099867D01*
X99052133Y-94499867D01*
X99485466Y-94499867D01*
X99718800Y-93799867D02*
X100185467Y-93799867D01*
X99885467Y-94499867D01*
X99180666Y-79259867D02*
X98780666Y-79259867D01*
X98980666Y-79259867D02*
X98980666Y-78559867D01*
X98914000Y-78659867D01*
X98847333Y-78726533D01*
X98780666Y-78759867D01*
X99614000Y-78559867D02*
X99680667Y-78559867D01*
X99747333Y-78593200D01*
X99780667Y-78626533D01*
X99814000Y-78693200D01*
X99847333Y-78826533D01*
X99847333Y-78993200D01*
X99814000Y-79126533D01*
X99780667Y-79193200D01*
X99747333Y-79226533D01*
X99680667Y-79259867D01*
X99614000Y-79259867D01*
X99547333Y-79226533D01*
X99514000Y-79193200D01*
X99480667Y-79126533D01*
X99447333Y-78993200D01*
X99447333Y-78826533D01*
X99480667Y-78693200D01*
X99514000Y-78626533D01*
X99547333Y-78593200D01*
X99614000Y-78559867D01*
X99136266Y-96558933D02*
X99169600Y-96525600D01*
X99236266Y-96492267D01*
X99402933Y-96492267D01*
X99469600Y-96525600D01*
X99502933Y-96558933D01*
X99536266Y-96625600D01*
X99536266Y-96692267D01*
X99502933Y-96792267D01*
X99102933Y-97192267D01*
X99536266Y-97192267D01*
X100136267Y-96492267D02*
X100002933Y-96492267D01*
X99936267Y-96525600D01*
X99902933Y-96558933D01*
X99836267Y-96658933D01*
X99802933Y-96792267D01*
X99802933Y-97058933D01*
X99836267Y-97125600D01*
X99869600Y-97158933D01*
X99936267Y-97192267D01*
X100069600Y-97192267D01*
X100136267Y-97158933D01*
X100169600Y-97125600D01*
X100202933Y-97058933D01*
X100202933Y-96892267D01*
X100169600Y-96825600D01*
X100136267Y-96792267D01*
X100069600Y-96758933D01*
X99936267Y-96758933D01*
X99869600Y-96792267D01*
X99836267Y-96825600D01*
X99802933Y-96892267D01*
X99136266Y-98997333D02*
X99169600Y-98964000D01*
X99236266Y-98930667D01*
X99402933Y-98930667D01*
X99469600Y-98964000D01*
X99502933Y-98997333D01*
X99536266Y-99064000D01*
X99536266Y-99130667D01*
X99502933Y-99230667D01*
X99102933Y-99630667D01*
X99536266Y-99630667D01*
X100169600Y-98930667D02*
X99836267Y-98930667D01*
X99802933Y-99264000D01*
X99836267Y-99230667D01*
X99902933Y-99197333D01*
X100069600Y-99197333D01*
X100136267Y-99230667D01*
X100169600Y-99264000D01*
X100202933Y-99330667D01*
X100202933Y-99497333D01*
X100169600Y-99564000D01*
X100136267Y-99597333D01*
X100069600Y-99630667D01*
X99902933Y-99630667D01*
X99836267Y-99597333D01*
X99802933Y-99564000D01*
D18*
X82921928Y-75356357D02*
X82051071Y-75356357D01*
X87938428Y-75419857D02*
X87067571Y-75419857D01*
X87503000Y-74984429D02*
X87503000Y-75855286D01*
D10*
X93721200Y-84574000D02*
X93721200Y-83574000D01*
X93121200Y-84474000D02*
X93121200Y-83674000D01*
X93121200Y-83674000D02*
X93721200Y-84074000D01*
X93721200Y-84074000D02*
X93121200Y-84474000D01*
D13*
X93738700Y-84074000D02*
X94119700Y-84074000D01*
X92722700Y-84074000D02*
X93103700Y-84074000D01*
X95421200Y-83174000D02*
X91881200Y-83174000D01*
X95421200Y-84974000D02*
X91881200Y-84974000D01*
X83533500Y-82331000D02*
X84233500Y-82331000D01*
X84233500Y-83531000D02*
X83533500Y-83531000D01*
D19*
X88963500Y-67802760D02*
X88963500Y-75303380D01*
X80962500Y-75303380D02*
X80962500Y-67802760D01*
X80962500Y-75303380D02*
X81363820Y-75303380D01*
X81163160Y-73802240D02*
X81163160Y-75303380D01*
X81363820Y-75303380D02*
X81363820Y-73802240D01*
X88762840Y-75303380D02*
X88762840Y-73802240D01*
X88562180Y-73802240D02*
X88562180Y-75303380D01*
X88562180Y-75303380D02*
X88963500Y-75303380D01*
X85463380Y-67802760D02*
X85463380Y-68803520D01*
X85463380Y-68803520D02*
X84462620Y-68803520D01*
X84462620Y-68803520D02*
X84462620Y-67802760D01*
X86961980Y-73802240D02*
X86961980Y-69303900D01*
X86961980Y-69303900D02*
X87663020Y-69303900D01*
X87663020Y-69303900D02*
X87663020Y-73802240D01*
X82964020Y-73802240D02*
X82964020Y-69303900D01*
X82964020Y-69303900D02*
X82262980Y-69303900D01*
X82262980Y-69303900D02*
X82262980Y-73802240D01*
X88963500Y-67802760D02*
X80962500Y-67802760D01*
X80962500Y-73802240D02*
X88963500Y-73802240D01*
X86263480Y-67802760D02*
X86563200Y-67802760D01*
D13*
X82907500Y-84463000D02*
X82907500Y-85463000D01*
X81557500Y-85463000D02*
X81557500Y-84463000D01*
X89273000Y-85384000D02*
X88273000Y-85384000D01*
X88273000Y-84034000D02*
X89273000Y-84034000D01*
X86022000Y-79861500D02*
X87922000Y-79861500D01*
X86022000Y-78761500D02*
X87922000Y-78761500D01*
X86922000Y-79311500D02*
X87372000Y-79311500D01*
X86872000Y-79061500D02*
X86872000Y-79561500D01*
X86872000Y-79311500D02*
X87122000Y-79061500D01*
X87122000Y-79061500D02*
X87122000Y-79561500D01*
X87122000Y-79561500D02*
X86872000Y-79311500D01*
X89518400Y-72585400D02*
X89518400Y-74485400D01*
X90618400Y-72585400D02*
X90618400Y-74485400D01*
X90068400Y-73485400D02*
X90068400Y-73935400D01*
X90318400Y-73435400D02*
X89818400Y-73435400D01*
X90068400Y-73435400D02*
X90318400Y-73685400D01*
X90318400Y-73685400D02*
X89818400Y-73685400D01*
X89818400Y-73685400D02*
X90068400Y-73435400D01*
X91391120Y-93863875D02*
X93291120Y-93863875D01*
X91391120Y-92763875D02*
X93291120Y-92763875D01*
X92291120Y-93313875D02*
X92741120Y-93313875D01*
X92241120Y-93063875D02*
X92241120Y-93563875D01*
X92241120Y-93313875D02*
X92491120Y-93063875D01*
X92491120Y-93063875D02*
X92491120Y-93563875D01*
X92491120Y-93563875D02*
X92241120Y-93313875D01*
X85874000Y-80091000D02*
G75*
G03X85874000Y-80091000I-100000J0D01*
G01*
X85524000Y-80641000D02*
X85524000Y-80141000D01*
X82624000Y-80641000D02*
X85524000Y-80641000D01*
X82624000Y-80141000D02*
X82624000Y-80641000D01*
X85524000Y-80141000D02*
X82624000Y-80141000D01*
X99597160Y-73009760D02*
X99548900Y-73009760D01*
X96798180Y-73710800D02*
X96798180Y-73009760D01*
X96798180Y-73009760D02*
X97047100Y-73009760D01*
X99597160Y-73009760D02*
X99797820Y-73009760D01*
X99797820Y-73009760D02*
X99797820Y-73710800D01*
X96475519Y-88797475D02*
G75*
G03X96475519Y-88797475I-100000J0D01*
G01*
X96125519Y-89347475D02*
X96125519Y-88847475D01*
X93225519Y-89347475D02*
X96125519Y-89347475D01*
X93225519Y-88847475D02*
X93225519Y-89347475D01*
X96125519Y-88847475D02*
X93225519Y-88847475D01*
X87045360Y-88720234D02*
X87045360Y-88671974D01*
X86344320Y-85921254D02*
X87045360Y-85921254D01*
X87045360Y-85921254D02*
X87045360Y-86170174D01*
X87045360Y-88720234D02*
X87045360Y-88920894D01*
X87045360Y-88920894D02*
X86344320Y-88920894D01*
X82290480Y-89220714D02*
X82290480Y-89268974D01*
X82991520Y-92019694D02*
X82290480Y-92019694D01*
X82290480Y-92019694D02*
X82290480Y-91770774D01*
X82290480Y-89220714D02*
X82290480Y-89020054D01*
X82290480Y-89020054D02*
X82991520Y-89020054D01*
X97290000Y-84872200D02*
X98290000Y-84872200D01*
X98290000Y-86222200D02*
X97290000Y-86222200D01*
X85748500Y-81970500D02*
X85748500Y-80970500D01*
X87098500Y-80970500D02*
X87098500Y-81970500D01*
X91206520Y-91629475D02*
X91206520Y-90629475D01*
X92556520Y-90629475D02*
X92556520Y-91629475D01*
X88559000Y-80970500D02*
X88559000Y-81970500D01*
X87209000Y-81970500D02*
X87209000Y-80970500D01*
X83694720Y-88654875D02*
X82694720Y-88654875D01*
X82694720Y-87304875D02*
X83694720Y-87304875D01*
X86206520Y-90019874D02*
X86206520Y-91019874D01*
X84856520Y-91019874D02*
X84856520Y-90019874D01*
X96817120Y-91216475D02*
X97817120Y-91216475D01*
X97817120Y-92566475D02*
X96817120Y-92566475D01*
X86542500Y-85384000D02*
X85542500Y-85384000D01*
X85542500Y-84034000D02*
X86542500Y-84034000D01*
X88352000Y-88320500D02*
X88352000Y-87320500D01*
X89702000Y-87320500D02*
X89702000Y-88320500D01*
X83180120Y-86143075D02*
X83180120Y-85143075D01*
X84530120Y-85143075D02*
X84530120Y-86143075D01*
X97877000Y-95750000D02*
X97877000Y-94750000D01*
X99227000Y-94750000D02*
X99227000Y-95750000D01*
X83597000Y-77187500D02*
X84297000Y-77187500D01*
X84297000Y-78387500D02*
X83597000Y-78387500D01*
X93969920Y-85703475D02*
X94669920Y-85703475D01*
X94669920Y-86903475D02*
X93969920Y-86903475D01*
X97084400Y-83321600D02*
X97784400Y-83321600D01*
X97784400Y-84521600D02*
X97084400Y-84521600D01*
X94517521Y-92339074D02*
X93817521Y-92339074D01*
X93817521Y-91139074D02*
X94517521Y-91139074D01*
X96647720Y-87843474D02*
X96647720Y-89843474D01*
X98697720Y-89843474D02*
X98697720Y-87843474D01*
X92242719Y-94390275D02*
X92942719Y-94390275D01*
X92942719Y-95590275D02*
X92242719Y-95590275D01*
X89027120Y-90779475D02*
X89027120Y-91479475D01*
X87827120Y-91479475D02*
X87827120Y-90779475D01*
X86557120Y-95949875D02*
X86557120Y-95249875D01*
X87757120Y-95249875D02*
X87757120Y-95949875D01*
X99100000Y-97417000D02*
X99100000Y-98417000D01*
X97750000Y-98417000D02*
X97750000Y-97417000D01*
X90829320Y-90629475D02*
X90829320Y-91629475D01*
X89479320Y-91629475D02*
X89479320Y-90629475D01*
X91734000Y-67636000D02*
X96734000Y-67636000D01*
X96734000Y-67636000D02*
X96734000Y-71136000D01*
X96734000Y-71136000D02*
X92234000Y-71136000D01*
X92234000Y-71136000D02*
X91734000Y-71136000D01*
X91734000Y-71136000D02*
X91734000Y-67636000D01*
X99052721Y-119875875D02*
X99052721Y-118975875D01*
X81052721Y-100375875D02*
X81052721Y-101275875D01*
X99052721Y-100375875D02*
X99052721Y-101275875D01*
X99052721Y-119875875D02*
X81052721Y-119875875D01*
X81052721Y-119875875D02*
X81052721Y-118975875D01*
X81052721Y-100375875D02*
X83752721Y-100375875D01*
X99052721Y-100375875D02*
X96352721Y-100375875D01*
X99052721Y-119875875D02*
X81052721Y-119875875D01*
X99052721Y-125875875D02*
X81052721Y-125875875D01*
X97647320Y-93212275D02*
X94650120Y-93212275D01*
X94650120Y-93212275D02*
X94650120Y-97276275D01*
X94650120Y-97276275D02*
X97596520Y-97276275D01*
X97596520Y-97276275D02*
X97596520Y-93237675D01*
D11*
X97149480Y-95244275D02*
G75*
G03X97149480Y-95244275I-1000760J0D01*
G01*
D13*
X82508920Y-97276275D02*
X85506120Y-97276275D01*
X85506120Y-97276275D02*
X85506120Y-93212275D01*
X85506120Y-93212275D02*
X82559720Y-93212275D01*
X82559720Y-93212275D02*
X82559720Y-97250875D01*
D11*
X85008280Y-95244275D02*
G75*
G03X85008280Y-95244275I-1000760J0D01*
G01*
D13*
X91043320Y-95853875D02*
X90027320Y-95853875D01*
X90967120Y-97987475D02*
X90027320Y-97987475D01*
D20*
X88722920Y-76667476D02*
X88722920Y-78667476D01*
X90772920Y-78667476D02*
X90772920Y-76667476D01*
D21*
X95144835Y-81744794D02*
X94615000Y-82274629D01*
X94615000Y-82274629D02*
X94085165Y-81744794D01*
X91610206Y-79269835D02*
X91080371Y-78740000D01*
X91080371Y-78740000D02*
X91610206Y-78210165D01*
X97619794Y-78210165D02*
X98149629Y-78740000D01*
X98149629Y-78740000D02*
X97619794Y-79269835D01*
X95144835Y-75735206D02*
X94615000Y-75205371D01*
X94615000Y-75205371D02*
X94085165Y-75735206D01*
M02*
