G04 #@! TF.FileFunction,Copper,L1,Top,Signal*
%FSLAX46Y46*%
G04 Gerber Fmt 4.6, Leading zero omitted, Abs format (unit mm)*
G04 Created by KiCad (PCBNEW (2015-01-16 BZR 5376)-product) date 03-Feb-17 1:00:34 PM*
%MOMM*%
G01*
G04 APERTURE LIST*
%ADD10C,0.100000*%
%ADD11C,0.150000*%
%ADD12R,0.500000X0.900000*%
%ADD13R,0.800000X0.750000*%
%ADD14R,0.995680X3.200000*%
%ADD15R,0.998220X3.200000*%
%ADD16R,1.498600X3.398520*%
%ADD17R,1.498600X3.395980*%
%ADD18R,2.032000X1.727200*%
%ADD19O,2.032000X1.727200*%
%ADD20R,0.900000X0.500000*%
%ADD21R,1.600000X1.000000*%
%ADD22R,0.797560X0.797560*%
%ADD23R,1.060000X0.650000*%
%ADD24R,0.800100X0.800100*%
%ADD25R,0.650000X1.060000*%
%ADD26R,0.750000X0.800000*%
%ADD27R,0.400000X1.600000*%
%ADD28C,1.500000*%
%ADD29O,2.200000X2.500000*%
%ADD30R,0.910000X1.220000*%
%ADD31R,2.000000X0.900000*%
%ADD32R,0.900000X2.000000*%
%ADD33R,6.000000X6.000000*%
%ADD34R,1.000760X1.000760*%
%ADD35R,1.400000X1.900000*%
%ADD36C,0.600000*%
%ADD37C,0.250000*%
%ADD38C,0.500000*%
%ADD39C,0.800000*%
%ADD40C,0.300000*%
%ADD41C,0.200000*%
%ADD42C,0.400000*%
G04 APERTURE END LIST*
D10*
D11*
X98806000Y-128143000D02*
X99060000Y-127889000D01*
X81407000Y-128143000D02*
X98806000Y-128143000D01*
X81153000Y-127889000D02*
X81407000Y-128143000D01*
X77343000Y-124714000D02*
X77343000Y-68580000D01*
X79248000Y-125984000D02*
X78613000Y-125984000D01*
X101473000Y-125984000D02*
X100965000Y-125984000D01*
X102743000Y-68580000D02*
X102743000Y-124714000D01*
X78613000Y-67310000D02*
X101473000Y-67310000D01*
X78613000Y-67310000D02*
G75*
G03X77343000Y-68580000I0J-1270000D01*
G01*
X102743000Y-68580000D02*
G75*
G03X101473000Y-67310000I-1270000J0D01*
G01*
X101473000Y-125984000D02*
G75*
G03X102743000Y-124714000I0J1270000D01*
G01*
X77343000Y-124714000D02*
G75*
G03X78613000Y-125984000I1270000J0D01*
G01*
X81153000Y-127889000D02*
X79248000Y-125984000D01*
X100965000Y-125984000D02*
X99060000Y-127889000D01*
D12*
X98437000Y-80264000D03*
X99937000Y-80264000D03*
X98437000Y-82677000D03*
X99937000Y-82677000D03*
X99937000Y-77724000D03*
X98437000Y-77724000D03*
D13*
X81927000Y-82169000D03*
X83427000Y-82169000D03*
D14*
X85963760Y-74803000D03*
D15*
X83962240Y-74803000D03*
D16*
X88308180Y-69054980D03*
D17*
X81615280Y-69054980D03*
D18*
X78622721Y-119577474D03*
D19*
X78622721Y-117037474D03*
X78622721Y-114497474D03*
X78622721Y-111957474D03*
X78622721Y-109417474D03*
X78622721Y-106877474D03*
X78622721Y-104337474D03*
X78622721Y-101797474D03*
X78622721Y-99257474D03*
X78622721Y-96717474D03*
X78622721Y-94177474D03*
X78622721Y-91637474D03*
X78622721Y-89097474D03*
X78622721Y-86557474D03*
X78622721Y-84017474D03*
X78622721Y-81477474D03*
X78622721Y-78937474D03*
X78622721Y-76397474D03*
X78622721Y-73857474D03*
D18*
X101482721Y-119577474D03*
D19*
X101482721Y-117037474D03*
X101482721Y-114497474D03*
X101482721Y-111957474D03*
X101482721Y-109417474D03*
X101482721Y-106877474D03*
X101482721Y-104337474D03*
X101482721Y-101797474D03*
X101482721Y-99257474D03*
X101482721Y-96717474D03*
X101482721Y-94177474D03*
X101482721Y-91637474D03*
X101482721Y-89097474D03*
X101482721Y-86557474D03*
X101482721Y-84017474D03*
X101482721Y-81477474D03*
X101482721Y-78937474D03*
X101482721Y-76397474D03*
X101482721Y-73857474D03*
D10*
G36*
X95516561Y-81197196D02*
X95304429Y-81409328D01*
X94703389Y-80808288D01*
X94915521Y-80596156D01*
X95516561Y-81197196D01*
X95516561Y-81197196D01*
G37*
G36*
X95870114Y-80843642D02*
X95657982Y-81055774D01*
X95056942Y-80454734D01*
X95269074Y-80242602D01*
X95870114Y-80843642D01*
X95870114Y-80843642D01*
G37*
G36*
X96223668Y-80490089D02*
X96011536Y-80702221D01*
X95410496Y-80101181D01*
X95622628Y-79889049D01*
X96223668Y-80490089D01*
X96223668Y-80490089D01*
G37*
G36*
X96577221Y-80136536D02*
X96365089Y-80348668D01*
X95764049Y-79747628D01*
X95976181Y-79535496D01*
X96577221Y-80136536D01*
X96577221Y-80136536D01*
G37*
G36*
X96930774Y-79782982D02*
X96718642Y-79995114D01*
X96117602Y-79394074D01*
X96329734Y-79181942D01*
X96930774Y-79782982D01*
X96930774Y-79782982D01*
G37*
G36*
X97284328Y-79429429D02*
X97072196Y-79641561D01*
X96471156Y-79040521D01*
X96683288Y-78828389D01*
X97284328Y-79429429D01*
X97284328Y-79429429D01*
G37*
G36*
X97072196Y-77838439D02*
X97284328Y-78050571D01*
X96683288Y-78651611D01*
X96471156Y-78439479D01*
X97072196Y-77838439D01*
X97072196Y-77838439D01*
G37*
G36*
X96718642Y-77484886D02*
X96930774Y-77697018D01*
X96329734Y-78298058D01*
X96117602Y-78085926D01*
X96718642Y-77484886D01*
X96718642Y-77484886D01*
G37*
G36*
X96365089Y-77131332D02*
X96577221Y-77343464D01*
X95976181Y-77944504D01*
X95764049Y-77732372D01*
X96365089Y-77131332D01*
X96365089Y-77131332D01*
G37*
G36*
X96011536Y-76777779D02*
X96223668Y-76989911D01*
X95622628Y-77590951D01*
X95410496Y-77378819D01*
X96011536Y-76777779D01*
X96011536Y-76777779D01*
G37*
G36*
X95657982Y-76424226D02*
X95870114Y-76636358D01*
X95269074Y-77237398D01*
X95056942Y-77025266D01*
X95657982Y-76424226D01*
X95657982Y-76424226D01*
G37*
G36*
X95304429Y-76070672D02*
X95516561Y-76282804D01*
X94915521Y-76883844D01*
X94703389Y-76671712D01*
X95304429Y-76070672D01*
X95304429Y-76070672D01*
G37*
G36*
X94526611Y-76671712D02*
X94314479Y-76883844D01*
X93713439Y-76282804D01*
X93925571Y-76070672D01*
X94526611Y-76671712D01*
X94526611Y-76671712D01*
G37*
G36*
X94173058Y-77025266D02*
X93960926Y-77237398D01*
X93359886Y-76636358D01*
X93572018Y-76424226D01*
X94173058Y-77025266D01*
X94173058Y-77025266D01*
G37*
G36*
X93819504Y-77378819D02*
X93607372Y-77590951D01*
X93006332Y-76989911D01*
X93218464Y-76777779D01*
X93819504Y-77378819D01*
X93819504Y-77378819D01*
G37*
G36*
X93465951Y-77732372D02*
X93253819Y-77944504D01*
X92652779Y-77343464D01*
X92864911Y-77131332D01*
X93465951Y-77732372D01*
X93465951Y-77732372D01*
G37*
G36*
X93112398Y-78085926D02*
X92900266Y-78298058D01*
X92299226Y-77697018D01*
X92511358Y-77484886D01*
X93112398Y-78085926D01*
X93112398Y-78085926D01*
G37*
G36*
X92758844Y-78439479D02*
X92546712Y-78651611D01*
X91945672Y-78050571D01*
X92157804Y-77838439D01*
X92758844Y-78439479D01*
X92758844Y-78439479D01*
G37*
G36*
X92546712Y-78828389D02*
X92758844Y-79040521D01*
X92157804Y-79641561D01*
X91945672Y-79429429D01*
X92546712Y-78828389D01*
X92546712Y-78828389D01*
G37*
G36*
X92900266Y-79181942D02*
X93112398Y-79394074D01*
X92511358Y-79995114D01*
X92299226Y-79782982D01*
X92900266Y-79181942D01*
X92900266Y-79181942D01*
G37*
G36*
X93253819Y-79535496D02*
X93465951Y-79747628D01*
X92864911Y-80348668D01*
X92652779Y-80136536D01*
X93253819Y-79535496D01*
X93253819Y-79535496D01*
G37*
G36*
X93607372Y-79889049D02*
X93819504Y-80101181D01*
X93218464Y-80702221D01*
X93006332Y-80490089D01*
X93607372Y-79889049D01*
X93607372Y-79889049D01*
G37*
G36*
X93960926Y-80242602D02*
X94173058Y-80454734D01*
X93572018Y-81055774D01*
X93359886Y-80843642D01*
X93960926Y-80242602D01*
X93960926Y-80242602D01*
G37*
G36*
X94314479Y-80596156D02*
X94526611Y-80808288D01*
X93925571Y-81409328D01*
X93713439Y-81197196D01*
X94314479Y-80596156D01*
X94314479Y-80596156D01*
G37*
G36*
X95534239Y-77820761D02*
X94615000Y-78740000D01*
X93695761Y-77820761D01*
X94615000Y-76901522D01*
X95534239Y-77820761D01*
X95534239Y-77820761D01*
G37*
G36*
X94615000Y-78740000D02*
X93695761Y-79659239D01*
X92776522Y-78740000D01*
X93695761Y-77820761D01*
X94615000Y-78740000D01*
X94615000Y-78740000D01*
G37*
G36*
X96453478Y-78740000D02*
X95534239Y-79659239D01*
X94615000Y-78740000D01*
X95534239Y-77820761D01*
X96453478Y-78740000D01*
X96453478Y-78740000D01*
G37*
G36*
X95534239Y-79659239D02*
X94615000Y-80578478D01*
X93695761Y-79659239D01*
X94615000Y-78740000D01*
X95534239Y-79659239D01*
X95534239Y-79659239D01*
G37*
D20*
X82232500Y-85713000D03*
X82232500Y-84213000D03*
X89471500Y-83935000D03*
X89471500Y-82435000D03*
D21*
X89747920Y-76167476D03*
X89747920Y-79167476D03*
D22*
X87665120Y-81109174D03*
X87665120Y-79610574D03*
X90068400Y-74434700D03*
X90068400Y-72936100D03*
X93240420Y-93313875D03*
X91741820Y-93313875D03*
D23*
X86126500Y-80325000D03*
X86126500Y-79375000D03*
X86126500Y-78425000D03*
X83926500Y-78425000D03*
X83926500Y-80325000D03*
D24*
X97348000Y-74660760D03*
X99248000Y-74660760D03*
X98298000Y-72661780D03*
D25*
X95625519Y-87997475D03*
X94675519Y-87997475D03*
X93725519Y-87997475D03*
X93725519Y-90197475D03*
X95625519Y-90197475D03*
D24*
X85394360Y-86471074D03*
X85394360Y-88371074D03*
X87393340Y-87421074D03*
X83941480Y-91469874D03*
X83941480Y-89569874D03*
X81942500Y-90519874D03*
D12*
X98540000Y-85547200D03*
X97040000Y-85547200D03*
X84848000Y-81915000D03*
X86348000Y-81915000D03*
D20*
X91881520Y-90379475D03*
X91881520Y-91879475D03*
D12*
X84848000Y-83566000D03*
X86348000Y-83566000D03*
X82444720Y-87979875D03*
X83944720Y-87979875D03*
D20*
X85531520Y-91269874D03*
X85531520Y-89769874D03*
D12*
X98067120Y-91891475D03*
X96567120Y-91891475D03*
D20*
X87757000Y-83935000D03*
X87757000Y-82435000D03*
X89027000Y-87070500D03*
X89027000Y-88570500D03*
X83855120Y-84893075D03*
X83855120Y-86393075D03*
X98552000Y-94500000D03*
X98552000Y-96000000D03*
D13*
X85967000Y-77152500D03*
X84467000Y-77152500D03*
X93569920Y-86303475D03*
X95069920Y-86303475D03*
X96684400Y-83921600D03*
X98184400Y-83921600D03*
X94917521Y-91739074D03*
X93417521Y-91739074D03*
D21*
X97672720Y-90343474D03*
X97672720Y-87343474D03*
D13*
X91842719Y-94990275D03*
X93342719Y-94990275D03*
D26*
X88427120Y-90379475D03*
X88427120Y-91879475D03*
X87157120Y-96349875D03*
X87157120Y-94849875D03*
D20*
X98425000Y-98667000D03*
X98425000Y-97167000D03*
X90154320Y-91879475D03*
X90154320Y-90379475D03*
D27*
X95534000Y-72236000D03*
X94884000Y-72236000D03*
X94234000Y-72236000D03*
X93584000Y-72236000D03*
X92934000Y-72236000D03*
D28*
X96659000Y-72136000D03*
D29*
X97859000Y-69486000D03*
D28*
X91809000Y-72136000D03*
D29*
X90609000Y-69486000D03*
D30*
X95056200Y-84074000D03*
X91786200Y-84074000D03*
D31*
X99052721Y-118375875D03*
X99052721Y-117105875D03*
X99052721Y-115835875D03*
X99052721Y-114565875D03*
X99052721Y-113295875D03*
X99052721Y-112025875D03*
X99052721Y-110755875D03*
X99052721Y-109485875D03*
X99052721Y-108215875D03*
X99052721Y-106945875D03*
X99052721Y-105675875D03*
X99052721Y-104405875D03*
X99052721Y-103135875D03*
X99052721Y-101865875D03*
X81052721Y-118375875D03*
X81052721Y-101865875D03*
X81052721Y-103135875D03*
X81052721Y-104405875D03*
X81052721Y-105675875D03*
X81052721Y-106945875D03*
X81052721Y-108215875D03*
X81052721Y-109485875D03*
X81052721Y-110755875D03*
X81052721Y-112025875D03*
X81052721Y-113295875D03*
X81052721Y-114565875D03*
X81052721Y-115835875D03*
X81052721Y-117105875D03*
D32*
X95767721Y-100375875D03*
X94482721Y-100375875D03*
X93227721Y-100375875D03*
X91957721Y-100375875D03*
X90687721Y-100375875D03*
X89417721Y-100375875D03*
X88147721Y-100375875D03*
X86877721Y-100375875D03*
X85607721Y-100375875D03*
X84337721Y-100375875D03*
D33*
X89752721Y-110675875D03*
D34*
X97048720Y-93044275D03*
X95248720Y-97444275D03*
X95248720Y-93044275D03*
X97048720Y-97444275D03*
X83107520Y-97444275D03*
X84907520Y-93044275D03*
X84907520Y-97444275D03*
X83107520Y-93044275D03*
D35*
X91760720Y-96920675D03*
X89239920Y-96920675D03*
D36*
X99250500Y-73406000D03*
X99758500Y-75628500D03*
X90255920Y-93313875D03*
X82991520Y-110585875D03*
X95694500Y-81915000D03*
X94615000Y-79659239D03*
X92329000Y-73914000D03*
X91948000Y-85979000D03*
X92202000Y-88900000D03*
X97840800Y-75844400D03*
X95046800Y-82600800D03*
X82585120Y-76397475D03*
X91576720Y-85287475D03*
X94132400Y-82600800D03*
X95707200Y-74676000D03*
X89290720Y-77616675D03*
X98094800Y-85547200D03*
X96351920Y-117139075D03*
X87766720Y-93313875D03*
X93964320Y-107080674D03*
X86169500Y-92456000D03*
X85407500Y-84899500D03*
X97383600Y-82753200D03*
X97028000Y-89725500D03*
X94932500Y-94170500D03*
X88138000Y-86360000D03*
X83042320Y-114548276D03*
X87766720Y-84982675D03*
X83042320Y-113329074D03*
X87766720Y-105861475D03*
X89290720Y-106064675D03*
X89443121Y-84982676D03*
X96901000Y-80708500D03*
X94742000Y-73787000D03*
X93980000Y-74041000D03*
X96329500Y-81343500D03*
X90678000Y-85471000D03*
X88011000Y-78105000D03*
X94573921Y-98546276D03*
X100457000Y-87820500D03*
X96329500Y-98615500D03*
X97180400Y-88849200D03*
X90805000Y-86487000D03*
X96504320Y-112008275D03*
X96453520Y-110738275D03*
X98044000Y-82296000D03*
X95567500Y-106045000D03*
X96453520Y-109468275D03*
X90662320Y-94990275D03*
X94726319Y-107537875D03*
X94827920Y-109417475D03*
X96402720Y-108249074D03*
X89189119Y-95345875D03*
X96402720Y-106928275D03*
X96402720Y-105709075D03*
X96351920Y-104388275D03*
X96351920Y-103169075D03*
X83905920Y-103169075D03*
X83347119Y-104439075D03*
X82940720Y-105709075D03*
X82991520Y-106928275D03*
X82991520Y-108198276D03*
X82940720Y-109468274D03*
X83042320Y-112059075D03*
X93253120Y-98597075D03*
X92389520Y-98597075D03*
X91525920Y-98546275D03*
X87969921Y-97784274D03*
X86953920Y-97682676D03*
X86903120Y-98597075D03*
X85633120Y-98597076D03*
X84413922Y-98597075D03*
X90763921Y-83763475D03*
X91059000Y-80264000D03*
X83499520Y-84017476D03*
X91440000Y-77152500D03*
D37*
X89951121Y-71419075D02*
X89916000Y-71419075D01*
X90632925Y-71419075D02*
X91186000Y-70866000D01*
X96520000Y-70866000D02*
X96901000Y-70866000D01*
X91186000Y-70866000D02*
X96520000Y-70866000D01*
X89916000Y-71419075D02*
X90632925Y-71419075D01*
X97028000Y-70866000D02*
X98298000Y-72136000D01*
X98298000Y-72136000D02*
X98298000Y-72661780D01*
X96520000Y-70866000D02*
X97028000Y-70866000D01*
D38*
X86126500Y-77312000D02*
X85967000Y-77152500D01*
D39*
X86126500Y-77312000D02*
X85967000Y-77152500D01*
X86126500Y-78425000D02*
X86126500Y-77312000D01*
X85967000Y-74806240D02*
X85963760Y-74803000D01*
X85967000Y-77152500D02*
X85967000Y-74806240D01*
D37*
X86126500Y-77312000D02*
X85967000Y-77152500D01*
X87122000Y-76316500D02*
X86126500Y-77312000D01*
X87122000Y-72724197D02*
X87461922Y-72384275D01*
X87122000Y-75565000D02*
X87122000Y-72724197D01*
X88427122Y-71419075D02*
X87461922Y-72384275D01*
X89916000Y-71419075D02*
X88427122Y-71419075D01*
X87122000Y-75565000D02*
X87122000Y-76316500D01*
X99758500Y-75628500D02*
X98437000Y-76950000D01*
X98437000Y-76950000D02*
X98437000Y-77724000D01*
X98506280Y-72661780D02*
X99250500Y-73406000D01*
X98298000Y-72661780D02*
X98506280Y-72661780D01*
D39*
X88681120Y-118375874D02*
X81052721Y-118375874D01*
X89747921Y-118375874D02*
X88681120Y-118375874D01*
X90662320Y-118375874D02*
X89747921Y-118375874D01*
X99052720Y-118375874D02*
X90662320Y-118375874D01*
X81052720Y-118976275D02*
X80451520Y-119577475D01*
X80451520Y-119577475D02*
X78622721Y-119577474D01*
X81052721Y-118375874D02*
X81052720Y-118976275D01*
X89747921Y-118409075D02*
X89747921Y-118375874D01*
X89747920Y-118380675D02*
X89747921Y-118409075D01*
X89752721Y-118375874D02*
X89747920Y-118380675D01*
X89752720Y-117550275D02*
X89752721Y-118375874D01*
X89752720Y-110675875D02*
X89752720Y-117550275D01*
X89824120Y-117621674D02*
X89752720Y-117550275D01*
X90578320Y-118375874D02*
X89824120Y-117621674D01*
X90662320Y-118375874D02*
X90578320Y-118375874D01*
X89069920Y-118375874D02*
X88714320Y-118375874D01*
X88714320Y-118375874D02*
X88681120Y-118409076D01*
X88681120Y-118409076D02*
X88681120Y-118375874D01*
X89824120Y-117621674D02*
X89069920Y-118375874D01*
D38*
X82889920Y-80899000D02*
X82889920Y-79797080D01*
X82889920Y-80918675D02*
X82889920Y-80899000D01*
D40*
X87195920Y-94888675D02*
X87157119Y-94849875D01*
D37*
X93316620Y-91739075D02*
X91741820Y-93313875D01*
X93417520Y-91739075D02*
X93316620Y-91739075D01*
X95069920Y-86772674D02*
X94675520Y-87167076D01*
X94675520Y-87167076D02*
X94675521Y-87997476D01*
X95069920Y-86303475D02*
X95069920Y-86772674D01*
X93608720Y-91739075D02*
X93417520Y-91739075D01*
X94675521Y-87997476D02*
X94675519Y-89148275D01*
X94742000Y-89148275D02*
X94675519Y-89148275D01*
X96017764Y-89148276D02*
X94742000Y-89148275D01*
X97672720Y-87493315D02*
X96017764Y-89148276D01*
X97672720Y-87343474D02*
X97672720Y-87493315D01*
X88427120Y-93579874D02*
X87157119Y-94849875D01*
X88427120Y-91879475D02*
X88427120Y-93579874D01*
D41*
X97955190Y-87061004D02*
X97672720Y-87343474D01*
X90255920Y-93313875D02*
X91741820Y-93313875D01*
D42*
X83081520Y-110675875D02*
X89752720Y-110675875D01*
X82991520Y-110585875D02*
X83081520Y-110675875D01*
X99071120Y-87343474D02*
X97672720Y-87343474D01*
X99857120Y-86557474D02*
X99071120Y-87343474D01*
X101482721Y-86557474D02*
X99857120Y-86557474D01*
X93342720Y-94914774D02*
X91741820Y-93313875D01*
X93342720Y-94990275D02*
X93342720Y-94914774D01*
X88427120Y-92856675D02*
X88884321Y-93313875D01*
X88884321Y-93313875D02*
X90255920Y-93313875D01*
X88427120Y-91879475D02*
X88427120Y-92856675D01*
D37*
X95767721Y-101721276D02*
X94269120Y-103219875D01*
X94269120Y-103219875D02*
X91627520Y-103219874D01*
X91627520Y-103219874D02*
X90306720Y-104540675D01*
X90306720Y-104540675D02*
X90306720Y-106471074D01*
X90306720Y-106471074D02*
X89752721Y-107025075D01*
X89752721Y-107025075D02*
X89752720Y-110675875D01*
X95767720Y-100375876D02*
X95767721Y-101721276D01*
X97040000Y-86710754D02*
X97672720Y-87343474D01*
X97040000Y-85547200D02*
X97040000Y-86710754D01*
X96684400Y-84848000D02*
X96684400Y-83921600D01*
X97040000Y-85203600D02*
X96684400Y-84848000D01*
X97040000Y-85547200D02*
X97040000Y-85203600D01*
X85896375Y-94849875D02*
X84907520Y-93861020D01*
X84907520Y-93861020D02*
X84907520Y-93044275D01*
X87157120Y-94849875D02*
X85896375Y-94849875D01*
D41*
X95767721Y-98307721D02*
X95767721Y-100375875D01*
X95248720Y-97788720D02*
X95767721Y-98307721D01*
X95248720Y-97444275D02*
X95248720Y-97788720D01*
X93951775Y-97444275D02*
X93342719Y-96835219D01*
X93342719Y-96835219D02*
X93342719Y-94990275D01*
X95248720Y-97444275D02*
X93951775Y-97444275D01*
X94615000Y-79819500D02*
X94615000Y-79659239D01*
X95444688Y-80649188D02*
X94615000Y-79819500D01*
X95463528Y-80649188D02*
X95444688Y-80649188D01*
D37*
X93695761Y-78740000D02*
X94615000Y-77820761D01*
X94615000Y-77820761D02*
X95534239Y-78740000D01*
X95534239Y-78740000D02*
X94615000Y-79659239D01*
X95694500Y-81915000D02*
X96684400Y-82904900D01*
X96684400Y-83921600D02*
X96684400Y-82904900D01*
D42*
X92807000Y-73436000D02*
X92329000Y-73914000D01*
X92837000Y-89148275D02*
X92831275Y-89148275D01*
X94742000Y-89148275D02*
X92837000Y-89148275D01*
X92934000Y-73309000D02*
X92329000Y-73914000D01*
X92934000Y-72236000D02*
X92934000Y-73309000D01*
X92450275Y-89148275D02*
X92202000Y-88900000D01*
X92837000Y-89148275D02*
X92450275Y-89148275D01*
X92202000Y-86233000D02*
X91948000Y-85979000D01*
X92202000Y-88900000D02*
X92202000Y-86233000D01*
D38*
X82889920Y-81631920D02*
X83427000Y-82169000D01*
X82889920Y-80899000D02*
X82889920Y-81631920D01*
X83312000Y-79375000D02*
X82889920Y-79797080D01*
X84963000Y-79375000D02*
X83312000Y-79375000D01*
X86126500Y-79375000D02*
X84963000Y-79375000D01*
D39*
X83962240Y-76647740D02*
X84467000Y-77152500D01*
X83962240Y-74803000D02*
X83962240Y-76647740D01*
D38*
X85344000Y-79375000D02*
X85026500Y-79057500D01*
X85026500Y-79057500D02*
X85026500Y-77712000D01*
X85026500Y-77712000D02*
X84467000Y-77152500D01*
X86126500Y-79375000D02*
X85344000Y-79375000D01*
D40*
X85026500Y-79438500D02*
X84963000Y-79375000D01*
X85026500Y-80772000D02*
X85026500Y-79438500D01*
X86169500Y-81915000D02*
X85026500Y-80772000D01*
X86348000Y-81915000D02*
X86169500Y-81915000D01*
X86126500Y-79375000D02*
X86487000Y-79375000D01*
X87249000Y-78613000D02*
X87249000Y-78105000D01*
X87249000Y-78613000D02*
X86487000Y-79375000D01*
D42*
X90198965Y-73358765D02*
X89582235Y-73358765D01*
X90745065Y-73358765D02*
X90198965Y-73358765D01*
D40*
X88265000Y-73914000D02*
X87630000Y-74549000D01*
X87630000Y-74549000D02*
X87630000Y-77343000D01*
X87630000Y-77343000D02*
X87249000Y-77724000D01*
X89027000Y-73914000D02*
X88265000Y-73914000D01*
D42*
X89582235Y-73358765D02*
X89027000Y-73914000D01*
X92329000Y-73914000D02*
X91948000Y-73914000D01*
X90735930Y-73367900D02*
X90745065Y-73358765D01*
X91401900Y-73367900D02*
X90735930Y-73367900D01*
X91948000Y-73914000D02*
X91401900Y-73367900D01*
D40*
X87249000Y-77724000D02*
X87249000Y-78105000D01*
D37*
X90068400Y-73228200D02*
X90198965Y-73358765D01*
X90068400Y-72936100D02*
X90068400Y-73228200D01*
X101479974Y-86557474D02*
X101482721Y-86557474D01*
D40*
X99250500Y-84328000D02*
X101479974Y-86557474D01*
X99250500Y-81470500D02*
X99250500Y-84328000D01*
X98437000Y-80657000D02*
X99250500Y-81470500D01*
D37*
X98437000Y-80264000D02*
X98437000Y-80657000D01*
X93725519Y-86459075D02*
X93569920Y-86303474D01*
X93725520Y-87997476D02*
X93725519Y-86459075D01*
X95742320Y-85490675D02*
X94382720Y-85490674D01*
X96148721Y-85897075D02*
X95742320Y-85490675D01*
X96148720Y-86354274D02*
X96148721Y-85897075D01*
X94234000Y-85639394D02*
X93569920Y-86303474D01*
X94382720Y-85490674D02*
X94234000Y-85639394D01*
X96148720Y-86709875D02*
X96148720Y-86354274D01*
X95625520Y-87233075D02*
X96148720Y-86709875D01*
X95625520Y-87997475D02*
X95625520Y-87233075D01*
X95056200Y-84826600D02*
X94234000Y-85648800D01*
X94234000Y-85648800D02*
X94234000Y-85639394D01*
X95056200Y-84074000D02*
X95056200Y-84826600D01*
X99030164Y-74655036D02*
X99079920Y-74655036D01*
D42*
X100051286Y-73857474D02*
X99248000Y-74660760D01*
X101482721Y-73857474D02*
X100051286Y-73857474D01*
X98399600Y-75844400D02*
X97840800Y-75844400D01*
D37*
X95056200Y-84074000D02*
X95056200Y-82610200D01*
X95056200Y-82610200D02*
X95046800Y-82600800D01*
D42*
X99248000Y-74996000D02*
X98399600Y-75844400D01*
X99248000Y-74660760D02*
X99248000Y-74996000D01*
D41*
X82585120Y-76397475D02*
X82585120Y-78089075D01*
D37*
X91576720Y-84283480D02*
X91786200Y-84074000D01*
X91576720Y-85287475D02*
X91576720Y-84283480D01*
X93268800Y-84074000D02*
X94132400Y-83210400D01*
X94132400Y-83210400D02*
X94132400Y-82600800D01*
X95707200Y-74676000D02*
X95728164Y-74655036D01*
X95728164Y-74655036D02*
X97179920Y-74655036D01*
X91786200Y-84074000D02*
X93268800Y-84074000D01*
D41*
X97155000Y-74679956D02*
X97179920Y-74655036D01*
X96543028Y-77891472D02*
X97155000Y-77279500D01*
D37*
X89747920Y-78073875D02*
X89290720Y-77616675D01*
X89747920Y-79167476D02*
X89747920Y-78073875D01*
D40*
X98540000Y-85547200D02*
X98094800Y-85547200D01*
D42*
X97332760Y-74676000D02*
X97348000Y-74660760D01*
X95707200Y-74676000D02*
X97332760Y-74676000D01*
D37*
X97348000Y-75245000D02*
X97348000Y-74660760D01*
X97155000Y-75438000D02*
X97348000Y-75245000D01*
X97155000Y-77279500D02*
X97155000Y-75438000D01*
X96543028Y-77891472D02*
X97155000Y-77279500D01*
X96524188Y-77891472D02*
X96543028Y-77891472D01*
D42*
X84201000Y-83566000D02*
X83947000Y-83312000D01*
X83947000Y-83312000D02*
X82423000Y-83312000D01*
X82423000Y-83312000D02*
X81927000Y-82816000D01*
X81927000Y-82816000D02*
X81927000Y-82169000D01*
D38*
X81927000Y-82816000D02*
X81927000Y-82169000D01*
X82423000Y-83312000D02*
X81927000Y-82816000D01*
X83947000Y-83312000D02*
X82423000Y-83312000D01*
X84201000Y-83566000D02*
X83947000Y-83312000D01*
X84848000Y-83566000D02*
X84201000Y-83566000D01*
X82026320Y-82341076D02*
X82026320Y-79390680D01*
X82359500Y-79057500D02*
X82026320Y-79390680D01*
X82992000Y-78425000D02*
X82359500Y-79057500D01*
X83926500Y-78425000D02*
X82992000Y-78425000D01*
D42*
X82585120Y-78768380D02*
X82359500Y-78994000D01*
X82359500Y-78994000D02*
X82359500Y-79057500D01*
X82585120Y-76397475D02*
X82585120Y-78768380D01*
D41*
X96351920Y-117139075D02*
X96385121Y-117105875D01*
X96385121Y-117105875D02*
X99052720Y-117105875D01*
D37*
X95625521Y-91297076D02*
X95625520Y-90197475D01*
X95183520Y-91739076D02*
X95625521Y-91297076D01*
X94917520Y-91739074D02*
X95183520Y-91739076D01*
X97526720Y-90197475D02*
X97672721Y-90343476D01*
X95625520Y-90197475D02*
X97526720Y-90197475D01*
X94523120Y-91027875D02*
X90306720Y-91027875D01*
X90306720Y-91027875D02*
X90154320Y-90875475D01*
X90154320Y-90875475D02*
X90154320Y-90379475D01*
X94917520Y-91422275D02*
X94523120Y-91027875D01*
X94917520Y-91739074D02*
X94917520Y-91422275D01*
X98067120Y-90737875D02*
X97672721Y-90343476D01*
X98067120Y-91891475D02*
X98067120Y-90737875D01*
X90154320Y-90379475D02*
X88427120Y-90379475D01*
X87856320Y-90379474D02*
X87563520Y-90672274D01*
X87563520Y-90672274D02*
X87563522Y-93110675D01*
X87563522Y-93110675D02*
X87766720Y-93313875D01*
X93964320Y-107080674D02*
X94015120Y-107131474D01*
X94015120Y-107131474D02*
X94015120Y-116123075D01*
X94015120Y-116123075D02*
X95031120Y-117139075D01*
X95031120Y-117139075D02*
X96351920Y-117139075D01*
X88427120Y-90379475D02*
X87856320Y-90379474D01*
D41*
X86976025Y-90379475D02*
X86804500Y-90551000D01*
X86804500Y-90551000D02*
X86804500Y-91821000D01*
X86804500Y-91821000D02*
X86169500Y-92456000D01*
X85407500Y-84899500D02*
X85401075Y-84893075D01*
X85401075Y-84893075D02*
X83855120Y-84893075D01*
D11*
X88427120Y-90379475D02*
X86976025Y-90379475D01*
D41*
X97218500Y-78585783D02*
X96877742Y-78245025D01*
X97218500Y-78994000D02*
X97218500Y-78585783D01*
X96977525Y-79234975D02*
X97218500Y-78994000D01*
X96877742Y-79234975D02*
X96977525Y-79234975D01*
X96524189Y-79588528D02*
X96877742Y-79234975D01*
X96524188Y-79588528D02*
X96524189Y-79588528D01*
X97155000Y-80200500D02*
X97282000Y-80200500D01*
X96543028Y-79588528D02*
X97155000Y-80200500D01*
X96524188Y-79588528D02*
X96543028Y-79588528D01*
X97472500Y-79819500D02*
X97472500Y-80010000D01*
X97472500Y-80010000D02*
X97282000Y-80200500D01*
X96887975Y-79234975D02*
X97472500Y-79819500D01*
X96877742Y-79234975D02*
X96887975Y-79234975D01*
D37*
X97663000Y-80020233D02*
X96877742Y-79234975D01*
D40*
X98184400Y-83554000D02*
X98184400Y-83921600D01*
X97383600Y-82753200D02*
X98184400Y-83554000D01*
X97663000Y-80073500D02*
X97663000Y-80020233D01*
X97663000Y-80020233D02*
X97663000Y-80073500D01*
X97383600Y-82003900D02*
X97663000Y-81724500D01*
X97663000Y-81724500D02*
X97663000Y-80020233D01*
X97383600Y-82753200D02*
X97383600Y-82003900D01*
X97645974Y-90343474D02*
X97028000Y-89725500D01*
X97672720Y-90343474D02*
X97645974Y-90343474D01*
D41*
X100433520Y-115835875D02*
X99052720Y-115835875D01*
X101482720Y-116885075D02*
X100433520Y-115835875D01*
X101482720Y-117037475D02*
X101482720Y-116885075D01*
X87393340Y-87421074D02*
X87393341Y-87083255D01*
D37*
X97648720Y-93244274D02*
X96739520Y-93244275D01*
D41*
X97648720Y-93244274D02*
X97648720Y-93541075D01*
D37*
X96318720Y-115835875D02*
X99052720Y-115835875D01*
X95437520Y-114954675D02*
X96318720Y-115835875D01*
X95437520Y-106994520D02*
X95437520Y-114954675D01*
X95793120Y-102711876D02*
X95664748Y-102840247D01*
X96097921Y-102407075D02*
X95793120Y-102711876D01*
X97723520Y-100781476D02*
X96097921Y-102407075D01*
X98485520Y-100781475D02*
X97723520Y-100781476D01*
X99501520Y-99765475D02*
X98485520Y-100781475D01*
X99501520Y-94025075D02*
X99501520Y-99765475D01*
X98720720Y-93244275D02*
X99501520Y-94025075D01*
X97648720Y-93244274D02*
X98720720Y-93244275D01*
X96567120Y-92562675D02*
X97048720Y-93044275D01*
X96567120Y-91891475D02*
X96567120Y-92562675D01*
D41*
X87393340Y-87104660D02*
X87393340Y-87421074D01*
X97048720Y-94022780D02*
X96901000Y-94170500D01*
X96901000Y-94170500D02*
X94932500Y-94170500D01*
X88138000Y-86360000D02*
X87393340Y-87104660D01*
X97048720Y-93044275D02*
X97048720Y-94022780D01*
D37*
X95660753Y-102840247D02*
X94678500Y-103822500D01*
X94678500Y-103822500D02*
X94678500Y-106235500D01*
X94678500Y-106235500D02*
X95437520Y-106994520D01*
X95664748Y-102840247D02*
X95660753Y-102840247D01*
X83024720Y-114565875D02*
X83042320Y-114548276D01*
X81052720Y-114565875D02*
X83024720Y-114565875D01*
D41*
X87766720Y-83903875D02*
X87766720Y-84982675D01*
D37*
X83009120Y-113295874D02*
X83042320Y-113329074D01*
X81052720Y-113295876D02*
X83009120Y-113295874D01*
D41*
X89443121Y-83963379D02*
X89471500Y-83935000D01*
X89087520Y-105861475D02*
X87766720Y-105861475D01*
X89290720Y-106064675D02*
X89087520Y-105861475D01*
X89443121Y-83963379D02*
X89443121Y-84982676D01*
D37*
X95534000Y-73884000D02*
X95407000Y-74011000D01*
X94742000Y-74676000D02*
X94488000Y-74676000D01*
X95407000Y-74011000D02*
X94742000Y-74676000D01*
X95534000Y-72236000D02*
X95534000Y-73884000D01*
X92361524Y-76167476D02*
X93853000Y-74676000D01*
X93853000Y-74676000D02*
X94488000Y-74676000D01*
X89747920Y-76167476D02*
X92361524Y-76167476D01*
D41*
X96170635Y-79978135D02*
X96901000Y-80708500D01*
X96170635Y-79942082D02*
X96170635Y-79978135D01*
D37*
X94742000Y-73787000D02*
X94757000Y-73772000D01*
X94884000Y-73645000D02*
X94742000Y-73787000D01*
X94884000Y-72236000D02*
X94884000Y-73645000D01*
D41*
X95817082Y-80295635D02*
X95817082Y-80323082D01*
D37*
X93980000Y-74041000D02*
X94107000Y-73914000D01*
D41*
X95817082Y-80323082D02*
X96329500Y-80835500D01*
X96329500Y-80835500D02*
X96329500Y-81343500D01*
D37*
X93980000Y-73660000D02*
X94234000Y-73406000D01*
X94234000Y-73406000D02*
X94234000Y-72236000D01*
X93980000Y-74041000D02*
X93980000Y-73660000D01*
D41*
X87665120Y-80905974D02*
X87665121Y-81020275D01*
X86348000Y-83451000D02*
X86348000Y-83566000D01*
X87004720Y-82794280D02*
X86348000Y-83451000D01*
X87665121Y-81020275D02*
X87004720Y-81680675D01*
X87004720Y-81680675D02*
X87004720Y-82532275D01*
X87004720Y-82532275D02*
X87004720Y-82794280D01*
X87665120Y-79407376D02*
X87601620Y-79407375D01*
D40*
X86934000Y-80325000D02*
X86126500Y-80325000D01*
X87648426Y-79610574D02*
X86934000Y-80325000D01*
X87665120Y-79610574D02*
X87648426Y-79610574D01*
D41*
X91881520Y-89722520D02*
X91440000Y-89281000D01*
X91440000Y-89281000D02*
X91440000Y-86233000D01*
X91440000Y-86233000D02*
X90678000Y-85471000D01*
X91881520Y-90379475D02*
X91881520Y-89722520D01*
D37*
X88011000Y-77597000D02*
X88138000Y-77470000D01*
X88138000Y-77470000D02*
X88138000Y-75692000D01*
X88011000Y-78105000D02*
X88011000Y-77597000D01*
X89077800Y-74498200D02*
X90093800Y-74498200D01*
X88138000Y-75438000D02*
X88582500Y-74993500D01*
X88582500Y-74993500D02*
X89077800Y-74498200D01*
X88138000Y-75692000D02*
X88138000Y-75438000D01*
D41*
X97802000Y-95250000D02*
X98552000Y-94500000D01*
X95123000Y-95250000D02*
X97802000Y-95250000D01*
X93980000Y-94107000D02*
X95123000Y-95250000D01*
X93662500Y-94107000D02*
X93980000Y-94107000D01*
X93240420Y-93684920D02*
X93662500Y-94107000D01*
X93240420Y-93313875D02*
X93240420Y-93684920D01*
D40*
X83926500Y-81069000D02*
X83926500Y-80325000D01*
X84772500Y-81915000D02*
X83926500Y-81069000D01*
X84848000Y-81915000D02*
X84772500Y-81915000D01*
D42*
X94482720Y-98637476D02*
X94573921Y-98546276D01*
X94482720Y-100375875D02*
X94482720Y-98637476D01*
D41*
X98107500Y-88392000D02*
X98145600Y-88392000D01*
X99885500Y-88392000D02*
X100457000Y-87820500D01*
X98145600Y-88392000D02*
X99885500Y-88392000D01*
X96381000Y-98667000D02*
X96329500Y-98615500D01*
X98425000Y-98667000D02*
X96381000Y-98667000D01*
X97637600Y-88392000D02*
X97180400Y-88849200D01*
X89027000Y-86804500D02*
X89027000Y-87070500D01*
X89344500Y-86487000D02*
X90805000Y-86487000D01*
X89027000Y-86804500D02*
X89344500Y-86487000D01*
X98145600Y-88392000D02*
X97637600Y-88392000D01*
X99121120Y-114497474D02*
X99052720Y-114565875D01*
D42*
X99121120Y-114497474D02*
X99052720Y-114565875D01*
X101482720Y-114497476D02*
X99121120Y-114497474D01*
D41*
X100347520Y-113295874D02*
X99052720Y-113295876D01*
X101482720Y-112160676D02*
X100347520Y-113295874D01*
X101482721Y-111957475D02*
X101482720Y-112160676D01*
X96521920Y-112025876D02*
X96504320Y-112008275D01*
X99052720Y-112025875D02*
X96521920Y-112025876D01*
X96471121Y-110755876D02*
X96453520Y-110738275D01*
X99052720Y-110755875D02*
X96471121Y-110755876D01*
X98437000Y-82677000D02*
X98425000Y-82677000D01*
X98425000Y-82677000D02*
X98044000Y-82296000D01*
X95567500Y-106362500D02*
X95821500Y-106616500D01*
X95821500Y-106616500D02*
X95821500Y-107759500D01*
X95567500Y-106045000D02*
X95567500Y-106362500D01*
X95821500Y-107759500D02*
X95821500Y-110236000D01*
X96323775Y-110738275D02*
X95821500Y-110236000D01*
X96453520Y-110738275D02*
X96323775Y-110738275D01*
X96471120Y-109485875D02*
X96453520Y-109468275D01*
X99052720Y-109485875D02*
X96471120Y-109485875D01*
D42*
X91842720Y-96838675D02*
X91760720Y-96920675D01*
X91842720Y-94990275D02*
X91842720Y-96838675D01*
D37*
X91170320Y-94990274D02*
X90662320Y-94990275D01*
X91760721Y-95580674D02*
X91170320Y-94990274D01*
X91760720Y-96920675D02*
X91760721Y-95580674D01*
X94726319Y-107537875D02*
X94827919Y-107639475D01*
X94827919Y-107639475D02*
X94827920Y-109417475D01*
D41*
X96435921Y-108215874D02*
X96402720Y-108249074D01*
X99052720Y-108215874D02*
X96435921Y-108215874D01*
X89239920Y-96920674D02*
X89239920Y-97682675D01*
D40*
X87727920Y-96920676D02*
X87157120Y-96349876D01*
X89239920Y-96920674D02*
X87727920Y-96920676D01*
D37*
X89239919Y-95396675D02*
X89189119Y-95345875D01*
X89239920Y-96920674D02*
X89239919Y-95396675D01*
D41*
X96420320Y-106945875D02*
X96402720Y-106928275D01*
X99052720Y-106945876D02*
X96420320Y-106945875D01*
X96435920Y-105675875D02*
X96402720Y-105709075D01*
X99052720Y-105675875D02*
X96435920Y-105675875D01*
X96369520Y-104405875D02*
X96351920Y-104388275D01*
X99052720Y-104405875D02*
X96369520Y-104405875D01*
X96369520Y-103135875D02*
X96351920Y-103153475D01*
X96351920Y-103153475D02*
X96351920Y-103169075D01*
X99052720Y-103135875D02*
X96369520Y-103135875D01*
X99907920Y-91789875D02*
X99907921Y-90418275D01*
X99907920Y-100883074D02*
X99907920Y-91789875D01*
X99052720Y-101738275D02*
X99907920Y-100883074D01*
X99052720Y-101865874D02*
X99052720Y-101738275D01*
X99907921Y-90401579D02*
X99907921Y-90418275D01*
X101212026Y-89097474D02*
X99907921Y-90401579D01*
X101482721Y-89097474D02*
X101212026Y-89097474D01*
D37*
X81052721Y-87260275D02*
X80349920Y-86557475D01*
X80349920Y-86557475D02*
X78622721Y-86557474D01*
X81052720Y-90570676D02*
X81052721Y-87260275D01*
X81052720Y-97377875D02*
X81052720Y-90570676D01*
X81052721Y-101865874D02*
X81052720Y-97377875D01*
D41*
X81052720Y-90519876D02*
X81103520Y-90570676D01*
X81103520Y-90570676D02*
X81111920Y-90570674D01*
X81111920Y-90570674D02*
X81052720Y-90570676D01*
X81942501Y-90519874D02*
X81052720Y-90519876D01*
D42*
X78787120Y-86393075D02*
X78622721Y-86557474D01*
X83855120Y-86393075D02*
X78787120Y-86393075D01*
D37*
X81052720Y-97444275D02*
X81052720Y-97377875D01*
X83107520Y-97444275D02*
X81052720Y-97444275D01*
X83872720Y-103135875D02*
X83905920Y-103169075D01*
X81052720Y-103135875D02*
X83872720Y-103135875D01*
X83313919Y-104405875D02*
X83347119Y-104439075D01*
X81052721Y-104405875D02*
X83313919Y-104405875D01*
X82973920Y-105675875D02*
X82940720Y-105709075D01*
X81052720Y-105675875D02*
X82973920Y-105675875D01*
X82973920Y-106945874D02*
X82991520Y-106928275D01*
X81052720Y-106945874D02*
X82973920Y-106945874D01*
X82973920Y-108215875D02*
X82991520Y-108198276D01*
X81052720Y-108215875D02*
X82973920Y-108215875D01*
X83024720Y-109485875D02*
X83007120Y-109468275D01*
X83007120Y-109468275D02*
X82940720Y-109468274D01*
X81052720Y-109485875D02*
X83024720Y-109485875D01*
X83009120Y-112025875D02*
X83042320Y-112059075D01*
X81052720Y-112025875D02*
X83009120Y-112025875D01*
D39*
X79961120Y-115835875D02*
X78622720Y-114497476D01*
X81052720Y-115835875D02*
X79961120Y-115835875D01*
X78691120Y-117105875D02*
X78622720Y-117037475D01*
X81052720Y-117105876D02*
X78691120Y-117105875D01*
D41*
X93227720Y-98622475D02*
X93253120Y-98597075D01*
X93227720Y-100375875D02*
X93227720Y-98622475D01*
X91957720Y-99028875D02*
X92389520Y-98597075D01*
X91957720Y-100375876D02*
X91957720Y-99028875D01*
X90687721Y-100375876D02*
X90687719Y-99384475D01*
X90687719Y-99384475D02*
X91525920Y-98546275D01*
D37*
X87919121Y-97835074D02*
X87969921Y-97784274D01*
X87919121Y-97885874D02*
X87919121Y-97835074D01*
X89417720Y-99384474D02*
X87919121Y-97885874D01*
X89417720Y-100375876D02*
X89417720Y-99384474D01*
X88147720Y-98876476D02*
X86953920Y-97682676D01*
X88147720Y-100375875D02*
X88147720Y-98876476D01*
X86877720Y-98622475D02*
X86903120Y-98597075D01*
X86877720Y-100375875D02*
X86877720Y-98622475D01*
X85607720Y-98622476D02*
X85633120Y-98597076D01*
X85607720Y-100375876D02*
X85607720Y-98622476D01*
X80927844Y-85713000D02*
X80947520Y-85732676D01*
D40*
X80947520Y-85732676D02*
X80807120Y-85592275D01*
X80095920Y-81477474D02*
X78622720Y-81477475D01*
X80807120Y-82188674D02*
X80095920Y-81477474D01*
X80807120Y-85592275D02*
X80807120Y-82188674D01*
D37*
X82232500Y-85713000D02*
X80927844Y-85713000D01*
X79181520Y-84017476D02*
X78622720Y-84017475D01*
X84337721Y-98673276D02*
X84413922Y-98597075D01*
X84337721Y-100375876D02*
X84337721Y-98673276D01*
D41*
X83257520Y-87167075D02*
X82444720Y-87979875D01*
X85074320Y-87167075D02*
X83257520Y-87167075D01*
X85394360Y-86847035D02*
X85074320Y-87167075D01*
X85394360Y-86471076D02*
X85394360Y-86847035D01*
X86541124Y-87833873D02*
X86541122Y-85649472D01*
X86541122Y-85649472D02*
X86547520Y-85643074D01*
X86547520Y-85643074D02*
X89646320Y-85643075D01*
X89646320Y-85643075D02*
X90509920Y-84779475D01*
X90509920Y-84779475D02*
X90509921Y-84017476D01*
X90509921Y-84017476D02*
X90763921Y-83763475D01*
X85394360Y-89632715D02*
X85531520Y-89769876D01*
X85394360Y-88371075D02*
X85394360Y-89632715D01*
X86003920Y-88371075D02*
X86541124Y-87833873D01*
X85394360Y-88371075D02*
X86003920Y-88371075D01*
D11*
X85499160Y-88475875D02*
X85394360Y-88371075D01*
D41*
X85633161Y-88132276D02*
X85394360Y-88371075D01*
X85593786Y-88570500D02*
X85394360Y-88371074D01*
X89027000Y-88570500D02*
X85593786Y-88570500D01*
X91313000Y-80264000D02*
X91059000Y-80264000D01*
X92342025Y-79234975D02*
X91313000Y-80264000D01*
X92352258Y-79234975D02*
X92342025Y-79234975D01*
X85331520Y-91469876D02*
X85531520Y-91269874D01*
X83941481Y-91469876D02*
X85331520Y-91469876D01*
X83944720Y-89566635D02*
X83941480Y-89569875D01*
X83944719Y-87979875D02*
X83944720Y-89566635D01*
D37*
X84356722Y-87624274D02*
X85683920Y-87624275D01*
X85683920Y-87624275D02*
X86141120Y-87167075D01*
X86141120Y-87167075D02*
X86141120Y-85033475D01*
X86141120Y-85033475D02*
X87004720Y-84169875D01*
X87004720Y-84169875D02*
X87004720Y-83357076D01*
X84001122Y-87979875D02*
X84356722Y-87624274D01*
D41*
X83944719Y-87979875D02*
X84001122Y-87979875D01*
D37*
X91325700Y-83108800D02*
X87252996Y-83108800D01*
X87252996Y-83108800D02*
X87004720Y-83357076D01*
X93766472Y-80668028D02*
X91325700Y-83108800D01*
X93766472Y-80649188D02*
X93766472Y-80668028D01*
D41*
X87872000Y-82435000D02*
X87757000Y-82435000D01*
X89344500Y-80962500D02*
X87872000Y-82435000D01*
X91376500Y-80962500D02*
X89344500Y-80962500D01*
X92705812Y-79633188D02*
X91376500Y-80962500D01*
X92705812Y-79588528D02*
X92705812Y-79633188D01*
D37*
X91881520Y-91879475D02*
X90154320Y-91879475D01*
D41*
X98552000Y-97040000D02*
X98425000Y-97167000D01*
X98552000Y-96000000D02*
X98552000Y-97040000D01*
X89471500Y-82169000D02*
X90106500Y-81534000D01*
X90106500Y-81534000D02*
X91467447Y-81534000D01*
X91467447Y-81534000D02*
X93059365Y-79942082D01*
X89471500Y-82435000D02*
X89471500Y-82169000D01*
D11*
X83499520Y-84017476D02*
X83284321Y-84232675D01*
X83284321Y-84232675D02*
X82178720Y-84232675D01*
D37*
X91440000Y-77343000D02*
X91440000Y-77152500D01*
X92342025Y-78245025D02*
X91440000Y-77343000D01*
X92352258Y-78245025D02*
X92342025Y-78245025D01*
X99937000Y-77724000D02*
X99937000Y-80264000D01*
X99937000Y-80264000D02*
X99937000Y-82677000D01*
M02*
