G04 #@! TF.FileFunction,Copper,L2,Bot,Signal*
%FSLAX46Y46*%
G04 Gerber Fmt 4.6, Leading zero omitted, Abs format (unit mm)*
G04 Created by KiCad (PCBNEW (2015-01-16 BZR 5376)-product) date 12-Apr-17 8:39:58 AM*
%MOMM*%
G01*
G04 APERTURE LIST*
%ADD10C,0.100000*%
%ADD11C,0.150000*%
%ADD12R,2.032000X1.727200*%
%ADD13O,2.032000X1.727200*%
%ADD14C,1.500000*%
%ADD15O,2.200000X2.500000*%
%ADD16C,0.600000*%
%ADD17C,0.400000*%
%ADD18C,0.250000*%
%ADD19C,0.200000*%
%ADD20C,0.300000*%
G04 APERTURE END LIST*
D10*
D11*
X98806000Y-128143000D02*
X99060000Y-127889000D01*
X81407000Y-128143000D02*
X98806000Y-128143000D01*
X81153000Y-127889000D02*
X81407000Y-128143000D01*
X77343000Y-124714000D02*
X77343000Y-68580000D01*
X79248000Y-125984000D02*
X78613000Y-125984000D01*
X101473000Y-125984000D02*
X100965000Y-125984000D01*
X102743000Y-68580000D02*
X102743000Y-124714000D01*
X78613000Y-67310000D02*
X101473000Y-67310000D01*
X78613000Y-67310000D02*
G75*
G03X77343000Y-68580000I0J-1270000D01*
G01*
X102743000Y-68580000D02*
G75*
G03X101473000Y-67310000I-1270000J0D01*
G01*
X101473000Y-125984000D02*
G75*
G03X102743000Y-124714000I0J1270000D01*
G01*
X77343000Y-124714000D02*
G75*
G03X78613000Y-125984000I1270000J0D01*
G01*
X81153000Y-127889000D02*
X79248000Y-125984000D01*
X100965000Y-125984000D02*
X99060000Y-127889000D01*
D12*
X78622721Y-119577474D03*
D13*
X78622721Y-117037474D03*
X78622721Y-114497474D03*
X78622721Y-111957474D03*
X78622721Y-109417474D03*
X78622721Y-106877474D03*
X78622721Y-104337474D03*
X78622721Y-101797474D03*
X78622721Y-99257474D03*
X78622721Y-96717474D03*
X78622721Y-94177474D03*
X78622721Y-91637474D03*
X78622721Y-89097474D03*
X78622721Y-86557474D03*
X78622721Y-84017474D03*
X78622721Y-81477474D03*
X78622721Y-78937474D03*
X78622721Y-76397474D03*
X78622721Y-73857474D03*
D12*
X101482721Y-119577474D03*
D13*
X101482721Y-117037474D03*
X101482721Y-114497474D03*
X101482721Y-111957474D03*
X101482721Y-109417474D03*
X101482721Y-106877474D03*
X101482721Y-104337474D03*
X101482721Y-101797474D03*
X101482721Y-99257474D03*
X101482721Y-96717474D03*
X101482721Y-94177474D03*
X101482721Y-91637474D03*
X101482721Y-89097474D03*
X101482721Y-86557474D03*
X101482721Y-84017474D03*
X101482721Y-81477474D03*
X101482721Y-78937474D03*
X101482721Y-76397474D03*
X101482721Y-73857474D03*
D14*
X96659000Y-72136000D03*
D15*
X97859000Y-69486000D03*
D14*
X91809000Y-72136000D03*
D15*
X90609000Y-69486000D03*
D16*
X91948000Y-85979000D03*
X92329000Y-73914000D03*
X92202000Y-88900000D03*
X82991520Y-110585875D03*
X90255920Y-93313875D03*
X95046800Y-82600800D03*
X97840800Y-75844400D03*
X98094800Y-85547200D03*
X89290720Y-77616675D03*
X95707200Y-74676000D03*
X94132400Y-82600800D03*
X91576720Y-85287475D03*
X82585120Y-76397475D03*
X97536000Y-83058000D03*
X98704400Y-77851000D03*
X97028000Y-89725500D03*
X85407500Y-84899500D03*
X86169500Y-92456000D03*
X93964320Y-107080674D03*
X87766720Y-93313875D03*
X96351920Y-117139075D03*
X88138000Y-86360000D03*
X94932500Y-94170500D03*
X87766720Y-84982675D03*
X83042320Y-114548276D03*
X89443121Y-84982676D03*
X89290720Y-106064675D03*
X87766720Y-105861475D03*
X83042320Y-113329074D03*
X94742000Y-73787000D03*
X96393000Y-78816200D03*
X93980000Y-74041000D03*
X95377000Y-79933800D03*
X90678000Y-85471000D03*
X88011000Y-78105000D03*
X90805000Y-86487000D03*
X97180400Y-88849200D03*
X100457000Y-87820500D03*
X94573921Y-98546276D03*
X96504320Y-112008275D03*
X96453520Y-110738275D03*
X94827920Y-109417475D03*
X94726319Y-107537875D03*
X90662320Y-94990275D03*
X96453520Y-109468275D03*
X89189119Y-95345875D03*
X96402720Y-108249074D03*
X96402720Y-106928275D03*
X96402720Y-105709075D03*
X96351920Y-104388275D03*
X96351920Y-103169075D03*
X83905920Y-103169075D03*
X83347119Y-104439075D03*
X82940720Y-105709075D03*
X82991520Y-106928275D03*
X90220800Y-103530400D03*
X92151200Y-104851200D03*
X82991520Y-108198276D03*
X82940720Y-109468274D03*
X83042320Y-112059075D03*
X93253120Y-98597075D03*
X92389520Y-98597075D03*
X91525920Y-98546275D03*
X87969921Y-97784274D03*
X86953920Y-97682676D03*
X86903120Y-98597075D03*
X85633120Y-98597076D03*
X84413922Y-98597075D03*
X90763921Y-83763475D03*
X91313000Y-81178400D03*
X83499520Y-84017476D03*
X90017600Y-80873600D03*
D17*
X93405520Y-82493474D02*
X93405520Y-84830275D01*
X92440320Y-85795474D02*
X91948000Y-85979000D01*
X92440321Y-85795474D02*
X92440320Y-85795474D01*
X93405520Y-84830275D02*
X92440321Y-85795474D01*
X93405520Y-75330675D02*
X93405520Y-82493474D01*
X92329000Y-73914000D02*
X93405520Y-74990520D01*
X93405520Y-74990520D02*
X93405520Y-75330675D01*
X93405520Y-82493474D02*
X93405520Y-82493474D01*
X90170000Y-88773000D02*
X89392320Y-89550680D01*
X92075000Y-88773000D02*
X90170000Y-88773000D01*
X92202000Y-88900000D02*
X92075000Y-88773000D01*
D18*
X78622720Y-104337475D02*
X80400721Y-104337475D01*
D11*
X80400721Y-104337475D02*
X80807120Y-104743875D01*
X80807120Y-104743875D02*
X80807120Y-110077875D01*
X80807120Y-110077875D02*
X81315120Y-110585875D01*
X81315120Y-110585875D02*
X82991520Y-110585875D01*
D19*
X89392320Y-89550680D02*
X89392320Y-92450276D01*
X89392320Y-92450276D02*
X90255920Y-93313875D01*
D18*
X97790000Y-75844400D02*
X97840800Y-75844400D01*
X97561400Y-76073000D02*
X97790000Y-75844400D01*
X97561400Y-80086200D02*
X97561400Y-76073000D01*
X95961200Y-82600800D02*
X97561400Y-81000600D01*
X97561400Y-81000600D02*
X97561400Y-80086200D01*
X95046800Y-82600800D02*
X95961200Y-82600800D01*
D20*
X98488500Y-84328000D02*
X98488500Y-83883500D01*
X98786998Y-83585002D02*
X98786998Y-82073798D01*
X98488500Y-83883500D02*
X98786998Y-83585002D01*
X98094800Y-85547200D02*
X98202798Y-85547200D01*
X98488500Y-85261498D02*
X98488500Y-84328000D01*
X98202798Y-85547200D02*
X98488500Y-85261498D01*
D18*
X97993200Y-76758800D02*
X99110800Y-75641200D01*
X99110800Y-75641200D02*
X99110800Y-74371200D01*
X99110800Y-74371200D02*
X98450400Y-73710800D01*
X98450400Y-73710800D02*
X95808800Y-73710800D01*
X95808800Y-73710800D02*
X95707200Y-73812400D01*
X95707200Y-73812400D02*
X95707200Y-74676000D01*
X97993200Y-77063600D02*
X97993200Y-76758800D01*
X97993200Y-78333600D02*
X97993200Y-78105000D01*
X97993200Y-78105000D02*
X97993200Y-77063600D01*
X97993200Y-81280000D02*
X97993200Y-78333600D01*
X95351600Y-83921600D02*
X97993200Y-81280000D01*
X94234000Y-83921600D02*
X95351600Y-83921600D01*
X94132400Y-83820000D02*
X94234000Y-83921600D01*
X94132400Y-82600800D02*
X94132400Y-83820000D01*
D20*
X89544719Y-77616675D02*
X89290720Y-77616675D01*
X92389520Y-84474676D02*
X92389520Y-80461475D01*
X91576720Y-85287475D02*
X92389520Y-84474676D01*
D19*
X88071520Y-76397475D02*
X82585120Y-76397475D01*
X89290720Y-77616675D02*
X88071520Y-76397475D01*
D20*
X92389520Y-80461475D02*
X89544719Y-77616675D01*
D18*
X97993200Y-78486000D02*
X97993200Y-78384400D01*
X97993200Y-78562200D02*
X97993200Y-78117700D01*
D20*
X98786998Y-82073798D02*
X98488500Y-81775300D01*
X98488500Y-81775300D02*
X97993200Y-81280000D01*
D18*
X97536000Y-83058000D02*
X96824800Y-83769200D01*
D19*
X98704400Y-77851000D02*
X97993200Y-77139800D01*
X97993200Y-77139800D02*
X97993200Y-77089000D01*
X97993200Y-77089000D02*
X98018600Y-77063600D01*
X98018600Y-77063600D02*
X97993200Y-77063600D01*
D20*
X97028000Y-89725500D02*
X97155000Y-89598500D01*
X97155000Y-89598500D02*
X97536000Y-89598500D01*
X97536000Y-89598500D02*
X97790000Y-89344500D01*
X97790000Y-89344500D02*
X97790000Y-88036400D01*
X97790000Y-88036400D02*
X97790000Y-88074500D01*
X97790000Y-88074500D02*
X97790000Y-88036400D01*
X96824800Y-87071200D02*
X96824800Y-84772500D01*
X97790000Y-88036400D02*
X96824800Y-87071200D01*
D18*
X96824800Y-83769200D02*
X96824800Y-84696300D01*
D19*
X86233000Y-85725000D02*
X85407500Y-84899500D01*
X86233000Y-92392500D02*
X86233000Y-85725000D01*
X86169500Y-92456000D02*
X86233000Y-92392500D01*
D18*
X93964320Y-101457344D02*
X93964320Y-107080674D01*
X93027480Y-100520500D02*
X93964320Y-101457344D01*
X90995500Y-100520500D02*
X93027480Y-100520500D01*
X90043000Y-99568000D02*
X90995500Y-100520500D01*
X90043000Y-97599500D02*
X90043000Y-99568000D01*
X90713120Y-96929380D02*
X90043000Y-97599500D01*
X90713121Y-96057075D02*
X90713120Y-96929380D01*
X90001920Y-95345875D02*
X90713121Y-96057075D01*
X90001920Y-94939475D02*
X90001920Y-95345875D01*
X89697120Y-94634674D02*
X90001920Y-94939475D01*
X89087520Y-94634674D02*
X89697120Y-94634674D01*
X87766720Y-93313875D02*
X89087520Y-94634674D01*
D19*
X101482721Y-119577474D02*
X96402720Y-119577476D01*
X96402720Y-119577476D02*
X96351920Y-119526676D01*
X96351920Y-119526676D02*
X96351920Y-117139075D01*
X88138000Y-92456000D02*
X88138000Y-86360000D01*
X89662000Y-93980000D02*
X88138000Y-92456000D01*
X94742000Y-93980000D02*
X89662000Y-93980000D01*
X94932500Y-94170500D02*
X94742000Y-93980000D01*
X84617120Y-114548274D02*
X83042320Y-114548276D01*
X85531520Y-113633874D02*
X84617120Y-114548274D01*
X85531521Y-107741075D02*
X85531520Y-113633874D01*
X86445922Y-106826675D02*
X85531521Y-107741075D01*
X87817520Y-106826676D02*
X86445922Y-106826675D01*
X88630320Y-106013874D02*
X87817520Y-106826676D01*
X88630320Y-97581076D02*
X88630320Y-106013874D01*
X86750720Y-95701474D02*
X88630320Y-97581076D01*
X86750720Y-85998675D02*
X86750720Y-95701474D01*
X87766720Y-84982675D02*
X86750720Y-85998675D01*
D18*
X80857920Y-114548276D02*
X78622720Y-112313076D01*
X83042320Y-114548276D02*
X80857920Y-114548276D01*
X78622720Y-112313076D02*
X78622721Y-111957475D01*
D19*
X89443121Y-84982676D02*
X89443120Y-85338275D01*
X89443120Y-85338275D02*
X89290720Y-85490676D01*
X89290720Y-85490676D02*
X88122320Y-85490674D01*
X88122320Y-85490674D02*
X87207920Y-86405074D01*
X87207920Y-86405074D02*
X87207920Y-95498275D01*
X87207920Y-95498275D02*
X89138320Y-97428675D01*
X89138320Y-97428675D02*
X89138320Y-105912275D01*
X89138320Y-105912275D02*
X89290720Y-106064675D01*
X87766720Y-105861475D02*
X87258720Y-106369475D01*
X87258720Y-106369475D02*
X86344320Y-106369474D01*
X86344320Y-106369474D02*
X86141120Y-106369474D01*
X86141120Y-106369474D02*
X85125120Y-107385474D01*
X85125120Y-107385474D02*
X85125120Y-112821075D01*
X85125120Y-112821075D02*
X84617121Y-113329074D01*
X84617121Y-113329074D02*
X83042320Y-113329074D01*
D18*
X79943520Y-109417475D02*
X78622721Y-109417474D01*
X83042320Y-113329074D02*
X82991520Y-113278274D01*
X82991520Y-113278274D02*
X81619920Y-113278274D01*
X81619920Y-113278274D02*
X79994320Y-111652675D01*
X79994320Y-111652675D02*
X79994320Y-109468275D01*
X79994320Y-109468275D02*
X79943520Y-109417475D01*
D19*
X94742000Y-75387200D02*
X94742000Y-73787000D01*
X94742000Y-77165200D02*
X94742000Y-75412600D01*
X96393000Y-78816200D02*
X94742000Y-77165200D01*
X93980000Y-78333600D02*
X93980000Y-78282800D01*
X93980000Y-78282800D02*
X93980000Y-74041000D01*
X95377000Y-79933800D02*
X93980000Y-78536800D01*
X93980000Y-78536800D02*
X93980000Y-78282800D01*
X88519000Y-78994000D02*
X88519000Y-78613000D01*
X88519000Y-78613000D02*
X88011000Y-78105000D01*
X88519000Y-82550000D02*
X88519000Y-78994000D01*
X88519000Y-78994000D02*
X88519000Y-78867000D01*
X90424000Y-84455000D02*
X88519000Y-82550000D01*
X90424000Y-85217000D02*
X90424000Y-84455000D01*
X90678000Y-85471000D02*
X90424000Y-85217000D01*
X101482721Y-84017474D02*
X101482721Y-84064279D01*
X101482721Y-84064279D02*
X100076000Y-85471000D01*
X100076000Y-85471000D02*
X100076000Y-87376000D01*
X100076000Y-87376000D02*
X99907920Y-87544080D01*
X99907920Y-88455500D02*
X99907920Y-88369580D01*
X99907920Y-88369580D02*
X100457000Y-87820500D01*
X90805000Y-86487000D02*
X93154500Y-88836500D01*
X97167700Y-88836500D02*
X93154500Y-88836500D01*
X97180400Y-88849200D02*
X97167700Y-88836500D01*
X99907920Y-92958274D02*
X99907920Y-88455500D01*
X99907920Y-88455500D02*
X99907920Y-87820500D01*
X99907920Y-87820500D02*
X99907920Y-87544080D01*
X96453519Y-96412675D02*
X99907920Y-92958274D01*
X96453520Y-96666675D02*
X96453519Y-96412675D01*
X94573921Y-98546276D02*
X96453520Y-96666675D01*
X100263520Y-109417475D02*
X101482721Y-109417474D01*
X100009522Y-109671475D02*
X100263520Y-109417475D01*
X100009520Y-111347874D02*
X100009522Y-109671475D01*
X99349121Y-112008275D02*
X100009520Y-111347874D01*
X96504320Y-112008275D02*
X99349121Y-112008275D01*
X99806320Y-106877475D02*
X101482720Y-106877475D01*
X99609518Y-107074277D02*
X99806320Y-106877475D01*
X99609519Y-110122278D02*
X99609518Y-107074277D01*
X98993521Y-110738275D02*
X99609519Y-110122278D01*
X96453520Y-110738275D02*
X98993521Y-110738275D01*
D18*
X94710250Y-101346000D02*
X94710250Y-101187250D01*
X94710250Y-101187250D02*
X93472000Y-99949000D01*
X94710250Y-101346000D02*
X94710250Y-107521806D01*
X94827920Y-109417475D02*
X94878720Y-109468275D01*
X94878720Y-109468275D02*
X96453520Y-109468275D01*
X94710250Y-107521806D02*
X94726319Y-107537875D01*
X90662320Y-94990275D02*
X90713120Y-94939475D01*
X90713120Y-94939475D02*
X91119521Y-94939474D01*
X91119521Y-94939474D02*
X91779921Y-95599875D01*
X91779921Y-95599875D02*
X91779921Y-96497579D01*
X91779921Y-96497579D02*
X90487500Y-97789999D01*
X90487500Y-97789999D02*
X90487500Y-99187000D01*
X90487500Y-99187000D02*
X91249500Y-99949000D01*
X91249500Y-99949000D02*
X93472000Y-99949000D01*
D19*
X99653920Y-104337475D02*
X101482720Y-104337475D01*
X96453520Y-109468275D02*
X98891920Y-109468275D01*
X98891920Y-109468275D02*
X99209516Y-109150679D01*
X99209516Y-109150679D02*
X99209516Y-104781879D01*
X99209516Y-104781879D02*
X99653920Y-104337475D01*
D18*
X89189119Y-95345875D02*
X89189120Y-96869874D01*
X93405520Y-108249076D02*
X96402720Y-108249074D01*
X93303920Y-108147476D02*
X93405520Y-108249076D01*
X93303920Y-107436274D02*
X93303920Y-108147476D01*
X92643522Y-106775875D02*
X93303920Y-107436274D01*
X91271920Y-106775875D02*
X92643522Y-106775875D01*
X89534998Y-105038952D02*
X91271920Y-106775875D01*
X89535000Y-97215753D02*
X89534998Y-105038952D01*
X89189120Y-96869874D02*
X89535000Y-97215753D01*
X89189119Y-95345875D02*
X89239919Y-95396675D01*
D19*
X98993520Y-101797476D02*
X101482720Y-101797476D01*
X98536320Y-102254674D02*
X98993520Y-101797476D01*
X98536320Y-108096674D02*
X98536320Y-102254674D01*
X98434720Y-108198274D02*
X98536320Y-108096674D01*
X96453520Y-108198274D02*
X98434720Y-108198274D01*
X96402720Y-108249074D02*
X96453520Y-108198274D01*
X100568320Y-99257475D02*
X101482720Y-99257475D01*
X98136318Y-101689477D02*
X100568320Y-99257475D01*
X98136319Y-106667877D02*
X98136318Y-101689477D01*
X97875920Y-106928276D02*
X98136319Y-106667877D01*
X96402720Y-106928275D02*
X97875920Y-106928276D01*
X101945120Y-96717474D02*
X101482721Y-96717474D01*
X97723520Y-100939074D02*
X101945120Y-96717474D01*
X97723522Y-105417071D02*
X97723520Y-100939074D01*
X97482318Y-105658275D02*
X97723522Y-105417071D01*
X96453520Y-105658275D02*
X97482318Y-105658275D01*
X96402720Y-105709075D02*
X96453520Y-105658275D01*
X101990719Y-94177475D02*
X101482720Y-94177475D01*
X97317121Y-98851074D02*
X101990719Y-94177475D01*
X97317120Y-104083476D02*
X97317121Y-98851074D01*
X97012321Y-104388275D02*
X97317120Y-104083476D01*
X96351920Y-104388275D02*
X97012321Y-104388275D01*
X101921921Y-91637474D02*
X101482720Y-91637476D01*
X96917119Y-96642276D02*
X101921921Y-91637474D01*
X96917118Y-102965875D02*
X96917119Y-96642276D01*
X96764718Y-103118275D02*
X96917118Y-102965875D01*
X96402720Y-103118276D02*
X96764718Y-103118275D01*
X96351920Y-103169075D02*
X96402720Y-103118276D01*
D18*
X80095920Y-89097475D02*
X78622721Y-89097475D01*
X80502320Y-89503874D02*
X80095920Y-89097475D01*
X80502320Y-91180276D02*
X80502320Y-89503874D01*
X83753520Y-94431476D02*
X80502320Y-91180276D01*
X83753520Y-103016676D02*
X83753520Y-94431476D01*
X83905920Y-103169075D02*
X83753520Y-103016676D01*
X80036720Y-91637476D02*
X78622720Y-91637476D01*
X83245520Y-94846275D02*
X80036720Y-91637476D01*
X83245520Y-104337475D02*
X83245520Y-94846275D01*
X83347119Y-104439075D02*
X83245520Y-104337475D01*
X79994320Y-94177474D02*
X78622720Y-94177475D01*
X82686721Y-96869874D02*
X79994320Y-94177474D01*
X82686721Y-105455075D02*
X82686721Y-96869874D01*
X82940720Y-105709075D02*
X82686721Y-105455075D01*
X79892720Y-96717475D02*
X78622721Y-96717474D01*
X82171523Y-98996277D02*
X79892720Y-96717475D01*
X82171522Y-106768677D02*
X82171523Y-98996277D01*
X82331121Y-106928276D02*
X82171522Y-106768677D01*
X82991520Y-106928275D02*
X82331121Y-106928276D01*
X91541600Y-104851200D02*
X92151200Y-104851200D01*
X90220800Y-103530400D02*
X91541600Y-104851200D01*
X81264322Y-99257475D02*
X78622720Y-99257475D01*
X81721520Y-99714675D02*
X81264322Y-99257475D01*
X81721520Y-107741075D02*
X81721520Y-99714675D01*
X82178720Y-108198274D02*
X81721520Y-107741075D01*
X82991520Y-108198276D02*
X82178720Y-108198274D01*
X80400720Y-101797476D02*
X78622720Y-101797476D01*
X81257122Y-102653877D02*
X80400720Y-101797476D01*
X81257122Y-109003877D02*
X81257122Y-102653877D01*
X81721520Y-109468275D02*
X81257122Y-109003877D01*
X82940720Y-109468274D02*
X81721520Y-109468275D01*
X80349921Y-106877475D02*
X78622720Y-106877475D01*
X80400721Y-106928275D02*
X80349921Y-106877475D01*
X80400721Y-111043075D02*
X80400721Y-106928275D01*
X81365921Y-112008275D02*
X80400721Y-111043075D01*
X82991519Y-112008275D02*
X81365921Y-112008275D01*
X83042320Y-112059075D02*
X82991519Y-112008275D01*
D19*
X99695000Y-85407500D02*
X99695000Y-85153500D01*
X100012500Y-82947695D02*
X101482721Y-81477474D01*
X100012500Y-84836000D02*
X100012500Y-82947695D01*
X99695000Y-85153500D02*
X100012500Y-84836000D01*
X99507918Y-88138000D02*
X99507918Y-87340080D01*
X99695000Y-87152998D02*
X99695000Y-85407500D01*
X99507918Y-87340080D02*
X99695000Y-87152998D01*
X101275526Y-81477474D02*
X101482721Y-81477474D01*
X99507918Y-92647077D02*
X99507918Y-88138000D01*
X93608720Y-98546275D02*
X99507918Y-92647077D01*
X93303920Y-98546275D02*
X93608720Y-98546275D01*
X93253120Y-98597075D02*
X93303920Y-98546275D01*
X99044320Y-87820500D02*
X99044320Y-87010680D01*
X99631500Y-80010000D02*
X100704026Y-78937474D01*
X99631500Y-84455000D02*
X99631500Y-80010000D01*
X99344998Y-84741502D02*
X99631500Y-84455000D01*
X99344998Y-86710002D02*
X99344998Y-84741502D01*
X99044320Y-87010680D02*
X99344998Y-86710002D01*
X100704026Y-78937474D02*
X101482721Y-78937474D01*
X99044320Y-87820500D02*
X99044320Y-92412269D01*
X99044320Y-92412269D02*
X99044321Y-92412270D01*
X99044321Y-92412270D02*
X99044321Y-92471679D01*
X93726000Y-97790000D02*
X93196595Y-97790000D01*
X99044321Y-92471679D02*
X93726000Y-97790000D01*
X92389520Y-98597075D02*
X93196595Y-97790000D01*
X99044321Y-92412270D02*
X99044321Y-92412270D01*
X98653600Y-87249000D02*
X98653600Y-86512400D01*
X99187000Y-78613000D02*
X101402526Y-76397474D01*
X99187000Y-84074000D02*
X99187000Y-78613000D01*
X98933000Y-84328000D02*
X99187000Y-84074000D01*
X98933000Y-86233000D02*
X98933000Y-84328000D01*
X98653600Y-86512400D02*
X98933000Y-86233000D01*
X101402526Y-76397474D02*
X101482721Y-76397474D01*
X98653600Y-92202000D02*
X98653600Y-92227400D01*
X98653600Y-92227400D02*
X98234500Y-92646500D01*
X101482721Y-76397474D02*
X100945326Y-76397474D01*
X98653600Y-87249000D02*
X98653600Y-92202000D01*
X98653600Y-92202000D02*
X98653600Y-92202000D01*
X93726000Y-97155000D02*
X92917195Y-97155000D01*
X91525920Y-98546275D02*
X92917195Y-97155000D01*
X98234500Y-92646500D02*
X93726000Y-97155000D01*
X101838320Y-76397474D02*
X101482720Y-76397475D01*
D18*
X87969921Y-97784274D02*
X86184722Y-95999077D01*
X86184722Y-95999077D02*
X86184722Y-93517076D01*
X86184722Y-93517076D02*
X82839120Y-90171474D01*
X82839120Y-90171474D02*
X82839120Y-83516673D01*
X82839120Y-83516673D02*
X81772321Y-82449873D01*
X81772321Y-82449873D02*
X81772320Y-78944673D01*
X81772320Y-78944673D02*
X80857920Y-78030273D01*
X80857920Y-78030273D02*
X80857920Y-74619475D01*
X80857920Y-74619475D02*
X80095920Y-73857475D01*
X80095920Y-73857475D02*
X78622721Y-73857474D01*
X79943520Y-76397475D02*
X78622720Y-76397475D01*
X80400720Y-76854676D02*
X79943520Y-76397475D01*
X80400720Y-78277075D02*
X80400720Y-76854676D01*
X81315120Y-79191475D02*
X80400720Y-78277075D01*
X81315120Y-82653074D02*
X81315120Y-79191475D01*
X82381920Y-83719872D02*
X81315120Y-82653074D01*
X82381920Y-90362271D02*
X82381920Y-83719872D01*
X85734721Y-93715071D02*
X82381920Y-90362271D01*
X85734720Y-96463476D02*
X85734721Y-93715071D01*
X86953920Y-97682676D02*
X85734720Y-96463476D01*
X80299120Y-78937476D02*
X78622720Y-78937476D01*
X80857920Y-79496275D02*
X80299120Y-78937476D01*
X80857920Y-82899875D02*
X80857920Y-79496275D01*
X81873920Y-83915875D02*
X80857920Y-82899875D01*
X81873920Y-90490669D02*
X81873920Y-83915875D01*
X85277520Y-93894269D02*
X81873920Y-90490669D01*
X85277520Y-96971474D02*
X85277520Y-93894269D01*
X86903120Y-98597075D02*
X85277520Y-96971474D01*
X79994320Y-81477474D02*
X78622720Y-81477475D01*
X80349921Y-81833075D02*
X79994320Y-81477474D01*
X80349920Y-83052276D02*
X80349921Y-81833075D01*
X81402324Y-84104680D02*
X80349920Y-83052276D01*
X81402324Y-90708678D02*
X81402324Y-84104680D01*
X84711522Y-94017877D02*
X81402324Y-90708678D01*
X84711522Y-97675477D02*
X84711522Y-94017877D01*
X85633120Y-98597076D02*
X84711522Y-97675477D01*
X80349921Y-84017475D02*
X78622720Y-84017475D01*
X80952323Y-84619877D02*
X80349921Y-84017475D01*
X80952323Y-90919077D02*
X80952323Y-84619877D01*
X84261522Y-94228275D02*
X80952323Y-90919077D01*
X84261522Y-98444675D02*
X84261522Y-94228275D01*
X84413922Y-98597075D02*
X84261522Y-98444675D01*
D19*
X90763921Y-82346800D02*
X90763921Y-83763475D01*
X90763921Y-81737200D02*
X90763921Y-82346800D01*
X90779600Y-82346800D02*
X90763921Y-82346800D01*
X90763921Y-82331121D02*
X90779600Y-82346800D01*
X90763921Y-81727479D02*
X90763921Y-82331121D01*
X91313000Y-81178400D02*
X90763921Y-81727479D01*
X83499520Y-79054520D02*
X83499520Y-84017476D01*
X85274540Y-77279500D02*
X83499520Y-79054520D01*
X89090500Y-79375000D02*
X89090500Y-78359000D01*
X89090500Y-78359000D02*
X88582500Y-77851000D01*
X88582500Y-77851000D02*
X88011000Y-77279500D01*
X88011000Y-77279500D02*
X85274540Y-77279500D01*
X89090500Y-79946500D02*
X89090500Y-79375000D01*
X90017600Y-80873600D02*
X89090500Y-79946500D01*
M02*
