G04 #@! TF.FileFunction,Soldermask,Top*
%FSLAX46Y46*%
G04 Gerber Fmt 4.6, Leading zero omitted, Abs format (unit mm)*
G04 Created by KiCad (PCBNEW (2015-01-16 BZR 5376)-product) date 03-Feb-17 1:00:34 PM*
%MOMM*%
G01*
G04 APERTURE LIST*
%ADD10C,0.100000*%
%ADD11C,0.150000*%
%ADD12R,0.900000X1.300000*%
%ADD13R,1.200000X1.150000*%
%ADD14R,1.395680X3.600000*%
%ADD15R,1.398220X3.600000*%
%ADD16R,1.898600X3.798520*%
%ADD17R,1.898600X3.795980*%
%ADD18R,2.432000X2.127200*%
%ADD19O,2.432000X2.127200*%
%ADD20R,1.300000X0.900000*%
%ADD21R,2.000000X1.400000*%
%ADD22R,1.197560X1.197560*%
%ADD23R,1.460000X1.050000*%
%ADD24R,1.200100X1.200100*%
%ADD25R,1.050000X1.460000*%
%ADD26R,1.150000X1.200000*%
%ADD27R,0.800000X2.000000*%
%ADD28C,1.900000*%
%ADD29O,2.600000X2.900000*%
%ADD30R,1.310000X1.620000*%
%ADD31R,2.400000X1.300000*%
%ADD32R,1.300000X2.400000*%
%ADD33R,6.400000X6.400000*%
%ADD34R,1.400760X1.400760*%
%ADD35R,1.800000X2.300000*%
G04 APERTURE END LIST*
D10*
D11*
X98806000Y-128143000D02*
X99060000Y-127889000D01*
X81407000Y-128143000D02*
X98806000Y-128143000D01*
X81153000Y-127889000D02*
X81407000Y-128143000D01*
X77343000Y-124714000D02*
X77343000Y-68580000D01*
X79248000Y-125984000D02*
X78613000Y-125984000D01*
X101473000Y-125984000D02*
X100965000Y-125984000D01*
X102743000Y-68580000D02*
X102743000Y-124714000D01*
X78613000Y-67310000D02*
X101473000Y-67310000D01*
X78613000Y-67310000D02*
G75*
G03X77343000Y-68580000I0J-1270000D01*
G01*
X102743000Y-68580000D02*
G75*
G03X101473000Y-67310000I-1270000J0D01*
G01*
X101473000Y-125984000D02*
G75*
G03X102743000Y-124714000I0J1270000D01*
G01*
X77343000Y-124714000D02*
G75*
G03X78613000Y-125984000I1270000J0D01*
G01*
X81153000Y-127889000D02*
X79248000Y-125984000D01*
X100965000Y-125984000D02*
X99060000Y-127889000D01*
D12*
X98437000Y-80264000D03*
X99937000Y-80264000D03*
X98437000Y-82677000D03*
X99937000Y-82677000D03*
X99937000Y-77724000D03*
X98437000Y-77724000D03*
D13*
X81927000Y-82169000D03*
X83427000Y-82169000D03*
D14*
X85963760Y-74803000D03*
D15*
X83962240Y-74803000D03*
D16*
X88308180Y-69054980D03*
D17*
X81615280Y-69054980D03*
D18*
X78622721Y-119577474D03*
D19*
X78622721Y-117037474D03*
X78622721Y-114497474D03*
X78622721Y-111957474D03*
X78622721Y-109417474D03*
X78622721Y-106877474D03*
X78622721Y-104337474D03*
X78622721Y-101797474D03*
X78622721Y-99257474D03*
X78622721Y-96717474D03*
X78622721Y-94177474D03*
X78622721Y-91637474D03*
X78622721Y-89097474D03*
X78622721Y-86557474D03*
X78622721Y-84017474D03*
X78622721Y-81477474D03*
X78622721Y-78937474D03*
X78622721Y-76397474D03*
X78622721Y-73857474D03*
D18*
X101482721Y-119577474D03*
D19*
X101482721Y-117037474D03*
X101482721Y-114497474D03*
X101482721Y-111957474D03*
X101482721Y-109417474D03*
X101482721Y-106877474D03*
X101482721Y-104337474D03*
X101482721Y-101797474D03*
X101482721Y-99257474D03*
X101482721Y-96717474D03*
X101482721Y-94177474D03*
X101482721Y-91637474D03*
X101482721Y-89097474D03*
X101482721Y-86557474D03*
X101482721Y-84017474D03*
X101482721Y-81477474D03*
X101482721Y-78937474D03*
X101482721Y-76397474D03*
X101482721Y-73857474D03*
D10*
G36*
X95799404Y-81197196D02*
X95304429Y-81692171D01*
X94420546Y-80808288D01*
X94915521Y-80313313D01*
X95799404Y-81197196D01*
X95799404Y-81197196D01*
G37*
G36*
X96152957Y-80843642D02*
X95657982Y-81338617D01*
X94774099Y-80454734D01*
X95269074Y-79959759D01*
X96152957Y-80843642D01*
X96152957Y-80843642D01*
G37*
G36*
X96506511Y-80490089D02*
X96011536Y-80985064D01*
X95127653Y-80101181D01*
X95622628Y-79606206D01*
X96506511Y-80490089D01*
X96506511Y-80490089D01*
G37*
G36*
X96860064Y-80136536D02*
X96365089Y-80631511D01*
X95481206Y-79747628D01*
X95976181Y-79252653D01*
X96860064Y-80136536D01*
X96860064Y-80136536D01*
G37*
G36*
X97213617Y-79782982D02*
X96718642Y-80277957D01*
X95834759Y-79394074D01*
X96329734Y-78899099D01*
X97213617Y-79782982D01*
X97213617Y-79782982D01*
G37*
G36*
X97567171Y-79429429D02*
X97072196Y-79924404D01*
X96188313Y-79040521D01*
X96683288Y-78545546D01*
X97567171Y-79429429D01*
X97567171Y-79429429D01*
G37*
G36*
X97072196Y-77555596D02*
X97567171Y-78050571D01*
X96683288Y-78934454D01*
X96188313Y-78439479D01*
X97072196Y-77555596D01*
X97072196Y-77555596D01*
G37*
G36*
X96718642Y-77202043D02*
X97213617Y-77697018D01*
X96329734Y-78580901D01*
X95834759Y-78085926D01*
X96718642Y-77202043D01*
X96718642Y-77202043D01*
G37*
G36*
X96365089Y-76848489D02*
X96860064Y-77343464D01*
X95976181Y-78227347D01*
X95481206Y-77732372D01*
X96365089Y-76848489D01*
X96365089Y-76848489D01*
G37*
G36*
X96011536Y-76494936D02*
X96506511Y-76989911D01*
X95622628Y-77873794D01*
X95127653Y-77378819D01*
X96011536Y-76494936D01*
X96011536Y-76494936D01*
G37*
G36*
X95657982Y-76141383D02*
X96152957Y-76636358D01*
X95269074Y-77520241D01*
X94774099Y-77025266D01*
X95657982Y-76141383D01*
X95657982Y-76141383D01*
G37*
G36*
X95304429Y-75787829D02*
X95799404Y-76282804D01*
X94915521Y-77166687D01*
X94420546Y-76671712D01*
X95304429Y-75787829D01*
X95304429Y-75787829D01*
G37*
G36*
X94809454Y-76671712D02*
X94314479Y-77166687D01*
X93430596Y-76282804D01*
X93925571Y-75787829D01*
X94809454Y-76671712D01*
X94809454Y-76671712D01*
G37*
G36*
X94455901Y-77025266D02*
X93960926Y-77520241D01*
X93077043Y-76636358D01*
X93572018Y-76141383D01*
X94455901Y-77025266D01*
X94455901Y-77025266D01*
G37*
G36*
X94102347Y-77378819D02*
X93607372Y-77873794D01*
X92723489Y-76989911D01*
X93218464Y-76494936D01*
X94102347Y-77378819D01*
X94102347Y-77378819D01*
G37*
G36*
X93748794Y-77732372D02*
X93253819Y-78227347D01*
X92369936Y-77343464D01*
X92864911Y-76848489D01*
X93748794Y-77732372D01*
X93748794Y-77732372D01*
G37*
G36*
X93395241Y-78085926D02*
X92900266Y-78580901D01*
X92016383Y-77697018D01*
X92511358Y-77202043D01*
X93395241Y-78085926D01*
X93395241Y-78085926D01*
G37*
G36*
X93041687Y-78439479D02*
X92546712Y-78934454D01*
X91662829Y-78050571D01*
X92157804Y-77555596D01*
X93041687Y-78439479D01*
X93041687Y-78439479D01*
G37*
G36*
X92546712Y-78545546D02*
X93041687Y-79040521D01*
X92157804Y-79924404D01*
X91662829Y-79429429D01*
X92546712Y-78545546D01*
X92546712Y-78545546D01*
G37*
G36*
X92900266Y-78899099D02*
X93395241Y-79394074D01*
X92511358Y-80277957D01*
X92016383Y-79782982D01*
X92900266Y-78899099D01*
X92900266Y-78899099D01*
G37*
G36*
X93253819Y-79252653D02*
X93748794Y-79747628D01*
X92864911Y-80631511D01*
X92369936Y-80136536D01*
X93253819Y-79252653D01*
X93253819Y-79252653D01*
G37*
G36*
X93607372Y-79606206D02*
X94102347Y-80101181D01*
X93218464Y-80985064D01*
X92723489Y-80490089D01*
X93607372Y-79606206D01*
X93607372Y-79606206D01*
G37*
G36*
X93960926Y-79959759D02*
X94455901Y-80454734D01*
X93572018Y-81338617D01*
X93077043Y-80843642D01*
X93960926Y-79959759D01*
X93960926Y-79959759D01*
G37*
G36*
X94314479Y-80313313D02*
X94809454Y-80808288D01*
X93925571Y-81692171D01*
X93430596Y-81197196D01*
X94314479Y-80313313D01*
X94314479Y-80313313D01*
G37*
G36*
X95817082Y-77820761D02*
X94615000Y-79022843D01*
X93412918Y-77820761D01*
X94615000Y-76618679D01*
X95817082Y-77820761D01*
X95817082Y-77820761D01*
G37*
G36*
X94897843Y-78740000D02*
X93695761Y-79942082D01*
X92493679Y-78740000D01*
X93695761Y-77537918D01*
X94897843Y-78740000D01*
X94897843Y-78740000D01*
G37*
G36*
X96736321Y-78740000D02*
X95534239Y-79942082D01*
X94332157Y-78740000D01*
X95534239Y-77537918D01*
X96736321Y-78740000D01*
X96736321Y-78740000D01*
G37*
G36*
X95817082Y-79659239D02*
X94615000Y-80861321D01*
X93412918Y-79659239D01*
X94615000Y-78457157D01*
X95817082Y-79659239D01*
X95817082Y-79659239D01*
G37*
D20*
X82232500Y-85713000D03*
X82232500Y-84213000D03*
X89471500Y-83935000D03*
X89471500Y-82435000D03*
D21*
X89747920Y-76167476D03*
X89747920Y-79167476D03*
D22*
X87665120Y-81109174D03*
X87665120Y-79610574D03*
X90068400Y-74434700D03*
X90068400Y-72936100D03*
X93240420Y-93313875D03*
X91741820Y-93313875D03*
D23*
X86126500Y-80325000D03*
X86126500Y-79375000D03*
X86126500Y-78425000D03*
X83926500Y-78425000D03*
X83926500Y-80325000D03*
D24*
X97348000Y-74660760D03*
X99248000Y-74660760D03*
X98298000Y-72661780D03*
D25*
X95625519Y-87997475D03*
X94675519Y-87997475D03*
X93725519Y-87997475D03*
X93725519Y-90197475D03*
X95625519Y-90197475D03*
D24*
X85394360Y-86471074D03*
X85394360Y-88371074D03*
X87393340Y-87421074D03*
X83941480Y-91469874D03*
X83941480Y-89569874D03*
X81942500Y-90519874D03*
D12*
X98540000Y-85547200D03*
X97040000Y-85547200D03*
X84848000Y-81915000D03*
X86348000Y-81915000D03*
D20*
X91881520Y-90379475D03*
X91881520Y-91879475D03*
D12*
X84848000Y-83566000D03*
X86348000Y-83566000D03*
X82444720Y-87979875D03*
X83944720Y-87979875D03*
D20*
X85531520Y-91269874D03*
X85531520Y-89769874D03*
D12*
X98067120Y-91891475D03*
X96567120Y-91891475D03*
D20*
X87757000Y-83935000D03*
X87757000Y-82435000D03*
X89027000Y-87070500D03*
X89027000Y-88570500D03*
X83855120Y-84893075D03*
X83855120Y-86393075D03*
X98552000Y-94500000D03*
X98552000Y-96000000D03*
D13*
X85967000Y-77152500D03*
X84467000Y-77152500D03*
X93569920Y-86303475D03*
X95069920Y-86303475D03*
X96684400Y-83921600D03*
X98184400Y-83921600D03*
X94917521Y-91739074D03*
X93417521Y-91739074D03*
D21*
X97672720Y-90343474D03*
X97672720Y-87343474D03*
D13*
X91842719Y-94990275D03*
X93342719Y-94990275D03*
D26*
X88427120Y-90379475D03*
X88427120Y-91879475D03*
X87157120Y-96349875D03*
X87157120Y-94849875D03*
D20*
X98425000Y-98667000D03*
X98425000Y-97167000D03*
X90154320Y-91879475D03*
X90154320Y-90379475D03*
D27*
X95534000Y-72236000D03*
X94884000Y-72236000D03*
X94234000Y-72236000D03*
X93584000Y-72236000D03*
X92934000Y-72236000D03*
D28*
X96659000Y-72136000D03*
D29*
X97859000Y-69486000D03*
D28*
X91809000Y-72136000D03*
D29*
X90609000Y-69486000D03*
D30*
X95056200Y-84074000D03*
X91786200Y-84074000D03*
D31*
X99052721Y-118375875D03*
X99052721Y-117105875D03*
X99052721Y-115835875D03*
X99052721Y-114565875D03*
X99052721Y-113295875D03*
X99052721Y-112025875D03*
X99052721Y-110755875D03*
X99052721Y-109485875D03*
X99052721Y-108215875D03*
X99052721Y-106945875D03*
X99052721Y-105675875D03*
X99052721Y-104405875D03*
X99052721Y-103135875D03*
X99052721Y-101865875D03*
X81052721Y-118375875D03*
X81052721Y-101865875D03*
X81052721Y-103135875D03*
X81052721Y-104405875D03*
X81052721Y-105675875D03*
X81052721Y-106945875D03*
X81052721Y-108215875D03*
X81052721Y-109485875D03*
X81052721Y-110755875D03*
X81052721Y-112025875D03*
X81052721Y-113295875D03*
X81052721Y-114565875D03*
X81052721Y-115835875D03*
X81052721Y-117105875D03*
D32*
X95767721Y-100375875D03*
X94482721Y-100375875D03*
X93227721Y-100375875D03*
X91957721Y-100375875D03*
X90687721Y-100375875D03*
X89417721Y-100375875D03*
X88147721Y-100375875D03*
X86877721Y-100375875D03*
X85607721Y-100375875D03*
X84337721Y-100375875D03*
D33*
X89752721Y-110675875D03*
D34*
X97048720Y-93044275D03*
X95248720Y-97444275D03*
X95248720Y-93044275D03*
X97048720Y-97444275D03*
X83107520Y-97444275D03*
X84907520Y-93044275D03*
X84907520Y-97444275D03*
X83107520Y-93044275D03*
D35*
X91760720Y-96920675D03*
X89239920Y-96920675D03*
M02*
