M48
;DRILL file {kicad (2015-01-16 BZR 5376)-product} date 03-Feb-17 1:01:28 PM
;FORMAT={-:-/ absolute / metric / decimal}
FMAT,2
METRIC,TZ
T1C0.400
T2C0.710
T3C0.720
T4C1.016
%
G90
G05
M71
T1
X82.585Y-76.397
X82.941Y-105.709
X82.941Y-109.468
X82.992Y-106.928
X82.992Y-108.198
X82.992Y-110.586
X83.042Y-112.059
X83.042Y-113.329
X83.042Y-114.548
X83.347Y-104.439
X83.5Y-84.017
X83.906Y-103.169
X84.414Y-98.597
X85.407Y-84.899
X85.633Y-98.597
X86.169Y-92.456
X86.903Y-98.597
X86.954Y-97.683
X87.767Y-84.983
X87.767Y-93.314
X87.767Y-105.861
X87.97Y-97.784
X88.011Y-78.105
X88.138Y-86.36
X89.189Y-95.346
X89.291Y-77.617
X89.291Y-106.065
X89.443Y-84.983
X90.256Y-93.314
X90.662Y-94.99
X90.678Y-85.471
X90.764Y-83.763
X90.805Y-86.487
X91.059Y-80.264
X91.44Y-77.153
X91.526Y-98.546
X91.577Y-85.287
X91.948Y-85.979
X92.202Y-88.9
X92.329Y-73.914
X92.39Y-98.597
X93.253Y-98.597
X93.964Y-107.081
X93.98Y-74.041
X94.132Y-82.601
X94.574Y-98.546
X94.615Y-79.659
X94.726Y-107.538
X94.742Y-73.787
X94.828Y-109.417
X94.932Y-94.17
X95.047Y-82.601
X95.567Y-106.045
X95.694Y-81.915
X95.707Y-74.676
X96.329Y-81.343
X96.329Y-98.615
X96.352Y-103.169
X96.352Y-104.388
X96.352Y-117.139
X96.403Y-105.709
X96.403Y-106.928
X96.403Y-108.249
X96.454Y-109.468
X96.454Y-110.738
X96.504Y-112.008
X96.901Y-80.709
X97.028Y-89.725
X97.18Y-88.849
X97.384Y-82.753
X97.841Y-75.844
X98.044Y-82.296
X98.095Y-85.547
X99.251Y-73.406
X99.758Y-75.629
X100.457Y-87.82
T2
X91.809Y-72.136
X96.659Y-72.136
T4
X78.623Y-73.857
X78.623Y-76.397
X78.623Y-78.937
X78.623Y-81.477
X78.623Y-84.017
X78.623Y-86.557
X78.623Y-89.097
X78.623Y-91.637
X78.623Y-94.177
X78.623Y-96.717
X78.623Y-99.257
X78.623Y-101.797
X78.623Y-104.337
X78.623Y-106.877
X78.623Y-109.417
X78.623Y-111.957
X78.623Y-114.497
X78.623Y-117.037
X78.623Y-119.577
X101.483Y-73.857
X101.483Y-76.397
X101.483Y-78.937
X101.483Y-81.477
X101.483Y-84.017
X101.483Y-86.557
X101.483Y-89.097
X101.483Y-91.637
X101.483Y-94.177
X101.483Y-96.717
X101.483Y-99.257
X101.483Y-101.797
X101.483Y-104.337
X101.483Y-106.877
X101.483Y-109.417
X101.483Y-111.957
X101.483Y-114.497
X101.483Y-117.037
X101.483Y-119.577
T3
X90.609Y-69.271G85X90.609Y-69.701
G05
X97.859Y-69.271G85X97.859Y-69.701
G05
T0
M30
