<?xml version="1.0" standalone="no"?>
 <!DOCTYPE svg PUBLIC "-//W3C//DTD SVG 1.1//EN" 
 "http://www.w3.org/Graphics/SVG/1.1/DTD/svg11.dtd"> 
<svg xmlns="http://www.w3.org/2000/svg" version="1.1" 
    width="29.7002cm" height="21.0007cm" viewBox="0 0 116930 82680 ">
<title>SVG Picture created as Hornbill Devboard-F.SilkS.svg date 2016/12/06 14:43:32 </title>
  <desc>Picture generated by PCBNEW </desc>
<g style="fill:#000000; fill-opacity:1;stroke:#000000; stroke-opacity:1;
stroke-linecap:round; stroke-linejoin:round; "
 transform="translate(0 0) scale(1 1)">
</g>
<g style="fill:#000000; fill-opacity:0.0; 
stroke:#000000; stroke-width:-0.000393701; stroke-opacity:1; 
stroke-linecap:round; stroke-linejoin:round;">
</g>
<g style="fill:#000000; fill-opacity:0.0; 
stroke:#000000; stroke-width:78.7402; stroke-opacity:1; 
stroke-linecap:round; stroke-linejoin:round;">
<path d="M32652 38837
L32697 38852
L32712 38867
L32727 38897
L32727 38942
L32712 38972
L32697 38987
L32667 39002
L32547 39002
L32547 38687
L32652 38687
L32682 38702
L32697 38717
L32712 38747
L32712 38777
L32697 38807
L32682 38822
L32652 38837
L32547 38837
" />
<path d="M32922 38687
L32982 38687
L33012 38702
L33042 38732
L33057 38792
L33057 38897
L33042 38957
L33012 38987
L32982 39002
L32922 39002
L32892 38987
L32862 38957
L32847 38897
L32847 38792
L32862 38732
L32892 38702
L32922 38687
" />
<path d="M33252 38687
L33312 38687
L33342 38702
L33372 38732
L33387 38792
L33387 38897
L33372 38957
L33342 38987
L33312 39002
L33252 39002
L33222 38987
L33192 38957
L33177 38897
L33177 38792
L33192 38732
L33222 38702
L33252 38687
" />
<path d="M33477 38687
L33657 38687
" />
<path d="M33567 39002
L33567 38687
" />
<path d="M37687 39002
L37582 38852
" />
<path d="M37507 39002
L37507 38687
L37627 38687
L37657 38702
L37672 38717
L37687 38747
L37687 38792
L37672 38822
L37657 38837
L37627 38852
L37507 38852
" />
<path d="M37807 38987
L37852 39002
L37927 39002
L37957 38987
L37972 38972
L37987 38942
L37987 38912
L37972 38882
L37957 38867
L37927 38852
L37867 38837
L37837 38822
L37822 38807
L37807 38777
L37807 38747
L37822 38717
L37837 38702
L37867 38687
L37942 38687
L37987 38702
" />
<path d="M38077 38687
L38257 38687
" />
<path d="M38167 39002
L38167 38687
" />
</g>
<g style="fill:#000000; fill-opacity:0.0; 
stroke:#000000; stroke-width:49.2126; stroke-opacity:1; 
stroke-linecap:round; stroke-linejoin:round;">
<path d="M31231 45459
L31244 45457
L31264 45461
L31302 45488
L31312 45507
L31314 45520
L31310 45541
L31299 45556
L31275 45573
L31118 45598
L31217 45670
" />
<path d="M31386 45549
L31484 45620
L31387 45643
L31410 45659
L31419 45678
L31422 45691
L31418 45711
L31391 45749
L31372 45759
L31359 45761
L31338 45758
L31293 45725
L31283 45706
L31281 45693
" />
<path d="M31251 44479
L31264 44477
L31284 44481
L31322 44508
L31332 44527
L31334 44540
L31330 44561
L31319 44576
L31295 44593
L31138 44618
L31237 44690
" />
<path d="M31402 44589
L31415 44587
L31436 44591
L31474 44618
L31484 44637
L31486 44650
L31482 44671
L31471 44686
L31447 44703
L31290 44728
L31388 44800
" />
<path d="M31253 43472
L31344 43539
" />
<path d="M31183 43665
L31298 43505
" />
<path d="M31266 43725
L31427 43680
" />
<path d="M31343 43619
L31350 43786
" />
</g>
<g style="fill:#000000; fill-opacity:0.0; 
stroke:#000000; stroke-width:59.0551; stroke-opacity:1; 
stroke-linecap:round; stroke-linejoin:round;">
<path d="M31813 50177
L39133 50177
" />
<path d="M31613 49977
L31813 50177
" />
<path d="M31213 49577
L31613 49977
" />
<path d="M39333 49977
L39133 50177
" />
<path d="M39733 49577
L39333 49977
" />
<path d="M40093 49577
L39733 49577
" />
<path d="M40093.8 49577.7 A360 360 0.0 0 0 40453.8 49217.7 " />
<path d="M40453 26817
L40453 49217
" />
<path d="M30453 49157
L30453 26817
" />
<path d="M31213 49577
L30793 49577
" />
<path d="M30453.8 49157.7 A382.1 382.1 0.0 0 0 30793.8 49577.7 " />
<path d="M40453.8 26817.7 A342.344 342.344 0.0 0 0 40073.8 26517.7 " />
<path d="M40073 26517
L30833 26517
" />
<path d="M30833.8 26517.7 A342.344 342.344 0.0 0 0 30453.8 26817.7 " />
</g>
<g style="fill:#000000; fill-opacity:0.0; 
stroke:#000000; stroke-width:49.2126; stroke-opacity:1; 
stroke-linecap:round; stroke-linejoin:round;">
<path d="M31232 42701
L31234 42586
" />
<path d="M31141 42634
L31257 42475
L31317 42519
L31327 42538
L31329 42551
L31326 42572
L31309 42594
L31291 42604
L31277 42606
L31257 42603
L31196 42559
" />
<path d="M31285 42739
L31446 42694
" />
<path d="M31362 42633
L31368 42800
" />
<path d="M31231 41459
L31244 41457
L31264 41461
L31302 41488
L31312 41507
L31314 41520
L31310 41541
L31299 41556
L31275 41573
L31118 41598
L31217 41670
" />
<path d="M31368 41780
L31277 41714
" />
<path d="M31323 41747
L31439 41587
L31407 41599
L31381 41603
L31360 41600
" />
<path d="M31217 39690
L31126 39623
" />
<path d="M31171 39656
L31287 39497
L31255 39509
L31229 39513
L31208 39510
" />
<path d="M31293 39745
L31323 39767
L31344 39770
L31357 39768
L31388 39756
L31418 39731
L31462 39671
L31466 39650
L31464 39637
L31454 39618
L31424 39596
L31403 39593
L31390 39595
L31371 39605
L31344 39643
L31340 39663
L31342 39676
L31352 39695
L31382 39717
L31403 39720
L31416 39718
L31435 39709
" />
<path d="M31399 40590
L31389 40572
L31367 40555
L31338 40546
L31312 40550
L31294 40560
L31264 40585
L31247 40607
L31233 40643
L31230 40664
L31234 40690
L31251 40714
L31266 40725
L31294 40734
L31307 40732
L31346 40679
L31316 40657
" />
</g>
<g style="fill:#000000; fill-opacity:0.0; 
stroke:#000000; stroke-width:68.8976; stroke-opacity:1; 
stroke-linecap:round; stroke-linejoin:round;">
<path d="M31052 47562
L31025 47549
L30986 47549
L30947 47562
L30920 47588
L30907 47614
L30894 47667
L30894 47706
L30907 47759
L30920 47785
L30947 47811
L30986 47824
L31012 47824
L31052 47811
L31065 47798
L31065 47706
L31012 47706
" />
</g>
<g style="fill:#000000; fill-opacity:0.0; 
stroke:#000000; stroke-width:49.2126; stroke-opacity:1; 
stroke-linecap:round; stroke-linejoin:round;">
<path d="M39534 45694
L39587 45655
" />
<path d="M39670 45722
L39594 45777
L39479 45618
L39554 45563
" />
<path d="M39738 45672
L39623 45513
L39829 45606
L39714 45447
" />
<path d="M39463 44629
L39632 44749
L39570 44552
" />
<path d="M39738 44672
L39623 44513
L39683 44469
L39704 44465
L39717 44468
L39736 44477
L39752 44500
L39756 44521
L39754 44534
L39744 44552
L39683 44596
" />
<path d="M39460 43611
L39628 43732
L39566 43534
" />
<path d="M39735 43655
L39619 43496
L39826 43589
L39710 43430
" />
<path d="M39447 42626
L39546 42554
L39537 42654
L39560 42637
L39580 42634
L39593 42636
L39612 42645
L39639 42683
L39643 42704
L39641 42717
L39631 42736
L39586 42769
L39565 42772
L39552 42770
" />
<path d="M39721 42508
L39798 42614
" />
<path d="M39639 42475
L39684 42616
L39782 42545
" />
<path d="M39447 41626
L39546 41554
L39537 41654
L39560 41637
L39580 41634
L39593 41636
L39612 41645
L39639 41683
L39643 41704
L39641 41717
L39631 41736
L39586 41769
L39565 41772
L39552 41770
" />
<path d="M39690 41450
L39614 41505
L39662 41586
L39664 41573
L39673 41554
L39711 41527
L39732 41523
L39745 41525
L39764 41535
L39791 41573
L39795 41594
L39793 41607
L39783 41625
L39745 41653
L39724 41656
L39711 41654
" />
<path d="M39447 40626
L39546 40554
L39537 40654
L39560 40637
L39580 40634
L39593 40636
L39612 40645
L39639 40683
L39643 40704
L39641 40717
L39631 40736
L39586 40769
L39565 40772
L39552 40770
" />
<path d="M39617 40525
L39620 40512
L39629 40494
L39667 40466
L39688 40463
L39701 40465
L39720 40474
L39731 40490
L39739 40518
L39715 40675
L39813 40603
" />
<path d="M39407 39646
L39506 39574
L39497 39674
L39520 39657
L39540 39654
L39553 39656
L39572 39665
L39599 39703
L39603 39724
L39601 39737
L39591 39756
L39546 39789
L39525 39792
L39512 39790
" />
<path d="M39559 39536
L39657 39464
L39648 39563
L39671 39547
L39692 39543
L39705 39545
L39724 39555
L39751 39593
L39755 39614
L39753 39627
L39743 39645
L39697 39678
L39677 39682
L39664 39680
" />
</g>
<g style="fill:#000000; fill-opacity:0.0; 
stroke:#000000; stroke-width:68.8976; stroke-opacity:1; 
stroke-linecap:round; stroke-linejoin:round;">
<path d="M39312 33922
L39285 33909
L39246 33909
L39207 33922
L39180 33948
L39167 33974
L39154 34027
L39154 34066
L39167 34119
L39180 34145
L39207 34171
L39246 34184
L39272 34184
L39312 34171
L39325 34158
L39325 34066
L39272 34066
" />
</g>
<g style="fill:#000000; fill-opacity:0.0; 
stroke:#000000; stroke-width:98.4252; stroke-opacity:1; 
stroke-linecap:round; stroke-linejoin:round;">
<path d="M32628 50078
L32628 49684
" />
<path d="M32628 49871
L32853 49871
" />
<path d="M32853 50078
L32853 49684
" />
<path d="M33097 50078
L33059 50059
L33040 50040
L33022 50003
L33022 49890
L33040 49853
L33059 49834
L33097 49815
L33153 49815
L33190 49834
L33209 49853
L33228 49890
L33228 50003
L33209 50040
L33190 50059
L33153 50078
L33097 50078
" />
<path d="M33397 50078
L33397 49815
" />
<path d="M33397 49890
L33415 49853
L33434 49834
L33472 49815
L33509 49815
" />
<path d="M33640 49815
L33640 50078
" />
<path d="M33640 49853
L33659 49834
L33697 49815
L33753 49815
L33790 49834
L33809 49871
L33809 50078
" />
<path d="M33997 50078
L33997 49684
" />
<path d="M33997 49834
L34034 49815
L34109 49815
L34147 49834
L34165 49853
L34184 49890
L34184 50003
L34165 50040
L34147 50059
L34109 50078
L34034 50078
L33997 50059
" />
<path d="M34353 50078
L34353 49815
" />
<path d="M34353 49684
L34334 49703
L34353 49721
L34372 49703
L34353 49684
L34353 49721
" />
<path d="M34596 50078
L34559 50059
L34540 50021
L34540 49684
" />
<path d="M34803 50078
L34765 50059
L34746 50021
L34746 49684
" />
<path d="M35253 49871
L35384 49871
" />
<path d="M35440 50078
L35253 50078
L35253 49684
L35440 49684
" />
<path d="M35590 50059
L35646 50078
L35740 50078
L35778 50059
L35796 50040
L35815 50003
L35815 49965
L35796 49928
L35778 49909
L35740 49890
L35665 49871
L35628 49853
L35609 49834
L35590 49796
L35590 49759
L35609 49721
L35628 49703
L35665 49684
L35759 49684
L35815 49703
" />
<path d="M35984 50078
L35984 49684
L36134 49684
L36171 49703
L36190 49721
L36209 49759
L36209 49815
L36190 49853
L36171 49871
L36134 49890
L35984 49890
" />
<path d="M36340 49684
L36584 49684
L36452 49834
L36509 49834
L36546 49853
L36565 49871
L36584 49909
L36584 50003
L36565 50040
L36546 50059
L36509 50078
L36396 50078
L36359 50059
L36340 50040
" />
<path d="M36734 49721
L36752 49703
L36790 49684
L36884 49684
L36921 49703
L36940 49721
L36959 49759
L36959 49796
L36940 49853
L36715 50078
L36959 50078
" />
<path d="M37427 50078
L37427 49684
L37521 49684
L37577 49703
L37615 49740
L37634 49778
L37652 49853
L37652 49909
L37634 49984
L37615 50021
L37577 50059
L37521 50078
L37427 50078
" />
<path d="M37971 50059
L37934 50078
L37859 50078
L37821 50059
L37802 50021
L37802 49871
L37821 49834
L37859 49815
L37934 49815
L37971 49834
L37990 49871
L37990 49909
L37802 49946
" />
<path d="M38121 49815
L38215 50078
L38309 49815
" />
</g>
<g style="fill:#000000; fill-opacity:0.0; 
stroke:#000000; stroke-width:68.8976; stroke-opacity:1; 
stroke-linecap:round; stroke-linejoin:round;">
<path d="M39598 47569
L39769 47569
L39677 47674
L39716 47674
L39743 47687
L39756 47700
L39769 47726
L39769 47792
L39756 47818
L39743 47831
L39716 47844
L39638 47844
L39611 47831
L39598 47818
" />
<path d="M39848 47569
L39940 47844
L40031 47569
" />
<path d="M40097 47569
L40268 47569
L40176 47674
L40215 47674
L40241 47687
L40254 47700
L40268 47726
L40268 47792
L40254 47818
L40241 47831
L40215 47844
L40136 47844
L40110 47831
L40097 47818
" />
<path d="M31647 39164
L31490 39164
" />
<path d="M31568 39164
L31568 38889
L31542 38928
L31516 38954
L31490 38967
" />
<path d="M31804 39007
L31778 38994
L31765 38980
L31752 38954
L31752 38941
L31765 38915
L31778 38902
L31804 38889
L31857 38889
L31883 38902
L31896 38915
L31909 38941
L31909 38954
L31896 38980
L31883 38994
L31857 39007
L31804 39007
L31778 39020
L31765 39033
L31752 39059
L31752 39112
L31765 39138
L31778 39151
L31804 39164
L31857 39164
L31883 39151
L31896 39138
L31909 39112
L31909 39059
L31896 39033
L31883 39020
L31857 39007
" />
<path d="M31705 37949
L31574 37949
L31561 38080
L31574 38067
L31600 38054
L31666 38054
L31692 38067
L31705 38080
L31718 38106
L31718 38172
L31705 38198
L31692 38211
L31666 38224
L31600 38224
L31574 38211
L31561 38198
" />
<path d="M31687 37224
L31530 37224
" />
<path d="M31608 37224
L31608 36949
L31582 36988
L31556 37014
L31530 37027
" />
<path d="M31779 36949
L31963 36949
L31844 37224
" />
<path d="M31667 36204
L31510 36204
" />
<path d="M31588 36204
L31588 35929
L31562 35968
L31536 35994
L31510 36007
" />
<path d="M31903 35929
L31851 35929
L31824 35942
L31811 35955
L31785 35994
L31772 36047
L31772 36152
L31785 36178
L31798 36191
L31824 36204
L31877 36204
L31903 36191
L31916 36178
L31929 36152
L31929 36086
L31916 36060
L31903 36047
L31877 36034
L31824 36034
L31798 36047
L31785 36060
L31772 36086
" />
<path d="M31692 35080
L31692 35264
" />
<path d="M31626 34975
L31561 35172
L31731 35172
" />
<path d="M31646 33909
L31673 33909
L31699 33922
L31712 33935
L31725 33961
L31738 34014
L31738 34079
L31725 34132
L31712 34158
L31699 34171
L31673 34184
L31646 34184
L31620 34171
L31607 34158
L31594 34132
L31581 34079
L31581 34014
L31594 33961
L31607 33935
L31620 33922
L31646 33909
" />
<path d="M31601 32955
L31614 32942
L31640 32929
L31706 32929
L31732 32942
L31745 32955
L31758 32981
L31758 33007
L31745 33047
L31588 33204
L31758 33204
" />
<path d="M31667 32204
L31510 32204
" />
<path d="M31588 32204
L31588 31929
L31562 31968
L31536 31994
L31510 32007
" />
<path d="M31916 31929
L31785 31929
L31772 32060
L31785 32047
L31811 32034
L31877 32034
L31903 32047
L31916 32060
L31929 32086
L31929 32152
L31916 32178
L31903 32191
L31877 32204
L31811 32204
L31785 32191
L31772 32178
" />
<path d="M31492 31211
L31531 31224
L31597 31224
L31623 31211
L31636 31198
L31649 31172
L31649 31145
L31636 31119
L31623 31106
L31597 31093
L31544 31080
L31518 31067
L31505 31054
L31492 31027
L31492 31001
L31505 30975
L31518 30962
L31544 30949
L31610 30949
L31649 30962
" />
<path d="M31767 31224
L31767 30949
L31833 30949
L31872 30962
L31899 30988
L31912 31014
L31925 31067
L31925 31106
L31912 31159
L31899 31185
L31872 31211
L31833 31224
L31767 31224
" />
<path d="M32187 31224
L32030 31224
" />
<path d="M32109 31224
L32109 30949
L32082 30988
L32056 31014
L32030 31027
" />
<path d="M31472 30191
L31511 30204
L31577 30204
L31603 30191
L31616 30178
L31629 30152
L31629 30125
L31616 30099
L31603 30086
L31577 30073
L31524 30060
L31498 30047
L31485 30034
L31472 30007
L31472 29981
L31485 29955
L31498 29942
L31524 29929
L31590 29929
L31629 29942
" />
<path d="M31747 30204
L31747 29929
L31813 29929
L31852 29942
L31879 29968
L31892 29994
L31905 30047
L31905 30086
L31892 30139
L31879 30165
L31852 30191
L31813 30204
L31747 30204
" />
<path d="M32075 29929
L32102 29929
L32128 29942
L32141 29955
L32154 29981
L32167 30034
L32167 30099
L32154 30152
L32141 30178
L32128 30191
L32102 30204
L32075 30204
L32049 30191
L32036 30178
L32023 30152
L32010 30099
L32010 30034
L32023 29981
L32036 29955
L32049 29942
L32075 29929
" />
<path d="M30775 28618
L30762 28631
L30723 28644
L30697 28644
L30657 28631
L30631 28605
L30618 28579
L30605 28526
L30605 28487
L30618 28434
L30631 28408
L30657 28382
L30697 28369
L30723 28369
L30762 28382
L30775 28395
" />
<path d="M31025 28644
L30894 28644
L30894 28369
" />
<path d="M31117 28644
L31117 28369
" />
<path d="M31274 28644
L31156 28487
" />
<path d="M31274 28369
L31117 28526
" />
<path d="M39465 28539
L39675 28539
" />
<path d="M39570 28644
L39570 28434
" />
<path d="M39938 28369
L39806 28369
L39793 28500
L39806 28487
L39833 28474
L39898 28474
L39924 28487
L39938 28500
L39951 28526
L39951 28592
L39938 28618
L39924 28631
L39898 28644
L39833 28644
L39806 28631
L39793 28618
" />
<path d="M40029 28369
L40121 28644
L40213 28369
" />
<path d="M38850 30218
L38836 30231
L38797 30244
L38771 30244
L38731 30231
L38705 30205
L38692 30179
L38679 30126
L38679 30087
L38692 30034
L38705 30008
L38731 29982
L38771 29969
L38797 29969
L38836 29982
L38850 29995
" />
<path d="M38968 30244
L38968 29969
L39060 30165
L39151 29969
L39151 30244
" />
<path d="M39283 30244
L39283 29969
L39348 29969
L39388 29982
L39414 30008
L39427 30034
L39440 30087
L39440 30126
L39427 30179
L39414 30205
L39388 30231
L39348 30244
L39283 30244
" />
<path d="M38752 32151
L38791 32164
L38857 32164
L38883 32151
L38896 32138
L38909 32112
L38909 32085
L38896 32059
L38883 32046
L38857 32033
L38804 32020
L38778 32007
L38765 31994
L38752 31967
L38752 31941
L38765 31915
L38778 31902
L38804 31889
L38870 31889
L38909 31902
" />
<path d="M39027 32164
L39027 31889
L39093 31889
L39132 31902
L39159 31928
L39172 31954
L39185 32007
L39185 32046
L39172 32099
L39159 32125
L39132 32151
L39093 32164
L39027 32164
" />
<path d="M39290 31915
L39303 31902
L39329 31889
L39395 31889
L39421 31902
L39434 31915
L39447 31941
L39447 31967
L39434 32007
L39277 32164
L39447 32164
" />
<path d="M39187 33224
L39030 33224
" />
<path d="M39108 33224
L39108 32949
L39082 32988
L39056 33014
L39030 33027
" />
<path d="M39279 32949
L39449 32949
L39358 33054
L39397 33054
L39423 33067
L39436 33080
L39449 33106
L39449 33172
L39436 33198
L39423 33211
L39397 33224
L39318 33224
L39292 33211
L39279 33198
" />
<path d="M39167 35184
L39010 35184
" />
<path d="M39088 35184
L39088 34909
L39062 34948
L39036 34974
L39010 34987
" />
<path d="M39272 34935
L39285 34922
L39311 34909
L39377 34909
L39403 34922
L39416 34935
L39429 34961
L39429 34987
L39416 35027
L39259 35184
L39429 35184
" />
<path d="M39167 36204
L39010 36204
" />
<path d="M39088 36204
L39088 35929
L39062 35968
L39036 35994
L39010 36007
" />
<path d="M39403 36020
L39403 36204
" />
<path d="M39338 35915
L39272 36112
L39443 36112
" />
<path d="M39010 36955
L39023 36942
L39049 36929
L39115 36929
L39141 36942
L39154 36955
L39167 36981
L39167 37007
L39154 37047
L38996 37204
L39167 37204
" />
<path d="M39259 36929
L39443 36929
L39324 37204
" />
<path d="M38752 31191
L38791 31204
L38857 31204
L38883 31191
L38896 31178
L38909 31152
L38909 31125
L38896 31099
L38883 31086
L38857 31073
L38804 31060
L38778 31047
L38765 31034
L38752 31007
L38752 30981
L38765 30955
L38778 30942
L38804 30929
L38870 30929
L38909 30942
" />
<path d="M39027 31204
L39027 30929
L39093 30929
L39132 30942
L39159 30968
L39172 30994
L39185 31047
L39185 31086
L39172 31139
L39159 31165
L39132 31191
L39093 31204
L39027 31204
" />
<path d="M39277 30929
L39447 30929
L39355 31034
L39395 31034
L39421 31047
L39434 31060
L39447 31086
L39447 31152
L39434 31178
L39421 31191
L39395 31204
L39316 31204
L39290 31191
L39277 31178
" />
<path d="M39030 38015
L39043 38002
L39069 37989
L39135 37989
L39161 38002
L39174 38015
L39187 38041
L39187 38067
L39174 38107
L39016 38264
L39187 38264
" />
<path d="M39423 37989
L39371 37989
L39344 38002
L39331 38015
L39305 38054
L39292 38107
L39292 38212
L39305 38238
L39318 38251
L39344 38264
L39397 38264
L39423 38251
L39436 38238
L39449 38212
L39449 38146
L39436 38120
L39423 38107
L39397 38094
L39344 38094
L39318 38107
L39305 38120
L39292 38146
" />
<path d="M39030 38975
L39043 38962
L39069 38949
L39135 38949
L39161 38962
L39174 38975
L39187 39001
L39187 39027
L39174 39067
L39016 39224
L39187 39224
" />
<path d="M39436 38949
L39305 38949
L39292 39080
L39305 39067
L39331 39054
L39397 39054
L39423 39067
L39436 39080
L39449 39106
L39449 39172
L39436 39198
L39423 39211
L39397 39224
L39331 39224
L39305 39211
L39292 39198
" />
</g>
<g style="fill:#000000; fill-opacity:0.0; 
stroke:#000000; stroke-width:118.11; stroke-opacity:1; 
stroke-linecap:round; stroke-linejoin:round;">
<path d="M33398 29775
L32948 29775
" />
<path d="M34178 29835
L33728 29835
" />
<path d="M33953 29610
L33953 30060
" />
</g>
<g style="fill:#000000; fill-opacity:0.0; 
stroke:#000000; stroke-width:59.0551; stroke-opacity:1; 
stroke-linecap:round; stroke-linejoin:round;">
<path d="M38997 47195
L38997 46840
" />
<path d="M31910 39518
L31910 39872
" />
<path d="M38997 39518
L38997 39872
" />
<path d="M38997 47195
L31910 47195
" />
<path d="M31910 47195
L31910 46840
" />
<path d="M31910 39518
L32973 39518
" />
<path d="M38997 39518
L37934 39518
" />
<path d="M38997 49557
L38997 47195
" />
<path d="M38997 47195
L31910 47195
" />
<path d="M31910 47195
L31910 49557
" />
<path d="M31910 49557
L38997 49557
" />
<path d="M38997 47195
L31910 47195
" />
<path d="M38997 49557
L31910 49557
" />
<path d="M32483 38297
L33663 38297
" />
<path d="M33663 38297
L33663 36697
" />
<path d="M33663 36697
L32503 36697
" />
<path d="M32503 36697
L32503 38287
" />
</g>
<g style="fill:#000000; fill-opacity:0.0; 
stroke:#000000; stroke-width:100; stroke-opacity:1; 
stroke-linecap:round; stroke-linejoin:round;">
<circle cx="33073.8" cy="37497.7" r="394" /> 
</g>
<g style="fill:#000000; fill-opacity:0.0; 
stroke:#000000; stroke-width:59.0551; stroke-opacity:1; 
stroke-linecap:round; stroke-linejoin:round;">
<path d="M38443 36697
L37263 36697
" />
<path d="M37263 36697
L37263 38297
" />
<path d="M37263 38297
L38423 38297
" />
<path d="M38423 38297
L38423 36707
" />
</g>
<g style="fill:#000000; fill-opacity:0.0; 
stroke:#000000; stroke-width:100; stroke-opacity:1; 
stroke-linecap:round; stroke-linejoin:round;">
<circle cx="37853.8" cy="37497.7" r="394" /> 
</g>
<g style="fill:#000000; fill-opacity:0.0; 
stroke:#000000; stroke-width:59.0551; stroke-opacity:1; 
stroke-linecap:round; stroke-linejoin:round;">
<path d="M35729 26586
L37698 26586
" />
<path d="M37698 26586
L37698 27964
" />
<path d="M37698 27964
L35926 27964
" />
<path d="M35926 27964
L35729 27964
" />
<path d="M35729 27964
L35729 26586
" />
<path d="M36905 33100
L37055 33100
" />
<path d="M36505 33100
L36655 33100
" />
<path d="M36655 33100
L36905 32950
" />
<path d="M36905 32950
L36905 33250
" />
<path d="M36905 33250
L36655 33100
" />
<path d="M36655 32900
L36655 33300
" />
<path d="M37567 32745
L36173 32745
" />
<path d="M37567 33454
L36173 33454
" />
<path d="M34297 31204
L34297 31952
" />
<path d="M34730 31204
L34730 31952
" />
<path d="M34513 31559
L34513 31736
" />
<path d="M34612 31539
L34415 31539
" />
<path d="M34513 31539
L34612 31637
" />
<path d="M34612 31637
L34415 31637
" />
<path d="M34415 31637
L34513 31539
" />
<path d="M35957 34324
L35957 35072
" />
<path d="M36390 34324
L36390 35072
" />
<path d="M36173 34679
L36173 34856
" />
<path d="M36272 34659
L36075 34659
" />
<path d="M36173 34659
L36272 34757
" />
<path d="M36272 34757
L36075 34757
" />
<path d="M36075 34757
L36173 34659
" />
<path d="M35980 36954
L36728 36954
" />
<path d="M35980 36521
L36728 36521
" />
<path d="M36335 36737
L36512 36737
" />
<path d="M36315 36639
L36315 36836
" />
<path d="M36315 36737
L36413 36639
" />
<path d="M36413 36639
L36413 36836
" />
<path d="M36413 36836
L36315 36737
" />
<circle cx="33591.9" cy="31787" r="39.3701" /> 
<path d="M33375 31688
L33572 31688
" />
<path d="M33375 30546
L33375 31688
" />
<path d="M33572 30546
L33375 30546
" />
<path d="M33572 31688
L33572 30546
" />
</g>
<g style="fill:#000000; fill-opacity:0.0; 
stroke:#000000; stroke-width:150; stroke-opacity:1; 
stroke-linecap:round; stroke-linejoin:round;">
<path d="M34085 27523
L34085 26657
" />
<path d="M34085 26657
L34203 26657
" />
<path d="M34203 26657
L34203 27523
" />
<path d="M33376 28350
L33376 26657
" />
<path d="M33770 28350
L33770 26657
" />
<path d="M33376 28350
L33770 28350
" />
<path d="M33062 27523
L33062 28153
" />
<path d="M32668 27523
L33062 27523
" />
<path d="M32668 28153
L32668 27523
" />
<path d="M33062 28153
L32668 28153
" />
<path d="M34479 28153
L34085 28153
" />
<path d="M34085 28153
L34085 27523
" />
<path d="M34085 27523
L34479 27523
" />
<path d="M34479 27523
L34479 28153
" />
<path d="M32392 28980
L34754 28980
" />
<path d="M32471 29688
L32471 28980
" />
<path d="M34675 29688
L34675 28980
" />
<path d="M34754 26657
L32392 26657
" />
<path d="M32392 26657
L32392 29688
" />
<path d="M32392 29688
L32549 29688
" />
<path d="M32549 29688
L32549 28980
" />
<path d="M34597 28980
L34597 29688
" />
<path d="M34597 29688
L34754 29688
" />
<path d="M34754 29688
L34754 26657
" />
</g>
<g style="fill:#000000; fill-opacity:0.0; 
stroke:#000000; stroke-width:59.0551; stroke-opacity:1; 
stroke-linecap:round; stroke-linejoin:round;">
<path d="M39145 28741
L39126 28741
" />
<path d="M38043 29017
L38043 28741
" />
<path d="M38043 28741
L38141 28741
" />
<path d="M39145 28741
L39224 28741
" />
<path d="M39224 28741
L39224 29017
" />
<circle cx="37943.1" cy="34959.6" r="39.3701" /> 
<path d="M37844 35176
L37844 34979
" />
<path d="M36702 35176
L37844 35176
" />
<path d="M36702 34979
L36702 35176
" />
<path d="M37844 34979
L36702 34979
" />
</g>
<g style="fill:#000000; fill-opacity:0.0; 
stroke:#000000; stroke-width:20; stroke-opacity:1; 
stroke-linecap:round; stroke-linejoin:round;">
<path d="M37462 32180
L37253 32389
" />
<path d="M37253 32389
L37045 32180
" />
<path d="M36070 31206
L35862 30997
" />
<path d="M35862 30997
L36070 30789
" />
<path d="M38436 30789
L38645 30997
" />
<path d="M38645 30997
L38436 31206
" />
<path d="M37462 29814
L37253 29606
" />
<path d="M37253 29606
L37045 29814
" />
</g>
<g style="fill:#000000; fill-opacity:0.0; 
stroke:#000000; stroke-width:59.0551; stroke-opacity:1; 
stroke-linecap:round; stroke-linejoin:round;">
<path d="M34269 34929
L34269 34910
" />
<path d="M33993 33827
L34269 33827
" />
<path d="M34269 33827
L34269 33925
" />
<path d="M34269 34929
L34269 35008
" />
<path d="M34269 35008
L33993 35008
" />
<path d="M32397 35126
L32397 35145
" />
<path d="M32673 36228
L32397 36228
" />
<path d="M32397 36228
L32397 36130
" />
<path d="M32397 35126
L32397 35047
" />
<path d="M32397 35047
L32673 35047
" />
<path d="M38303 33414
L38696 33414
" />
<path d="M38696 33945
L38303 33945
" />
<path d="M33870 32403
L33476 32403
" />
<path d="M33476 31871
L33870 31871
" />
<path d="M35908 36074
L35908 35680
" />
<path d="M36439 35680
L36439 36074
" />
<path d="M33910 33003
L33516 33003
" />
<path d="M33516 32471
L33910 32471
" />
<path d="M32950 34903
L32556 34903
" />
<path d="M32556 34371
L32950 34371
" />
<path d="M33939 35440
L33939 35834
" />
<path d="M33408 35834
L33408 35440
" />
<path d="M38116 35911
L38510 35911
" />
<path d="M38510 36443
L38116 36443
" />
<path d="M32619 33260
L32619 33654
" />
<path d="M32088 33654
L32088 33260
" />
<path d="M34784 34771
L34784 34378
" />
<path d="M35315 34378
L35315 34771
" />
<path d="M32748 33914
L32748 33520
" />
<path d="M33279 33520
L33279 33914
" />
<path d="M38534 37696
L38534 37303
" />
<path d="M39065 37303
L39065 37696
" />
<path d="M33611 30373
L33336 30373
" />
<path d="M33336 29901
L33611 29901
" />
<path d="M36996 33741
L37271 33741
" />
<path d="M37271 34213
L36996 34213
" />
<path d="M38222 32803
L38497 32803
" />
<path d="M38497 33276
L38222 33276
" />
<path d="M38222 32243
L38497 32243
" />
<path d="M38497 32716
L38222 32716
" />
<path d="M37211 36353
L36936 36353
" />
<path d="M36936 35881
L37211 35881
" />
<path d="M32617 32495
L32617 32219
" />
<path d="M33090 32219
L33090 32495
" />
<path d="M38050 34584
L38050 35371
" />
<path d="M38857 35371
L38857 34584
" />
<path d="M36316 37161
L36591 37161
" />
<path d="M36591 37633
L36316 37633
" />
<path d="M35050 35739
L35050 36015
" />
<path d="M34577 36015
L34577 35739
" />
<path d="M34077 37775
L34077 37499
" />
<path d="M34550 37499
L34550 37775
" />
<path d="M34819 32540
L34819 32934
" />
<path d="M34288 32934
L34288 32540
" />
<path d="M35479 32540
L35479 32934
" />
<path d="M34948 32934
L34948 32540
" />
<path d="M39015 38353
L39015 38746
" />
<path d="M38484 38746
L38484 38353
" />
<path d="M35759 35680
L35759 36074
" />
<path d="M35228 36074
L35228 35680
" />
<path d="M35843 37737
L35443 37737
" />
<path d="M35813 38577
L35443 38577
" />
<path d="M30940 27324
L30940 27643
L30958 27680
L30977 27699
L31015 27718
L31090 27718
L31127 27699
L31146 27680
L31165 27643
L31165 27324
" />
<path d="M31408 27493
L31371 27474
L31352 27455
L31333 27418
L31333 27399
L31352 27361
L31371 27343
L31408 27324
L31483 27324
L31521 27343
L31539 27361
L31558 27399
L31558 27418
L31539 27455
L31521 27474
L31483 27493
L31408 27493
L31371 27511
L31352 27530
L31333 27568
L31333 27643
L31352 27680
L31371 27699
L31408 27718
L31483 27718
L31521 27699
L31539 27680
L31558 27643
L31558 27568
L31539 27530
L31521 27511
L31483 27493
" />
<path d="M39385 27244
L39385 27563
L39403 27600
L39422 27619
L39460 27638
L39535 27638
L39572 27619
L39591 27600
L39610 27563
L39610 27244
" />
<path d="M39759 27244
L40022 27244
L39853 27638
" />
<path d="M30683 47215
L30683 46822
L30833 46822
L30870 46840
L30889 46859
L30908 46897
L30908 46953
L30889 46990
L30870 47009
L30833 47028
L30683 47028
" />
<path d="M31039 46822
L31283 46822
L31151 46972
L31208 46972
L31245 46990
L31264 47009
L31283 47047
L31283 47140
L31264 47178
L31245 47197
L31208 47215
L31095 47215
L31058 47197
L31039 47178
" />
<path d="M39643 47215
L39643 46822
L39793 46822
L39830 46840
L39849 46859
L39868 46897
L39868 46953
L39849 46990
L39830 47009
L39793 47028
L39643 47028
" />
<path d="M40018 46859
L40036 46840
L40074 46822
L40168 46822
L40205 46840
L40224 46859
L40243 46897
L40243 46934
L40224 46990
L39999 47215
L40243 47215
" />
<path d="M33408 31026
L33389 31045
L33333 31063
L33295 31063
L33239 31045
L33201 31007
L33183 30970
L33164 30895
L33164 30838
L33183 30763
L33201 30726
L33239 30688
L33295 30670
L33333 30670
L33389 30688
L33408 30707
" />
<path d="M33783 31063
L33558 31063
" />
<path d="M33670 31063
L33670 30670
L33633 30726
L33595 30763
L33558 30782
" />
<path d="M35702 35943
L35721 35962
L35739 36018
L35739 36055
L35721 36112
L35683 36149
L35646 36168
L35571 36187
L35514 36187
L35439 36168
L35402 36149
L35365 36112
L35346 36055
L35346 36018
L35365 35962
L35383 35943
" />
<path d="M35739 35755
L35739 35680
L35721 35643
L35702 35624
L35646 35587
L35571 35568
L35421 35568
L35383 35587
L35365 35605
L35346 35643
L35346 35718
L35365 35755
L35383 35774
L35421 35793
L35514 35793
L35552 35774
L35571 35755
L35589 35718
L35589 35643
L35571 35605
L35552 35587
L35514 35568
" />
<path d="M34643 32990
L34456 33122
" />
<path d="M34643 33215
L34250 33215
L34250 33065
L34268 33028
L34287 33009
L34325 32990
L34381 32990
L34418 33009
L34437 33028
L34456 33065
L34456 33215
" />
<path d="M34643 32615
L34643 32840
" />
<path d="M34643 32728
L34250 32728
L34306 32765
L34343 32803
L34362 32840
" />
<path d="M34250 32259
L34250 32447
L34437 32465
L34418 32447
L34400 32409
L34400 32315
L34418 32278
L34437 32259
L34475 32240
L34568 32240
L34606 32259
L34625 32278
L34643 32315
L34643 32409
L34625 32447
L34606 32465
" />
</g> 
</svg>
