G04 #@! TF.FileFunction,Copper,L1,Top,Signal*
%FSLAX46Y46*%
G04 Gerber Fmt 4.6, Leading zero omitted, Abs format (unit mm)*
G04 Created by KiCad (PCBNEW 4.0.4-stable) date 12/03/16 16:19:23*
%MOMM*%
%LPD*%
G01*
G04 APERTURE LIST*
%ADD10C,0.100000*%
%ADD11C,0.150000*%
%ADD12R,2.000000X0.900000*%
%ADD13R,0.900000X2.000000*%
%ADD14R,6.000000X6.000000*%
%ADD15R,1.000760X1.000760*%
%ADD16R,2.032000X1.727200*%
%ADD17O,2.032000X1.727200*%
%ADD18R,0.400000X1.600000*%
%ADD19C,1.500000*%
%ADD20O,2.200000X2.500000*%
%ADD21R,0.910000X1.220000*%
%ADD22R,0.797560X0.797560*%
%ADD23R,2.029460X2.651760*%
%ADD24R,1.060000X0.650000*%
%ADD25R,1.198880X1.699260*%
%ADD26O,1.198880X1.699260*%
%ADD27R,0.800100X0.800100*%
%ADD28R,0.650000X1.060000*%
%ADD29C,0.299720*%
%ADD30R,0.500000X0.900000*%
%ADD31R,0.900000X0.500000*%
%ADD32R,0.800000X0.750000*%
%ADD33R,0.750000X0.800000*%
%ADD34R,1.600000X1.000000*%
%ADD35R,1.400000X1.900000*%
%ADD36C,0.600000*%
%ADD37C,0.200000*%
%ADD38C,0.800000*%
%ADD39C,0.250000*%
%ADD40C,0.400000*%
%ADD41C,0.300000*%
%ADD42C,0.500000*%
G04 APERTURE END LIST*
D10*
D11*
X80807120Y-127451475D02*
X99399920Y-127451475D01*
X80299120Y-126943474D02*
X80807120Y-127451475D01*
X79283120Y-125927474D02*
X80299120Y-126943474D01*
X99907920Y-126943475D02*
X99399920Y-127451475D01*
X100923920Y-125927475D02*
X99907920Y-126943475D01*
X101838320Y-125927474D02*
X100923920Y-125927475D01*
X101838321Y-125927475D02*
G75*
G03X102752720Y-125013074I-1J914400D01*
G01*
X102752720Y-68117075D02*
X102752720Y-125013074D01*
X77352720Y-124860675D02*
X77352720Y-68117075D01*
X79283120Y-125927474D02*
X78216320Y-125927475D01*
X77352719Y-124860674D02*
G75*
G03X78216320Y-125927475I965201J-101600D01*
G01*
X102752719Y-68117074D02*
G75*
G03X101787520Y-67355075I-863599J-101600D01*
G01*
X101787520Y-67355075D02*
X78317921Y-67355075D01*
X78317919Y-67355076D02*
G75*
G03X77352720Y-68117075I-101600J-863599D01*
G01*
D12*
X99052721Y-118375875D03*
X99052721Y-117105875D03*
X99052721Y-115835875D03*
X99052721Y-114565875D03*
X99052721Y-113295875D03*
X99052721Y-112025875D03*
X99052721Y-110755875D03*
X99052721Y-109485875D03*
X99052721Y-108215875D03*
X99052721Y-106945875D03*
X99052721Y-105675875D03*
X99052721Y-104405875D03*
X99052721Y-103135875D03*
X99052721Y-101865875D03*
X81052721Y-118375875D03*
X81052721Y-101865875D03*
X81052721Y-103135875D03*
X81052721Y-104405875D03*
X81052721Y-105675875D03*
X81052721Y-106945875D03*
X81052721Y-108215875D03*
X81052721Y-109485875D03*
X81052721Y-110755875D03*
X81052721Y-112025875D03*
X81052721Y-113295875D03*
X81052721Y-114565875D03*
X81052721Y-115835875D03*
X81052721Y-117105875D03*
D13*
X95767721Y-100375875D03*
X94482721Y-100375875D03*
X93227721Y-100375875D03*
X91957721Y-100375875D03*
X90687721Y-100375875D03*
X89417721Y-100375875D03*
X88147721Y-100375875D03*
X86877721Y-100375875D03*
X85607721Y-100375875D03*
X84337721Y-100375875D03*
D14*
X89752721Y-110675875D03*
D15*
X83107520Y-97444275D03*
X84907520Y-93044275D03*
X84907520Y-97444275D03*
X83107520Y-93044275D03*
X97048720Y-93044275D03*
X95248720Y-97444275D03*
X95248720Y-93044275D03*
X97048720Y-97444275D03*
D16*
X78622721Y-119577474D03*
D17*
X78622721Y-117037474D03*
X78622721Y-114497474D03*
X78622721Y-111957474D03*
X78622721Y-109417474D03*
X78622721Y-106877474D03*
X78622721Y-104337474D03*
X78622721Y-101797474D03*
X78622721Y-99257474D03*
X78622721Y-96717474D03*
X78622721Y-94177474D03*
X78622721Y-91637474D03*
X78622721Y-89097474D03*
X78622721Y-86557474D03*
X78622721Y-84017474D03*
X78622721Y-81477474D03*
X78622721Y-78937474D03*
X78622721Y-76397474D03*
X78622721Y-73857474D03*
D16*
X101482721Y-119577474D03*
D17*
X101482721Y-117037474D03*
X101482721Y-114497474D03*
X101482721Y-111957474D03*
X101482721Y-109417474D03*
X101482721Y-106877474D03*
X101482721Y-104337474D03*
X101482721Y-101797474D03*
X101482721Y-99257474D03*
X101482721Y-96717474D03*
X101482721Y-94177474D03*
X101482721Y-91637474D03*
X101482721Y-89097474D03*
X101482721Y-86557474D03*
X101482721Y-84017474D03*
X101482721Y-81477474D03*
X101482721Y-78937474D03*
X101482721Y-76397474D03*
X101482721Y-73857474D03*
D18*
X94553120Y-72128674D03*
X93903120Y-72128674D03*
X93253120Y-72128674D03*
X92603120Y-72128674D03*
X91953120Y-72128674D03*
D19*
X95678120Y-72028674D03*
D20*
X96878120Y-69378674D03*
D19*
X90828120Y-72028674D03*
D20*
X89628120Y-69378674D03*
D21*
X95056200Y-84074000D03*
X91786200Y-84074000D03*
D22*
X87665120Y-81109174D03*
X87665120Y-79610574D03*
X91881520Y-89033976D03*
X91881520Y-87535376D03*
X93240420Y-93313875D03*
X91741820Y-93313875D03*
D23*
X89747920Y-75582136D03*
X89747920Y-79752816D03*
D24*
X86123520Y-79989075D03*
X86123520Y-79039075D03*
X86123520Y-78089075D03*
X83923520Y-78089075D03*
X83923520Y-79989075D03*
D25*
X86278280Y-74009874D03*
D26*
X84276760Y-74009874D03*
D27*
X97179920Y-74655036D03*
X99079920Y-74655036D03*
X98129920Y-72656056D03*
D28*
X95625519Y-87997475D03*
X94675519Y-87997475D03*
X93725519Y-87997475D03*
X93725519Y-90197475D03*
X95625519Y-90197475D03*
D10*
G36*
X97889043Y-79712225D02*
X97725603Y-79875665D01*
X97017959Y-79168021D01*
X97181399Y-79004581D01*
X97889043Y-79712225D01*
X97889043Y-79712225D01*
G37*
G36*
X97535221Y-80066047D02*
X97371781Y-80229487D01*
X96664137Y-79521843D01*
X96827577Y-79358403D01*
X97535221Y-80066047D01*
X97535221Y-80066047D01*
G37*
G36*
X97181398Y-80419869D02*
X97017958Y-80583309D01*
X96310314Y-79875665D01*
X96473754Y-79712225D01*
X97181398Y-80419869D01*
X97181398Y-80419869D01*
G37*
G36*
X96827576Y-80773691D02*
X96664136Y-80937131D01*
X95956492Y-80229487D01*
X96119932Y-80066047D01*
X96827576Y-80773691D01*
X96827576Y-80773691D01*
G37*
G36*
X96473754Y-81127513D02*
X96310314Y-81290953D01*
X95602670Y-80583309D01*
X95766110Y-80419869D01*
X96473754Y-81127513D01*
X96473754Y-81127513D01*
G37*
G36*
X96119932Y-81481336D02*
X95956492Y-81644776D01*
X95248848Y-80937132D01*
X95412288Y-80773692D01*
X96119932Y-81481336D01*
X96119932Y-81481336D01*
G37*
G36*
X95766110Y-81835158D02*
X95602670Y-81998598D01*
X94895026Y-81290954D01*
X95058466Y-81127514D01*
X95766110Y-81835158D01*
X95766110Y-81835158D01*
G37*
G36*
X94354414Y-81290954D02*
X93646770Y-81998598D01*
X93483330Y-81835158D01*
X94190974Y-81127514D01*
X94354414Y-81290954D01*
X94354414Y-81290954D01*
G37*
G36*
X94000592Y-80937132D02*
X93292948Y-81644776D01*
X93129508Y-81481336D01*
X93837152Y-80773692D01*
X94000592Y-80937132D01*
X94000592Y-80937132D01*
G37*
G36*
X93646770Y-80583309D02*
X92939126Y-81290953D01*
X92775686Y-81127513D01*
X93483330Y-80419869D01*
X93646770Y-80583309D01*
X93646770Y-80583309D01*
G37*
G36*
X93292948Y-80229487D02*
X92585304Y-80937131D01*
X92421864Y-80773691D01*
X93129508Y-80066047D01*
X93292948Y-80229487D01*
X93292948Y-80229487D01*
G37*
G36*
X92939126Y-79875665D02*
X92231482Y-80583309D01*
X92068042Y-80419869D01*
X92775686Y-79712225D01*
X92939126Y-79875665D01*
X92939126Y-79875665D01*
G37*
G36*
X92585303Y-79521843D02*
X91877659Y-80229487D01*
X91714219Y-80066047D01*
X92421863Y-79358403D01*
X92585303Y-79521843D01*
X92585303Y-79521843D01*
G37*
G36*
X92231481Y-79168021D02*
X91523837Y-79875665D01*
X91360397Y-79712225D01*
X92068041Y-79004581D01*
X92231481Y-79168021D01*
X92231481Y-79168021D01*
G37*
G36*
X92231481Y-78300529D02*
X92068041Y-78463969D01*
X91360397Y-77756325D01*
X91523837Y-77592885D01*
X92231481Y-78300529D01*
X92231481Y-78300529D01*
G37*
G36*
X92585303Y-77946707D02*
X92421863Y-78110147D01*
X91714219Y-77402503D01*
X91877659Y-77239063D01*
X92585303Y-77946707D01*
X92585303Y-77946707D01*
G37*
G36*
X92939126Y-77592885D02*
X92775686Y-77756325D01*
X92068042Y-77048681D01*
X92231482Y-76885241D01*
X92939126Y-77592885D01*
X92939126Y-77592885D01*
G37*
G36*
X93292948Y-77239063D02*
X93129508Y-77402503D01*
X92421864Y-76694859D01*
X92585304Y-76531419D01*
X93292948Y-77239063D01*
X93292948Y-77239063D01*
G37*
G36*
X93646770Y-76885241D02*
X93483330Y-77048681D01*
X92775686Y-76341037D01*
X92939126Y-76177597D01*
X93646770Y-76885241D01*
X93646770Y-76885241D01*
G37*
G36*
X94000592Y-76531418D02*
X93837152Y-76694858D01*
X93129508Y-75987214D01*
X93292948Y-75823774D01*
X94000592Y-76531418D01*
X94000592Y-76531418D01*
G37*
G36*
X94354414Y-76177596D02*
X94190974Y-76341036D01*
X93483330Y-75633392D01*
X93646770Y-75469952D01*
X94354414Y-76177596D01*
X94354414Y-76177596D01*
G37*
G36*
X95766110Y-75633392D02*
X95058466Y-76341036D01*
X94895026Y-76177596D01*
X95602670Y-75469952D01*
X95766110Y-75633392D01*
X95766110Y-75633392D01*
G37*
G36*
X96119932Y-75987214D02*
X95412288Y-76694858D01*
X95248848Y-76531418D01*
X95956492Y-75823774D01*
X96119932Y-75987214D01*
X96119932Y-75987214D01*
G37*
G36*
X96473754Y-76341037D02*
X95766110Y-77048681D01*
X95602670Y-76885241D01*
X96310314Y-76177597D01*
X96473754Y-76341037D01*
X96473754Y-76341037D01*
G37*
G36*
X96827576Y-76694859D02*
X96119932Y-77402503D01*
X95956492Y-77239063D01*
X96664136Y-76531419D01*
X96827576Y-76694859D01*
X96827576Y-76694859D01*
G37*
G36*
X97181398Y-77048681D02*
X96473754Y-77756325D01*
X96310314Y-77592885D01*
X97017958Y-76885241D01*
X97181398Y-77048681D01*
X97181398Y-77048681D01*
G37*
G36*
X97535221Y-77402503D02*
X96827577Y-78110147D01*
X96664137Y-77946707D01*
X97371781Y-77239063D01*
X97535221Y-77402503D01*
X97535221Y-77402503D01*
G37*
G36*
X97889043Y-77756325D02*
X97181399Y-78463969D01*
X97017959Y-78300529D01*
X97725603Y-77592885D01*
X97889043Y-77756325D01*
X97889043Y-77756325D01*
G37*
G36*
X95686186Y-78734275D02*
X94624720Y-79795741D01*
X93563254Y-78734275D01*
X94624720Y-77672809D01*
X95686186Y-78734275D01*
X95686186Y-78734275D01*
G37*
D29*
X94624720Y-81916878D03*
D27*
X85394360Y-86471074D03*
X85394360Y-88371074D03*
X87393340Y-87421074D03*
X83941480Y-91469874D03*
X83941480Y-89569874D03*
X81942500Y-90519874D03*
D30*
X98540000Y-85547200D03*
X97040000Y-85547200D03*
X84781520Y-81629875D03*
X86281520Y-81629875D03*
D31*
X91881520Y-90379475D03*
X91881520Y-91879475D03*
D30*
X84883120Y-83153875D03*
X86383120Y-83153875D03*
X82444720Y-87979875D03*
X83944720Y-87979875D03*
D31*
X85531520Y-91269874D03*
X85531520Y-89769874D03*
D30*
X98067120Y-91891475D03*
X96567120Y-91891475D03*
D31*
X82178720Y-85732675D03*
X82178720Y-84232675D03*
X89027000Y-87070500D03*
X89027000Y-88570500D03*
X83855120Y-84893075D03*
X83855120Y-86393075D03*
X98552000Y-94500000D03*
X98552000Y-96000000D03*
D32*
X85773520Y-76549875D03*
X84273520Y-76549875D03*
X93569920Y-86303475D03*
X95069920Y-86303475D03*
X96684400Y-83921600D03*
X98184400Y-83921600D03*
X96684400Y-82499200D03*
X98184400Y-82499200D03*
X94917521Y-91739074D03*
X93417521Y-91739074D03*
D33*
X83448720Y-82938674D03*
X83448720Y-81438674D03*
D34*
X97672720Y-90343474D03*
X97672720Y-87343474D03*
D32*
X91842719Y-94990275D03*
X93342719Y-94990275D03*
D33*
X88427120Y-90379475D03*
X88427120Y-91879475D03*
X87157120Y-96349875D03*
X87157120Y-94849875D03*
D31*
X87766720Y-83903875D03*
X87766720Y-82403875D03*
X89443120Y-83903875D03*
X89443120Y-82403875D03*
X98425000Y-98667000D03*
X98425000Y-97167000D03*
X90154320Y-91879475D03*
X90154320Y-90379475D03*
D35*
X91760720Y-96920675D03*
X89239920Y-96920675D03*
D36*
X91948000Y-85979000D03*
X91932320Y-73857474D03*
X82991520Y-110585875D03*
X90255920Y-93313875D03*
X90205120Y-87522674D03*
X97840800Y-75844400D03*
X95046800Y-82600800D03*
X95707200Y-74676000D03*
X94132400Y-82600800D03*
X91576720Y-85287475D03*
X82585120Y-76397475D03*
X89290720Y-77616675D03*
X85407500Y-84899500D03*
X86169500Y-92456000D03*
X93964320Y-107080674D03*
X87766720Y-93313875D03*
X96351920Y-117139075D03*
X88138000Y-86360000D03*
X94932500Y-94170500D03*
X87766720Y-84982675D03*
X83042320Y-114548276D03*
X87766720Y-105861475D03*
X89290720Y-106064675D03*
X89443121Y-84982676D03*
X83042320Y-113329074D03*
X93862720Y-73908274D03*
X95996320Y-79343875D03*
X93049921Y-73908274D03*
X95386720Y-79902675D03*
X96329500Y-98615500D03*
X100457000Y-87820500D03*
X97663000Y-88836500D03*
X90805000Y-86487000D03*
X94573921Y-98546276D03*
X96504320Y-112008275D03*
X96453520Y-110738275D03*
X94827920Y-109417475D03*
X94726319Y-107537875D03*
X90662320Y-94990275D03*
X96453520Y-109468275D03*
X89189119Y-95345875D03*
X96402720Y-108249074D03*
X96402720Y-106928275D03*
X96402720Y-105709075D03*
X96351920Y-104388275D03*
X96351920Y-103169075D03*
X83905920Y-103169075D03*
X83347119Y-104439075D03*
X82940720Y-105709075D03*
X82991520Y-106928275D03*
X82991520Y-108198276D03*
X82940720Y-109468274D03*
X83042320Y-112059075D03*
X93253120Y-98597075D03*
X92389520Y-98597075D03*
X91525920Y-98546275D03*
X87969921Y-97784274D03*
X86953920Y-97682676D03*
X86903120Y-98597075D03*
X85633120Y-98597076D03*
X84413922Y-98597075D03*
X91475121Y-80969476D03*
X90763921Y-83763475D03*
X83499520Y-84017476D03*
X90560722Y-77667475D03*
D37*
X99117450Y-84401545D02*
X99015850Y-84503145D01*
D38*
X86123520Y-78089075D02*
X86123520Y-76899875D01*
X86123520Y-76899875D02*
X85773520Y-76549875D01*
X85773520Y-76549875D02*
X85773520Y-75960980D01*
X86278280Y-75456220D02*
X86278280Y-74009874D01*
X85773520Y-75960980D02*
X86278280Y-75456220D01*
D39*
X87091120Y-78089074D02*
X86123520Y-78089076D01*
X87461919Y-77718275D02*
X87091120Y-78089074D01*
X87461922Y-72384275D02*
X87461919Y-77718275D01*
X88427122Y-71419075D02*
X87461922Y-72384275D01*
X89951121Y-71419075D02*
X88427122Y-71419075D01*
X90459120Y-70911074D02*
X89951121Y-71419075D01*
X91017920Y-70911076D02*
X90459120Y-70911074D01*
X96351920Y-70911074D02*
X91017920Y-70911076D01*
X98129920Y-72689075D02*
X96351920Y-70911074D01*
D37*
X95248720Y-97444275D02*
X93951775Y-97444275D01*
X93342719Y-96835219D02*
X93342719Y-94990275D01*
X93951775Y-97444275D02*
X93342719Y-96835219D01*
X95248720Y-97444275D02*
X95248720Y-97788720D01*
X95248720Y-97788720D02*
X95767721Y-98307721D01*
X95767721Y-98307721D02*
X95767721Y-100375875D01*
D40*
X91897200Y-86029800D02*
X91881520Y-87535376D01*
X91948000Y-85979000D02*
X91897200Y-86029800D01*
D39*
X87157120Y-94849875D02*
X85896375Y-94849875D01*
X84907520Y-93861020D02*
X84907520Y-93044275D01*
X85896375Y-94849875D02*
X84907520Y-93861020D01*
D38*
X84276760Y-74009874D02*
X84276760Y-76546635D01*
X84276760Y-76546635D02*
X84273520Y-76549875D01*
D39*
X97040000Y-85547200D02*
X97040000Y-85203600D01*
X97040000Y-85203600D02*
X96684400Y-84848000D01*
X96684400Y-84848000D02*
X96684400Y-83921600D01*
X96684400Y-82499200D02*
X96684400Y-81501599D01*
X96684400Y-81501599D02*
X96038212Y-80855411D01*
X96684400Y-82499200D02*
X96684400Y-83921600D01*
X97040000Y-85547200D02*
X97040000Y-86710754D01*
X97040000Y-86710754D02*
X97672720Y-87343474D01*
X95767720Y-100375876D02*
X95767721Y-101721276D01*
X89752721Y-107025075D02*
X89752720Y-110675875D01*
X90306720Y-106471074D02*
X89752721Y-107025075D01*
X90306720Y-104540675D02*
X90306720Y-106471074D01*
X91627520Y-103219874D02*
X90306720Y-104540675D01*
X94269120Y-103219875D02*
X91627520Y-103219874D01*
X95767721Y-101721276D02*
X94269120Y-103219875D01*
D40*
X91953119Y-72128675D02*
X91953120Y-73836674D01*
X91953120Y-73836674D02*
X91932320Y-73857474D01*
X88427120Y-91879475D02*
X88427120Y-92856675D01*
X88884321Y-93313875D02*
X90255920Y-93313875D01*
X88427120Y-92856675D02*
X88884321Y-93313875D01*
X93342720Y-94990275D02*
X93342720Y-94914774D01*
X93342720Y-94914774D02*
X91741820Y-93313875D01*
D41*
X86281521Y-81629875D02*
X85734721Y-81629875D01*
X85074320Y-80461474D02*
X85074319Y-78785075D01*
X85531521Y-80918675D02*
X85074320Y-80461474D01*
X85531520Y-81426675D02*
X85531521Y-80918675D01*
X85734721Y-81629875D02*
X85531520Y-81426675D01*
D40*
X101482721Y-86557474D02*
X99857120Y-86557474D01*
X99857120Y-86557474D02*
X99071120Y-87343474D01*
X99071120Y-87343474D02*
X97672720Y-87343474D01*
X82991520Y-110585875D02*
X83081520Y-110675875D01*
X83081520Y-110675875D02*
X89752720Y-110675875D01*
D37*
X91881520Y-87535376D02*
X90217821Y-87535375D01*
X90217821Y-87535375D02*
X90205120Y-87522674D01*
X90255920Y-93313875D02*
X91741820Y-93313875D01*
X97955190Y-87061004D02*
X97672720Y-87343474D01*
D39*
X88427120Y-91879475D02*
X88427120Y-93579874D01*
X88427120Y-93579874D02*
X87157119Y-94849875D01*
X97672720Y-87343474D02*
X97672720Y-87493315D01*
X97672720Y-87493315D02*
X96017764Y-89148276D01*
X96017764Y-89148276D02*
X94675519Y-89148275D01*
X91881520Y-87535376D02*
X92300621Y-87535375D01*
X92300621Y-87535375D02*
X92999120Y-88233875D01*
X92999120Y-88233875D02*
X92999120Y-88640275D01*
X92999120Y-88640275D02*
X93507121Y-89148276D01*
X93507121Y-89148276D02*
X94675519Y-89148275D01*
X94675521Y-87997476D02*
X94675519Y-89148275D01*
X93608720Y-91739075D02*
X93417520Y-91739075D01*
X95069920Y-86303475D02*
X95069920Y-86772674D01*
X94675520Y-87167076D02*
X94675521Y-87997476D01*
X95069920Y-86772674D02*
X94675520Y-87167076D01*
X93417520Y-91739075D02*
X93316620Y-91739075D01*
X93316620Y-91739075D02*
X91741820Y-93313875D01*
D41*
X87195920Y-94888675D02*
X87157119Y-94849875D01*
X91953119Y-72128675D02*
X91953120Y-73328676D01*
X87004720Y-79039076D02*
X86123520Y-79039074D01*
X88071520Y-77972275D02*
X87004720Y-79039076D01*
X88071520Y-73603475D02*
X88071520Y-77972275D01*
X88173120Y-73501875D02*
X88071520Y-73603475D01*
X91779920Y-73501876D02*
X88173120Y-73501875D01*
X91953120Y-73328676D02*
X91779920Y-73501876D01*
D42*
X86123520Y-79039074D02*
X85328320Y-79039075D01*
X85074320Y-77350675D02*
X84273521Y-76549875D01*
X85074319Y-78785075D02*
X85074320Y-77350675D01*
X85328320Y-79039075D02*
X85074319Y-78785075D01*
X83448720Y-81438676D02*
X83409920Y-81438675D01*
X83409920Y-81438675D02*
X82889920Y-80918675D01*
X82889920Y-80918675D02*
X82889920Y-79496275D01*
X82889920Y-79496275D02*
X83347121Y-79039074D01*
X83347121Y-79039074D02*
X86123520Y-79039074D01*
D37*
X86377520Y-78785075D02*
X86123520Y-79039074D01*
D38*
X89824120Y-117621674D02*
X89069920Y-118375874D01*
X88681120Y-118409076D02*
X88681120Y-118375874D01*
X88714320Y-118375874D02*
X88681120Y-118409076D01*
X89069920Y-118375874D02*
X88714320Y-118375874D01*
X90662320Y-118375874D02*
X90578320Y-118375874D01*
X90578320Y-118375874D02*
X89824120Y-117621674D01*
X89824120Y-117621674D02*
X89752720Y-117550275D01*
X89752720Y-110675875D02*
X89752720Y-117550275D01*
X89752720Y-117550275D02*
X89752721Y-118375874D01*
X89752721Y-118375874D02*
X89747920Y-118380675D01*
X89747920Y-118380675D02*
X89747921Y-118409075D01*
X89747921Y-118409075D02*
X89747921Y-118375874D01*
X81052721Y-118375874D02*
X81052720Y-118976275D01*
X80451520Y-119577475D02*
X78622721Y-119577474D01*
X81052720Y-118976275D02*
X80451520Y-119577475D01*
X99052720Y-118375874D02*
X90662320Y-118375874D01*
X90662320Y-118375874D02*
X89747921Y-118375874D01*
X89747921Y-118375874D02*
X88681120Y-118375874D01*
X88681120Y-118375874D02*
X81052721Y-118375874D01*
D39*
X95056200Y-84074000D02*
X95056200Y-82610200D01*
X97840800Y-75844400D02*
X99030164Y-74655036D01*
X95056200Y-82610200D02*
X95046800Y-82600800D01*
X99030164Y-74655036D02*
X99079920Y-74655036D01*
X95056200Y-84074000D02*
X95056200Y-84826600D01*
X94234000Y-85648800D02*
X94234000Y-85639394D01*
X95056200Y-84826600D02*
X94234000Y-85648800D01*
D40*
X101482721Y-73857474D02*
X99877481Y-73857474D01*
X99877481Y-73857474D02*
X99079921Y-74655034D01*
D39*
X95625520Y-87997475D02*
X95625520Y-87233075D01*
X95625520Y-87233075D02*
X96148720Y-86709875D01*
X96148720Y-86709875D02*
X96148720Y-86354274D01*
X94382720Y-85490674D02*
X94234000Y-85639394D01*
X94234000Y-85639394D02*
X93569920Y-86303474D01*
X96148720Y-86354274D02*
X96148721Y-85897075D01*
X96148721Y-85897075D02*
X95742320Y-85490675D01*
X95742320Y-85490675D02*
X94382720Y-85490674D01*
X93725520Y-87997476D02*
X93725519Y-86459075D01*
X93725519Y-86459075D02*
X93569920Y-86303474D01*
X91786200Y-84074000D02*
X93268800Y-84074000D01*
X95728164Y-74655036D02*
X97179920Y-74655036D01*
X95707200Y-74676000D02*
X95728164Y-74655036D01*
X94132400Y-83210400D02*
X94132400Y-82600800D01*
X93268800Y-84074000D02*
X94132400Y-83210400D01*
X98184400Y-83921600D02*
X98907600Y-83921600D01*
X99314000Y-81300622D02*
X97453501Y-79440123D01*
X99314000Y-83515200D02*
X99314000Y-81300622D01*
X98907600Y-83921600D02*
X99314000Y-83515200D01*
X98184400Y-83921600D02*
X98184400Y-84265200D01*
X98184400Y-84265200D02*
X98540000Y-84620800D01*
X98540000Y-84620800D02*
X98540000Y-85547200D01*
X91576720Y-85287475D02*
X91576720Y-84283480D01*
X91576720Y-84283480D02*
X91786200Y-84074000D01*
X97453501Y-78028428D02*
X97464168Y-78028427D01*
X97464168Y-78028427D02*
X97977520Y-77515075D01*
X97977520Y-77515075D02*
X97977520Y-77210275D01*
X97977520Y-77210275D02*
X97179921Y-76412675D01*
X97179921Y-76412675D02*
X97179921Y-74655034D01*
D37*
X89747920Y-79752816D02*
X89747920Y-78073874D01*
X82585120Y-76397475D02*
X82585120Y-78089075D01*
X89747920Y-78073874D02*
X89290720Y-77616675D01*
D40*
X84883121Y-83153876D02*
X83663920Y-83153876D01*
X83663920Y-83153876D02*
X83448720Y-82938674D01*
D37*
X89747920Y-79752816D02*
X89747921Y-78581875D01*
D42*
X83448720Y-82938674D02*
X82623920Y-82938676D01*
X82623920Y-82938676D02*
X82026320Y-82341076D01*
X82026320Y-82341076D02*
X82026320Y-78632675D01*
X82026320Y-78632675D02*
X82569920Y-78089075D01*
X82569920Y-78089075D02*
X82585120Y-78089075D01*
X82585120Y-78089075D02*
X83923520Y-78089075D01*
D37*
X97453501Y-78028428D02*
X97453502Y-79440123D01*
D39*
X97099679Y-79793945D02*
X97116745Y-79793945D01*
X97116745Y-79793945D02*
X98184400Y-80861600D01*
X98184400Y-80861600D02*
X98184400Y-82499200D01*
D11*
X88427120Y-90379475D02*
X86976025Y-90379475D01*
D37*
X85401075Y-84893075D02*
X83855120Y-84893075D01*
X85407500Y-84899500D02*
X85401075Y-84893075D01*
X86804500Y-91821000D02*
X86169500Y-92456000D01*
X86804500Y-90551000D02*
X86804500Y-91821000D01*
X86976025Y-90379475D02*
X86804500Y-90551000D01*
D39*
X88427120Y-90379475D02*
X87856320Y-90379474D01*
X95031120Y-117139075D02*
X96351920Y-117139075D01*
X94015120Y-116123075D02*
X95031120Y-117139075D01*
X94015120Y-107131474D02*
X94015120Y-116123075D01*
X93964320Y-107080674D02*
X94015120Y-107131474D01*
X87563522Y-93110675D02*
X87766720Y-93313875D01*
X87563520Y-90672274D02*
X87563522Y-93110675D01*
X87856320Y-90379474D02*
X87563520Y-90672274D01*
X90154320Y-90379475D02*
X88427120Y-90379475D01*
X98067120Y-91891475D02*
X98067120Y-90737875D01*
X98067120Y-90737875D02*
X97672721Y-90343476D01*
X94917520Y-91739074D02*
X94917520Y-91422275D01*
X94917520Y-91422275D02*
X94523120Y-91027875D01*
X90154320Y-90875475D02*
X90154320Y-90379475D01*
X90306720Y-91027875D02*
X90154320Y-90875475D01*
X94523120Y-91027875D02*
X90306720Y-91027875D01*
X95625520Y-90197475D02*
X97526720Y-90197475D01*
X97526720Y-90197475D02*
X97672721Y-90343476D01*
X94917520Y-91739074D02*
X95183520Y-91739076D01*
X95183520Y-91739076D02*
X95625521Y-91297076D01*
X95625521Y-91297076D02*
X95625520Y-90197475D01*
D37*
X96385121Y-117105875D02*
X99052720Y-117105875D01*
X96351920Y-117139075D02*
X96385121Y-117105875D01*
X97048720Y-93044275D02*
X97048720Y-94022780D01*
X88138000Y-86360000D02*
X87393340Y-87104660D01*
X96901000Y-94170500D02*
X94932500Y-94170500D01*
X97048720Y-94022780D02*
X96901000Y-94170500D01*
X87393340Y-87104660D02*
X87393340Y-87421074D01*
D39*
X96567120Y-91891475D02*
X96567120Y-92562675D01*
X96567120Y-92562675D02*
X97048720Y-93044275D01*
X97648720Y-93244274D02*
X98720720Y-93244275D01*
X98720720Y-93244275D02*
X99501520Y-94025075D01*
X99501520Y-94025075D02*
X99501520Y-99765475D01*
X99501520Y-99765475D02*
X98485520Y-100781475D01*
X98485520Y-100781475D02*
X97723520Y-100781476D01*
X97723520Y-100781476D02*
X96097921Y-102407075D01*
X96097921Y-102407075D02*
X95793120Y-102711876D01*
X95793120Y-102711876D02*
X95437520Y-103067474D01*
X95437520Y-103067474D02*
X95437520Y-114954675D01*
X95437520Y-114954675D02*
X96318720Y-115835875D01*
X96318720Y-115835875D02*
X99052720Y-115835875D01*
D37*
X97648720Y-93244274D02*
X97648720Y-93541075D01*
D39*
X97648720Y-93244274D02*
X96739520Y-93244275D01*
D37*
X87393340Y-87421074D02*
X87393341Y-87083255D01*
X101482720Y-117037475D02*
X101482720Y-116885075D01*
X101482720Y-116885075D02*
X100433520Y-115835875D01*
X100433520Y-115835875D02*
X99052720Y-115835875D01*
X87766720Y-83903875D02*
X87766720Y-84982675D01*
D39*
X81052720Y-114565875D02*
X83024720Y-114565875D01*
X83024720Y-114565875D02*
X83042320Y-114548276D01*
D37*
X89443120Y-83903875D02*
X89443121Y-84982676D01*
X89087520Y-105861475D02*
X87766720Y-105861475D01*
X89290720Y-106064675D02*
X89087520Y-105861475D01*
D39*
X81052720Y-113295876D02*
X83009120Y-113295874D01*
X83009120Y-113295874D02*
X83042320Y-113329074D01*
D37*
X94553121Y-72128675D02*
X94553121Y-74030675D01*
X90862979Y-74467075D02*
X89747920Y-75582135D01*
X94116720Y-74467075D02*
X90862979Y-74467075D01*
X94553121Y-74030675D02*
X94116720Y-74467075D01*
D41*
X90558180Y-74771875D02*
X89747920Y-75582135D01*
D37*
X89747920Y-75582135D02*
X90156860Y-75582135D01*
D11*
X93903121Y-72128675D02*
X93903120Y-73867876D01*
X93903120Y-73867876D02*
X93862720Y-73908274D01*
X95996320Y-79343875D02*
X96745856Y-80093411D01*
X96745856Y-80093411D02*
X96745856Y-80147766D01*
X96392034Y-80501588D02*
X95894720Y-80004276D01*
X93253120Y-73705075D02*
X93253120Y-72128675D01*
X93049921Y-73908274D02*
X93253120Y-73705075D01*
X95488320Y-80004275D02*
X95386720Y-79902675D01*
X95894720Y-80004276D02*
X95488320Y-80004275D01*
D37*
X87665120Y-80905974D02*
X87665121Y-81020275D01*
X87665121Y-81020275D02*
X87004720Y-81680675D01*
X87004720Y-81680675D02*
X87004720Y-82532275D01*
X87004720Y-82532275D02*
X86383120Y-83153875D01*
X87665120Y-79407376D02*
X87601620Y-79407375D01*
X87601620Y-79407375D02*
X87019920Y-79989075D01*
X87019920Y-79989075D02*
X86123520Y-79989075D01*
D39*
X91881520Y-89033974D02*
X91881520Y-90379475D01*
D37*
X93240420Y-93313875D02*
X93240420Y-93684920D01*
X93240420Y-93684920D02*
X93662500Y-94107000D01*
X93662500Y-94107000D02*
X93980000Y-94107000D01*
X93980000Y-94107000D02*
X95123000Y-95250000D01*
X95123000Y-95250000D02*
X97802000Y-95250000D01*
X97802000Y-95250000D02*
X98552000Y-94500000D01*
X84781519Y-81629875D02*
X84781520Y-80847075D01*
X84781520Y-80847075D02*
X83923520Y-79989075D01*
X98425000Y-98667000D02*
X96381000Y-98667000D01*
X96381000Y-98667000D02*
X96329500Y-98615500D01*
X89027000Y-87070500D02*
X89027000Y-86804500D01*
X99885500Y-88392000D02*
X100457000Y-87820500D01*
X98107500Y-88392000D02*
X99885500Y-88392000D01*
X97663000Y-88836500D02*
X98107500Y-88392000D01*
X89344500Y-86487000D02*
X90805000Y-86487000D01*
X89027000Y-86804500D02*
X89344500Y-86487000D01*
D40*
X94482720Y-100375875D02*
X94482720Y-98637476D01*
X94482720Y-98637476D02*
X94573921Y-98546276D01*
X101482720Y-114497476D02*
X99121120Y-114497474D01*
X99121120Y-114497474D02*
X99052720Y-114565875D01*
D37*
X99121120Y-114497474D02*
X99052720Y-114565875D01*
X101482721Y-111957475D02*
X101482720Y-112160676D01*
X101482720Y-112160676D02*
X100347520Y-113295874D01*
X100347520Y-113295874D02*
X99052720Y-113295876D01*
X99052720Y-112025875D02*
X96521920Y-112025876D01*
X96521920Y-112025876D02*
X96504320Y-112008275D01*
X99052720Y-110755875D02*
X96471121Y-110755876D01*
X96471121Y-110755876D02*
X96453520Y-110738275D01*
D39*
X91760720Y-96920675D02*
X91760721Y-95580674D01*
X94827919Y-107639475D02*
X94827920Y-109417475D01*
X94726319Y-107537875D02*
X94827919Y-107639475D01*
X91170320Y-94990274D02*
X90662320Y-94990275D01*
X91760721Y-95580674D02*
X91170320Y-94990274D01*
D40*
X91842720Y-94990275D02*
X91842720Y-96838675D01*
X91842720Y-96838675D02*
X91760720Y-96920675D01*
D37*
X99052720Y-109485875D02*
X96471120Y-109485875D01*
X96471120Y-109485875D02*
X96453520Y-109468275D01*
D39*
X89239920Y-96920674D02*
X89239919Y-95396675D01*
X89239919Y-95396675D02*
X89189119Y-95345875D01*
D41*
X89239920Y-96920674D02*
X87727920Y-96920676D01*
X87727920Y-96920676D02*
X87157120Y-96349876D01*
D37*
X89239920Y-96920674D02*
X89239920Y-97682675D01*
X99052720Y-108215874D02*
X96435921Y-108215874D01*
X96435921Y-108215874D02*
X96402720Y-108249074D01*
X99052720Y-106945876D02*
X96420320Y-106945875D01*
X96420320Y-106945875D02*
X96402720Y-106928275D01*
X99052720Y-105675875D02*
X96435920Y-105675875D01*
X96435920Y-105675875D02*
X96402720Y-105709075D01*
X99052720Y-104405875D02*
X96369520Y-104405875D01*
X96369520Y-104405875D02*
X96351920Y-104388275D01*
X99052720Y-103135875D02*
X96369520Y-103135875D01*
X96351920Y-103153475D02*
X96351920Y-103169075D01*
X96369520Y-103135875D02*
X96351920Y-103153475D01*
X99052720Y-101865874D02*
X99052720Y-101738275D01*
X99052720Y-101738275D02*
X99907920Y-100883074D01*
X99907920Y-100883074D02*
X99907920Y-91789875D01*
X99907920Y-91789875D02*
X99907922Y-89046675D01*
X99907922Y-89046675D02*
X99958722Y-89097475D01*
X99958722Y-89097475D02*
X101482721Y-89097475D01*
D39*
X83107520Y-97444275D02*
X81052720Y-97444275D01*
X81052720Y-97444275D02*
X81052720Y-97377875D01*
D40*
X83855120Y-86393075D02*
X78787120Y-86393075D01*
X78787120Y-86393075D02*
X78622721Y-86557474D01*
D37*
X81942501Y-90519874D02*
X81052720Y-90519876D01*
X81111920Y-90570674D02*
X81052720Y-90570676D01*
X81103520Y-90570676D02*
X81111920Y-90570674D01*
X81052720Y-90519876D02*
X81103520Y-90570676D01*
D39*
X81052721Y-101865874D02*
X81052720Y-97377875D01*
X81052720Y-97377875D02*
X81052720Y-90570676D01*
X81052720Y-90570676D02*
X81052721Y-87260275D01*
X80349920Y-86557475D02*
X78622721Y-86557474D01*
X81052721Y-87260275D02*
X80349920Y-86557475D01*
X81052720Y-103135875D02*
X83872720Y-103135875D01*
X83872720Y-103135875D02*
X83905920Y-103169075D01*
X81052721Y-104405875D02*
X83313919Y-104405875D01*
X83313919Y-104405875D02*
X83347119Y-104439075D01*
X81052720Y-105675875D02*
X82973920Y-105675875D01*
X82973920Y-105675875D02*
X82940720Y-105709075D01*
X81052720Y-106945874D02*
X82973920Y-106945874D01*
X82973920Y-106945874D02*
X82991520Y-106928275D01*
X81052720Y-108215875D02*
X82973920Y-108215875D01*
X82973920Y-108215875D02*
X82991520Y-108198276D01*
X81052720Y-109485875D02*
X83024720Y-109485875D01*
X83007120Y-109468275D02*
X82940720Y-109468274D01*
X83024720Y-109485875D02*
X83007120Y-109468275D01*
X81052720Y-112025875D02*
X83009120Y-112025875D01*
X83009120Y-112025875D02*
X83042320Y-112059075D01*
D38*
X81052720Y-115835875D02*
X79961120Y-115835875D01*
X79961120Y-115835875D02*
X78622720Y-114497476D01*
X81052720Y-117105876D02*
X78691120Y-117105875D01*
X78691120Y-117105875D02*
X78622720Y-117037475D01*
D37*
X93227720Y-100375875D02*
X93227720Y-98622475D01*
X93227720Y-98622475D02*
X93253120Y-98597075D01*
X91957720Y-100375876D02*
X91957720Y-99028875D01*
X91957720Y-99028875D02*
X92389520Y-98597075D01*
X90687721Y-100375876D02*
X90687719Y-99384475D01*
X90687719Y-99384475D02*
X91525920Y-98546275D01*
D39*
X89417720Y-100375876D02*
X89417720Y-99384474D01*
X89417720Y-99384474D02*
X87919121Y-97885874D01*
X87919121Y-97885874D02*
X87919121Y-97835074D01*
X87919121Y-97835074D02*
X87969921Y-97784274D01*
X88147720Y-100375875D02*
X88147720Y-98876476D01*
X88147720Y-98876476D02*
X86953920Y-97682676D01*
X86877720Y-100375875D02*
X86877720Y-98622475D01*
X86877720Y-98622475D02*
X86903120Y-98597075D01*
D37*
X82178720Y-85732676D02*
X80947520Y-85732676D01*
D41*
X80095920Y-81477474D02*
X78622720Y-81477475D01*
X80807120Y-82188674D02*
X80095920Y-81477474D01*
X80807120Y-85592275D02*
X80807120Y-82188674D01*
X80947520Y-85732676D02*
X80807120Y-85592275D01*
D39*
X85607720Y-100375876D02*
X85607720Y-98622476D01*
X85607720Y-98622476D02*
X85633120Y-98597076D01*
X84337721Y-100375876D02*
X84337721Y-98673276D01*
X84337721Y-98673276D02*
X84413922Y-98597075D01*
X79181520Y-84017476D02*
X78622720Y-84017475D01*
D37*
X85394360Y-86471076D02*
X85394360Y-86847035D01*
X85394360Y-86847035D02*
X85074320Y-87167075D01*
X85074320Y-87167075D02*
X83257520Y-87167075D01*
X83257520Y-87167075D02*
X82444720Y-87979875D01*
X89027000Y-88570500D02*
X85593786Y-88570500D01*
X85593786Y-88570500D02*
X85394360Y-88371074D01*
X85633161Y-88132276D02*
X85394360Y-88371075D01*
D11*
X85499160Y-88475875D02*
X85394360Y-88371075D01*
D37*
X85394360Y-88371075D02*
X86003920Y-88371075D01*
X86003920Y-88371075D02*
X86541124Y-87833873D01*
X85394360Y-88371075D02*
X85394360Y-89632715D01*
X85394360Y-89632715D02*
X85531520Y-89769876D01*
X91935877Y-80715475D02*
X92503584Y-80147766D01*
X91729121Y-80715475D02*
X91935877Y-80715475D01*
X91475121Y-80969476D02*
X91729121Y-80715475D01*
X90509921Y-84017476D02*
X90763921Y-83763475D01*
X90509920Y-84779475D02*
X90509921Y-84017476D01*
X89646320Y-85643075D02*
X90509920Y-84779475D01*
X86547520Y-85643074D02*
X89646320Y-85643075D01*
X86541122Y-85649472D02*
X86547520Y-85643074D01*
X86541124Y-87833873D02*
X86541122Y-85649472D01*
X83941481Y-91469876D02*
X85331520Y-91469876D01*
X85331520Y-91469876D02*
X85531520Y-91269874D01*
D39*
X92770164Y-82203763D02*
X93278165Y-82203763D01*
X93278165Y-82203763D02*
X93918872Y-81563056D01*
D37*
X83944719Y-87979875D02*
X84001122Y-87979875D01*
X84001122Y-87979875D02*
X84356722Y-87624274D01*
X92017529Y-82956400D02*
X92770164Y-82203763D01*
X92770164Y-82203763D02*
X92801272Y-82172655D01*
X87405395Y-82956399D02*
X92017529Y-82956400D01*
X87004720Y-83357076D02*
X87405395Y-82956399D01*
X87004720Y-84169875D02*
X87004720Y-83357076D01*
X86141120Y-85033475D02*
X87004720Y-84169875D01*
X86141120Y-87167075D02*
X86141120Y-85033475D01*
X85683920Y-87624275D02*
X86141120Y-87167075D01*
X84356722Y-87624274D02*
X85683920Y-87624275D01*
X83944719Y-87979875D02*
X83944720Y-89566635D01*
X83944720Y-89566635D02*
X83941480Y-89569875D01*
D11*
X83284321Y-84232675D02*
X82178720Y-84232675D01*
X83499520Y-84017476D02*
X83284321Y-84232675D01*
X90662322Y-77769075D02*
X90560722Y-77667475D01*
X92149761Y-79793945D02*
X92149761Y-79786835D01*
X92149761Y-79786835D02*
X92592720Y-79343874D01*
X92592720Y-79343874D02*
X92592720Y-79140674D01*
X91627522Y-78734275D02*
X90662322Y-77769075D01*
X92186320Y-78734275D02*
X91627522Y-78734275D01*
X92592720Y-79140674D02*
X92186320Y-78734275D01*
D39*
X91881520Y-91879475D02*
X90154320Y-91879475D01*
D37*
X98552000Y-96000000D02*
X98552000Y-97040000D01*
X98552000Y-97040000D02*
X98425000Y-97167000D01*
X92857407Y-80501588D02*
X91525920Y-81833075D01*
X88337520Y-81833075D02*
X87766720Y-82403875D01*
X91525920Y-81833075D02*
X88337520Y-81833075D01*
X93211229Y-80855410D02*
X93211228Y-80858968D01*
X93211228Y-80858968D02*
X91666321Y-82403875D01*
X91666321Y-82403875D02*
X89443121Y-82403876D01*
D39*
G36*
X86778120Y-73068076D02*
X86778120Y-74799274D01*
X86344320Y-74799274D01*
X86295688Y-74809122D01*
X86254719Y-74837115D01*
X86227869Y-74878842D01*
X86219320Y-74924274D01*
X86219320Y-77108674D01*
X86219322Y-77565875D01*
X86229170Y-77614507D01*
X86257163Y-77655476D01*
X86298890Y-77682326D01*
X86344322Y-77690875D01*
X86625720Y-77690875D01*
X86625720Y-78304475D01*
X85656521Y-78304475D01*
X85656520Y-77159475D01*
X85646672Y-77110843D01*
X85618679Y-77069874D01*
X85576952Y-77043024D01*
X85531520Y-77034475D01*
X85482322Y-77034475D01*
X85453320Y-76991071D01*
X85453320Y-76116074D01*
X85683920Y-76116074D01*
X85732552Y-76106226D01*
X85773521Y-76078233D01*
X85800371Y-76036506D01*
X85808920Y-75991074D01*
X85808920Y-73068075D01*
X86778120Y-73068076D01*
X86778120Y-73068076D01*
G37*
X86778120Y-73068076D02*
X86778120Y-74799274D01*
X86344320Y-74799274D01*
X86295688Y-74809122D01*
X86254719Y-74837115D01*
X86227869Y-74878842D01*
X86219320Y-74924274D01*
X86219320Y-77108674D01*
X86219322Y-77565875D01*
X86229170Y-77614507D01*
X86257163Y-77655476D01*
X86298890Y-77682326D01*
X86344322Y-77690875D01*
X86625720Y-77690875D01*
X86625720Y-78304475D01*
X85656521Y-78304475D01*
X85656520Y-77159475D01*
X85646672Y-77110843D01*
X85618679Y-77069874D01*
X85576952Y-77043024D01*
X85531520Y-77034475D01*
X85482322Y-77034475D01*
X85453320Y-76991071D01*
X85453320Y-76116074D01*
X85683920Y-76116074D01*
X85732552Y-76106226D01*
X85773521Y-76078233D01*
X85800371Y-76036506D01*
X85808920Y-75991074D01*
X85808920Y-73068075D01*
X86778120Y-73068076D01*
G36*
X86625720Y-79320475D02*
X85656520Y-79320475D01*
X85656521Y-78808475D01*
X86625721Y-78808475D01*
X86625720Y-79320475D01*
X86625720Y-79320475D01*
G37*
X86625720Y-79320475D02*
X85656520Y-79320475D01*
X85656521Y-78808475D01*
X86625721Y-78808475D01*
X86625720Y-79320475D01*
G36*
X84949320Y-73068076D02*
X84949320Y-74854815D01*
X84924087Y-74859925D01*
X84883118Y-74887918D01*
X84856268Y-74929645D01*
X84847720Y-74975076D01*
X84847720Y-76882076D01*
X84718722Y-76882074D01*
X83980121Y-76882074D01*
X83980120Y-75991076D01*
X83970272Y-75942444D01*
X83942279Y-75901475D01*
X83900552Y-75874625D01*
X83855121Y-75866076D01*
X83624520Y-75866075D01*
X83624521Y-73068074D01*
X84949320Y-73068076D01*
X84949320Y-73068076D01*
G37*
X84949320Y-73068076D02*
X84949320Y-74854815D01*
X84924087Y-74859925D01*
X84883118Y-74887918D01*
X84856268Y-74929645D01*
X84847720Y-74975076D01*
X84847720Y-76882076D01*
X84718722Y-76882074D01*
X83980121Y-76882074D01*
X83980120Y-75991076D01*
X83970272Y-75942444D01*
X83942279Y-75901475D01*
X83900552Y-75874625D01*
X83855121Y-75866076D01*
X83624520Y-75866075D01*
X83624521Y-73068074D01*
X84949320Y-73068076D01*
G36*
X83882520Y-83333674D02*
X83014920Y-83333675D01*
X83014920Y-82696675D01*
X83005072Y-82648043D01*
X82984869Y-82618475D01*
X83882520Y-82618475D01*
X83882520Y-83333674D01*
X83882520Y-83333674D01*
G37*
X83882520Y-83333674D02*
X83014920Y-83333675D01*
X83014920Y-82696675D01*
X83005072Y-82648043D01*
X82984869Y-82618475D01*
X83882520Y-82618475D01*
X83882520Y-83333674D01*
G36*
X84390519Y-78456875D02*
X82432719Y-78456875D01*
X82384087Y-78466723D01*
X82343118Y-78494716D01*
X82316268Y-78536443D01*
X82307719Y-78581875D01*
X82307720Y-82493475D01*
X82317568Y-82542107D01*
X82337771Y-82571675D01*
X82151320Y-82571675D01*
X82151320Y-77690875D01*
X84390521Y-77690875D01*
X84390519Y-78456875D01*
X84390519Y-78456875D01*
G37*
X84390519Y-78456875D02*
X82432719Y-78456875D01*
X82384087Y-78466723D01*
X82343118Y-78494716D01*
X82316268Y-78536443D01*
X82307719Y-78581875D01*
X82307720Y-82493475D01*
X82317568Y-82542107D01*
X82337771Y-82571675D01*
X82151320Y-82571675D01*
X82151320Y-77690875D01*
X84390521Y-77690875D01*
X84390519Y-78456875D01*
G36*
X84898520Y-79168076D02*
X82991520Y-79168076D01*
X82942888Y-79177924D01*
X82901919Y-79205917D01*
X82875069Y-79247644D01*
X82866520Y-79293076D01*
X82866520Y-80715475D01*
X82876368Y-80764107D01*
X82904361Y-80805076D01*
X82946088Y-80831926D01*
X82991520Y-80840475D01*
X83730120Y-80840475D01*
X83730120Y-81962076D01*
X82862520Y-81962075D01*
X82862520Y-79113276D01*
X84898520Y-79113275D01*
X84898520Y-79168076D01*
X84898520Y-79168076D01*
G37*
X84898520Y-79168076D02*
X82991520Y-79168076D01*
X82942888Y-79177924D01*
X82901919Y-79205917D01*
X82875069Y-79247644D01*
X82866520Y-79293076D01*
X82866520Y-80715475D01*
X82876368Y-80764107D01*
X82904361Y-80805076D01*
X82946088Y-80831926D01*
X82991520Y-80840475D01*
X83730120Y-80840475D01*
X83730120Y-81962076D01*
X82862520Y-81962075D01*
X82862520Y-79113276D01*
X84898520Y-79113275D01*
X84898520Y-79168076D01*
M02*
