G04 #@! TF.FileFunction,Legend,Top*
%FSLAX46Y46*%
G04 Gerber Fmt 4.6, Leading zero omitted, Abs format (unit mm)*
G04 Created by KiCad (PCBNEW 4.0.4-stable) date 12/03/16 16:19:23*
%MOMM*%
%LPD*%
G01*
G04 APERTURE LIST*
%ADD10C,0.100000*%
%ADD11C,0.125000*%
%ADD12C,0.150000*%
%ADD13C,0.175000*%
%ADD14C,0.250000*%
%ADD15C,0.300000*%
%ADD16C,0.254000*%
%ADD17C,0.381000*%
%ADD18C,0.050800*%
G04 APERTURE END LIST*
D10*
D11*
X79326755Y-115467890D02*
X79360012Y-115462623D01*
X79412532Y-115471350D01*
X79508843Y-115541324D01*
X79533373Y-115588577D01*
X79538640Y-115621834D01*
X79529912Y-115674354D01*
X79501922Y-115712878D01*
X79440676Y-115756670D01*
X79041590Y-115819879D01*
X79292000Y-116001812D01*
X79720729Y-115695268D02*
X79971138Y-115877201D01*
X79724343Y-115933336D01*
X79782129Y-115975321D01*
X79806659Y-116022572D01*
X79811927Y-116055830D01*
X79803199Y-116108349D01*
X79733225Y-116204660D01*
X79685973Y-116229190D01*
X79652715Y-116234458D01*
X79600196Y-116225730D01*
X79484623Y-116141761D01*
X79460093Y-116094509D01*
X79454826Y-116061252D01*
X79377555Y-112978690D02*
X79410812Y-112973423D01*
X79463332Y-112982150D01*
X79559643Y-113052124D01*
X79584173Y-113099377D01*
X79589440Y-113132634D01*
X79580712Y-113185154D01*
X79552722Y-113223678D01*
X79491476Y-113267470D01*
X79092390Y-113330679D01*
X79342800Y-113512612D01*
X79762800Y-113258588D02*
X79796058Y-113253320D01*
X79848578Y-113262047D01*
X79944889Y-113332022D01*
X79969418Y-113379274D01*
X79974686Y-113412532D01*
X79965958Y-113465051D01*
X79937968Y-113503576D01*
X79876722Y-113547367D01*
X79477636Y-113610576D01*
X79728045Y-113792510D01*
X79383638Y-110421157D02*
X79614786Y-110589096D01*
X79205319Y-110909635D02*
X79499212Y-110505126D01*
X79417205Y-111063579D02*
X79825018Y-110947850D01*
X79613133Y-110793907D02*
X79629090Y-111217522D01*
D12*
X80807120Y-127451475D02*
X99399920Y-127451475D01*
X80299120Y-126943474D02*
X80807120Y-127451475D01*
X79283120Y-125927474D02*
X80299120Y-126943474D01*
X99907920Y-126943475D02*
X99399920Y-127451475D01*
X100923920Y-125927475D02*
X99907920Y-126943475D01*
X101838320Y-125927474D02*
X100923920Y-125927475D01*
X101838321Y-125927475D02*
G75*
G03X102752720Y-125013074I-1J914400D01*
G01*
X102752720Y-68117075D02*
X102752720Y-125013074D01*
X77352720Y-124860675D02*
X77352720Y-68117075D01*
X79283120Y-125927474D02*
X78216320Y-125927475D01*
X77352719Y-124860674D02*
G75*
G03X78216320Y-125927475I965201J-101600D01*
G01*
X102752719Y-68117074D02*
G75*
G03X101787520Y-67355075I-863599J-101600D01*
G01*
X101787520Y-67355075D02*
X78317921Y-67355075D01*
X78317919Y-67355076D02*
G75*
G03X77352720Y-68117075I-101600J-863599D01*
G01*
D11*
X79330524Y-108460602D02*
X79335637Y-108170015D01*
X79099377Y-108292663D02*
X79393269Y-107888155D01*
X79547368Y-108000114D01*
X79571897Y-108047366D01*
X79577164Y-108080624D01*
X79568437Y-108133143D01*
X79526452Y-108190930D01*
X79479200Y-108215459D01*
X79445943Y-108220727D01*
X79393424Y-108211999D01*
X79239326Y-108100040D01*
X79465361Y-108558566D02*
X79873174Y-108442837D01*
X79661289Y-108288894D02*
X79677245Y-108712510D01*
X79326755Y-105307890D02*
X79360012Y-105302623D01*
X79412532Y-105311350D01*
X79508843Y-105381324D01*
X79533373Y-105428577D01*
X79538640Y-105461834D01*
X79529912Y-105514354D01*
X79501922Y-105552878D01*
X79440676Y-105596670D01*
X79041590Y-105659879D01*
X79292000Y-105841812D01*
X79677245Y-106121710D02*
X79446098Y-105953771D01*
X79561672Y-106037740D02*
X79855564Y-105633232D01*
X79775055Y-105663029D01*
X79708541Y-105673564D01*
X79656021Y-105664837D01*
X79292000Y-100812612D02*
X79060852Y-100644674D01*
X79176426Y-100728643D02*
X79470319Y-100324134D01*
X79389809Y-100353932D01*
X79323295Y-100364467D01*
X79270775Y-100355740D01*
X79484623Y-100952561D02*
X79561672Y-101008540D01*
X79614191Y-101017268D01*
X79647449Y-101012001D01*
X79727958Y-100982204D01*
X79803199Y-100919149D01*
X79915158Y-100765051D01*
X79923886Y-100712532D01*
X79918618Y-100679274D01*
X79894089Y-100632022D01*
X79817040Y-100576042D01*
X79764520Y-100567315D01*
X79731263Y-100572583D01*
X79684011Y-100597113D01*
X79614036Y-100693424D01*
X79605309Y-100745943D01*
X79610576Y-100779201D01*
X79635106Y-100826452D01*
X79712155Y-100882432D01*
X79764674Y-100891160D01*
X79797932Y-100885892D01*
X79845184Y-100861362D01*
X79754889Y-103100317D02*
X79730359Y-103053065D01*
X79672573Y-103011081D01*
X79600790Y-102988358D01*
X79534276Y-102998893D01*
X79487024Y-103023423D01*
X79411782Y-103086477D01*
X79369797Y-103144265D01*
X79333081Y-103235309D01*
X79324353Y-103287828D01*
X79334888Y-103354342D01*
X79378680Y-103415589D01*
X79417205Y-103443579D01*
X79488986Y-103466301D01*
X79522244Y-103461034D01*
X79620208Y-103326198D01*
X79543158Y-103270219D01*
D13*
X78872533Y-120808000D02*
X78805867Y-120774667D01*
X78705867Y-120774667D01*
X78605867Y-120808000D01*
X78539200Y-120874667D01*
X78505867Y-120941333D01*
X78472533Y-121074667D01*
X78472533Y-121174667D01*
X78505867Y-121308000D01*
X78539200Y-121374667D01*
X78605867Y-121441333D01*
X78705867Y-121474667D01*
X78772533Y-121474667D01*
X78872533Y-121441333D01*
X78905867Y-121408000D01*
X78905867Y-121174667D01*
X78772533Y-121174667D01*
D11*
X100416843Y-116062827D02*
X100551678Y-115964863D01*
X100763409Y-116134763D02*
X100570786Y-116274712D01*
X100276893Y-115870203D01*
X100469516Y-115730255D01*
X100936770Y-116008809D02*
X100642877Y-115604301D01*
X101167917Y-115840871D01*
X100874025Y-115436362D01*
X100238369Y-113358193D02*
X100667098Y-113664737D01*
X100508041Y-113162265D01*
X100936770Y-113468809D02*
X100642877Y-113064301D01*
X100796975Y-112952342D01*
X100849495Y-112943615D01*
X100882752Y-112948883D01*
X100930005Y-112973412D01*
X100971989Y-113031199D01*
X100980716Y-113083718D01*
X100975449Y-113116976D01*
X100950919Y-113164227D01*
X100796821Y-113276186D01*
X100228737Y-110774391D02*
X100657466Y-111080935D01*
X100498409Y-110578463D01*
X100927138Y-110885007D02*
X100633246Y-110480498D01*
X101158286Y-110717068D01*
X100864393Y-110312560D01*
X100197200Y-108271196D02*
X100447609Y-108089263D01*
X100424733Y-108341325D01*
X100482520Y-108299341D01*
X100535039Y-108290613D01*
X100568297Y-108295881D01*
X100615548Y-108320411D01*
X100685522Y-108416722D01*
X100694250Y-108469241D01*
X100688983Y-108502499D01*
X100664453Y-108549751D01*
X100548879Y-108633720D01*
X100496360Y-108642448D01*
X100463103Y-108637180D01*
X100892295Y-107972191D02*
X101088223Y-108241863D01*
X100684025Y-107888067D02*
X100797636Y-108246976D01*
X101048047Y-108065043D01*
X100197200Y-105731196D02*
X100447609Y-105549263D01*
X100424733Y-105801325D01*
X100482520Y-105759341D01*
X100535039Y-105750613D01*
X100568297Y-105755881D01*
X100615548Y-105780411D01*
X100685522Y-105876722D01*
X100694250Y-105929241D01*
X100688983Y-105962499D01*
X100664453Y-106009751D01*
X100548879Y-106093720D01*
X100496360Y-106102448D01*
X100463103Y-106097180D01*
X100813593Y-105283360D02*
X100620970Y-105423308D01*
X100741657Y-105629927D01*
X100746925Y-105596669D01*
X100771455Y-105549418D01*
X100867766Y-105479444D01*
X100920285Y-105470716D01*
X100953543Y-105475983D01*
X101000794Y-105500513D01*
X101070768Y-105596824D01*
X101079496Y-105649344D01*
X101074229Y-105682601D01*
X101049699Y-105729853D01*
X100953388Y-105799827D01*
X100900868Y-105808555D01*
X100867611Y-105803287D01*
X100197200Y-103191196D02*
X100447609Y-103009263D01*
X100424733Y-103261325D01*
X100482520Y-103219341D01*
X100535039Y-103210613D01*
X100568297Y-103215881D01*
X100615548Y-103240411D01*
X100685522Y-103336722D01*
X100694250Y-103389241D01*
X100688983Y-103422499D01*
X100664453Y-103469751D01*
X100548879Y-103553720D01*
X100496360Y-103562448D01*
X100463103Y-103557180D01*
X100629698Y-102935829D02*
X100634966Y-102902571D01*
X100659495Y-102855319D01*
X100755806Y-102785345D01*
X100808326Y-102776618D01*
X100841584Y-102781885D01*
X100888835Y-102806415D01*
X100916825Y-102844940D01*
X100939547Y-102916721D01*
X100876338Y-103315807D01*
X101126748Y-103133874D01*
X100095600Y-100701996D02*
X100346009Y-100520063D01*
X100323133Y-100772125D01*
X100380920Y-100730141D01*
X100433439Y-100721413D01*
X100466697Y-100726681D01*
X100513948Y-100751211D01*
X100583922Y-100847522D01*
X100592650Y-100900041D01*
X100587383Y-100933299D01*
X100562853Y-100980551D01*
X100447279Y-101064520D01*
X100394760Y-101073248D01*
X100361503Y-101067980D01*
X100480846Y-100422098D02*
X100731255Y-100240165D01*
X100708379Y-100492228D01*
X100766166Y-100450244D01*
X100818685Y-100441516D01*
X100851943Y-100446783D01*
X100899194Y-100471313D01*
X100969168Y-100567624D01*
X100977896Y-100620144D01*
X100972629Y-100653401D01*
X100948099Y-100700653D01*
X100832525Y-100784622D01*
X100780006Y-100793350D01*
X100746749Y-100788082D01*
D13*
X99852933Y-86162400D02*
X99786267Y-86129067D01*
X99686267Y-86129067D01*
X99586267Y-86162400D01*
X99519600Y-86229067D01*
X99486267Y-86295733D01*
X99452933Y-86429067D01*
X99452933Y-86529067D01*
X99486267Y-86662400D01*
X99519600Y-86729067D01*
X99586267Y-86795733D01*
X99686267Y-86829067D01*
X99752933Y-86829067D01*
X99852933Y-86795733D01*
X99886267Y-86762400D01*
X99886267Y-86529067D01*
X99752933Y-86529067D01*
D14*
X82876332Y-127198381D02*
X82876332Y-126198381D01*
X82876332Y-126674571D02*
X83447761Y-126674571D01*
X83447761Y-127198381D02*
X83447761Y-126198381D01*
X84066808Y-127198381D02*
X83971570Y-127150762D01*
X83923951Y-127103143D01*
X83876332Y-127007905D01*
X83876332Y-126722190D01*
X83923951Y-126626952D01*
X83971570Y-126579333D01*
X84066808Y-126531714D01*
X84209666Y-126531714D01*
X84304904Y-126579333D01*
X84352523Y-126626952D01*
X84400142Y-126722190D01*
X84400142Y-127007905D01*
X84352523Y-127103143D01*
X84304904Y-127150762D01*
X84209666Y-127198381D01*
X84066808Y-127198381D01*
X84828713Y-127198381D02*
X84828713Y-126531714D01*
X84828713Y-126722190D02*
X84876332Y-126626952D01*
X84923951Y-126579333D01*
X85019189Y-126531714D01*
X85114428Y-126531714D01*
X85447761Y-126531714D02*
X85447761Y-127198381D01*
X85447761Y-126626952D02*
X85495380Y-126579333D01*
X85590618Y-126531714D01*
X85733476Y-126531714D01*
X85828714Y-126579333D01*
X85876333Y-126674571D01*
X85876333Y-127198381D01*
X86352523Y-127198381D02*
X86352523Y-126198381D01*
X86352523Y-126579333D02*
X86447761Y-126531714D01*
X86638238Y-126531714D01*
X86733476Y-126579333D01*
X86781095Y-126626952D01*
X86828714Y-126722190D01*
X86828714Y-127007905D01*
X86781095Y-127103143D01*
X86733476Y-127150762D01*
X86638238Y-127198381D01*
X86447761Y-127198381D01*
X86352523Y-127150762D01*
X87257285Y-127198381D02*
X87257285Y-126531714D01*
X87257285Y-126198381D02*
X87209666Y-126246000D01*
X87257285Y-126293619D01*
X87304904Y-126246000D01*
X87257285Y-126198381D01*
X87257285Y-126293619D01*
X87876332Y-127198381D02*
X87781094Y-127150762D01*
X87733475Y-127055524D01*
X87733475Y-126198381D01*
X88400142Y-127198381D02*
X88304904Y-127150762D01*
X88257285Y-127055524D01*
X88257285Y-126198381D01*
X89543000Y-126674571D02*
X89876334Y-126674571D01*
X90019191Y-127198381D02*
X89543000Y-127198381D01*
X89543000Y-126198381D01*
X90019191Y-126198381D01*
X90400143Y-127150762D02*
X90543000Y-127198381D01*
X90781096Y-127198381D01*
X90876334Y-127150762D01*
X90923953Y-127103143D01*
X90971572Y-127007905D01*
X90971572Y-126912667D01*
X90923953Y-126817429D01*
X90876334Y-126769810D01*
X90781096Y-126722190D01*
X90590619Y-126674571D01*
X90495381Y-126626952D01*
X90447762Y-126579333D01*
X90400143Y-126484095D01*
X90400143Y-126388857D01*
X90447762Y-126293619D01*
X90495381Y-126246000D01*
X90590619Y-126198381D01*
X90828715Y-126198381D01*
X90971572Y-126246000D01*
X91400143Y-127198381D02*
X91400143Y-126198381D01*
X91781096Y-126198381D01*
X91876334Y-126246000D01*
X91923953Y-126293619D01*
X91971572Y-126388857D01*
X91971572Y-126531714D01*
X91923953Y-126626952D01*
X91876334Y-126674571D01*
X91781096Y-126722190D01*
X91400143Y-126722190D01*
X92304905Y-126198381D02*
X92923953Y-126198381D01*
X92590619Y-126579333D01*
X92733477Y-126579333D01*
X92828715Y-126626952D01*
X92876334Y-126674571D01*
X92923953Y-126769810D01*
X92923953Y-127007905D01*
X92876334Y-127103143D01*
X92828715Y-127150762D01*
X92733477Y-127198381D01*
X92447762Y-127198381D01*
X92352524Y-127150762D01*
X92304905Y-127103143D01*
X93304905Y-126293619D02*
X93352524Y-126246000D01*
X93447762Y-126198381D01*
X93685858Y-126198381D01*
X93781096Y-126246000D01*
X93828715Y-126293619D01*
X93876334Y-126388857D01*
X93876334Y-126484095D01*
X93828715Y-126626952D01*
X93257286Y-127198381D01*
X93876334Y-127198381D01*
X95066810Y-127198381D02*
X95066810Y-126198381D01*
X95304905Y-126198381D01*
X95447763Y-126246000D01*
X95543001Y-126341238D01*
X95590620Y-126436476D01*
X95638239Y-126626952D01*
X95638239Y-126769810D01*
X95590620Y-126960286D01*
X95543001Y-127055524D01*
X95447763Y-127150762D01*
X95304905Y-127198381D01*
X95066810Y-127198381D01*
X96447763Y-127150762D02*
X96352525Y-127198381D01*
X96162048Y-127198381D01*
X96066810Y-127150762D01*
X96019191Y-127055524D01*
X96019191Y-126674571D01*
X96066810Y-126579333D01*
X96162048Y-126531714D01*
X96352525Y-126531714D01*
X96447763Y-126579333D01*
X96495382Y-126674571D01*
X96495382Y-126769810D01*
X96019191Y-126865048D01*
X96828715Y-126531714D02*
X97066810Y-127198381D01*
X97304906Y-126531714D01*
D13*
X100580933Y-120825467D02*
X101014266Y-120825467D01*
X100780933Y-121092133D01*
X100880933Y-121092133D01*
X100947600Y-121125467D01*
X100980933Y-121158800D01*
X101014266Y-121225467D01*
X101014266Y-121392133D01*
X100980933Y-121458800D01*
X100947600Y-121492133D01*
X100880933Y-121525467D01*
X100680933Y-121525467D01*
X100614266Y-121492133D01*
X100580933Y-121458800D01*
X101214267Y-120825467D02*
X101447600Y-121525467D01*
X101680933Y-120825467D01*
X101847600Y-120825467D02*
X102280933Y-120825467D01*
X102047600Y-121092133D01*
X102147600Y-121092133D01*
X102214267Y-121125467D01*
X102247600Y-121158800D01*
X102280933Y-121225467D01*
X102280933Y-121392133D01*
X102247600Y-121458800D01*
X102214267Y-121492133D01*
X102147600Y-121525467D01*
X101947600Y-121525467D01*
X101880933Y-121492133D01*
X101847600Y-121458800D01*
X80384666Y-99478267D02*
X79984666Y-99478267D01*
X80184666Y-99478267D02*
X80184666Y-98778267D01*
X80118000Y-98878267D01*
X80051333Y-98944933D01*
X79984666Y-98978267D01*
X80784667Y-99078267D02*
X80718000Y-99044933D01*
X80684667Y-99011600D01*
X80651333Y-98944933D01*
X80651333Y-98911600D01*
X80684667Y-98844933D01*
X80718000Y-98811600D01*
X80784667Y-98778267D01*
X80918000Y-98778267D01*
X80984667Y-98811600D01*
X81018000Y-98844933D01*
X81051333Y-98911600D01*
X81051333Y-98944933D01*
X81018000Y-99011600D01*
X80984667Y-99044933D01*
X80918000Y-99078267D01*
X80784667Y-99078267D01*
X80718000Y-99111600D01*
X80684667Y-99144933D01*
X80651333Y-99211600D01*
X80651333Y-99344933D01*
X80684667Y-99411600D01*
X80718000Y-99444933D01*
X80784667Y-99478267D01*
X80918000Y-99478267D01*
X80984667Y-99444933D01*
X81018000Y-99411600D01*
X81051333Y-99344933D01*
X81051333Y-99211600D01*
X81018000Y-99144933D01*
X80984667Y-99111600D01*
X80918000Y-99078267D01*
X80532267Y-96390667D02*
X80198934Y-96390667D01*
X80165600Y-96724000D01*
X80198934Y-96690667D01*
X80265600Y-96657333D01*
X80432267Y-96657333D01*
X80498934Y-96690667D01*
X80532267Y-96724000D01*
X80565600Y-96790667D01*
X80565600Y-96957333D01*
X80532267Y-97024000D01*
X80498934Y-97057333D01*
X80432267Y-97090667D01*
X80265600Y-97090667D01*
X80198934Y-97057333D01*
X80165600Y-97024000D01*
X80486266Y-94550667D02*
X80086266Y-94550667D01*
X80286266Y-94550667D02*
X80286266Y-93850667D01*
X80219600Y-93950667D01*
X80152933Y-94017333D01*
X80086266Y-94050667D01*
X80719600Y-93850667D02*
X81186267Y-93850667D01*
X80886267Y-94550667D01*
X80435466Y-91959867D02*
X80035466Y-91959867D01*
X80235466Y-91959867D02*
X80235466Y-91259867D01*
X80168800Y-91359867D01*
X80102133Y-91426533D01*
X80035466Y-91459867D01*
X81035467Y-91259867D02*
X80902133Y-91259867D01*
X80835467Y-91293200D01*
X80802133Y-91326533D01*
X80735467Y-91426533D01*
X80702133Y-91559867D01*
X80702133Y-91826533D01*
X80735467Y-91893200D01*
X80768800Y-91926533D01*
X80835467Y-91959867D01*
X80968800Y-91959867D01*
X81035467Y-91926533D01*
X81068800Y-91893200D01*
X81102133Y-91826533D01*
X81102133Y-91659867D01*
X81068800Y-91593200D01*
X81035467Y-91559867D01*
X80968800Y-91526533D01*
X80835467Y-91526533D01*
X80768800Y-91559867D01*
X80735467Y-91593200D01*
X80702133Y-91659867D01*
X80498934Y-89105600D02*
X80498934Y-89572267D01*
X80332267Y-88838933D02*
X80165600Y-89338933D01*
X80598934Y-89338933D01*
X80383067Y-86129067D02*
X80449734Y-86129067D01*
X80516400Y-86162400D01*
X80549734Y-86195733D01*
X80583067Y-86262400D01*
X80616400Y-86395733D01*
X80616400Y-86562400D01*
X80583067Y-86695733D01*
X80549734Y-86762400D01*
X80516400Y-86795733D01*
X80449734Y-86829067D01*
X80383067Y-86829067D01*
X80316400Y-86795733D01*
X80283067Y-86762400D01*
X80249734Y-86695733D01*
X80216400Y-86562400D01*
X80216400Y-86395733D01*
X80249734Y-86262400D01*
X80283067Y-86195733D01*
X80316400Y-86162400D01*
X80383067Y-86129067D01*
X80267200Y-83706533D02*
X80300534Y-83673200D01*
X80367200Y-83639867D01*
X80533867Y-83639867D01*
X80600534Y-83673200D01*
X80633867Y-83706533D01*
X80667200Y-83773200D01*
X80667200Y-83839867D01*
X80633867Y-83939867D01*
X80233867Y-84339867D01*
X80667200Y-84339867D01*
X80435466Y-81799867D02*
X80035466Y-81799867D01*
X80235466Y-81799867D02*
X80235466Y-81099867D01*
X80168800Y-81199867D01*
X80102133Y-81266533D01*
X80035466Y-81299867D01*
X81068800Y-81099867D02*
X80735467Y-81099867D01*
X80702133Y-81433200D01*
X80735467Y-81399867D01*
X80802133Y-81366533D01*
X80968800Y-81366533D01*
X81035467Y-81399867D01*
X81068800Y-81433200D01*
X81102133Y-81499867D01*
X81102133Y-81666533D01*
X81068800Y-81733200D01*
X81035467Y-81766533D01*
X80968800Y-81799867D01*
X80802133Y-81799867D01*
X80735467Y-81766533D01*
X80702133Y-81733200D01*
X79990266Y-79277333D02*
X80090266Y-79310667D01*
X80256933Y-79310667D01*
X80323600Y-79277333D01*
X80356933Y-79244000D01*
X80390266Y-79177333D01*
X80390266Y-79110667D01*
X80356933Y-79044000D01*
X80323600Y-79010667D01*
X80256933Y-78977333D01*
X80123600Y-78944000D01*
X80056933Y-78910667D01*
X80023600Y-78877333D01*
X79990266Y-78810667D01*
X79990266Y-78744000D01*
X80023600Y-78677333D01*
X80056933Y-78644000D01*
X80123600Y-78610667D01*
X80290266Y-78610667D01*
X80390266Y-78644000D01*
X80690267Y-79310667D02*
X80690267Y-78610667D01*
X80856933Y-78610667D01*
X80956933Y-78644000D01*
X81023600Y-78710667D01*
X81056933Y-78777333D01*
X81090267Y-78910667D01*
X81090267Y-79010667D01*
X81056933Y-79144000D01*
X81023600Y-79210667D01*
X80956933Y-79277333D01*
X80856933Y-79310667D01*
X80690267Y-79310667D01*
X81756933Y-79310667D02*
X81356933Y-79310667D01*
X81556933Y-79310667D02*
X81556933Y-78610667D01*
X81490267Y-78710667D01*
X81423600Y-78777333D01*
X81356933Y-78810667D01*
X79939466Y-76686533D02*
X80039466Y-76719867D01*
X80206133Y-76719867D01*
X80272800Y-76686533D01*
X80306133Y-76653200D01*
X80339466Y-76586533D01*
X80339466Y-76519867D01*
X80306133Y-76453200D01*
X80272800Y-76419867D01*
X80206133Y-76386533D01*
X80072800Y-76353200D01*
X80006133Y-76319867D01*
X79972800Y-76286533D01*
X79939466Y-76219867D01*
X79939466Y-76153200D01*
X79972800Y-76086533D01*
X80006133Y-76053200D01*
X80072800Y-76019867D01*
X80239466Y-76019867D01*
X80339466Y-76053200D01*
X80639467Y-76719867D02*
X80639467Y-76019867D01*
X80806133Y-76019867D01*
X80906133Y-76053200D01*
X80972800Y-76119867D01*
X81006133Y-76186533D01*
X81039467Y-76319867D01*
X81039467Y-76419867D01*
X81006133Y-76553200D01*
X80972800Y-76619867D01*
X80906133Y-76686533D01*
X80806133Y-76719867D01*
X80639467Y-76719867D01*
X81472800Y-76019867D02*
X81539467Y-76019867D01*
X81606133Y-76053200D01*
X81639467Y-76086533D01*
X81672800Y-76153200D01*
X81706133Y-76286533D01*
X81706133Y-76453200D01*
X81672800Y-76586533D01*
X81639467Y-76653200D01*
X81606133Y-76686533D01*
X81539467Y-76719867D01*
X81472800Y-76719867D01*
X81406133Y-76686533D01*
X81372800Y-76653200D01*
X81339467Y-76586533D01*
X81306133Y-76453200D01*
X81306133Y-76286533D01*
X81339467Y-76153200D01*
X81372800Y-76086533D01*
X81406133Y-76053200D01*
X81472800Y-76019867D01*
X78170934Y-72690800D02*
X78137600Y-72724133D01*
X78037600Y-72757467D01*
X77970934Y-72757467D01*
X77870934Y-72724133D01*
X77804267Y-72657467D01*
X77770934Y-72590800D01*
X77737600Y-72457467D01*
X77737600Y-72357467D01*
X77770934Y-72224133D01*
X77804267Y-72157467D01*
X77870934Y-72090800D01*
X77970934Y-72057467D01*
X78037600Y-72057467D01*
X78137600Y-72090800D01*
X78170934Y-72124133D01*
X78804267Y-72757467D02*
X78470934Y-72757467D01*
X78470934Y-72057467D01*
X79037601Y-72757467D02*
X79037601Y-72057467D01*
X79437601Y-72757467D02*
X79137601Y-72357467D01*
X79437601Y-72057467D02*
X79037601Y-72457467D01*
X100242800Y-72490800D02*
X100776133Y-72490800D01*
X100509466Y-72757467D02*
X100509466Y-72224133D01*
X101442800Y-72057467D02*
X101109467Y-72057467D01*
X101076133Y-72390800D01*
X101109467Y-72357467D01*
X101176133Y-72324133D01*
X101342800Y-72324133D01*
X101409467Y-72357467D01*
X101442800Y-72390800D01*
X101476133Y-72457467D01*
X101476133Y-72624133D01*
X101442800Y-72690800D01*
X101409467Y-72724133D01*
X101342800Y-72757467D01*
X101176133Y-72757467D01*
X101109467Y-72724133D01*
X101076133Y-72690800D01*
X101676134Y-72057467D02*
X101909467Y-72757467D01*
X102142800Y-72057467D01*
X98679067Y-76754800D02*
X98645733Y-76788133D01*
X98545733Y-76821467D01*
X98479067Y-76821467D01*
X98379067Y-76788133D01*
X98312400Y-76721467D01*
X98279067Y-76654800D01*
X98245733Y-76521467D01*
X98245733Y-76421467D01*
X98279067Y-76288133D01*
X98312400Y-76221467D01*
X98379067Y-76154800D01*
X98479067Y-76121467D01*
X98545733Y-76121467D01*
X98645733Y-76154800D01*
X98679067Y-76188133D01*
X98979067Y-76821467D02*
X98979067Y-76121467D01*
X99212400Y-76621467D01*
X99445733Y-76121467D01*
X99445733Y-76821467D01*
X99779067Y-76821467D02*
X99779067Y-76121467D01*
X99945733Y-76121467D01*
X100045733Y-76154800D01*
X100112400Y-76221467D01*
X100145733Y-76288133D01*
X100179067Y-76421467D01*
X100179067Y-76521467D01*
X100145733Y-76654800D01*
X100112400Y-76721467D01*
X100045733Y-76788133D01*
X99945733Y-76821467D01*
X99779067Y-76821467D01*
X98430666Y-81664933D02*
X98530666Y-81698267D01*
X98697333Y-81698267D01*
X98764000Y-81664933D01*
X98797333Y-81631600D01*
X98830666Y-81564933D01*
X98830666Y-81498267D01*
X98797333Y-81431600D01*
X98764000Y-81398267D01*
X98697333Y-81364933D01*
X98564000Y-81331600D01*
X98497333Y-81298267D01*
X98464000Y-81264933D01*
X98430666Y-81198267D01*
X98430666Y-81131600D01*
X98464000Y-81064933D01*
X98497333Y-81031600D01*
X98564000Y-80998267D01*
X98730666Y-80998267D01*
X98830666Y-81031600D01*
X99130667Y-81698267D02*
X99130667Y-80998267D01*
X99297333Y-80998267D01*
X99397333Y-81031600D01*
X99464000Y-81098267D01*
X99497333Y-81164933D01*
X99530667Y-81298267D01*
X99530667Y-81398267D01*
X99497333Y-81531600D01*
X99464000Y-81598267D01*
X99397333Y-81664933D01*
X99297333Y-81698267D01*
X99130667Y-81698267D01*
X99797333Y-81064933D02*
X99830667Y-81031600D01*
X99897333Y-80998267D01*
X100064000Y-80998267D01*
X100130667Y-81031600D01*
X100164000Y-81064933D01*
X100197333Y-81131600D01*
X100197333Y-81198267D01*
X100164000Y-81298267D01*
X99764000Y-81698267D01*
X100197333Y-81698267D01*
X99536266Y-84390667D02*
X99136266Y-84390667D01*
X99336266Y-84390667D02*
X99336266Y-83690667D01*
X99269600Y-83790667D01*
X99202933Y-83857333D01*
X99136266Y-83890667D01*
X99769600Y-83690667D02*
X100202933Y-83690667D01*
X99969600Y-83957333D01*
X100069600Y-83957333D01*
X100136267Y-83990667D01*
X100169600Y-84024000D01*
X100202933Y-84090667D01*
X100202933Y-84257333D01*
X100169600Y-84324000D01*
X100136267Y-84357333D01*
X100069600Y-84390667D01*
X99869600Y-84390667D01*
X99802933Y-84357333D01*
X99769600Y-84324000D01*
X99485466Y-89369067D02*
X99085466Y-89369067D01*
X99285466Y-89369067D02*
X99285466Y-88669067D01*
X99218800Y-88769067D01*
X99152133Y-88835733D01*
X99085466Y-88869067D01*
X99752133Y-88735733D02*
X99785467Y-88702400D01*
X99852133Y-88669067D01*
X100018800Y-88669067D01*
X100085467Y-88702400D01*
X100118800Y-88735733D01*
X100152133Y-88802400D01*
X100152133Y-88869067D01*
X100118800Y-88969067D01*
X99718800Y-89369067D01*
X100152133Y-89369067D01*
X99485466Y-91959867D02*
X99085466Y-91959867D01*
X99285466Y-91959867D02*
X99285466Y-91259867D01*
X99218800Y-91359867D01*
X99152133Y-91426533D01*
X99085466Y-91459867D01*
X100085467Y-91493200D02*
X100085467Y-91959867D01*
X99918800Y-91226533D02*
X99752133Y-91726533D01*
X100185467Y-91726533D01*
X99085466Y-93866533D02*
X99118800Y-93833200D01*
X99185466Y-93799867D01*
X99352133Y-93799867D01*
X99418800Y-93833200D01*
X99452133Y-93866533D01*
X99485466Y-93933200D01*
X99485466Y-93999867D01*
X99452133Y-94099867D01*
X99052133Y-94499867D01*
X99485466Y-94499867D01*
X99718800Y-93799867D02*
X100185467Y-93799867D01*
X99885467Y-94499867D01*
X98430666Y-79226533D02*
X98530666Y-79259867D01*
X98697333Y-79259867D01*
X98764000Y-79226533D01*
X98797333Y-79193200D01*
X98830666Y-79126533D01*
X98830666Y-79059867D01*
X98797333Y-78993200D01*
X98764000Y-78959867D01*
X98697333Y-78926533D01*
X98564000Y-78893200D01*
X98497333Y-78859867D01*
X98464000Y-78826533D01*
X98430666Y-78759867D01*
X98430666Y-78693200D01*
X98464000Y-78626533D01*
X98497333Y-78593200D01*
X98564000Y-78559867D01*
X98730666Y-78559867D01*
X98830666Y-78593200D01*
X99130667Y-79259867D02*
X99130667Y-78559867D01*
X99297333Y-78559867D01*
X99397333Y-78593200D01*
X99464000Y-78659867D01*
X99497333Y-78726533D01*
X99530667Y-78859867D01*
X99530667Y-78959867D01*
X99497333Y-79093200D01*
X99464000Y-79159867D01*
X99397333Y-79226533D01*
X99297333Y-79259867D01*
X99130667Y-79259867D01*
X99764000Y-78559867D02*
X100197333Y-78559867D01*
X99964000Y-78826533D01*
X100064000Y-78826533D01*
X100130667Y-78859867D01*
X100164000Y-78893200D01*
X100197333Y-78959867D01*
X100197333Y-79126533D01*
X100164000Y-79193200D01*
X100130667Y-79226533D01*
X100064000Y-79259867D01*
X99864000Y-79259867D01*
X99797333Y-79226533D01*
X99764000Y-79193200D01*
X99136266Y-96558933D02*
X99169600Y-96525600D01*
X99236266Y-96492267D01*
X99402933Y-96492267D01*
X99469600Y-96525600D01*
X99502933Y-96558933D01*
X99536266Y-96625600D01*
X99536266Y-96692267D01*
X99502933Y-96792267D01*
X99102933Y-97192267D01*
X99536266Y-97192267D01*
X100136267Y-96492267D02*
X100002933Y-96492267D01*
X99936267Y-96525600D01*
X99902933Y-96558933D01*
X99836267Y-96658933D01*
X99802933Y-96792267D01*
X99802933Y-97058933D01*
X99836267Y-97125600D01*
X99869600Y-97158933D01*
X99936267Y-97192267D01*
X100069600Y-97192267D01*
X100136267Y-97158933D01*
X100169600Y-97125600D01*
X100202933Y-97058933D01*
X100202933Y-96892267D01*
X100169600Y-96825600D01*
X100136267Y-96792267D01*
X100069600Y-96758933D01*
X99936267Y-96758933D01*
X99869600Y-96792267D01*
X99836267Y-96825600D01*
X99802933Y-96892267D01*
X99136266Y-98997333D02*
X99169600Y-98964000D01*
X99236266Y-98930667D01*
X99402933Y-98930667D01*
X99469600Y-98964000D01*
X99502933Y-98997333D01*
X99536266Y-99064000D01*
X99536266Y-99130667D01*
X99502933Y-99230667D01*
X99102933Y-99630667D01*
X99536266Y-99630667D01*
X100169600Y-98930667D02*
X99836267Y-98930667D01*
X99802933Y-99264000D01*
X99836267Y-99230667D01*
X99902933Y-99197333D01*
X100069600Y-99197333D01*
X100136267Y-99230667D01*
X100169600Y-99264000D01*
X100202933Y-99330667D01*
X100202933Y-99497333D01*
X100169600Y-99564000D01*
X100136267Y-99597333D01*
X100069600Y-99630667D01*
X99902933Y-99630667D01*
X99836267Y-99597333D01*
X99802933Y-99564000D01*
D15*
X84832949Y-75629933D02*
X83690092Y-75629933D01*
X86814148Y-75782332D02*
X85671291Y-75782332D01*
X86242720Y-75210904D02*
X86242720Y-76353761D01*
D12*
X99052721Y-119875875D02*
X99052721Y-118975875D01*
X81052721Y-100375875D02*
X81052721Y-101275875D01*
X99052721Y-100375875D02*
X99052721Y-101275875D01*
X99052721Y-119875875D02*
X81052721Y-119875875D01*
X81052721Y-119875875D02*
X81052721Y-118975875D01*
X81052721Y-100375875D02*
X83752721Y-100375875D01*
X99052721Y-100375875D02*
X96352721Y-100375875D01*
X99052721Y-125875875D02*
X99052721Y-119875875D01*
X99052721Y-119875875D02*
X81052721Y-119875875D01*
X81052721Y-119875875D02*
X81052721Y-125875875D01*
X81052721Y-125875875D02*
X99052721Y-125875875D01*
X99052721Y-119875875D02*
X81052721Y-119875875D01*
X99052721Y-125875875D02*
X81052721Y-125875875D01*
X82508920Y-97276275D02*
X85506120Y-97276275D01*
X85506120Y-97276275D02*
X85506120Y-93212275D01*
X85506120Y-93212275D02*
X82559720Y-93212275D01*
X82559720Y-93212275D02*
X82559720Y-97250875D01*
D16*
X85008280Y-95244275D02*
G75*
G03X85008280Y-95244275I-1000760J0D01*
G01*
D12*
X97647320Y-93212275D02*
X94650120Y-93212275D01*
X94650120Y-93212275D02*
X94650120Y-97276275D01*
X94650120Y-97276275D02*
X97596520Y-97276275D01*
X97596520Y-97276275D02*
X97596520Y-93237675D01*
D16*
X97149480Y-95244275D02*
G75*
G03X97149480Y-95244275I-1000760J0D01*
G01*
D12*
X90753120Y-67528674D02*
X95753120Y-67528674D01*
X95753120Y-67528674D02*
X95753120Y-71028674D01*
X95753120Y-71028674D02*
X91253120Y-71028674D01*
X91253120Y-71028674D02*
X90753120Y-71028674D01*
X90753120Y-71028674D02*
X90753120Y-67528674D01*
X93738700Y-84074000D02*
X94119700Y-84074000D01*
X92722700Y-84074000D02*
X93103700Y-84074000D01*
X93103700Y-84074000D02*
X93738700Y-83693000D01*
X93738700Y-83693000D02*
X93738700Y-84455000D01*
X93738700Y-84455000D02*
X93103700Y-84074000D01*
X93103700Y-83566000D02*
X93103700Y-84582000D01*
X95421200Y-83174000D02*
X91881200Y-83174000D01*
X95421200Y-84974000D02*
X91881200Y-84974000D01*
X87115120Y-79259874D02*
X87115120Y-81159874D01*
X88215120Y-79259874D02*
X88215120Y-81159874D01*
X87665120Y-80159874D02*
X87665120Y-80609874D01*
X87915120Y-80109874D02*
X87415120Y-80109874D01*
X87665120Y-80109874D02*
X87915120Y-80359874D01*
X87915120Y-80359874D02*
X87415120Y-80359874D01*
X87415120Y-80359874D02*
X87665120Y-80109874D01*
X91331520Y-87184676D02*
X91331520Y-89084676D01*
X92431520Y-87184676D02*
X92431520Y-89084676D01*
X91881520Y-88084676D02*
X91881520Y-88534676D01*
X92131520Y-88034676D02*
X91631520Y-88034676D01*
X91881520Y-88034676D02*
X92131520Y-88284676D01*
X92131520Y-88284676D02*
X91631520Y-88284676D01*
X91631520Y-88284676D02*
X91881520Y-88034676D01*
X91391120Y-93863875D02*
X93291120Y-93863875D01*
X91391120Y-92763875D02*
X93291120Y-92763875D01*
X92291120Y-93313875D02*
X92741120Y-93313875D01*
X92241120Y-93063875D02*
X92241120Y-93563875D01*
X92241120Y-93313875D02*
X92491120Y-93063875D01*
X92491120Y-93063875D02*
X92491120Y-93563875D01*
X92491120Y-93563875D02*
X92241120Y-93313875D01*
X85423520Y-80739075D02*
G75*
G03X85423520Y-80739075I-100000J0D01*
G01*
X84773520Y-80489075D02*
X85273520Y-80489075D01*
X84773520Y-77589075D02*
X84773520Y-80489075D01*
X85273520Y-77589075D02*
X84773520Y-77589075D01*
X85273520Y-80489075D02*
X85273520Y-77589075D01*
D17*
X86578000Y-69910314D02*
X86578000Y-67710674D01*
X86578000Y-67710674D02*
X86877720Y-67710674D01*
X86877720Y-67710674D02*
X86877720Y-69910314D01*
X84777140Y-72010894D02*
X84777140Y-67710674D01*
X85777900Y-72010894D02*
X85777900Y-67710674D01*
X84777140Y-72010894D02*
X85777900Y-72010894D01*
X83979580Y-69910314D02*
X83979580Y-71510514D01*
X82978820Y-69910314D02*
X83979580Y-69910314D01*
X82978820Y-71510514D02*
X82978820Y-69910314D01*
X83979580Y-71510514D02*
X82978820Y-71510514D01*
X87578760Y-71510514D02*
X86578000Y-71510514D01*
X86578000Y-71510514D02*
X86578000Y-69910314D01*
X86578000Y-69910314D02*
X87578760Y-69910314D01*
X87578760Y-69910314D02*
X87578760Y-71510514D01*
X82277780Y-73611094D02*
X88277260Y-73611094D01*
X82478440Y-75409414D02*
X82478440Y-73611094D01*
X88076600Y-75409414D02*
X88076600Y-73611094D01*
X88277260Y-67710674D02*
X82277780Y-67710674D01*
X82277780Y-67710674D02*
X82277780Y-75409414D01*
X82277780Y-75409414D02*
X82676560Y-75409414D01*
X82676560Y-75409414D02*
X82676560Y-73611094D01*
X87878480Y-73611094D02*
X87878480Y-75409414D01*
X87878480Y-75409414D02*
X88277260Y-75409414D01*
X88277260Y-75409414D02*
X88277260Y-67710674D01*
D12*
X99429080Y-73004036D02*
X99380820Y-73004036D01*
X96630100Y-73705076D02*
X96630100Y-73004036D01*
X96630100Y-73004036D02*
X96879020Y-73004036D01*
X99429080Y-73004036D02*
X99629740Y-73004036D01*
X99629740Y-73004036D02*
X99629740Y-73705076D01*
X96475519Y-88797475D02*
G75*
G03X96475519Y-88797475I-100000J0D01*
G01*
X96125519Y-89347475D02*
X96125519Y-88847475D01*
X93225519Y-89347475D02*
X96125519Y-89347475D01*
X93225519Y-88847475D02*
X93225519Y-89347475D01*
X96125519Y-88847475D02*
X93225519Y-88847475D01*
D18*
X95154555Y-81739069D02*
X94624720Y-82268904D01*
X94624720Y-82268904D02*
X94094885Y-81739069D01*
X91619926Y-79264110D02*
X91090091Y-78734275D01*
X91090091Y-78734275D02*
X91619926Y-78204440D01*
X97629514Y-78204440D02*
X98159349Y-78734275D01*
X98159349Y-78734275D02*
X97629514Y-79264110D01*
X95154555Y-75729481D02*
X94624720Y-75199646D01*
X94624720Y-75199646D02*
X94094885Y-75729481D01*
D12*
X87045360Y-88720234D02*
X87045360Y-88671974D01*
X86344320Y-85921254D02*
X87045360Y-85921254D01*
X87045360Y-85921254D02*
X87045360Y-86170174D01*
X87045360Y-88720234D02*
X87045360Y-88920894D01*
X87045360Y-88920894D02*
X86344320Y-88920894D01*
X82290480Y-89220714D02*
X82290480Y-89268974D01*
X82991520Y-92019694D02*
X82290480Y-92019694D01*
X82290480Y-92019694D02*
X82290480Y-91770774D01*
X82290480Y-89220714D02*
X82290480Y-89020054D01*
X82290480Y-89020054D02*
X82991520Y-89020054D01*
X97290000Y-84872200D02*
X98290000Y-84872200D01*
X98290000Y-86222200D02*
X97290000Y-86222200D01*
X86031520Y-82304875D02*
X85031520Y-82304875D01*
X85031520Y-80954875D02*
X86031520Y-80954875D01*
X91206520Y-91629475D02*
X91206520Y-90629475D01*
X92556520Y-90629475D02*
X92556520Y-91629475D01*
X86133120Y-83828875D02*
X85133120Y-83828875D01*
X85133120Y-82478875D02*
X86133120Y-82478875D01*
X83694720Y-88654875D02*
X82694720Y-88654875D01*
X82694720Y-87304875D02*
X83694720Y-87304875D01*
X86206520Y-90019874D02*
X86206520Y-91019874D01*
X84856520Y-91019874D02*
X84856520Y-90019874D01*
X96817120Y-91216475D02*
X97817120Y-91216475D01*
X97817120Y-92566475D02*
X96817120Y-92566475D01*
X82853720Y-84482675D02*
X82853720Y-85482675D01*
X81503720Y-85482675D02*
X81503720Y-84482675D01*
X88352000Y-88320500D02*
X88352000Y-87320500D01*
X89702000Y-87320500D02*
X89702000Y-88320500D01*
X83180120Y-86143075D02*
X83180120Y-85143075D01*
X84530120Y-85143075D02*
X84530120Y-86143075D01*
X97877000Y-95750000D02*
X97877000Y-94750000D01*
X99227000Y-94750000D02*
X99227000Y-95750000D01*
X85373520Y-77149875D02*
X84673520Y-77149875D01*
X84673520Y-75949875D02*
X85373520Y-75949875D01*
X93969920Y-85703475D02*
X94669920Y-85703475D01*
X94669920Y-86903475D02*
X93969920Y-86903475D01*
X97084400Y-83321600D02*
X97784400Y-83321600D01*
X97784400Y-84521600D02*
X97084400Y-84521600D01*
X97084400Y-81899200D02*
X97784400Y-81899200D01*
X97784400Y-83099200D02*
X97084400Y-83099200D01*
X94517521Y-92339074D02*
X93817521Y-92339074D01*
X93817521Y-91139074D02*
X94517521Y-91139074D01*
X82848720Y-82538674D02*
X82848720Y-81838674D01*
X84048720Y-81838674D02*
X84048720Y-82538674D01*
X96647720Y-87843474D02*
X96647720Y-89843474D01*
X98697720Y-89843474D02*
X98697720Y-87843474D01*
X92242719Y-94390275D02*
X92942719Y-94390275D01*
X92942719Y-95590275D02*
X92242719Y-95590275D01*
X89027120Y-90779475D02*
X89027120Y-91479475D01*
X87827120Y-91479475D02*
X87827120Y-90779475D01*
X86557120Y-95949875D02*
X86557120Y-95249875D01*
X87757120Y-95249875D02*
X87757120Y-95949875D01*
X88441720Y-82653875D02*
X88441720Y-83653875D01*
X87091720Y-83653875D02*
X87091720Y-82653875D01*
X90118120Y-82653875D02*
X90118120Y-83653875D01*
X88768120Y-83653875D02*
X88768120Y-82653875D01*
X99100000Y-97417000D02*
X99100000Y-98417000D01*
X97750000Y-98417000D02*
X97750000Y-97417000D01*
X90829320Y-90629475D02*
X90829320Y-91629475D01*
X89479320Y-91629475D02*
X89479320Y-90629475D01*
X91043320Y-95853875D02*
X90027320Y-95853875D01*
X90967120Y-97987475D02*
X90027320Y-97987475D01*
X78587695Y-69403981D02*
X78587695Y-70213505D01*
X78635314Y-70308743D01*
X78682933Y-70356362D01*
X78778171Y-70403981D01*
X78968648Y-70403981D01*
X79063886Y-70356362D01*
X79111505Y-70308743D01*
X79159124Y-70213505D01*
X79159124Y-69403981D01*
X79778171Y-69832552D02*
X79682933Y-69784933D01*
X79635314Y-69737314D01*
X79587695Y-69642076D01*
X79587695Y-69594457D01*
X79635314Y-69499219D01*
X79682933Y-69451600D01*
X79778171Y-69403981D01*
X79968648Y-69403981D01*
X80063886Y-69451600D01*
X80111505Y-69499219D01*
X80159124Y-69594457D01*
X80159124Y-69642076D01*
X80111505Y-69737314D01*
X80063886Y-69784933D01*
X79968648Y-69832552D01*
X79778171Y-69832552D01*
X79682933Y-69880171D01*
X79635314Y-69927790D01*
X79587695Y-70023029D01*
X79587695Y-70213505D01*
X79635314Y-70308743D01*
X79682933Y-70356362D01*
X79778171Y-70403981D01*
X79968648Y-70403981D01*
X80063886Y-70356362D01*
X80111505Y-70308743D01*
X80159124Y-70213505D01*
X80159124Y-70023029D01*
X80111505Y-69927790D01*
X80063886Y-69880171D01*
X79968648Y-69832552D01*
X100037995Y-69200781D02*
X100037995Y-70010305D01*
X100085614Y-70105543D01*
X100133233Y-70153162D01*
X100228471Y-70200781D01*
X100418948Y-70200781D01*
X100514186Y-70153162D01*
X100561805Y-70105543D01*
X100609424Y-70010305D01*
X100609424Y-69200781D01*
X100990376Y-69200781D02*
X101657043Y-69200781D01*
X101228471Y-70200781D01*
X77935426Y-119928255D02*
X77935426Y-118928255D01*
X78316379Y-118928255D01*
X78411617Y-118975874D01*
X78459236Y-119023493D01*
X78506855Y-119118731D01*
X78506855Y-119261588D01*
X78459236Y-119356826D01*
X78411617Y-119404445D01*
X78316379Y-119452064D01*
X77935426Y-119452064D01*
X78840188Y-118928255D02*
X79459236Y-118928255D01*
X79125902Y-119309207D01*
X79268760Y-119309207D01*
X79363998Y-119356826D01*
X79411617Y-119404445D01*
X79459236Y-119499684D01*
X79459236Y-119737779D01*
X79411617Y-119833017D01*
X79363998Y-119880636D01*
X79268760Y-119928255D01*
X78983045Y-119928255D01*
X78887807Y-119880636D01*
X78840188Y-119833017D01*
X100693826Y-119928255D02*
X100693826Y-118928255D01*
X101074779Y-118928255D01*
X101170017Y-118975874D01*
X101217636Y-119023493D01*
X101265255Y-119118731D01*
X101265255Y-119261588D01*
X101217636Y-119356826D01*
X101170017Y-119404445D01*
X101074779Y-119452064D01*
X100693826Y-119452064D01*
X101646207Y-119023493D02*
X101693826Y-118975874D01*
X101789064Y-118928255D01*
X102027160Y-118928255D01*
X102122398Y-118975874D01*
X102170017Y-119023493D01*
X102217636Y-119118731D01*
X102217636Y-119213969D01*
X102170017Y-119356826D01*
X101598588Y-119928255D01*
X102217636Y-119928255D01*
X84856854Y-78807018D02*
X84809235Y-78854637D01*
X84666378Y-78902256D01*
X84571140Y-78902256D01*
X84428282Y-78854637D01*
X84333044Y-78759399D01*
X84285425Y-78664161D01*
X84237806Y-78473685D01*
X84237806Y-78330827D01*
X84285425Y-78140351D01*
X84333044Y-78045113D01*
X84428282Y-77949875D01*
X84571140Y-77902256D01*
X84666378Y-77902256D01*
X84809235Y-77949875D01*
X84856854Y-77997494D01*
X85809235Y-78902256D02*
X85237806Y-78902256D01*
X85523520Y-78902256D02*
X85523520Y-77902256D01*
X85428282Y-78045113D01*
X85333044Y-78140351D01*
X85237806Y-78187970D01*
X90684263Y-91296141D02*
X90731882Y-91343760D01*
X90779501Y-91486617D01*
X90779501Y-91581855D01*
X90731882Y-91724713D01*
X90636644Y-91819951D01*
X90541406Y-91867570D01*
X90350930Y-91915189D01*
X90208072Y-91915189D01*
X90017596Y-91867570D01*
X89922358Y-91819951D01*
X89827120Y-91724713D01*
X89779501Y-91581855D01*
X89779501Y-91486617D01*
X89827120Y-91343760D01*
X89874739Y-91296141D01*
X90779501Y-90819951D02*
X90779501Y-90629475D01*
X90731882Y-90534236D01*
X90684263Y-90486617D01*
X90541406Y-90391379D01*
X90350930Y-90343760D01*
X89969977Y-90343760D01*
X89874739Y-90391379D01*
X89827120Y-90438998D01*
X89779501Y-90534236D01*
X89779501Y-90724713D01*
X89827120Y-90819951D01*
X89874739Y-90867570D01*
X89969977Y-90915189D01*
X90208072Y-90915189D01*
X90303310Y-90867570D01*
X90350930Y-90819951D01*
X90398549Y-90724713D01*
X90398549Y-90534236D01*
X90350930Y-90438998D01*
X90303310Y-90391379D01*
X90208072Y-90343760D01*
X87995501Y-83796732D02*
X87519310Y-84130066D01*
X87995501Y-84368161D02*
X86995501Y-84368161D01*
X86995501Y-83987208D01*
X87043120Y-83891970D01*
X87090739Y-83844351D01*
X87185977Y-83796732D01*
X87328834Y-83796732D01*
X87424072Y-83844351D01*
X87471691Y-83891970D01*
X87519310Y-83987208D01*
X87519310Y-84368161D01*
X87995501Y-82844351D02*
X87995501Y-83415780D01*
X87995501Y-83130066D02*
X86995501Y-83130066D01*
X87138358Y-83225304D01*
X87233596Y-83320542D01*
X87281215Y-83415780D01*
X86995501Y-81939589D02*
X86995501Y-82415780D01*
X87471691Y-82463399D01*
X87424072Y-82415780D01*
X87376453Y-82320542D01*
X87376453Y-82082446D01*
X87424072Y-81987208D01*
X87471691Y-81939589D01*
X87566930Y-81891970D01*
X87805025Y-81891970D01*
X87900263Y-81939589D01*
X87947882Y-81987208D01*
X87995501Y-82082446D01*
X87995501Y-82320542D01*
X87947882Y-82415780D01*
X87900263Y-82463399D01*
M02*
