G04 #@! TF.FileFunction,Soldermask,Bot*
%FSLAX46Y46*%
G04 Gerber Fmt 4.6, Leading zero omitted, Abs format (unit mm)*
G04 Created by KiCad (PCBNEW 4.0.4-stable) date 12/03/16 16:19:23*
%MOMM*%
%LPD*%
G01*
G04 APERTURE LIST*
%ADD10C,0.100000*%
%ADD11C,0.150000*%
%ADD12R,2.432000X2.127200*%
%ADD13O,2.432000X2.127200*%
%ADD14C,1.900000*%
%ADD15O,2.600000X2.900000*%
%ADD16R,1.598880X2.099260*%
%ADD17O,1.598880X2.099260*%
G04 APERTURE END LIST*
D10*
D11*
X80807120Y-127451475D02*
X99399920Y-127451475D01*
X80299120Y-126943474D02*
X80807120Y-127451475D01*
X79283120Y-125927474D02*
X80299120Y-126943474D01*
X99907920Y-126943475D02*
X99399920Y-127451475D01*
X100923920Y-125927475D02*
X99907920Y-126943475D01*
X101838320Y-125927474D02*
X100923920Y-125927475D01*
X101838321Y-125927475D02*
G75*
G03X102752720Y-125013074I-1J914400D01*
G01*
X102752720Y-68117075D02*
X102752720Y-125013074D01*
X77352720Y-124860675D02*
X77352720Y-68117075D01*
X79283120Y-125927474D02*
X78216320Y-125927475D01*
X77352719Y-124860674D02*
G75*
G03X78216320Y-125927475I965201J-101600D01*
G01*
X102752719Y-68117074D02*
G75*
G03X101787520Y-67355075I-863599J-101600D01*
G01*
X101787520Y-67355075D02*
X78317921Y-67355075D01*
X78317919Y-67355076D02*
G75*
G03X77352720Y-68117075I-101600J-863599D01*
G01*
D12*
X78622721Y-119577474D03*
D13*
X78622721Y-117037474D03*
X78622721Y-114497474D03*
X78622721Y-111957474D03*
X78622721Y-109417474D03*
X78622721Y-106877474D03*
X78622721Y-104337474D03*
X78622721Y-101797474D03*
X78622721Y-99257474D03*
X78622721Y-96717474D03*
X78622721Y-94177474D03*
X78622721Y-91637474D03*
X78622721Y-89097474D03*
X78622721Y-86557474D03*
X78622721Y-84017474D03*
X78622721Y-81477474D03*
X78622721Y-78937474D03*
X78622721Y-76397474D03*
X78622721Y-73857474D03*
D12*
X101482721Y-119577474D03*
D13*
X101482721Y-117037474D03*
X101482721Y-114497474D03*
X101482721Y-111957474D03*
X101482721Y-109417474D03*
X101482721Y-106877474D03*
X101482721Y-104337474D03*
X101482721Y-101797474D03*
X101482721Y-99257474D03*
X101482721Y-96717474D03*
X101482721Y-94177474D03*
X101482721Y-91637474D03*
X101482721Y-89097474D03*
X101482721Y-86557474D03*
X101482721Y-84017474D03*
X101482721Y-81477474D03*
X101482721Y-78937474D03*
X101482721Y-76397474D03*
X101482721Y-73857474D03*
D14*
X95678120Y-72028674D03*
D15*
X96878120Y-69378674D03*
D14*
X90828120Y-72028674D03*
D15*
X89628120Y-69378674D03*
D16*
X86278280Y-74009874D03*
D17*
X84276760Y-74009874D03*
M02*
