G04 #@! TF.FileFunction,Soldermask,Top*
%FSLAX46Y46*%
G04 Gerber Fmt 4.6, Leading zero omitted, Abs format (unit mm)*
G04 Created by KiCad (PCBNEW 4.0.4-stable) date 12/03/16 16:19:23*
%MOMM*%
%LPD*%
G01*
G04 APERTURE LIST*
%ADD10C,0.100000*%
%ADD11C,0.150000*%
%ADD12R,2.400000X1.300000*%
%ADD13R,1.300000X2.400000*%
%ADD14R,6.400000X6.400000*%
%ADD15R,1.400760X1.400760*%
%ADD16R,2.432000X2.127200*%
%ADD17O,2.432000X2.127200*%
%ADD18R,0.800000X2.000000*%
%ADD19C,1.900000*%
%ADD20O,2.600000X2.900000*%
%ADD21R,1.310000X1.620000*%
%ADD22R,1.197560X1.197560*%
%ADD23R,2.429460X3.051760*%
%ADD24R,1.460000X1.050000*%
%ADD25R,1.598880X2.099260*%
%ADD26O,1.598880X2.099260*%
%ADD27R,1.200100X1.200100*%
%ADD28R,1.050000X1.460000*%
%ADD29C,0.699720*%
%ADD30R,0.900000X1.300000*%
%ADD31R,1.300000X0.900000*%
%ADD32R,1.200000X1.150000*%
%ADD33R,1.150000X1.200000*%
%ADD34R,2.000000X1.400000*%
%ADD35R,1.800000X2.300000*%
G04 APERTURE END LIST*
D10*
D11*
X80807120Y-127451475D02*
X99399920Y-127451475D01*
X80299120Y-126943474D02*
X80807120Y-127451475D01*
X79283120Y-125927474D02*
X80299120Y-126943474D01*
X99907920Y-126943475D02*
X99399920Y-127451475D01*
X100923920Y-125927475D02*
X99907920Y-126943475D01*
X101838320Y-125927474D02*
X100923920Y-125927475D01*
X101838321Y-125927475D02*
G75*
G03X102752720Y-125013074I-1J914400D01*
G01*
X102752720Y-68117075D02*
X102752720Y-125013074D01*
X77352720Y-124860675D02*
X77352720Y-68117075D01*
X79283120Y-125927474D02*
X78216320Y-125927475D01*
X77352719Y-124860674D02*
G75*
G03X78216320Y-125927475I965201J-101600D01*
G01*
X102752719Y-68117074D02*
G75*
G03X101787520Y-67355075I-863599J-101600D01*
G01*
X101787520Y-67355075D02*
X78317921Y-67355075D01*
X78317919Y-67355076D02*
G75*
G03X77352720Y-68117075I-101600J-863599D01*
G01*
D12*
X99052721Y-118375875D03*
X99052721Y-117105875D03*
X99052721Y-115835875D03*
X99052721Y-114565875D03*
X99052721Y-113295875D03*
X99052721Y-112025875D03*
X99052721Y-110755875D03*
X99052721Y-109485875D03*
X99052721Y-108215875D03*
X99052721Y-106945875D03*
X99052721Y-105675875D03*
X99052721Y-104405875D03*
X99052721Y-103135875D03*
X99052721Y-101865875D03*
X81052721Y-118375875D03*
X81052721Y-101865875D03*
X81052721Y-103135875D03*
X81052721Y-104405875D03*
X81052721Y-105675875D03*
X81052721Y-106945875D03*
X81052721Y-108215875D03*
X81052721Y-109485875D03*
X81052721Y-110755875D03*
X81052721Y-112025875D03*
X81052721Y-113295875D03*
X81052721Y-114565875D03*
X81052721Y-115835875D03*
X81052721Y-117105875D03*
D13*
X95767721Y-100375875D03*
X94482721Y-100375875D03*
X93227721Y-100375875D03*
X91957721Y-100375875D03*
X90687721Y-100375875D03*
X89417721Y-100375875D03*
X88147721Y-100375875D03*
X86877721Y-100375875D03*
X85607721Y-100375875D03*
X84337721Y-100375875D03*
D14*
X89752721Y-110675875D03*
D15*
X83107520Y-97444275D03*
X84907520Y-93044275D03*
X84907520Y-97444275D03*
X83107520Y-93044275D03*
X97048720Y-93044275D03*
X95248720Y-97444275D03*
X95248720Y-93044275D03*
X97048720Y-97444275D03*
D16*
X78622721Y-119577474D03*
D17*
X78622721Y-117037474D03*
X78622721Y-114497474D03*
X78622721Y-111957474D03*
X78622721Y-109417474D03*
X78622721Y-106877474D03*
X78622721Y-104337474D03*
X78622721Y-101797474D03*
X78622721Y-99257474D03*
X78622721Y-96717474D03*
X78622721Y-94177474D03*
X78622721Y-91637474D03*
X78622721Y-89097474D03*
X78622721Y-86557474D03*
X78622721Y-84017474D03*
X78622721Y-81477474D03*
X78622721Y-78937474D03*
X78622721Y-76397474D03*
X78622721Y-73857474D03*
D16*
X101482721Y-119577474D03*
D17*
X101482721Y-117037474D03*
X101482721Y-114497474D03*
X101482721Y-111957474D03*
X101482721Y-109417474D03*
X101482721Y-106877474D03*
X101482721Y-104337474D03*
X101482721Y-101797474D03*
X101482721Y-99257474D03*
X101482721Y-96717474D03*
X101482721Y-94177474D03*
X101482721Y-91637474D03*
X101482721Y-89097474D03*
X101482721Y-86557474D03*
X101482721Y-84017474D03*
X101482721Y-81477474D03*
X101482721Y-78937474D03*
X101482721Y-76397474D03*
X101482721Y-73857474D03*
D18*
X94553120Y-72128674D03*
X93903120Y-72128674D03*
X93253120Y-72128674D03*
X92603120Y-72128674D03*
X91953120Y-72128674D03*
D19*
X95678120Y-72028674D03*
D20*
X96878120Y-69378674D03*
D19*
X90828120Y-72028674D03*
D20*
X89628120Y-69378674D03*
D21*
X95056200Y-84074000D03*
X91786200Y-84074000D03*
D22*
X87665120Y-81109174D03*
X87665120Y-79610574D03*
X91881520Y-89033976D03*
X91881520Y-87535376D03*
X93240420Y-93313875D03*
X91741820Y-93313875D03*
D23*
X89747920Y-75582136D03*
X89747920Y-79752816D03*
D24*
X86123520Y-79989075D03*
X86123520Y-79039075D03*
X86123520Y-78089075D03*
X83923520Y-78089075D03*
X83923520Y-79989075D03*
D25*
X86278280Y-74009874D03*
D26*
X84276760Y-74009874D03*
D27*
X97179920Y-74655036D03*
X99079920Y-74655036D03*
X98129920Y-72656056D03*
D28*
X95625519Y-87997475D03*
X94675519Y-87997475D03*
X93725519Y-87997475D03*
X93725519Y-90197475D03*
X95625519Y-90197475D03*
D10*
G36*
X98171886Y-79712225D02*
X97725603Y-80158508D01*
X96735116Y-79168021D01*
X97181399Y-78721738D01*
X98171886Y-79712225D01*
X98171886Y-79712225D01*
G37*
G36*
X97818064Y-80066047D02*
X97371781Y-80512330D01*
X96381294Y-79521843D01*
X96827577Y-79075560D01*
X97818064Y-80066047D01*
X97818064Y-80066047D01*
G37*
G36*
X97464241Y-80419869D02*
X97017958Y-80866152D01*
X96027471Y-79875665D01*
X96473754Y-79429382D01*
X97464241Y-80419869D01*
X97464241Y-80419869D01*
G37*
G36*
X97110419Y-80773691D02*
X96664136Y-81219974D01*
X95673649Y-80229487D01*
X96119932Y-79783204D01*
X97110419Y-80773691D01*
X97110419Y-80773691D01*
G37*
G36*
X96756597Y-81127513D02*
X96310314Y-81573796D01*
X95319827Y-80583309D01*
X95766110Y-80137026D01*
X96756597Y-81127513D01*
X96756597Y-81127513D01*
G37*
G36*
X96402775Y-81481336D02*
X95956492Y-81927619D01*
X94966005Y-80937132D01*
X95412288Y-80490849D01*
X96402775Y-81481336D01*
X96402775Y-81481336D01*
G37*
G36*
X96048953Y-81835158D02*
X95602670Y-82281441D01*
X94612183Y-81290954D01*
X95058466Y-80844671D01*
X96048953Y-81835158D01*
X96048953Y-81835158D01*
G37*
G36*
X94637257Y-81290954D02*
X93646770Y-82281441D01*
X93200487Y-81835158D01*
X94190974Y-80844671D01*
X94637257Y-81290954D01*
X94637257Y-81290954D01*
G37*
G36*
X94283435Y-80937132D02*
X93292948Y-81927619D01*
X92846665Y-81481336D01*
X93837152Y-80490849D01*
X94283435Y-80937132D01*
X94283435Y-80937132D01*
G37*
G36*
X93929613Y-80583309D02*
X92939126Y-81573796D01*
X92492843Y-81127513D01*
X93483330Y-80137026D01*
X93929613Y-80583309D01*
X93929613Y-80583309D01*
G37*
G36*
X93575791Y-80229487D02*
X92585304Y-81219974D01*
X92139021Y-80773691D01*
X93129508Y-79783204D01*
X93575791Y-80229487D01*
X93575791Y-80229487D01*
G37*
G36*
X93221969Y-79875665D02*
X92231482Y-80866152D01*
X91785199Y-80419869D01*
X92775686Y-79429382D01*
X93221969Y-79875665D01*
X93221969Y-79875665D01*
G37*
G36*
X92868146Y-79521843D02*
X91877659Y-80512330D01*
X91431376Y-80066047D01*
X92421863Y-79075560D01*
X92868146Y-79521843D01*
X92868146Y-79521843D01*
G37*
G36*
X92514324Y-79168021D02*
X91523837Y-80158508D01*
X91077554Y-79712225D01*
X92068041Y-78721738D01*
X92514324Y-79168021D01*
X92514324Y-79168021D01*
G37*
G36*
X92514324Y-78300529D02*
X92068041Y-78746812D01*
X91077554Y-77756325D01*
X91523837Y-77310042D01*
X92514324Y-78300529D01*
X92514324Y-78300529D01*
G37*
G36*
X92868146Y-77946707D02*
X92421863Y-78392990D01*
X91431376Y-77402503D01*
X91877659Y-76956220D01*
X92868146Y-77946707D01*
X92868146Y-77946707D01*
G37*
G36*
X93221969Y-77592885D02*
X92775686Y-78039168D01*
X91785199Y-77048681D01*
X92231482Y-76602398D01*
X93221969Y-77592885D01*
X93221969Y-77592885D01*
G37*
G36*
X93575791Y-77239063D02*
X93129508Y-77685346D01*
X92139021Y-76694859D01*
X92585304Y-76248576D01*
X93575791Y-77239063D01*
X93575791Y-77239063D01*
G37*
G36*
X93929613Y-76885241D02*
X93483330Y-77331524D01*
X92492843Y-76341037D01*
X92939126Y-75894754D01*
X93929613Y-76885241D01*
X93929613Y-76885241D01*
G37*
G36*
X94283435Y-76531418D02*
X93837152Y-76977701D01*
X92846665Y-75987214D01*
X93292948Y-75540931D01*
X94283435Y-76531418D01*
X94283435Y-76531418D01*
G37*
G36*
X94637257Y-76177596D02*
X94190974Y-76623879D01*
X93200487Y-75633392D01*
X93646770Y-75187109D01*
X94637257Y-76177596D01*
X94637257Y-76177596D01*
G37*
G36*
X96048953Y-75633392D02*
X95058466Y-76623879D01*
X94612183Y-76177596D01*
X95602670Y-75187109D01*
X96048953Y-75633392D01*
X96048953Y-75633392D01*
G37*
G36*
X96402775Y-75987214D02*
X95412288Y-76977701D01*
X94966005Y-76531418D01*
X95956492Y-75540931D01*
X96402775Y-75987214D01*
X96402775Y-75987214D01*
G37*
G36*
X96756597Y-76341037D02*
X95766110Y-77331524D01*
X95319827Y-76885241D01*
X96310314Y-75894754D01*
X96756597Y-76341037D01*
X96756597Y-76341037D01*
G37*
G36*
X97110419Y-76694859D02*
X96119932Y-77685346D01*
X95673649Y-77239063D01*
X96664136Y-76248576D01*
X97110419Y-76694859D01*
X97110419Y-76694859D01*
G37*
G36*
X97464241Y-77048681D02*
X96473754Y-78039168D01*
X96027471Y-77592885D01*
X97017958Y-76602398D01*
X97464241Y-77048681D01*
X97464241Y-77048681D01*
G37*
G36*
X97818064Y-77402503D02*
X96827577Y-78392990D01*
X96381294Y-77946707D01*
X97371781Y-76956220D01*
X97818064Y-77402503D01*
X97818064Y-77402503D01*
G37*
G36*
X98171886Y-77756325D02*
X97181399Y-78746812D01*
X96735116Y-78300529D01*
X97725603Y-77310042D01*
X98171886Y-77756325D01*
X98171886Y-77756325D01*
G37*
G36*
X95969029Y-78734275D02*
X94624720Y-80078584D01*
X93280411Y-78734275D01*
X94624720Y-77389966D01*
X95969029Y-78734275D01*
X95969029Y-78734275D01*
G37*
D29*
X94624720Y-81916878D03*
D27*
X85394360Y-86471074D03*
X85394360Y-88371074D03*
X87393340Y-87421074D03*
X83941480Y-91469874D03*
X83941480Y-89569874D03*
X81942500Y-90519874D03*
D30*
X98540000Y-85547200D03*
X97040000Y-85547200D03*
X84781520Y-81629875D03*
X86281520Y-81629875D03*
D31*
X91881520Y-90379475D03*
X91881520Y-91879475D03*
D30*
X84883120Y-83153875D03*
X86383120Y-83153875D03*
X82444720Y-87979875D03*
X83944720Y-87979875D03*
D31*
X85531520Y-91269874D03*
X85531520Y-89769874D03*
D30*
X98067120Y-91891475D03*
X96567120Y-91891475D03*
D31*
X82178720Y-85732675D03*
X82178720Y-84232675D03*
X89027000Y-87070500D03*
X89027000Y-88570500D03*
X83855120Y-84893075D03*
X83855120Y-86393075D03*
X98552000Y-94500000D03*
X98552000Y-96000000D03*
D32*
X85773520Y-76549875D03*
X84273520Y-76549875D03*
X93569920Y-86303475D03*
X95069920Y-86303475D03*
X96684400Y-83921600D03*
X98184400Y-83921600D03*
X96684400Y-82499200D03*
X98184400Y-82499200D03*
X94917521Y-91739074D03*
X93417521Y-91739074D03*
D33*
X83448720Y-82938674D03*
X83448720Y-81438674D03*
D34*
X97672720Y-90343474D03*
X97672720Y-87343474D03*
D32*
X91842719Y-94990275D03*
X93342719Y-94990275D03*
D33*
X88427120Y-90379475D03*
X88427120Y-91879475D03*
X87157120Y-96349875D03*
X87157120Y-94849875D03*
D31*
X87766720Y-83903875D03*
X87766720Y-82403875D03*
X89443120Y-83903875D03*
X89443120Y-82403875D03*
X98425000Y-98667000D03*
X98425000Y-97167000D03*
X90154320Y-91879475D03*
X90154320Y-90379475D03*
D35*
X91760720Y-96920675D03*
X89239920Y-96920675D03*
M02*
